<?xml version="1.0" encoding="UTF-8"?>
<svg width="80px" height="80px" viewBox="0 0 80 80" version="1.1" xmlns="http://www.w3.org/2000/svg" xmlns:xlink="http://www.w3.org/1999/xlink">
    <!-- Generator: Sketch 54 (76480) - https://sketchapp.com -->
    <title>eveg</title>
    <desc>Created with Sketch.</desc>
    <defs>
        <polygon id="path-1" points="6.36098595e-05 0.012213093 78.3551338 0.012213093 78.3551338 78.3673469 6.36098595e-05 78.3673469"></polygon>
    </defs>
    <g id="web" stroke="none" stroke-width="1" fill="none" fill-rule="evenodd">
        <g id="eveg">
            <g id="Group-36-Copy">
                <g id="Group-32">
                    <g id="Group-31">
                        <g id="Group-30" transform="translate(0.816327, 0.816327)">
                            <g id="Group-16" transform="translate(6.311464, 6.311464)" fill="#FFFFFF">
                                <polygon id="Fill-1" points="38.4986956 48.787506 28.1063633 48.787506 23.1157758 38.9432986 32.3657352 38.9432986 28.8196138 31.9485257 19.5697818 31.9485257 15.2925722 23.5117075 25.0953708 23.5117075 21.4728024 16.3662066 5.19277703 16.3662066 25.2513227 55.9330069 42.1212641 55.9330069"></polygon>
                                <g id="Group-15">
                                    <path d="M11.9731798,52.9622893 C10.7200861,50.0192073 9.74615137,46.7993871 9.10629,43.3813144 L18.3167518,43.3813144 C18.6814039,46.7558124 19.2390848,49.9767792 19.9761613,52.9622893 L11.9731798,52.9622893 Z M20.5603438,53.4186779 L23.9767601,53.4186779 L23.7453805,52.9622893 L20.4459281,52.9622893 C19.7038826,49.9804742 19.1422519,46.7592525 18.7753063,43.3813144 L18.8881931,43.3813144 L18.1776182,41.9797861 C18.2065407,42.2958945 18.2361002,42.6113658 18.2682079,42.9249259 L9.02309018,42.9249259 C8.50477953,40.007581 8.22906069,36.9498285 8.22906069,33.8002121 C8.22906069,33.4951886 8.23186375,33.191057 8.23696021,32.8876898 L13.5685013,32.8876898 L13.3371217,32.431556 L8.2466435,32.431556 C8.31965038,29.5660677 8.6213612,26.7842889 9.12501951,24.1230414 L8.78444813,23.4510723 C8.20485247,26.3438267 7.86886792,29.3545644 7.79191127,32.431556 L0.0223480058,32.431556 C0.0203094192,32.5835582 0.0167418926,32.7354329 0.0167418926,32.8876898 L7.78057163,32.8876898 C7.77560258,33.1913118 7.77292693,33.4954434 7.77292693,33.8002121 C7.77292693,36.91874 8.03883508,39.9780215 8.5535782,42.9249259 L1.57320278,42.9249259 C1.62187403,43.0773102 1.67105494,43.2296946 1.72189219,43.3813144 L8.63652319,43.3813144 C9.25778246,46.7553027 10.2078912,49.9761422 11.4635332,52.9622893 L6.85925789,52.9622893 C6.97813297,53.1155656 7.09930147,53.2671854 7.2209796,53.4186779 L11.6575812,53.4186779 C12.6656622,55.7388443 13.8596369,57.9127421 15.2296946,59.8998544 C15.534081,60.3415907 15.8456025,60.7703309 16.162985,61.1872219 C16.5193554,61.398343 16.8794208,61.6025839 17.2427989,61.7995623 C15.2733968,59.4028215 13.5593276,56.5759389 12.1704131,53.4186779 L20.0896851,53.4186779 C20.6771803,55.7224082 21.3725931,57.8812714 22.1696805,59.85577 C22.907394,61.6831081 23.7104697,63.2953753 24.5657842,64.6830157 C24.7793262,64.7383124 24.9935052,64.7913156 25.2084487,64.8424077 C24.266112,63.3846909 23.3909213,61.6619577 22.5928146,59.6850384 C21.8159857,57.7611222 21.1367541,55.6598491 20.5603438,53.4186779 L20.5603438,53.4186779 Z" id="Fill-3"></path>
                                    <path d="M8.01744266,21.9379824 L1.87874869,21.9379824 C1.8253632,22.0896023 1.77312442,22.2417318 1.72190493,22.3942435 L8.24856742,22.3942435 L8.01744266,21.9379824 Z" id="Fill-5"></path>
                                    <path d="M17.9499463,28.7533852 L18.3656906,29.573534 C18.4607397,27.5084458 18.6242089,25.4819633 18.855461,23.5116693 L18.396779,23.5116693 C18.1969975,25.221279 18.0479259,26.9721701 17.9499463,28.7533852" id="Fill-7"></path>
                                    <path d="M57.6217594,42.9249513 L47.4638645,42.9249513 C47.7659575,39.9783018 47.9220368,36.9188929 47.9220368,33.8002376 C47.9220368,33.4954689 47.9203805,33.1913373 47.9175774,32.8877153 L58.4077619,32.8877153 C58.4128584,33.1910825 58.415534,33.4952141 58.415534,33.8002376 C58.415534,36.949854 58.1398152,40.0076065 57.6217594,42.9249513 L57.6217594,42.9249513 Z M54.6715423,52.9623148 L45.7561659,52.9623148 C46.493115,49.9768047 47.0506684,46.7558378 47.415448,43.3813399 L57.5384321,43.3813399 C56.8984433,46.7994126 55.9247634,50.0192328 54.6715423,52.9623148 L54.6715423,52.9623148 Z M37.9567883,42.9249513 C38.0596095,39.9084802 38.1128676,36.7718599 38.1128676,33.5720433 C38.1128676,33.3435942 38.112358,33.1156548 38.1118483,32.8877153 L47.4613162,32.8877153 C47.4642467,33.1913373 47.4657756,33.4954689 47.4657756,33.8002376 C47.4657756,36.9202944 47.3088045,39.9798307 47.0054373,42.9249513 L37.9567883,42.9249513 Z M37.8878586,22.3942181 L46.7381276,22.3942181 C47.1610069,25.6048646 47.4037262,28.9760498 47.4545634,32.4315815 L38.1103194,32.4315815 C38.0966863,28.9791077 38.0211312,25.6086869 37.8878586,22.3942181 L37.8878586,22.3942181 Z M37.1919361,11.9007208 L44.5342881,11.9007208 C45.4622272,14.9677744 46.1818483,18.3495348 46.6760781,21.9379569 L37.8688743,21.9379569 C37.7135595,18.356415 37.4860022,14.9761836 37.1919361,11.9007208 L37.1919361,11.9007208 Z M28.7762683,21.9379569 C28.9319654,18.3548861 29.1600322,14.974145 29.4547354,11.9007208 L36.7337638,11.9007208 C37.028467,14.974145 37.2565338,18.3548861 37.4122309,21.9379569 L28.7762683,21.9379569 Z M53.3846845,11.9007208 C54.9458596,14.9188483 56.1928376,18.2992072 57.0549049,21.9379569 L47.1362891,21.9379569 C46.6457542,18.3545038 45.931994,14.9729983 45.0113173,11.9007208 L53.3846845,11.9007208 Z M58.3980786,32.4315815 L47.9108246,32.4315815 C47.8602421,28.9778336 47.6185422,25.607158 47.1977015,22.3942181 L57.1606566,22.3942181 C57.8809147,25.5711005 58.3091453,28.9393552 58.3980786,32.4315815 L58.3980786,32.4315815 Z M58.8717952,33.8002376 C58.8717952,33.4954689 58.8691196,33.1913373 58.8641505,32.8877153 L65.7154579,32.8877153 C65.7154579,32.7353309 65.7118904,32.5835836 65.7098518,32.4315815 L58.8528109,32.4315815 C58.7664258,28.977961 58.3545038,25.6074128 57.6371762,22.3942181 L64.0103076,22.3942181 C63.9590881,22.2418337 63.9068493,22.0897042 63.8534638,21.9379569 L57.532826,21.9379569 C56.6967507,18.3551409 55.4804789,14.9740176 53.9119139,11.9007208 L58.1384137,11.9007208 C58.0111294,11.7479542 57.8839726,11.5951877 57.7536304,11.4444597 L53.6733993,11.4444597 C52.9839748,10.1364515 52.2313541,8.88475934 51.4150276,7.70059533 C50.4539614,6.30671173 49.426896,5.03756414 48.3407115,3.89404446 C47.9012687,3.65871512 47.4563472,3.43472541 47.0069662,3.22016417 C49.3533794,5.44948605 51.4291703,8.23355832 53.1446409,11.4444597 L44.8711645,11.4444597 C44.4712193,10.152378 44.0352166,8.91546555 43.5625193,7.74467977 C42.3970848,4.85778629 41.0692005,2.50462027 39.6279197,0.733215902 C39.3873665,0.683143118 39.1460488,0.635873391 38.9039666,0.591151897 C40.4773733,2.38867565 41.9008164,4.84746594 43.1393852,7.9154114 C43.5910595,9.03408581 44.0092246,10.2134082 44.3940078,11.4444597 L37.1475969,11.4444597 C37.013942,10.089564 36.8672912,8.79493411 36.7077718,7.5724192 C36.2952128,4.40891499 35.8316892,1.92553425 35.320641,0.12813791 C35.1575541,0.116161214 34.9938301,0.107752044 34.8303609,0.0981961694 C35.3612853,1.91827179 35.8403532,4.44930449 36.2554604,7.63153821 C36.412559,8.83583326 36.5570438,10.1108418 36.6891697,11.4444597 L29.4993295,11.4444597 C29.631328,10.1108418 29.7759402,8.83583326 29.9330388,7.63153821 C30.3500572,4.43439733 30.8316733,1.89521028 31.3655281,0.0732234832 C31.202059,0.0804859481 31.038972,0.0900418229 30.8760125,0.0997251093 C30.3615242,1.89903263 29.8954524,4.39222407 29.4806,7.5724192 C29.321208,8.79493411 29.1745572,10.089564 29.0409023,11.4444597 L21.3382302,11.4444597 C21.722886,10.2134082 22.1410511,9.03408581 22.5927254,7.9154114 C23.8314216,4.84746594 25.2547373,2.38867565 26.828144,0.591151897 C26.5861892,0.635873391 26.3448715,0.683143118 26.1041909,0.733215902 C24.6629101,2.50474768 23.3351532,4.8579137 22.1697187,7.74467977 C21.6970214,8.91546555 21.2610187,10.152378 20.8610735,11.4444597 L13.499992,11.4444597 C15.4225066,7.84622686 17.7973326,4.78414234 20.4987147,2.4383662 C20.0567237,2.61776182 19.6189372,2.80735038 19.1853553,3.00623999 C17.7696843,4.36801585 16.4468964,5.93492449 15.2296054,7.70059533 C14.4132788,8.88475934 13.6607856,10.1364515 12.971361,11.4444597 L7.97860758,11.4444597 C7.84839286,11.5951877 7.72110861,11.7479542 7.59382436,11.9007208 L12.7328464,11.9007208 C12.0051984,13.3262025 11.3543796,14.8187028 10.781282,16.3662448 L11.2830291,16.3662448 C11.8686131,14.8058342 12.5294974,13.3130791 13.2599485,11.9007208 L20.7209207,11.9007208 C20.2937094,13.3259477 19.9117292,14.8185753 19.5754898,16.3662448 L20.0424536,16.3662448 C20.3817508,14.8173012 20.7670437,13.3246736 21.1979499,11.9007208 L28.9964357,11.9007208 C28.702497,14.9761836 28.4749397,18.356415 28.3197523,21.9379569 L24.2974935,21.9379569 L24.5288731,22.3942181 L28.3005132,22.3942181 C28.1734837,25.4583412 28.099585,28.6651653 28.0811103,31.9485639 L28.5373714,31.9485639 C28.5558461,28.6645283 28.6298723,25.4575767 28.7571566,22.3942181 L37.4313426,22.3942181 C37.5648701,25.6079225 37.6405526,28.9784706 37.6541856,32.4315815 L29.0644735,32.4315815 L29.2958531,32.8877153 L37.6555872,32.8877153 C37.6560968,33.1156548 37.6567339,33.3434668 37.6567339,33.5720433 C37.6567339,36.7723695 37.6033484,39.9092447 37.5002723,42.9249513 L28.6880994,42.9249513 C28.6436328,41.6192366 28.6088494,40.2896959 28.5832396,38.9433368 L28.1269785,38.9433368 C28.1525882,40.2895685 28.1871168,41.6191092 28.2317109,42.9249513 L25.1343333,42.9249513 L25.3655855,43.3813399 L28.2473825,43.3813399 C28.3140188,45.2361989 28.4001491,47.0413674 28.5038622,48.7875442 L28.9608878,48.7875442 C28.8567925,47.0417496 28.7705348,45.2365812 28.7037711,43.3813399 L37.4847281,43.3813399 C37.4180918,45.2365812 37.3315793,47.0417496 37.2277388,48.7875442 L37.6845096,48.7875442 C37.7883501,47.0413674 37.8746078,45.2361989 37.9411167,43.3813399 L46.9568934,43.3813399 C46.5899479,46.759278 46.0283172,49.9804996 45.2863991,52.9623148 L40.6151053,52.9623148 L40.8464849,53.418576 L45.1717286,53.418576 C44.5954457,55.6598746 43.9162141,57.7610203 43.1393852,59.6850638 C42.3412785,61.6619832 41.4659604,63.3847163 40.5238785,64.8424332 C40.7386946,64.7913411 40.9531284,64.7383379 41.1667978,64.6829138 C42.0219849,63.2954008 42.8248058,61.6828787 43.5625193,59.8557955 C44.3596067,57.8812969 45.0548921,55.7224337 45.6423873,53.418576 L54.474309,53.418576 C53.270651,56.1547415 51.8227449,58.6428364 50.176204,60.8180084 C50.5442963,60.5889222 50.9084388,60.3524461 51.2679945,60.108198 C51.3169206,60.0383764 51.3664837,59.9702112 51.4150276,59.8998799 C52.7850852,57.9127676 53.9790599,55.7387424 54.9870136,53.418576 L58.5112202,53.418576 C58.6330257,53.2672109 58.7541942,53.1154636 58.8728145,52.9623148 L55.1811889,52.9623148 C56.4368309,49.9761676 57.3868123,46.7552008 58.0083264,43.3813399 L64.0103076,43.3813399 C64.0612723,43.22972 64.1104532,43.0773357 64.1591244,42.9249513 L58.0911439,42.9249513 C58.6058871,39.978047 58.8717952,36.9187655 58.8717952,33.8002376 L58.8717952,33.8002376 Z" id="Fill-9"></path>
                                    <path d="M36.6657769,55.9330069 C36.540149,57.1822783 36.4033089,58.3788012 36.2553839,59.5127651 C35.937237,61.9521888 35.5812488,64.0075937 35.1934077,65.655154 C35.3549657,65.6438143 35.5160141,65.6303087 35.6770624,65.6168031 C36.0492319,63.9981653 36.3932434,61.9830224 36.7078228,59.5717567 C36.8581685,58.4197004 36.9970472,57.2035561 37.1243315,55.9330069 L36.6657769,55.9330069 Z" id="Fill-11"></path>
                                    <path d="M29.5227605,55.9330069 L29.0640785,55.9330069 C29.1914902,57.2035561 29.3302415,58.4197004 29.4805872,59.5717567 C29.79746,62.0016245 30.1445294,64.0289989 30.5200116,65.6538798 C30.6802955,65.6652195 30.8409616,65.6743931 31.0016277,65.6833119 C30.6112383,64.0311649 30.2529567,61.9660766 29.9330261,59.5127651 C29.7852285,58.3788012 29.6483884,57.1822783 29.5227605,55.9330069" id="Fill-13"></path>
                                </g>
                            </g>
                            <polygon id="Fill-17" fill="#FFFFFF" points="63.494809 29.7303952 65.7444186 22.61608 44.018356 22.6560409 31.5573209 62.0627311 54.0859586 62.0213791 56.3356958 54.9069374 42.1894954 54.9329879 45.2909398 45.1252282 57.8821429 45.1019598 60.0840242 38.137751 47.4929487 38.1610194 50.1510561 29.7549282"></polygon>
                            <g id="Group-29">
                                <path d="M41.1652351,73.983648 C40.5632314,74.0173613 40.3271116,74.7285195 40.3680763,75.4604145 C40.4119671,76.2443424 40.7544426,76.8710268 41.3200615,76.8393491 C41.8908964,76.8074169 42.1510607,76.1523626 42.1058977,75.3476979 C42.0648057,74.6156756 41.751718,73.9509526 41.1652351,73.983648" id="Fill-18" fill="#FFFFFF"></path>
                                <path d="M30.2276851,72.8996088 C30.0612817,72.8572446 29.9429674,72.8380345 29.877322,72.8427416 L29.5778468,74.0219412 L29.8852096,74.0999268 C30.3084697,74.2074275 30.6281728,74.025885 30.7216793,73.6578383 C30.8482629,73.159137 30.4996809,72.9685619 30.2276851,72.8996088" id="Fill-20" fill="#FFFFFF"></path>
                                <g id="Group-24">
                                    <mask id="mask-2" fill="white">
                                        <use xlink:href="#path-1"></use>
                                    </mask>
                                    <g id="Clip-23"></g>
                                    <path d="M62.3705486,62.3827363 C56.1755844,68.5778277 47.9388709,71.9896061 39.1775033,71.9896061 C30.4163901,71.9896061 22.1796766,68.5778277 15.9847124,62.3827363 C9.78949377,56.1877721 6.37771535,47.9510586 6.37771535,39.189691 C6.37771535,30.4285778 9.78949377,22.1918643 15.9847124,15.9967729 C22.1796766,9.80168142 30.4163901,6.38990299 39.1775033,6.38990299 C47.9388709,6.38990299 56.1755844,9.80168142 62.3705486,15.9967729 C68.5656401,22.1918643 71.9775457,30.4285778 71.9775457,39.189691 C71.9775457,47.9510586 68.5656401,56.1877721 62.3705486,62.3827363 L62.3705486,62.3827363 Z M57.9128969,72.7674275 C57.3747575,73.0506186 56.892722,73.1282226 56.4386748,72.9913342 C55.9777578,72.8521558 55.5485184,72.4612096 55.2528598,71.9000435 C54.6227405,70.7041781 55.0813676,69.6459645 56.0975987,69.1106239 C56.4563583,68.9218298 56.7892923,68.8288322 57.0030215,68.8220896 L57.156194,69.4583154 C56.9564591,69.4693835 56.7250464,69.5206531 56.4122131,69.6852754 C55.782221,70.0171916 55.5076809,70.6553257 55.9582931,71.5108783 C56.3896952,72.3295372 57.0447495,72.513497 57.6289425,72.2058797 C57.7943281,72.1187342 57.9062815,72.0304437 57.9516989,71.9714137 L57.4961251,71.1065741 L56.9855924,71.3755166 L56.7018924,70.8372499 L57.860864,70.2269769 L58.8278611,72.0622486 C58.662221,72.2493888 58.3128757,72.5567517 57.9128969,72.7674275 L57.9128969,72.7674275 Z M53.5890803,74.7478569 L52.0008693,71.0788402 L53.9762099,70.2239237 L54.2320488,70.8154954 L52.9630321,71.3648301 L53.3472356,72.2521876 L54.5446276,71.7338945 L54.7946144,72.3110904 L53.5970951,72.8295107 L54.0390565,73.850449 L55.384405,73.2680371 L55.6406255,73.859736 L53.5890803,74.7478569 Z M50.9831116,74.0963647 C50.879682,74.130714 50.7892287,74.1553946 50.7103525,74.1650633 L51.183101,75.5858532 L50.4580758,75.8270618 L49.2119587,72.0831126 C49.4338298,71.9598367 49.7478081,71.816969 50.1669971,71.6775362 C50.6454704,71.5182571 51.0365439,71.492177 51.3473416,71.6190151 C51.6381659,71.7358028 51.8778479,71.9957127 51.9945083,72.3459486 C52.3411821,73.3868603 51.5501299,73.9074434 50.9831116,74.0963647 L50.9831116,74.0963647 Z M49.0071349,75.7620525 C48.727506,76.1639396 48.2228253,76.4475123 47.544617,76.6062825 C47.1853485,76.6903748 46.8908349,76.7327389 46.6875378,76.753603 L45.7915293,72.9263249 C46.0529658,72.8117 46.4000212,72.6983472 46.7796448,72.6095478 C47.4274477,72.4579019 47.8998145,72.4914879 48.2865624,72.6840986 C48.7271243,72.9013899 49.0573867,73.3312653 49.222009,74.0349176 C49.4176729,74.8703695 49.242873,75.4237752 49.0071349,75.7620525 L49.0071349,75.7620525 Z M43.8097005,77.2071413 L43.2372118,73.2500991 L43.998749,73.1399268 L44.4778585,76.4538733 L45.892669,76.249304 L45.9856666,76.8926541 L43.8097005,77.2071413 Z M41.3292976,77.4688322 C40.2756639,77.5279894 39.6292605,76.6787978 39.5643785,75.5210983 C39.4977153,74.327014 40.1076067,73.4126859 41.1508084,73.3544193 C42.2563477,73.2924633 42.8490644,74.2071731 42.9086032,75.2714932 C42.9867161,76.6628953 42.3205937,77.4134917 41.3292976,77.4688322 L41.3292976,77.4688322 Z M38.9604665,77.3432664 C38.7229473,77.4213793 38.2663557,77.510942 37.8144712,77.4912229 C37.2068699,77.4648884 36.7514233,77.2890708 36.4282852,76.9420154 C36.1001855,76.5894895 35.9267851,76.0355749 35.9542645,75.4018935 C36.0131672,74.0513289 36.9431434,73.3682862 38.0909197,73.4181564 C38.4959873,73.4355855 38.8304479,73.5229854 39.0186059,73.6248884 L38.829939,74.2514455 C38.6519587,74.1606107 38.4260164,74.0883499 38.0728545,74.0730835 C37.3613146,74.0421691 36.8020567,74.4549971 36.759947,75.4212309 C36.7196183,76.3457365 37.1927485,76.8347691 37.8522555,76.8632664 C38.0393957,76.8712812 38.1806096,76.8514349 38.2494355,76.8231922 L38.2920541,75.8467808 L37.7156215,75.8217185 L37.7420832,75.2139899 L39.0509197,75.2706027 L38.9604665,77.3432664 Z M33.3809913,75.3726329 L33.1109038,77.0040986 L32.3520382,76.8782783 L32.6178002,75.2727654 L31.8870501,72.7484718 L32.7331884,72.8885407 L32.9624384,73.9225826 C33.0284654,74.22333 33.0801166,74.4848937 33.1273151,74.7719014 L33.1377472,74.7736825 C33.2578426,74.5248407 33.397657,74.2843954 33.5580811,74.0158346 L34.0972383,73.1142285 L34.9330718,73.2523891 L33.3809913,75.3726329 Z M31.484018,73.7818776 C31.3636682,74.2553893 30.9731036,74.5263673 30.574397,74.5753469 L30.5705804,74.5904861 C30.8158601,74.7654132 30.9004612,75.0659062 30.8914286,75.4819147 C30.8858309,75.9687845 30.8687835,76.4578171 30.907331,76.6232028 L30.1413411,76.4285566 C30.1139889,76.3036268 30.1040657,75.9418139 30.1323085,75.4501097 C30.1583886,74.92571 30.0417281,74.7297917 29.6889478,74.6401018 L29.4370527,74.5762375 L29.03771,76.1482915 L28.2970368,75.9602608 L29.2683594,72.1356544 C29.5369202,72.1555007 29.9086562,72.2123679 30.286626,72.3084188 C30.775277,72.432458 31.7476173,72.7437646 31.484018,73.7818776 L31.484018,73.7818776 Z M27.9662656,74.0233406 L26.731471,73.60148 L26.3718208,74.6542232 L27.7590246,75.1284983 L27.5506387,75.7382624 L25.4353565,75.0155272 L26.728036,71.2325216 L28.7646965,71.9284135 L28.5561834,72.538432 L27.2476014,72.0912547 L26.9348953,73.0063461 L28.1696899,73.4282067 L27.9662656,74.0233406 Z M23.7500769,74.3346472 L22.9449033,73.9833936 L23.4818977,69.8548593 L24.2536125,70.1917371 L23.9610072,71.9929139 C23.8812404,72.4743133 23.7994381,72.960547 23.682396,73.4371121 L23.6966446,73.4432187 C23.9688948,73.0401866 24.2739677,72.6400806 24.5754784,72.261093 L25.7067161,70.8258002 L26.4640551,71.156317 L23.7500769,74.3346472 Z M22.186801,71.6891132 L21.0377525,71.0708253 L20.5104267,72.0505444 L21.801198,72.7451641 L21.4956162,73.3128184 L19.5272727,72.2537143 L21.4224649,68.733163 L23.3175298,69.7527018 L23.0119481,70.3204834 L21.7943281,69.6653019 L21.3359555,70.5169107 L22.4848768,71.1350713 L22.186801,71.6891132 Z M34.849234,1.27796024 L34.9391784,1.95324251 L33.4907819,2.14598039 L33.6256348,3.15890379 L34.992229,2.97710681 L35.0798834,3.63610496 L33.7132892,3.81790193 L33.8684972,4.98336178 L35.403912,4.77904691 L35.4937291,5.4544564 L33.1525046,5.76589027 L32.5950278,1.5776899 L34.849234,1.27796024 Z M36.3468646,1.15455712 L36.9198622,2.99580811 C37.0717625,3.4886573 37.2236629,3.98710416 37.3376517,4.49292976 L37.3541903,4.49216645 C37.4216168,3.98239703 37.521357,3.46016008 37.6277127,2.95929605 L38.0201855,1.06830215 L38.8924039,1.02352081 L37.8251577,5.30955314 L36.8979804,5.35738776 L35.458362,1.200229 L36.3468646,1.15455712 Z M39.5885502,1.04374874 L41.8618394,1.11053909 L41.8418659,1.79141903 L40.3812563,1.74841876 L40.3512324,2.76973867 L41.7294037,2.81019454 L41.709939,3.47466313 L40.3317678,3.43420726 L40.2970368,4.60908137 L41.8455553,4.65475325 L41.8255818,5.33563318 L39.4643838,5.26617122 L39.5885502,1.04374874 Z M42.3993427,3.27976252 C42.561039,1.86037212 43.5916459,1.20951603 44.7976888,1.34716777 C45.2234932,1.39563848 45.5696581,1.51255341 45.7602332,1.6337938 L45.5152081,2.28057885 C45.3340472,2.17142433 45.1014895,2.07855394 44.7302624,2.03618977 C43.9825921,1.95069812 43.3627776,2.34457037 43.2471349,3.36003817 C43.1363265,4.33161516 43.5987702,4.88209488 44.2918632,4.96109833 C44.4882905,4.98361622 44.6386642,4.97305698 44.7133422,4.94837636 L44.8303843,3.9222221 L44.224564,3.85301458 L44.2974609,3.21437159 L45.6727061,3.37136072 L45.4245004,5.54936231 C45.1681527,5.61411715 44.6803923,5.67454651 44.2056083,5.62047813 C43.5669653,5.54745402 43.1000689,5.32838166 42.7852001,4.93845322 C42.4653697,4.54254545 42.3233925,3.94575775 42.3993427,3.27976252 L42.3993427,3.27976252 Z M75.2752081,23.9390999 C73.3017758,19.2735712 70.4773708,15.0839714 66.8802332,11.486961 C63.2833501,7.89007792 59.0938776,5.06567294 54.4282216,3.09224066 C49.5961622,1.04845587 44.4651365,0.0121240392 39.1775033,0.0121240392 C33.8901246,0.0121240392 28.7589716,1.04845587 23.9269123,3.09224066 C19.2613835,5.06567294 15.0717837,7.89007792 11.4749006,11.486961 C7.87789027,15.0839714 5.05348529,19.2735712 3.08005301,23.9390999 C1.03626822,28.7711593 6.36098595e-05,33.902185 6.36098595e-05,39.189691 C6.36098595e-05,44.4773241 1.03626822,49.6083499 3.08005301,54.4404092 C5.05348529,59.1060652 7.87789027,63.2955378 11.4749006,66.8924209 C15.0717837,70.4894312 19.2613835,73.3138362 23.9269123,75.2872685 C28.7589716,77.3310533 33.8901246,78.3673851 39.1775033,78.3673851 C44.4651365,78.3673851 49.5961622,77.3310533 54.4282216,75.2872685 C59.0938776,73.3138362 63.2833501,70.4894312 66.8802332,66.8924209 C70.4773708,63.2955378 73.3017758,59.1060652 75.2752081,54.4404092 C77.3188656,49.6083499 78.3551975,44.4773241 78.3551975,39.189691 C78.3551975,33.902185 77.3188656,28.7711593 75.2752081,23.9390999 L75.2752081,23.9390999 Z" id="Fill-22" fill="#FFFFFF" mask="url(#mask-2)"></path>
                                </g>
                                <path d="M50.4151264,72.2250517 C50.2671699,72.2742857 50.1685746,72.3235197 50.1094174,72.3597774 L50.5198283,73.5929181 C50.5937429,73.584776 50.674273,73.5634031 50.7827914,73.5273999 C51.2364569,73.3762629 51.4174906,73.031243 51.2812383,72.6217228 C51.1465126,72.2172913 50.8194307,72.0904532 50.4151264,72.2250517" id="Fill-25" fill="#FFFFFF"></path>
                                <path d="M47.0082714,73.1755356 C46.8514095,73.2123021 46.7384384,73.2546663 46.6610888,73.2888884 L47.2999862,76.0173697 C47.3793713,76.0148253 47.4906886,75.9887453 47.5919555,75.9650824 C48.3068031,75.8031317 48.6794296,75.2513798 48.4400021,74.2287877 C48.233779,73.3479184 47.7016189,73.0132033 47.0082714,73.1755356" id="Fill-27" fill="#FFFFFF"></path>
                            </g>
                        </g>
                    </g>
                </g>
            </g>
        </g>
    </g>
</svg>