<svg xmlns="http://www.w3.org/2000/svg" xmlns:xlink="http://www.w3.org/1999/xlink" viewBox="0 0 78.36 78.36"><defs><style>.cls-1{fill:#fff;}.cls-1,.cls-2{fill-rule:evenodd;}.cls-2{fill:#1f2742;}.cls-3{mask:url(#mask);}</style><mask id="mask" x="0" y="0" width="78.36" height="78.36" maskUnits="userSpaceOnUse"><g id="mask-2"><polygon id="path-1" class="cls-1" points="0 0 78.36 0 78.36 78.36 0 78.36 0 0"/></g></mask></defs><title>EVEG</title><g id="Layer_2" data-name="Layer 2"><g id="Layer_1-2" data-name="Layer 1"><g id="web"><g id="eveg"><g id="Group-36-Copy"><g id="Group-32"><g id="Group-31"><g id="Group-30"><g id="Group-16"><polygon id="Fill-1" class="cls-2" points="44.81 55.09 34.42 55.09 29.43 45.24 38.68 45.24 35.13 38.25 25.88 38.25 21.6 29.81 31.41 29.81 27.78 22.67 11.5 22.67 31.56 62.23 48.43 62.23 44.81 55.09"/><g id="Group-15"><path id="Fill-3" class="cls-2" d="M18.28,59.26a46.27,46.27,0,0,1-2.86-9.58h9.21a71.21,71.21,0,0,0,1.66,9.58Zm8.59.46h3.42l-.23-.46h-3.3a71.19,71.19,0,0,1-1.67-9.58h.11l-.71-1.4.09.94H15.33a52.91,52.91,0,0,1-.79-9.12c0-.31,0-.61,0-.91h5.33l-.23-.46H14.56a50.83,50.83,0,0,1,.88-8.31l-.34-.67a52.63,52.63,0,0,0-1,9H6.33v.46h7.76c0,.3,0,.6,0,.91a53.44,53.44,0,0,0,.78,9.12h-7l.15.46H15a46.65,46.65,0,0,0,2.82,9.58h-4.6l.36.46H18a38.53,38.53,0,0,0,3.57,6.48l.93,1.29,1.08.61a36.08,36.08,0,0,1-5.07-8.38H26.4a51.22,51.22,0,0,0,2.08,6.44A32.3,32.3,0,0,0,30.88,71l.64.16A31,31,0,0,1,28.9,66a51.67,51.67,0,0,1-2-6.26Z"/><path id="Fill-5" class="cls-2" d="M14.33,28.24H8.19L8,28.69h6.53Z"/><path id="Fill-7" class="cls-2" d="M24.26,35.05l.42.82c.09-2.06.26-4.09.49-6.06h-.46c-.2,1.71-.35,3.46-.45,5.24"/><path id="Fill-9" class="cls-2" d="M63.93,49.22H53.78a90.13,90.13,0,0,0,.45-9.12v-.91H64.72c0,.3,0,.6,0,.91a51.92,51.92,0,0,1-.8,9.12Zm-3,10H52.07a74.52,74.52,0,0,0,1.66-9.58H63.85A45.68,45.68,0,0,1,61,59.26Zm-16.71-10c.1-3,.15-6.15.15-9.35v-.68h9.35c0,.3,0,.6,0,.91a90.09,90.09,0,0,1-.46,9.12ZM44.2,28.69h8.85a87.5,87.5,0,0,1,.72,10H44.42c0-3.45-.09-6.82-.22-10ZM43.5,18.2h7.35a67.69,67.69,0,0,1,2.14,10H44.18c-.16-3.58-.38-7-.68-10Zm-8.41,10c.15-3.59.38-7,.68-10h7.28c.29,3.07.52,6.45.67,10Zm24.61-10a44.38,44.38,0,0,1,3.67,10H53.45a66.47,66.47,0,0,0-2.13-10Zm5,20.53H54.22a87.69,87.69,0,0,0-.71-10h10a51.54,51.54,0,0,1,1.24,10Zm.47,1.37v-.91H72c0-.16,0-.31,0-.46H65.16a51.54,51.54,0,0,0-1.21-10h6.37c0-.15-.1-.3-.16-.45H63.84a43.67,43.67,0,0,0-3.62-10h4.23l-.38-.46H60A36.68,36.68,0,0,0,57.73,14a31.79,31.79,0,0,0-3.08-3.81c-.44-.23-.88-.46-1.33-.67a32.57,32.57,0,0,1,6.14,8.22H51.18c-.4-1.29-.83-2.53-1.31-3.7a27.34,27.34,0,0,0-3.93-7l-.72-.14a26,26,0,0,1,4.23,7.32c.45,1.12.87,2.3,1.26,3.53H43.46c-.13-1.35-.28-2.65-.44-3.87a53.7,53.7,0,0,0-1.39-7.44l-.49,0a53.3,53.3,0,0,1,1.43,7.53c.15,1.21.3,2.48.43,3.81H35.81c.13-1.33.28-2.6.43-3.81a51.68,51.68,0,0,1,1.44-7.56l-.49,0a53.74,53.74,0,0,0-1.4,7.47c-.16,1.22-.3,2.52-.44,3.87h-7.7c.38-1.23.8-2.41,1.25-3.53a26,26,0,0,1,4.24-7.32L32.42,7a27.34,27.34,0,0,0-3.94,7c-.47,1.17-.91,2.41-1.31,3.7H19.81a31.56,31.56,0,0,1,7-9c-.44.18-.88.37-1.31.57a30.16,30.16,0,0,0-4,4.69,36.75,36.75,0,0,0-2.26,3.74h-5l-.38.46H19a45,45,0,0,0-1.95,4.47h.5a42.24,42.24,0,0,1,2-4.47H27c-.42,1.43-.81,2.92-1.14,4.47h.46c.34-1.55.73-3.05,1.16-4.47h7.8c-.3,3.08-.52,6.46-.68,10h-4l.23.45h3.77c-.13,3.07-.2,6.27-.22,9.56h.46c0-3.29.09-6.49.22-9.56h8.67c.14,3.22.21,6.59.23,10H35.38l.23.46H44v.68c0,3.2-.06,6.34-.16,9.35H35c0-1.3-.08-2.63-.11-4h-.45c0,1.35.06,2.68.1,4H31.45l.23.46h2.88c.07,1.86.15,3.66.26,5.41h.45c-.1-1.75-.19-3.55-.25-5.41H43.8c-.07,1.86-.16,3.66-.26,5.41H44c.1-1.75.19-3.55.25-5.41h9a72.8,72.8,0,0,1-1.67,9.58H46.93l.23.46h4.32a48.39,48.39,0,0,1-2,6.26,31,31,0,0,1-2.61,5.16l.64-.16a32.31,32.31,0,0,0,2.39-4.82A49.64,49.64,0,0,0,52,59.72h8.84a37.78,37.78,0,0,1-4.3,7.4c.37-.23.73-.47,1.09-.71l.15-.21a38.53,38.53,0,0,0,3.57-6.48h3.52l.36-.46H61.49a46.05,46.05,0,0,0,2.83-9.58h6l.15-.46H64.4a52.45,52.45,0,0,0,.78-9.12Z"/><path id="Fill-11" class="cls-2" d="M43,62.23c-.13,1.25-.27,2.45-.41,3.58A62.25,62.25,0,0,1,41.5,72l.49,0q.55-2.43,1-6c.15-1.15.29-2.37.42-3.64Z"/><path id="Fill-13" class="cls-2" d="M35.83,62.23h-.45c.12,1.27.26,2.49.41,3.64q.48,3.64,1,6.08l.48,0a62.51,62.51,0,0,1-1.07-6.17c-.14-1.13-.28-2.33-.41-3.58"/></g></g><polygon id="Fill-17" class="cls-2" points="63.49 29.72 65.74 22.6 44.02 22.64 31.56 62.05 54.09 62.01 56.34 54.9 42.19 54.92 45.29 45.11 57.88 45.09 60.08 38.13 47.49 38.15 50.15 29.74 63.49 29.72"/><g id="Group-29"><path id="Fill-18" class="cls-2" d="M41.17,74c-.61,0-.84.75-.8,1.48s.38,1.41,1,1.38.83-.69.79-1.49-.36-1.4-.94-1.37"/><path id="Fill-20" class="cls-2" d="M30.23,72.89a1.9,1.9,0,0,0-.35-.06L29.58,74l.31.08a.62.62,0,0,0,.83-.44.58.58,0,0,0-.49-.76"/><g id="Group-24"><g class="cls-3"><path id="Fill-22" class="cls-2" d="M62.37,62.37A32.8,32.8,0,0,1,16,16,32.8,32.8,0,1,1,62.37,62.37ZM57.91,72.76a1.9,1.9,0,0,1-1.47.22,2.14,2.14,0,0,1-1.19-1.09,1.93,1.93,0,0,1,.85-2.79,2.34,2.34,0,0,1,.9-.29l.16.64a1.79,1.79,0,0,0-.75.22A1.22,1.22,0,0,0,56,71.5c.43.82,1.08,1,1.67.69A.93.93,0,0,0,58,72l-.45-.87-.51.27-.29-.53,1.16-.62,1,1.84a3.81,3.81,0,0,1-.92.71Zm-4.32,2L52,71.07l2-.86.25.59L53,71.35l.39.89,1.19-.52.25.58-1.19.52.44,1,1.34-.58.26.59ZM51,74.08a1.08,1.08,0,0,1-.27.07l.47,1.42-.72.24-1.25-3.74a5.24,5.24,0,0,1,1-.4,1.69,1.69,0,0,1,1.18-.06,1.11,1.11,0,0,1,.64.72,1.33,1.33,0,0,1-1,1.75Zm-2,1.67a2.36,2.36,0,0,1-1.47.84,5.69,5.69,0,0,1-.85.15l-.9-3.83a6.5,6.5,0,0,1,1-.31,2.2,2.2,0,0,1,1.51.07A1.86,1.86,0,0,1,49.22,74,2.1,2.1,0,0,1,49,75.75Zm-5.2,1.45-.57-4,.76-.11.48,3.31,1.41-.2.1.64Zm-2.48.26c-1,.06-1.7-.79-1.77-1.95s.55-2.11,1.59-2.17,1.7.86,1.76,1.92c.08,1.39-.59,2.14-1.58,2.2ZM39,77.33a3.48,3.48,0,0,1-1.15.15,1.9,1.9,0,0,1-1.38-.55A2.14,2.14,0,0,1,36,75.39a1.93,1.93,0,0,1,2.14-2,2.22,2.22,0,0,1,.93.2l-.19.63a1.83,1.83,0,0,0-.76-.18c-.71,0-1.27.38-1.31,1.35s.43,1.41,1.09,1.44a1,1,0,0,0,.4,0l0-1-.57,0,0-.61,1.31.06Zm-5.58-2L33.11,77l-.76-.12.27-1.61-.73-2.52.84.14.23,1c.07.3.12.56.17.85h0c.12-.25.26-.49.42-.76l.54-.9.83.14Zm-1.9-1.59a1.06,1.06,0,0,1-.91.79v0a1,1,0,0,1,.32.89,9,9,0,0,0,0,1.14l-.77-.19a4.66,4.66,0,0,1,0-1c0-.53-.09-.72-.44-.81l-.25-.07L29,76.14,28.3,76l1-3.83a6,6,0,0,1,1,.18c.49.12,1.46.43,1.19,1.47ZM28,74l-1.24-.42-.36,1,1.39.48-.21.61L25.44,75l1.29-3.78,2,.7-.2.61-1.31-.45-.32.91,1.24.43Zm-4.22.31L22.94,74l.54-4.13.77.34L24,72c-.08.48-.16,1-.28,1.44h0c.27-.4.57-.8.88-1.18l1.13-1.44.75.33Zm-1.56-2.64L21,71.06l-.53,1,1.29.69-.3.57-2-1.06,1.89-3.52,1.9,1-.31.57-1.22-.66-.45.85,1.14.62ZM34.85,1.27l.09.67-1.45.19.14,1L35,3l.09.66-1.37.19L33.87,5l1.53-.2.09.67-2.34.31-.56-4.18Zm1.5-.13L36.92,3c.15.5.3,1,.42,1.5h0c.07-.51.17-1,.28-1.53L38,1.06,38.89,1,37.83,5.3l-.93,0L35.46,1.19ZM39.59,1l2.27.07,0,.68-1.46,0,0,1,1.38,0,0,.66-1.38,0,0,1.18,1.55,0,0,.68-2.37-.07ZM42.4,3.27a2,2,0,0,1,2.4-1.93,2.34,2.34,0,0,1,1,.28l-.24.65A2,2,0,0,0,44.73,2c-.75-.08-1.37.31-1.48,1.33s.35,1.52,1,1.6a1.3,1.3,0,0,0,.42,0l.12-1-.61-.07.08-.64,1.37.16-.25,2.18a4,4,0,0,1-1.21.07,2,2,0,0,1-1.42-.68,2.23,2.23,0,0,1-.39-1.66ZM75.28,23.93a39.29,39.29,0,1,0,3.08,15.25,39.14,39.14,0,0,0-3.08-15.25Z"/></g></g><path id="Fill-25" class="cls-2" d="M50.42,72.21a1.34,1.34,0,0,0-.31.14l.41,1.23.26-.06a.68.68,0,0,0,.5-.91.62.62,0,0,0-.86-.4"/><path id="Fill-27" class="cls-2" d="M47,73.16a1.72,1.72,0,0,0-.35.12L47.3,76l.29-.06c.72-.16,1.09-.71.85-1.73S47.7,73,47,73.16"/></g></g></g></g></g></g></g></g></g></svg>