<?xml version="1.0" encoding="UTF-8"?>
<svg width="784px" height="784px" viewBox="0 0 784 784" version="1.1" xmlns="http://www.w3.org/2000/svg" xmlns:xlink="http://www.w3.org/1999/xlink">
    <!-- Generator: Sketch 54.1 (76490) - https://sketchapp.com -->
    <title>eveg@2x</title>
    <desc>Created with Sketch.</desc>
    <defs>
        <linearGradient x1="50%" y1="104.430837%" x2="50%" y2="-4.43083674%" id="linearGradient-1">
            <stop stop-color="#FBCD57" offset="0%"></stop>
            <stop stop-color="#A55914" offset="13%"></stop>
            <stop stop-color="#FDF7AE" offset="48%"></stop>
            <stop stop-color="#964B11" offset="64%"></stop>
            <stop stop-color="#FBF386" offset="100%"></stop>
        </linearGradient>
        <linearGradient x1="0%" y1="49.9987053%" x2="100%" y2="49.9987053%" id="linearGradient-2">
            <stop stop-color="#F6CE6B" offset="0%"></stop>
            <stop stop-color="#F6CF6F" offset="2%"></stop>
            <stop stop-color="#F7D37A" offset="4%"></stop>
            <stop stop-color="#F8D98C" offset="6%"></stop>
            <stop stop-color="#FAE2A7" offset="8%"></stop>
            <stop stop-color="#FCEDC9" offset="10%"></stop>
            <stop stop-color="#FEFAF1" offset="11%"></stop>
            <stop stop-color="#FFFFFF" offset="12%"></stop>
            <stop stop-color="#FDFCFB" offset="13%"></stop>
            <stop stop-color="#F8F3F0" offset="14%"></stop>
            <stop stop-color="#EFE5DE" offset="16%"></stop>
            <stop stop-color="#E3D0C3" offset="17%"></stop>
            <stop stop-color="#D3B6A1" offset="18%"></stop>
            <stop stop-color="#C09678" offset="19%"></stop>
            <stop stop-color="#A97048" offset="20%"></stop>
            <stop stop-color="#8F4510" offset="21%"></stop>
            <stop stop-color="#924910" offset="22%"></stop>
            <stop stop-color="#9D540F" offset="23%"></stop>
            <stop stop-color="#AE660E" offset="24%"></stop>
            <stop stop-color="#C6810D" offset="25%"></stop>
            <stop stop-color="#E5A20C" offset="26%"></stop>
            <stop stop-color="#F1AF0B" offset="26%"></stop>
            <stop stop-color="#CF9610" offset="30%"></stop>
            <stop stop-color="#B58314" offset="33%"></stop>
            <stop stop-color="#AB7C15" offset="35%"></stop>
            <stop stop-color="#B18320" offset="37%"></stop>
            <stop stop-color="#D0AC5A" offset="48%"></stop>
            <stop stop-color="#E7CA85" offset="57%"></stop>
            <stop stop-color="#F5DC9F" offset="64%"></stop>
            <stop stop-color="#FAE3A9" offset="69%"></stop>
            <stop stop-color="#FAE0A2" offset="69%"></stop>
            <stop stop-color="#F8D682" offset="69%"></stop>
            <stop stop-color="#F6CD67" offset="70%"></stop>
            <stop stop-color="#F5C653" offset="71%"></stop>
            <stop stop-color="#F4C145" offset="72%"></stop>
            <stop stop-color="#F3BE3D" offset="73%"></stop>
            <stop stop-color="#F3BD3A" offset="75%"></stop>
            <stop stop-color="#F7D176" offset="79%"></stop>
            <stop stop-color="#FAE5B0" offset="82%"></stop>
            <stop stop-color="#FDF3DB" offset="85%"></stop>
            <stop stop-color="#FEFCF5" offset="88%"></stop>
            <stop stop-color="#FFFFFF" offset="89%"></stop>
            <stop stop-color="#FCECC5" offset="96%"></stop>
            <stop stop-color="#FAE3A9" offset="100%"></stop>
            <stop stop-color="#FBE8B8" offset="100%"></stop>
            <stop stop-color="#FCEDC7" offset="100%"></stop>
        </linearGradient>
        <linearGradient x1="50%" y1="100%" x2="50%" y2="0%" id="linearGradient-3">
            <stop stop-color="#E2BF00" offset="0%"></stop>
            <stop stop-color="#FAF498" offset="14%"></stop>
            <stop stop-color="#F0E587" offset="21%"></stop>
            <stop stop-color="#D6BD5A" offset="34%"></stop>
            <stop stop-color="#AD8015" offset="51%"></stop>
            <stop stop-color="#E9D870" offset="71%"></stop>
            <stop stop-color="#FCF48E" offset="77%"></stop>
            <stop stop-color="#EFCD20" offset="88%"></stop>
            <stop stop-color="#C6740F" offset="97%"></stop>
        </linearGradient>
        <linearGradient x1="50%" y1="100%" x2="50%" y2="0%" id="linearGradient-4">
            <stop stop-color="#FBCD57" offset="0%"></stop>
            <stop stop-color="#A55914" offset="13%"></stop>
            <stop stop-color="#FDF7AE" offset="48%"></stop>
            <stop stop-color="#964B11" offset="64%"></stop>
            <stop stop-color="#FBF386" offset="100%"></stop>
        </linearGradient>
    </defs>
    <g id="Symbols" stroke="none" stroke-width="1" fill="none" fill-rule="evenodd">
        <g id="eveg" transform="translate(-9.000000, -9.000000)">
            <g>
                <circle id="Oval" fill="#FFFFFF" fill-rule="nonzero" cx="401" cy="401" r="360.09"></circle>
                <path d="M61.42,398.72 L754.26,398.72" id="Path" stroke="#B3B3B3" stroke-width="4.56"></path>
                <path d="M63.7,293.88 L756.53,293.88" id="Path" stroke="#B3B3B3" stroke-width="4.56"></path>
                <ellipse id="Oval" stroke="#B3B3B3" stroke-width="4.56" cx="401" cy="410.12" rx="148.14" ry="366.93"></ellipse>
                <ellipse id="Oval" stroke="#B3B3B3" stroke-width="4.56" cx="403.28" cy="407.84" rx="47.86" ry="366.93"></ellipse>
                <ellipse id="Oval" stroke="#B3B3B3" stroke-width="4.56" cx="405.56" cy="410.12" rx="252.98" ry="366.93"></ellipse>
                <path d="M63.7,503.56 L756.53,503.56" id="Path" stroke="#B3B3B3" stroke-width="4.56"></path>
                <path d="M100.16,603.84 L708.67,603.84" id="Path" stroke="#B3B3B3" stroke-width="4.56"></path>
                <path d="M100.16,189.05 L708.67,189.05" id="Path" stroke="#B3B3B3" stroke-width="4.56"></path>
                <circle id="Oval" stroke="url(#linearGradient-1)" stroke-width="63.81" stroke-linecap="round" stroke-linejoin="round" cx="401" cy="401" r="360.09"></circle>
                <polygon id="Path" fill="#000000" fill-rule="nonzero" points="487.27 625.26 325 625.26 124.28 239.07 280.53 239.07 312.9 301.34 212.5 301.34 261 394.75 355.74 394.75 387.32 455.52 292.62 455.52 348.47 563 454.91 563"></polygon>
                <polygon id="Path" fill="#313108" fill-rule="nonzero" points="487.27 625.26 325 625.26 124.28 239.07 280.53 239.07 312.9 301.34 212.5 301.34 261 394.75 355.74 394.75 387.32 455.52 292.62 455.52 348.47 563 454.91 563"></polygon>
                <polygon id="Path" stroke="url(#linearGradient-2)" stroke-width="9.12" points="487.27 625.26 325 625.26 124.28 239.07 280.53 239.07 312.9 301.34 212.5 301.34 261 394.75 355.74 394.75 387.32 455.52 292.62 455.52 348.47 563 454.91 563"></polygon>
                <polygon id="Path" fill="#000000" fill-rule="nonzero" points="548.61 626.09 328.05 626.49 452.53 238.94 664.89 238.55 644.82 301.05 508.38 301.29 478.27 395 607 394.8 587.42 455.8 458.68 456 424 563.86 568.65 563.6"></polygon>
                <polygon id="Path" fill="url(#linearGradient-3)" fill-rule="nonzero" points="548.61 626.09 328.05 626.49 452.53 238.94 664.89 238.55 644.82 301.05 508.38 301.29 478.27 395 607 394.8 587.42 455.8 458.68 456 424 563.86 568.65 563.6"></polygon>
                <polygon id="Path" stroke="url(#linearGradient-4)" stroke-width="13.67" stroke-linecap="round" stroke-linejoin="round" points="548.61 626.09 328.05 626.49 452.53 238.94 664.89 238.55 644.82 301.05 508.38 301.29 478.27 395 607 394.8 587.42 455.8 458.68 456 424 563.86 568.65 563.6"></polygon>
                <polygon id="Path" fill="#534C15" fill-rule="nonzero" points="361.28 64 337.86 67.12 332.29 25.23 354.83 22.23 355.73 28.99 341.24 30.91 342.59 41 356.26 39.19 357.14 45.78 343.47 47.6 345 59.25 360.36 57.25"></polygon>
                <path d="M395.27,19.65 L384.59,62.51 L375.32,62.99 L360.92,21.42 L369.81,20.96 L375.54,39.37 C377.06,44.3 378.54,49.29 379.72,54.37 L379.88,54.37 C380.56,49.27 381.55,44.05 382.62,39.04 L386.54,20.13 L395.27,19.65 Z" id="Path" fill="#534C15" fill-rule="nonzero"></path>
                <polygon id="Path" fill="#534C15" fill-rule="nonzero" points="424.6 62.77 401 62.08 402.24 19.85 424.97 20.52 424.77 27.33 410.17 26.9 409.87 37.11 423.65 37.52 423.45 44.16 409.67 43.76 409.32 55.51 424.8 56"></polygon>
                <path d="M460.59,64.91 C456.593718,65.8179448 452.474667,66.0578567 448.4,65.62 C442.02,64.89 437.4,62.7 434.2,58.8 C431,54.9 429.58,48.87 430.34,42.21 C431.96,28.02 442.26,21.51 454.34,22.89 C457.724598,23.1571715 461.015487,24.1314927 464,25.75 L461.55,32.22 C459.148884,30.8295019 456.466284,29.9956746 453.7,29.78 C446.17,28.92 440,32.86 438.82,43 C437.71,52.71 442.33,58.22 449.27,59 C450.668957,59.2228239 452.097456,59.1787135 453.48,58.87 L454.65,48.61 L448.59,48 L449.32,41.61 L463.08,43.18 L460.59,64.91 Z" id="Path" fill="#534C15" fill-rule="nonzero"></path>
                <polygon id="Path" fill="#534C15" fill-rule="nonzero" points="224.83 742.09 205.15 731.5 224.1 696.29 243.1 706.48 240 712.16 227.82 705.61 223.24 714.13 234.73 720.31 231.73 725.85 220.24 719.67 215 729.46 227.91 736.41"></polygon>
                <path d="M274.52,720.52 L247.38,752.31 L239.38,748.8 L244.75,707.51 L252.47,710.88 L249.54,728.88 C248.74,733.69 247.92,738.56 246.75,743.32 L246.89,743.38 C249.62,739.38 252.67,735.38 255.68,731.56 L267,717.22 L274.52,720.52 Z" id="Path" fill="#534C15" fill-rule="nonzero"></path>
                <polygon id="Path" fill="#534C15" fill-rule="nonzero" points="285.39 766.35 264.23 759.12 277.16 721.28 297.53 728.28 295.45 734.38 282.36 729.91 279.23 739 291.58 743.22 289.58 749.22 277.2 745 273.6 755.53 287.47 760.27"></polygon>
                <path d="M315.59,754.87 C318.04,756.62 318.89,759.62 318.8,763.78 C318.74,768.65 318.57,773.54 318.96,775.2 L311.3,773.2 C310.953309,769.947265 310.923167,766.668559 311.21,763.41 C311.47,758.17 310.3,756.21 306.78,755.31 L304.26,754.67 L300.26,770.4 L292.85,768.52 L302.57,730.27 C306.005938,730.559423 309.411342,731.138141 312.75,732 C317.64,733.25 327.36,736.36 324.75,746.74 C323.670958,751.026429 320.043118,754.191819 315.65,754.68 L315.59,754.87 Z M308.74,750 C312.97,751.08 316.17,749.26 317.1,745.58 C318.37,740.58 314.88,738.69 312.16,738 C311.025341,737.64891 309.847426,737.457078 308.66,737.43 L305.66,749.22 L308.74,750 Z" id="Shape" fill="#534C15" fill-rule="nonzero"></path>
                <path d="M359.22,741.49 L343.7,762.69 L341,779 L333.41,777.74 L336.07,761.68 L328.76,736.44 L337.22,737.84 L339.51,748.18 C340.17,751.18 340.69,753.8 341.16,756.67 L341.27,756.67 C342.47,754.18 343.87,751.78 345.47,749.09 L350.86,740.09 L359.22,741.49 Z" id="Path" fill="#534C15" fill-rule="nonzero"></path>
                <path d="M399.5,782.4 C395.774215,783.522745 391.888655,784.0228 388,783.88 C381.92,783.62 377.37,781.88 374.14,778.39 C370.91,774.9 369.14,769.32 369.4,762.98 C369.98,749.48 379.29,742.64 390.76,743.14 C393.963746,743.176106 397.124609,743.88117 400.04,745.21 L398.16,751.48 C395.797689,750.32762 393.208271,749.716135 390.58,749.69 C383.47,749.38 377.87,753.51 377.45,763.18 C377.05,772.42 381.78,777.31 388.38,777.6 C389.726626,777.719852 391.083773,777.584137 392.38,777.2 L392.81,767.43 L387.04,767.18 L387.31,761.1 L400.4,761.67 L399.5,782.4 Z" id="Path" fill="#534C15" fill-rule="nonzero"></path>
                <path d="M439,761.68 C439.78,775.59 433.12,783.1 423.2,783.68 C412.66,784.27 406.2,775.77 405.55,764.19 C404.88,752.25 410.98,743.11 421.42,742.53 C432.46,741.89 438.39,751 439,761.68 Z M413.59,763.57 C414.03,771.41 417.45,777.68 423.11,777.36 C428.77,777.04 431.42,770.49 430.97,762.44 C430.56,755.12 427.43,748.44 421.56,748.8 C415.53,749.14 413.17,756.25 413.58,763.57 L413.59,763.57 Z" id="Shape" fill="#534C15" fill-rule="nonzero"></path>
                <polygon id="Path" fill="#534C15" fill-rule="nonzero" points="469.76 777.89 448 781 442.27 741.42 449.89 740.32 454.68 773.46 468.83 771.46"></polygon>
                <path d="M467.82,738.22 C471.013375,736.876483 474.319676,735.819003 477.7,735.06 C484.18,733.54 488.9,733.88 492.77,735.8 C497.18,737.97 500.48,742.27 502.13,749.31 C504.08,757.67 502.34,763.2 499.98,766.58 C497.18,770.58 492.13,773.44 485.35,775.03 C482.526968,775.699141 479.664654,776.19011 476.78,776.5 L467.82,738.22 Z M482.9,769.14 C483.888999,769.045283 484.868807,768.871392 485.83,768.62 C492.97,767 496.7,761.48 494.31,751.25 C492.24,742.44 486.92,739.09 479.99,740.72 C478.799755,740.984456 477.63773,741.362867 476.52,741.85 L482.9,769.14 Z" id="Shape" fill="#534C15" fill-rule="nonzero"></path>
                <path d="M502,729.79 C505.054386,728.151445 508.250746,726.792574 511.55,725.73 C516.33,724.14 520.25,723.88 523.35,725.15 C526.471104,726.506499 528.83989,729.164073 529.83,732.42 C533.29,742.83 525.38,748.04 519.71,749.93 C518.824677,750.246226 517.910215,750.474004 516.98,750.61 L521.71,764.82 L514.46,767.24 L502,729.79 Z M515.08,744.89 C515.977065,744.766317 516.858599,744.548447 517.71,744.24 C522.24,742.72 524.05,739.24 522.71,735.18 C521.37,731.12 518.09,729.87 514.05,731.18 C512.982864,731.514522 511.956485,731.967336 510.99,732.53 L515.08,744.89 Z" id="Shape" fill="#534C15" fill-rule="nonzero"></path>
                <polygon id="Path" fill="#534C15" fill-rule="nonzero" points="566.32 747.56 545.8 756.44 529.92 719.75 549.67 711.2 552.23 717.11 539.54 722.61 543.38 731.48 555.38 726.3 557.88 732.07 545.88 737.26 550.3 747.47 563.76 741.64"></polygon>
                <path d="M598.2,729.58 C595.553415,732.398109 592.462352,734.762857 589.05,736.58 C583.66,739.42 578.84,740.19 574.3,738.82 C569.76,737.45 565.4,733.52 562.44,727.91 C556.14,715.91 560.73,705.37 570.89,700.01 C573.676479,698.429527 576.762389,697.448576 579.95,697.13 L581.48,703.49 C578.860983,703.678259 576.318027,704.454134 574.04,705.76 C567.74,709.08 565.04,715.46 569.5,724.02 C573.81,732.21 580.36,734.02 586.21,730.97 C587.422294,730.397356 588.514945,729.599924 589.43,728.62 L584.88,720 L579.77,722.69 L576.94,717.31 L588.53,711.21 L598.2,729.58 Z" id="Path" fill="#534C15" fill-rule="nonzero"></path>
                <polygon id="Path" fill="#FFFFFF" fill-rule="nonzero" points="224.83 742.09 205.15 731.5 224.1 696.29 243.1 706.48 240 712.16 227.82 705.61 223.24 714.13 234.73 720.31 231.73 725.85 220.24 719.67 215 729.46 227.91 736.41"></polygon>
                <path d="M274.52,720.52 L247.38,752.31 L239.38,748.8 L244.75,707.51 L252.47,710.88 L249.54,728.88 C248.74,733.69 247.92,738.56 246.75,743.32 L246.89,743.38 C249.62,739.38 252.67,735.38 255.68,731.56 L267,717.22 L274.52,720.52 Z" id="Path" fill="#FFFFFF" fill-rule="nonzero"></path>
                <polygon id="Path" fill="#FFFFFF" fill-rule="nonzero" points="285.39 766.35 264.23 759.12 277.16 721.28 297.53 728.28 295.45 734.38 282.36 729.91 279.23 739 291.58 743.22 289.58 749.22 277.2 745 273.6 755.53 287.47 760.27"></polygon>
                <path d="M315.59,754.87 C318.04,756.62 318.89,759.62 318.8,763.78 C318.74,768.65 318.57,773.54 318.96,775.2 L311.3,773.2 C310.953309,769.947265 310.923167,766.668559 311.21,763.41 C311.47,758.17 310.3,756.21 306.78,755.31 L304.26,754.67 L300.26,770.4 L292.85,768.52 L302.57,730.27 C306.005938,730.559423 309.411342,731.138141 312.75,732 C317.64,733.25 327.36,736.36 324.75,746.74 C323.670958,751.026429 320.043118,754.191819 315.65,754.68 L315.59,754.87 Z M308.74,750 C312.97,751.08 316.17,749.26 317.1,745.58 C318.37,740.58 314.88,738.69 312.16,738 C311.025341,737.64891 309.847426,737.457078 308.66,737.43 L305.66,749.22 L308.74,750 Z" id="Shape" fill="#FFFFFF" fill-rule="nonzero"></path>
                <path d="M359.22,741.49 L343.7,762.69 L341,779 L333.41,777.74 L336.07,761.68 L328.76,736.44 L337.22,737.84 L339.51,748.18 C340.17,751.18 340.69,753.8 341.16,756.67 L341.27,756.67 C342.47,754.18 343.87,751.78 345.47,749.09 L350.86,740.09 L359.22,741.49 Z" id="Path" fill="#FFFFFF" fill-rule="nonzero"></path>
                <path d="M399.5,782.4 C395.774215,783.522745 391.888655,784.0228 388,783.88 C381.92,783.62 377.37,781.88 374.14,778.39 C370.91,774.9 369.14,769.32 369.4,762.98 C369.98,749.48 379.29,742.64 390.76,743.14 C393.963746,743.176106 397.124609,743.88117 400.04,745.21 L398.16,751.48 C395.797689,750.32762 393.208271,749.716135 390.58,749.69 C383.47,749.38 377.87,753.51 377.45,763.18 C377.05,772.42 381.78,777.31 388.38,777.6 C389.726626,777.719852 391.083773,777.584137 392.38,777.2 L392.81,767.43 L387.04,767.18 L387.31,761.1 L400.4,761.67 L399.5,782.4 Z" id="Path" fill="#FFFFFF" fill-rule="nonzero"></path>
                <path d="M439,761.68 C439.78,775.59 433.12,783.1 423.2,783.68 C412.66,784.27 406.2,775.77 405.55,764.19 C404.88,752.25 410.98,743.11 421.42,742.53 C432.46,741.89 438.39,751 439,761.68 Z M413.59,763.57 C414.03,771.41 417.45,777.68 423.11,777.36 C428.77,777.04 431.42,770.49 430.97,762.44 C430.56,755.12 427.43,748.44 421.56,748.8 C415.53,749.14 413.17,756.25 413.58,763.57 L413.59,763.57 Z" id="Shape" fill="#FFFFFF" fill-rule="nonzero"></path>
                <polygon id="Path" fill="#FFFFFF" fill-rule="nonzero" points="469.76 777.89 448 781 442.27 741.42 449.89 740.32 454.68 773.46 468.83 771.46"></polygon>
                <path d="M467.82,738.22 C471.013375,736.876483 474.319676,735.819003 477.7,735.06 C484.18,733.54 488.9,733.88 492.77,735.8 C497.18,737.97 500.48,742.27 502.13,749.31 C504.08,757.67 502.34,763.2 499.98,766.58 C497.18,770.58 492.13,773.44 485.35,775.03 C482.526968,775.699141 479.664654,776.19011 476.78,776.5 L467.82,738.22 Z M482.9,769.14 C483.888999,769.045283 484.868807,768.871392 485.83,768.62 C492.97,767 496.7,761.48 494.31,751.25 C492.24,742.44 486.92,739.09 479.99,740.72 C478.799755,740.984456 477.63773,741.362867 476.52,741.85 L482.9,769.14 Z" id="Shape" fill="#FFFFFF" fill-rule="nonzero"></path>
                <path d="M502,729.79 C505.054386,728.151445 508.250746,726.792574 511.55,725.73 C516.33,724.14 520.25,723.88 523.35,725.15 C526.471104,726.506499 528.83989,729.164073 529.83,732.42 C533.29,742.83 525.38,748.04 519.71,749.93 C518.824677,750.246226 517.910215,750.474004 516.98,750.61 L521.71,764.82 L514.46,767.24 L502,729.79 Z M515.08,744.89 C515.977065,744.766317 516.858599,744.548447 517.71,744.24 C522.24,742.72 524.05,739.24 522.71,735.18 C521.37,731.12 518.09,729.87 514.05,731.18 C512.982864,731.514522 511.956485,731.967336 510.99,732.53 L515.08,744.89 Z" id="Shape" fill="#FFFFFF" fill-rule="nonzero"></path>
                <polygon id="Path" fill="#FFFFFF" fill-rule="nonzero" points="566.32 747.56 545.8 756.44 529.92 719.75 549.67 711.2 552.23 717.11 539.54 722.61 543.38 731.48 555.38 726.3 557.88 732.07 545.88 737.26 550.3 747.47 563.76 741.64"></polygon>
                <path d="M598.2,729.58 C595.553415,732.398109 592.462352,734.762857 589.05,736.58 C583.66,739.42 578.84,740.19 574.3,738.82 C569.76,737.45 565.4,733.52 562.44,727.91 C556.14,715.91 560.73,705.37 570.89,700.01 C573.676479,698.429527 576.762389,697.448576 579.95,697.13 L581.48,703.49 C578.860983,703.678259 576.318027,704.454134 574.04,705.76 C567.74,709.08 565.04,715.46 569.5,724.02 C573.81,732.21 580.36,734.02 586.21,730.97 C587.422294,730.397356 588.514945,729.599924 589.43,728.62 L584.88,720 L579.77,722.69 L576.94,717.31 L588.53,711.21 L598.2,729.58 Z" id="Path" fill="#FFFFFF" fill-rule="nonzero"></path>
                <rect id="Rectangle" x="0" y="0" width="800" height="800"></rect>
            </g>
        </g>
    </g>
</svg>