<svg xmlns="http://www.w3.org/2000/svg" xmlns:xlink="http://www.w3.org/1999/xlink" viewBox="0 0 78.19 76.95"><defs><style>.cls-1{fill:#fff;}.cls-1,.cls-2,.cls-4{fill-rule:evenodd;}.cls-2,.cls-4{fill:#1f2742;}.cls-3{mask:url(#mask);}.cls-4{opacity:0.8;isolation:isolate;}</style><mask id="mask" x="0" y="0" width="78.19" height="76.95" maskUnits="userSpaceOnUse"><g id="mask-2"><polygon id="path-1" class="cls-1" points="0 0 78.19 0 78.19 76.95 0 76.95 0 0"/></g></mask></defs><title>EVEO</title><g id="Layer_2" data-name="Layer 2"><g id="Layer_1-2" data-name="Layer 1"><g id="web"><g id="eveo"><g id="Group-17-Copy"><g id="Group-16"><g id="Group-35"><g id="Group-34"><path id="Fill-1" class="cls-2" d="M43.78,4.84c.6.07,1-.55,1.08-1.38S44.75,2,44.13,1.9s-1,.61-1.09,1.36.14,1.52.74,1.58"/><path id="Fill-3" class="cls-2" d="M37.31,72.61c-.6,0-.9.64-.94,1.36s.24,1.42.8,1.45.9-.59.94-1.38-.21-1.4-.8-1.43"/><path id="Fill-5" class="cls-2" d="M29.86,71.47a1.71,1.71,0,0,0-.34-.06l-.31,1.16.3.08a.62.62,0,0,0,.84-.43.57.57,0,0,0-.49-.75"/><path id="Fill-7" class="cls-2" d="M53.47,69.72c.05.25.12.57.16.8l.15.92.78-.34L54,70.38c-.16-.2-.35-.46-.5-.66Z"/><path id="Fill-9" class="cls-2" d="M40.58,72.61a1.89,1.89,0,0,0-.36,0l.06,1.2.32,0a.62.62,0,0,0,.67-.65.57.57,0,0,0-.69-.57"/><g id="Group-13"><g class="cls-3"><path id="Fill-11" class="cls-2" d="M62.24,61.25a33.09,33.09,0,0,1-46.29,0A31.84,31.84,0,0,1,16,15.7a33.09,33.09,0,0,1,46.29,0,31.84,31.84,0,0,1,0,45.55Zm-5.3,10.52L55,68.32l.68-.36,1.59,2.89,1.25-.67.31.56Zm-1.36.65-.69-.84-1,.43.18,1-.72.31-.57-4,.89-.38,2.62,3.15ZM52,73.85l-1.33-1.28a11.18,11.18,0,0,1-1-1.06h0c.18.45.37,1,.6,1.63l.38,1.15-.66.21-1.25-3.73.78-.25,1.31,1.25a13.58,13.58,0,0,1,1,1h0a16.21,16.21,0,0,1-.61-1.59L50.8,70.1l.66-.22,1.26,3.73ZM48.3,74.92l-1-3.8.74-.19,1,3.81Zm-1.93.46a2,2,0,0,1-1.47-.23,2,2,0,0,1-.8-1.37,1.9,1.9,0,0,1,1.64-2.36,2.51,2.51,0,0,1,.95,0l0,.64a2,2,0,0,0-.77,0,1.19,1.19,0,0,0-1,1.57c.16.9.73,1.26,1.38,1.15a1.33,1.33,0,0,0,.38-.13l-.18-.94-.56.1-.11-.59L47.08,73l.37,2a3.64,3.64,0,0,1-1.08.39ZM43,75.83l-.44-3.9.76-.09.44,3.9ZM41.52,76a4.51,4.51,0,0,1-.3-.92c-.12-.5-.29-.65-.65-.63h-.26L40.38,76l-.76,0-.18-3.88a6.36,6.36,0,0,1,1-.12c.5,0,1.52,0,1.57,1a1,1,0,0,1-.64,1v0c.29.09.46.35.57.75a8.4,8.4,0,0,0,.34,1.06Zm-2.61-1.9c-.06,1.36-.8,2-1.79,2s-1.61-.94-1.55-2.08.75-2,1.8-2,1.59,1,1.54,2ZM33,73.92l-.28,1.6L32,75.39l.27-1.57-.71-2.48.84.14.23,1c.06.29.11.55.16.83h0c.12-.24.26-.48.42-.74l.54-.88.84.14Zm-1.88-1.57a1.05,1.05,0,0,1-.91.77v0a1,1,0,0,1,.31.87,7.56,7.56,0,0,0,0,1.12l-.76-.19a4.45,4.45,0,0,1,0-1c0-.52-.08-.71-.43-.8l-.26-.07-.4,1.55-.74-.19,1-3.75a7,7,0,0,1,1,.17c.48.13,1.45.44,1.18,1.46Zm-3.51.21-1.23-.42-.36,1,1.38.48-.22.59-2.1-.72,1.31-3.71,2,.7-.21.6-1.3-.45-.32.9,1.23.42Zm-4.21.28-.8-.35.56-4,.77.33-.31,1.77c-.08.47-.16.95-.28,1.42h0c.28-.39.58-.78.89-1.15l1.13-1.4.76.33Zm-1.54-2.61-1.15-.61-.53,1,1.29.69-.31.55-2-1,1.91-3.45,1.89,1-.31.55-1.21-.65-.46.84,1.14.61Zm12.8-69,.09.67-1.45.19.14,1,1.36-.18.09.65-1.36.18.15,1.14,1.53-.2.09.66L33,5.65,32.4,1.54Zm1.49-.12.58,1.81c.15.48.3,1,.41,1.47h0c.07-.5.17-1,.27-1.51L37.81,1,38.68,1,37.62,5.2l-.93,0L35.26,1.17ZM39.38,1l2.27.07,0,.67L40.17,1.7l0,1,1.38,0,0,.65-1.38,0,0,1.15,1.54,0,0,.67-2.35-.07Zm2.81,2.17c.15-1.23,1-2.06,2-1.93s1.61,1.17,1.48,2.27c-.17,1.44-1,2.09-2,2s-1.62-1.11-1.48-2.31ZM75.12,23.5a38.33,38.33,0,0,0-8.38-12.23A38.94,38.94,0,0,0,54.32,3,39.74,39.74,0,0,0,23.88,3a38.88,38.88,0,0,0-12.43,8.24A38.33,38.33,0,0,0,3.07,23.5a38.06,38.06,0,0,0,0,30,38.22,38.22,0,0,0,8.38,12.23,38.9,38.9,0,0,0,12.43,8.25,39.44,39.44,0,0,0,42.86-8.25,38.22,38.22,0,0,0,8.38-12.23,38.06,38.06,0,0,0,0-29.95Z"/></g></g><path id="Fill-14" class="cls-2" d="M18.28,58.17a44.69,44.69,0,0,1-2.86-9.39H24.6a70.47,70.47,0,0,0,1.65,9.39Zm8.56.45h3.4L30,58.17H26.72a68.6,68.6,0,0,1-1.66-9.39h.11l-.71-1.38.09.93H15.34a50.09,50.09,0,0,1-.79-8.95c0-.3,0-.6,0-.89h5.31L19.64,38H14.57a50,50,0,0,1,.87-8.15l-.34-.66a50.77,50.77,0,0,0-1,8.81H6.37c0,.15,0,.3,0,.45H14.1c0,.29,0,.59,0,.89a51.55,51.55,0,0,0,.78,8.95H7.92c0,.15.09.3.14.45H15a45.27,45.27,0,0,0,2.82,9.39H13.18l.36.45H18A37.94,37.94,0,0,0,21.52,65c.31.44.62.86.93,1.27l1.08.6a35.49,35.49,0,0,1-5.06-8.22h7.9a47.15,47.15,0,0,0,2.07,6.31,30.78,30.78,0,0,0,2.39,4.74l.64.15a30.15,30.15,0,0,1-2.61-5.06,48,48,0,0,1-2-6.14Z"/><path id="Fill-16" class="cls-2" d="M14.34,27.75H8.22l-.16.45h6.51Z"/><path id="Fill-18" class="cls-2" d="M25.14,29.29h-.46c-.2,1.68-.35,3.39-.45,5.14l.42.81c.09-2,.26-4,.49-6"/><path id="Fill-20" class="cls-2" d="M35,27.75c.16-3.52.38-6.83.68-9.84H43c.18,1.82.33,3.77.46,5.79l.24-.73.14-.45c-.11-1.6-.24-3.14-.38-4.61h7.31c.42,1.35.79,2.76,1.12,4.23h.47c-.33-1.46-.7-2.87-1.11-4.22h8.34a40.45,40.45,0,0,1,1.91,4.21H62a40.12,40.12,0,0,0-1.88-4.21h4.21l-.38-.45H59.83a37.46,37.46,0,0,0-2.25-3.67,31.83,31.83,0,0,0-3.06-3.74c-.44-.23-.88-.45-1.33-.66a31.75,31.75,0,0,1,6.11,8.07H51.06c-.4-1.27-.83-2.48-1.3-3.63A27,27,0,0,0,45.83,7l-.72-.14A25.17,25.17,0,0,1,49.33,14c.45,1.09.87,2.25,1.25,3.46H43.36c-.13-1.33-.28-2.6-.43-3.8a53.42,53.42,0,0,0-1.39-7.3l-.49,0a50.41,50.41,0,0,1,1.42,7.39c.16,1.18.3,2.43.44,3.74H35.74c.13-1.31.28-2.56.43-3.74A51.1,51.1,0,0,1,37.6,6.31l-.49,0a53.7,53.7,0,0,0-1.39,7.33c-.16,1.2-.3,2.47-.43,3.8H27.61c.38-1.21.8-2.37,1.25-3.46a25.17,25.17,0,0,1,4.22-7.19L32.36,7a26.69,26.69,0,0,0-3.92,6.88c-.47,1.15-.91,2.36-1.31,3.63H19.8a31.09,31.09,0,0,1,7-8.83c-.44.17-.87.36-1.31.55a30.87,30.87,0,0,0-3.94,4.61,37.46,37.46,0,0,0-2.25,3.67h-5l-.39.45H19a39.18,39.18,0,0,0-1.95,4.37h.5a38.64,38.64,0,0,1,2-4.37H27c-.43,1.39-.81,2.86-1.15,4.37h.47c.34-1.51.72-3,1.15-4.37h7.77c-.29,3-.52,6.33-.67,9.84h-4l.23.45h3.76c-.13,3-.2,6.15-.22,9.36h.45c0-3.22.1-6.36.22-9.36h7l.14-.45Z"/><path id="Fill-22" class="cls-2" d="M63.76,48.33H53.64a86.87,86.87,0,0,0,.46-8.95c0-.3,0-.6,0-.89H64.55c0,.29,0,.59,0,.89a50.08,50.08,0,0,1-.8,8.95Zm-2.94,9.84H51.94a68.9,68.9,0,0,0,1.65-9.39H63.68a44.69,44.69,0,0,1-2.86,9.39ZM44.17,48.33c.1-3,.15-6,.15-9.17v-.67h9.32v.89a86.91,86.91,0,0,1-.45,8.95ZM65,39.38c0-.3,0-.6,0-.89h6.83c0-.15,0-.3,0-.45H65a50.17,50.17,0,0,0-1.21-9.84h6.35c0-.15-.1-.3-.16-.45H63.72l-.3,1A50,50,0,0,1,64.54,38H54.09a87.47,87.47,0,0,0-.59-8.88H53A82.06,82.06,0,0,1,53.63,38H44.32c0-1.88,0-3.74-.08-5.55l-.46-.26c0,1.9.08,3.84.09,5.81H35.31l.23.45h8.33v.67c0,3.14,0,6.21-.16,9.17H34.93c0-1.28-.08-2.59-.1-3.91h-.46c0,1.32.06,2.63.11,3.91H31.39l.23.45h2.87c.07,1.82.16,3.59.26,5.3h.46c-.11-1.71-.19-3.48-.26-5.3H43.7c-.07,1.82-.15,3.59-.26,5.3h.46c.1-1.71.19-3.48.25-5.3h9a70.13,70.13,0,0,1-1.67,9.39H46.82l.23.45h4.31a48,48,0,0,1-2,6.14,29.43,29.43,0,0,1-2.6,5.06l.64-.15a32.68,32.68,0,0,0,2.39-4.74,50.2,50.2,0,0,0,2.07-6.31h8.8a36.35,36.35,0,0,1-4.28,7.26l1.08-.7.15-.21a37.94,37.94,0,0,0,3.56-6.35h3.51l.36-.45H61.33a45.27,45.27,0,0,0,2.82-9.39h6l.15-.45h-6A51.55,51.55,0,0,0,65,39.38Z"/><path id="Fill-24" class="cls-2" d="M42.47,64.6c-.31,2.39-.67,4.4-1,6l.48,0c.37-1.59.71-3.56,1-5.93.14-1.13.28-2.32.41-3.57h-.46c-.12,1.23-.26,2.4-.41,3.52"/><path id="Fill-26" class="cls-2" d="M35.77,61.08h-.46c.13,1.25.26,2.44.41,3.57.32,2.39.66,4.37,1,6l.48,0a61,61,0,0,1-1.07-6.05c-.14-1.12-.28-2.29-.4-3.52"/><polygon id="Fill-28" class="cls-2" points="44.71 54.08 34.35 54.08 29.38 44.42 38.6 44.42 35.06 37.56 25.85 37.56 21.59 29.29 31.35 29.29 27.74 22.28 11.52 22.28 31.51 61.09 48.32 61.09 44.71 54.08"/><path id="Fill-30" class="cls-2" d="M47.47,34a28.69,28.69,0,0,1-5.67-3l-.57-.4L31.52,61.08l22.41,0,2.24-7L42.09,54l3.09-9.69,12.53,0,2.19-6.88-12.53,0,1-3.12Z"/><path id="Fill-32" class="cls-4" d="M47.47,34l.89.36L50,29.16l13.28,0,2.24-7-21.61,0-.27.82-2.42,7.62.57.4a28.69,28.69,0,0,0,5.67,3"/></g></g></g></g></g></g></g></g></svg>