<?xml version="1.0" encoding="UTF-8"?>
<svg width="80px" height="77px" viewBox="0 0 80 77" version="1.1" xmlns="http://www.w3.org/2000/svg" xmlns:xlink="http://www.w3.org/1999/xlink">
    <!-- Generator: Sketch 54 (76480) - https://sketchapp.com -->
    <title>eveo</title>
    <desc>Created with Sketch.</desc>
    <defs>
        <polygon id="path-1" points="0 0.0351259896 78.1937704 0.0351259896 78.1937704 76.9884334 0 76.9884334"></polygon>
    </defs>
    <g id="web" stroke="none" stroke-width="1" fill="none" fill-rule="evenodd">
        <g id="eveo" transform="translate(0.000000, -1.000000)">
            <g id="Group-17-Copy">
                <g id="Group-16">
                    <g id="Group-35" transform="translate(0.828157, 0.816327)">
                        <g id="Group-34" transform="translate(0.000000, 0.000000)">
                            <path d="M43.7775678,4.96691611 C44.3765745,5.03551481 44.7647127,4.41183417 44.8628756,3.58112364 C44.9521373,2.82542751 44.7465344,2.09033568 44.1313553,2.01976291 C43.4997531,1.94733946 43.1262829,2.6325862 43.0371465,3.38828232 C42.941491,4.19752492 43.1842028,4.8989343 43.7775678,4.96691611" id="Fill-1" fill="#FFFFFF"></path>
                            <path d="M37.3146524,72.7352769 C36.7136399,72.7070231 36.4058624,73.3777112 36.3710102,74.0968871 C36.3335252,74.8670186 36.6084565,75.5138945 37.1732377,75.5402976 C37.7429083,75.5670708 38.0688642,74.9535072 38.1072267,74.1628949 C38.1420789,73.4438423 37.899994,72.7627904 37.3146524,72.7352769" id="Fill-3" fill="#FFFFFF"></path>
                            <path d="M29.8644543,71.5957735 C29.6988436,71.5532078 29.5807473,71.5334672 29.5154308,71.537662 L29.2089069,72.6939697 L29.5149293,72.7726854 C29.9365407,72.8807654 30.2567297,72.7044569 30.3523852,72.3436968 C30.4820153,71.8544992 30.1354992,71.6652359 29.8644543,71.5957735" id="Fill-5" fill="#FFFFFF"></path>
                            <path d="M53.4669952,69.8455196 C53.5199003,70.0904269 53.5897301,70.4114589 53.6313521,70.6445218 L53.7802889,71.5618443 L54.5591981,71.2248964 L53.975361,70.5012788 C53.8181499,70.3015283 53.6268389,70.0384843 53.4812871,69.8392273 L53.4669952,69.8455196 Z" id="Fill-7" fill="#FFFFFF"></path>
                            <path d="M40.5754274,72.7311807 C40.4043005,72.7389536 40.2855774,72.7544994 40.224398,72.7776946 L40.2804373,73.971386 L40.5967399,73.9570741 C41.0320163,73.9372101 41.2846322,73.6752765 41.2670807,73.3029188 C41.2432608,72.7979288 40.8551226,72.7183493 40.5754274,72.7311807" id="Fill-9" fill="#FFFFFF"></path>
                            <g id="Group-13" transform="translate(0.000000, 0.088339)">
                                <mask id="mask-2" fill="white">
                                    <use xlink:href="#path-1"></use>
                                </mask>
                                <g id="Clip-12"></g>
                                <path d="M62.2421162,61.2898181 C56.0598614,67.374128 47.8400062,70.7248538 39.0968664,70.7248538 C30.353852,70.7248538 22.1339968,67.374128 15.9517419,61.2898181 C9.76936174,55.2056314 6.36462715,47.11629 6.36462715,38.511718 C6.36462715,29.9073928 9.76936174,21.817928 15.9517419,15.7337414 C22.1339968,9.64955475 30.353852,6.2987056 39.0968664,6.2987056 C47.8400062,6.2987056 56.0598614,9.64955475 62.2421162,15.7337414 C68.4242457,21.817928 71.829231,29.9073928 71.829231,38.511718 C71.829231,47.11629 68.4242457,55.2056314 62.2421162,61.2898181 L62.2421162,61.2898181 Z M56.941196,71.8046665 L55.0415,68.3506725 L55.7166048,67.9910228 L57.3076456,70.8833958 L58.5621996,70.2149286 L58.8709802,70.7764262 L56.941196,71.8046665 Z M55.5776974,72.4530229 L54.8926886,71.6170071 L53.9144448,72.0401969 L54.0865746,73.0980481 L53.374361,73.4061253 L52.8040636,69.3634904 L53.6872787,68.9813857 L56.3136055,72.1345818 L55.5776974,72.4530229 Z M51.9890485,73.8842188 L50.6577694,72.6074933 C50.3270496,72.290286 49.9504452,71.9018891 49.6557058,71.5461875 L49.6361485,71.5526032 C49.8205643,72.00343 50.0114992,72.5222385 50.2351551,73.186264 L50.6201591,74.3303571 L49.9602238,74.5454067 L48.7056698,70.8175114 L49.4936055,70.5607598 L50.8003125,71.8131796 C51.1278981,72.1207633 51.4929687,72.5073096 51.7761742,72.845368 L51.7859529,72.8421601 C51.581729,72.3814631 51.384275,71.8595701 51.1804272,71.253656 L50.8034466,70.1337452 L51.4632566,69.9188191 L52.7178106,73.6465909 L51.9890485,73.8842188 Z M48.301986,74.9568755 L47.3163455,71.1519918 L48.0604025,70.9653194 L49.0457922,74.7703265 L48.301986,74.9568755 Z M46.3717003,75.4122672 C45.7745742,75.5194835 45.2925356,75.4500212 44.9011378,75.1879643 C44.5038477,74.9217125 44.2123679,74.4291837 44.0989102,73.816237 C43.8573267,72.5101473 44.6111624,71.653774 45.7392205,71.4516793 C46.1373881,71.3803662 46.4822745,71.3912236 46.6877521,71.4478545 L46.6428705,72.089055 C46.4494282,72.040567 46.2136117,72.020703 45.8664687,72.082886 C45.1674187,72.2081157 44.71434,72.7251969 44.887222,73.6594223 C45.0528326,74.5535497 45.6212495,74.9187514 46.2695256,74.8026518 C46.4533146,74.7697096 46.5864551,74.7199879 46.647133,74.6779157 L46.4724959,73.7335731 L45.9058341,73.835114 L45.7972657,73.2473366 L47.0835378,73.0169881 L47.4542499,75.0211559 C47.2403727,75.1477427 46.8157525,75.3329345 46.3717003,75.4122672 L46.3717003,75.4122672 Z M42.9452771,75.8634641 L42.5054874,71.961111 L43.2684749,71.8777068 L43.70839,75.7800599 L42.9452771,75.8634641 Z M41.5169635,75.9841287 C41.4546558,75.8744448 41.3399444,75.5371267 41.2244808,75.0670529 C41.0969819,74.5667512 40.9288638,74.4158587 40.5663006,74.4325149 L40.3070403,74.4443593 L40.3821355,76.0358245 L39.6202763,76.0703706 L39.4379918,72.1987388 C39.7000102,72.1407507 40.0713491,72.0880679 40.4601142,72.0703014 C40.9628385,72.0473529 41.9813252,72.0624051 42.0308455,73.1133471 C42.0534116,73.5927977 41.7590484,73.9591098 41.3925988,74.1187622 L41.393351,74.1340612 C41.6783116,74.2284461 41.8463043,74.4865549 41.9582576,74.8803805 C42.0941561,75.3393503 42.2198999,75.803872 42.304523,75.9482254 L41.5169635,75.9841287 Z M38.9116984,74.0816251 C38.8452535,75.448664 38.1067127,76.1144169 37.1171859,76.067903 C36.0654767,76.0185514 35.5118531,75.1235605 35.5671403,73.9861298 C35.6241825,72.8130427 36.3239848,71.9820854 37.3651631,72.0306967 C38.4686491,72.0825159 38.9624723,73.0361118 38.9116984,74.0816251 L38.9116984,74.0816251 Z M32.9947215,73.9572592 L32.7145248,75.5576076 L31.9580564,75.4294169 L32.2337399,73.8541143 L31.5212755,71.3706193 L32.3646237,71.5134921 L32.5865244,72.5305049 C32.6505873,72.8262442 32.7001075,73.0834894 32.745616,73.365657 L32.7557708,73.3675077 C32.8773774,73.1239577 33.0186667,72.888674 33.180391,72.6260002 L33.7242358,71.7438406 L34.5575546,71.8849862 L32.9947215,73.9572592 Z M31.1120755,72.3818332 C30.9889645,72.846355 30.5974413,73.1100158 30.199399,73.1555427 L30.1955126,73.1702248 C30.4389766,73.343819 30.5214685,73.6391882 30.5095586,74.0478193 C30.5007829,74.5257894 30.4805987,75.0063504 30.5178329,75.1688405 L29.7550961,74.9729147 C29.7286435,74.8501527 29.7212468,74.4945745 29.7527141,74.011916 C29.7817994,73.4969323 29.6669626,73.3038442 29.3155571,73.2137775 L29.0645711,73.1492504 L28.6559979,74.6908704 L27.9182093,74.5014837 L28.9125001,70.7511335 C29.1801601,70.7723547 29.5507468,70.8304662 29.9271005,70.9271953 C30.4140285,71.0520548 31.3819921,71.3639568 31.1120755,72.3818332 L31.1120755,72.3818332 Z M27.6010292,72.5967594 L26.371674,72.1748033 L26.0058512,73.2064982 L27.3870266,73.6807669 L27.1749045,74.278538 L25.0689788,73.5556606 L26.3837093,69.8476294 L28.4112803,70.5438569 L28.1992836,71.1417513 L26.896463,70.6943792 L26.5785306,71.5912209 L27.8078858,72.0134237 L27.6010292,72.5967594 Z M23.3885508,72.8748555 L22.5874516,72.5245827 L23.1497255,68.4734346 L23.9177277,68.8092721 L23.6140872,70.5763055 C23.5315953,71.0487236 23.4468468,71.5257066 23.3268699,71.9930661 L23.3410365,71.9992351 C23.6154663,71.6051627 23.9223663,71.2140514 24.225756,70.8437911 L25.3637181,69.4415893 L26.1174284,69.7711345 L23.3885508,72.8748555 Z M21.8465288,70.2668711 L20.7044295,69.6523205 L20.1717423,70.6112218 L21.4550056,71.3015271 L21.1464758,71.8573493 L19.1894868,70.8044332 L21.1036001,67.3585823 L22.9877505,68.3723872 L22.6790953,68.928086 L21.4685453,68.2766451 L21.0055626,69.1101934 L22.1479126,69.7246206 L21.8465288,70.2668711 Z M34.6495744,1.278169 L34.7392123,1.94133091 L33.2939741,2.13059423 L33.4284936,3.12539878 L34.7923682,2.9469928 L34.8798748,3.59411544 L33.5160002,3.7726448 L33.6709546,4.9172314 L35.2030726,4.71661721 L35.2928358,5.38002587 L32.956359,5.68575893 L32.4001027,1.5725512 L34.6495744,1.278169 Z M36.1443329,1.15701086 L36.7161348,2.96525289 C36.8675789,3.44939192 37.0192737,3.93883625 37.1329822,4.43555994 L37.1494054,4.43481967 C37.2167278,3.93414785 37.3161443,3.42126152 37.4222054,2.92947299 L37.8139793,1.07249628 L38.6845322,1.02844999 L37.6194087,5.23776993 L36.6941954,5.28465394 L35.2574822,1.20179743 L36.1443329,1.15701086 Z M39.3819524,1.04757373 L41.6499786,1.11358147 L41.6297944,1.78229543 L40.1725208,1.73997645 L40.1424326,2.74304738 L41.5173396,2.78302217 L41.4977822,3.43557348 L40.1226245,3.3955987 L40.088023,4.54980886 L41.6328032,4.5947188 L41.612619,5.26355614 L39.2569609,5.19508081 L39.3819524,1.04757373 Z M42.1911907,3.21929016 C42.3369933,1.98661098 43.1353344,1.16009534 44.2296686,1.28544836 C45.3894448,1.41820412 45.8403922,2.4585355 45.7106367,3.55722513 C45.5408889,4.99360297 44.7137131,5.64306981 43.6739139,5.52400912 C42.5685473,5.39742231 42.0501521,4.41446214 42.1911907,3.21929016 L42.1911907,3.21929016 Z M75.1201318,23.5340059 C73.1507314,18.9518347 70.3320906,14.8372698 66.7424387,11.3046835 C63.1530376,7.77209713 58.9721519,4.998168 54.3161228,3.06013131 C49.4939816,1.05287902 44.3735907,0.0351259896 39.0968664,0.0351259896 C33.8202675,0.0351259896 28.6997512,1.05287902 23.87761,3.06013131 C19.2217063,4.998168 15.0408206,7.77209713 11.4511687,11.3046835 C7.86164224,14.8372698 5.04312677,18.9518347 3.07372639,23.5340059 C1.03412012,28.2795308 -3.76102944e-05,33.318821 -3.76102944e-05,38.511718 C-3.76102944e-05,43.7047384 1.03412012,48.7440286 3.07372639,53.4896769 C5.04312677,58.0717247 7.86164224,62.1862896 11.4511687,65.7188759 C15.0408206,69.2514623 19.2217063,72.0253914 23.87761,73.9634281 C28.6997512,75.9706804 33.8202675,76.9884334 39.0968664,76.9884334 C44.3735907,76.9884334 49.4939816,75.9706804 54.3161228,73.9634281 C58.9721519,72.0253914 63.1530376,69.2514623 66.7424387,65.7188759 C70.3320906,62.1862896 73.1507314,58.0717247 75.1201318,53.4896769 C77.1596127,48.7440286 78.1937704,43.7047384 78.1937704,38.511718 C78.1937704,33.318821 77.1596127,28.2795308 75.1201318,23.5340059 L75.1201318,23.5340059 Z" id="Fill-11" fill="#FFFFFF" mask="url(#mask-2)"></path>
                            </g>
                            <path d="M18.2783524,58.2950653 C17.0296906,55.4089846 16.059345,52.2515937 15.4217251,48.8996341 L24.5993892,48.8996341 C24.9627046,52.2087812 25.5184594,55.3674059 26.2527377,58.2950653 L18.2783524,58.2950653 Z M26.8350704,58.7425607 L30.2390528,58.7425607 L30.0086271,58.2950653 L26.7208605,58.2950653 C25.9815675,55.3709839 25.421801,52.2122358 25.0561035,48.8996341 L25.168809,48.8996341 L24.4607326,47.5253159 C24.4895671,47.8352439 24.5190285,48.1446783 24.5509973,48.4521387 L15.3387317,48.4521387 C14.8224678,45.5912274 14.5476619,42.5927485 14.5476619,39.504203 C14.5476619,39.2050091 14.55042,38.9068021 14.5554347,38.6093354 L19.8680141,38.6093354 L19.6375884,38.1619633 L14.5652134,38.1619633 C14.6379266,35.3520075 14.9384328,32.6242221 15.4404049,30.014387 L15.1010347,29.3555434 C14.5234659,32.192149 14.1886089,35.1446075 14.1120093,38.1619633 L6.37018094,38.1619633 C6.36804969,38.3111285 6.36466476,38.4599235 6.36466476,38.6093354 L14.1007262,38.6093354 C14.0957115,38.9070489 14.0930788,39.2053792 14.0930788,39.504203 C14.0930788,42.5622739 14.3579806,45.5623567 14.8709851,48.4521387 L7.9153372,48.4521387 C7.96397985,48.601674 8.01287323,48.7509625 8.06364713,48.8996341 L14.953477,48.8996341 C15.5726678,52.2082877 16.5193189,55.366789 17.770488,58.2950653 L13.1826589,58.2950653 C13.3011314,58.4453408 13.4218604,58.5941359 13.5430909,58.7425607 L17.9639303,58.7425607 C18.9683759,61.0177921 20.1581149,63.1496572 21.5232432,65.0983044 C21.8266329,65.531488 22.1369178,65.9519635 22.4532204,66.3607179 C22.808387,66.5677478 23.1670638,66.7679919 23.5293763,66.9612033 C21.5668711,64.6108342 19.8588623,61.8387557 18.4748035,58.7425607 L26.3660701,58.7425607 C26.951537,61.0017529 27.6443186,63.1188124 28.438648,65.0551218 C29.1736786,66.8469544 29.9737749,68.4280558 30.8261495,69.7886789 C31.0388984,69.8429657 31.2522742,69.8950316 31.4664021,69.9451235 C30.5275238,68.5155315 29.6554664,66.8262268 28.8601341,64.8875732 C28.0861142,63.0009855 27.4092543,60.9403101 26.8350704,58.7425607 L26.8350704,58.7425607 Z" id="Fill-14" fill="#FFFFFF"></path>
                            <path d="M14.336618,27.8717263 L8.21993044,27.8717263 C8.16664919,28.020398 8.11474698,28.1695631 8.06372235,28.3190984 L14.5671691,28.3190984 L14.336618,27.8717263 Z" id="Fill-16" fill="#FFFFFF"></path>
                            <path d="M25.1362385,29.4149874 L24.6791481,29.4149874 C24.4801896,31.0913373 24.3313782,32.8084023 24.2338422,34.5552016 L24.6480569,35.3593856 C24.7427095,33.3343668 24.9056874,31.3471019 25.1362385,29.4149874" id="Fill-18" fill="#FFFFFF"></path>
                            <path d="M35.0216656,27.8717263 C35.17662,24.358017 35.404037,21.042701 35.697648,18.0287997 L42.9506679,18.0287997 C43.1289407,19.8582629 43.2826414,21.7993841 43.4106418,23.827981 L43.6455808,23.089928 L43.7879984,22.6457638 C43.6772988,21.043688 43.550176,19.5003406 43.4073822,18.0287997 L50.7234621,18.0287997 C51.1388051,19.379676 51.5117739,20.7933521 51.8417415,22.2590941 L52.3073569,22.2582305 C51.9802728,20.7938456 51.6104382,19.380663 51.1988562,18.0287997 L59.5423239,18.0287997 C60.2440066,19.3637601 60.8812504,20.771514 61.4489151,22.2415743 L61.9495081,22.2405873 C61.3937533,20.7827415 60.7660375,19.3754811 60.0676144,18.0287997 L64.2790898,18.0287997 C64.1522177,17.8790177 64.0255964,17.7292356 63.8955901,17.5814276 L59.8300427,17.5814276 C59.143028,16.29878 58.3932041,15.0712827 57.5798188,13.91004 C56.6221353,12.5431245 55.5986338,11.2986009 54.5163349,10.1773329 C54.0784257,9.94649089 53.6351257,9.72687634 53.1873125,9.51651522 C55.5254191,11.7025436 57.5938599,14.4327966 59.3032478,17.5814276 L51.0591966,17.5814276 C50.6606529,16.3143257 50.2261286,15.1013872 49.7551224,13.9532226 C48.5938418,11.1222924 47.2707117,8.81485908 45.8346253,7.07768334 C45.5949223,7.02857851 45.3543418,6.9823114 45.1132598,6.93838849 C46.6811076,8.70110368 48.0992665,11.1122987 49.333511,14.1207712 C49.7835808,15.2177335 50.2003029,16.3742879 50.5836772,17.5814276 L43.3630021,17.5814276 C43.2298617,16.252883 43.0838083,14.9831901 42.9249675,13.7844402 C42.5137616,10.6821996 42.0520326,8.24694573 41.5426638,6.48435392 C41.3801874,6.47263292 41.2170841,6.46436653 41.0541061,6.45498973 C41.5831576,8.23978975 42.0605576,10.7218043 42.4741455,13.8423049 C42.6306043,15.0234117 42.7746517,16.2736107 42.9062878,17.5814276 L35.7420281,17.5814276 C35.8736642,16.2736107 36.0177116,15.0234117 36.1741704,13.8423049 C36.5897642,10.7072456 37.0696715,8.21708802 37.6016065,6.43043732 C37.4386285,6.4375933 37.276152,6.4469701 37.1136756,6.45647028 C36.601298,8.22103615 36.1368109,10.6657902 35.7234737,13.7844402 C35.5645075,14.9831901 35.4184542,16.252883 35.2853138,17.5814276 L27.6100556,17.5814276 C27.9933045,16.3742879 28.410152,15.2177335 28.8602218,14.1207712 C30.094341,11.1122987 31.5126252,8.70110368 33.0805983,6.93838849 C32.8392656,6.9823114 32.5988105,7.02857851 32.3591075,7.07768334 C30.9228957,8.81498246 29.5998909,11.1224157 28.4386104,13.9532226 C27.9676042,15.1013872 27.5332053,16.3143257 27.1346615,17.5814276 L19.7997765,17.5814276 C21.7152688,14.0529128 24.0817085,11.0501157 26.7734773,8.74983837 C26.3330608,8.92577676 25.8970321,9.11170885 25.4648898,9.30664761 C24.054253,10.6421015 22.7362629,12.178663 21.5232056,13.91004 C20.7096949,15.0712827 19.959871,16.29878 19.2729817,17.5814276 L14.2980173,17.5814276 C14.1682618,17.7292356 14.0413897,17.8790177 13.914643,18.0287997 L19.0352846,18.0287997 C18.3102835,19.4268067 17.661882,20.8904513 17.090707,22.4077658 L17.5905478,22.4077658 C18.1742596,20.8776199 18.8325651,19.4139753 19.5607004,18.0287997 L26.995002,18.0287997 C26.5692534,19.4264366 26.1887626,20.8902046 25.8535295,22.4077658 L26.3188942,22.4077658 C26.6568854,20.8889708 27.0410119,19.4253262 27.4702707,18.0287997 L35.241059,18.0287997 C34.9480748,21.044675 34.7212847,24.3594975 34.5665811,27.8717263 L30.5587027,27.8717263 L30.7892538,28.3190984 L34.5476505,28.3190984 C34.4210292,31.3238696 34.347313,34.4685525 34.3290094,37.6883732 L34.7835925,37.6883732 C34.8020215,34.4679356 34.8757377,31.3232527 35.0026097,28.3190984 L41.9806984,28.3190984 L42.1231161,27.8717263 L35.0216656,27.8717263 Z" id="Fill-20" fill="#FFFFFF"></path>
                            <path d="M63.7642801,48.452151 L53.642723,48.452151 C53.9436053,45.5626158 54.0990612,42.5624096 54.0990612,39.5042154 C54.0990612,39.2053915 54.0976822,38.9070612 54.0946734,38.6093478 L64.5474518,38.6093478 C64.5525918,38.9068145 64.5553499,39.2050214 64.5553499,39.5042154 C64.5553499,42.5927609 64.280544,45.5912397 63.7642801,48.452151 L63.7642801,48.452151 Z M60.8246594,58.2950776 L51.9409825,58.2950776 C52.6752608,55.3672949 53.2308903,52.2087935 53.5943311,48.8996465 L63.6812867,48.8996465 C63.0436668,52.2514827 62.0733212,55.408997 60.8246594,58.2950776 L60.8246594,58.2950776 Z M44.1693167,48.452151 C44.2718674,45.4941405 44.3248979,42.4181796 44.3248979,39.2805293 C44.3248979,39.0563498 44.3243964,38.8329105 44.323895,38.6093478 L53.6400903,38.6093478 C53.6430991,38.9070612 53.6444781,39.2053915 53.6444781,39.5042154 C53.6444781,42.5637668 53.4880193,45.5639729 53.1856325,48.452151 L44.1693167,48.452151 Z M65.009933,39.5042154 C65.009933,39.2053915 65.0071749,38.9070612 65.0022856,38.6093478 L71.8291809,38.6093478 C71.8291809,38.4599359 71.8256706,38.3111408 71.8235393,38.1619757 L64.9908771,38.1619757 C64.9050003,34.7753466 64.4944212,31.4700243 63.7797003,28.3190491 L70.1299478,28.3190491 C70.0790485,28.1695138 70.0270209,28.0203486 69.9737397,27.871677 L63.7245385,27.871677 L63.4192683,28.8304549 C64.0676698,31.7951279 64.4539275,34.9241417 64.5377984,38.1619757 L54.0879035,38.1619757 C54.0426458,35.1178466 53.8421829,32.1404656 53.497798,29.2811582 L53.0407075,29.2820219 C53.3867223,32.1393552 53.587812,35.1167362 53.6333204,38.1619757 L44.3223906,38.1619757 C44.3148685,36.2814336 44.2876637,34.4271712 44.2426567,32.6085654 C44.0883292,32.524791 43.933124,32.4415102 43.7816799,32.3556385 C43.8304479,34.254564 43.8599093,36.1939579 43.8678075,38.1619757 L35.3087074,38.1619757 L35.5392585,38.6093478 L43.8693119,38.6093478 C43.8698133,38.8329105 43.8703148,39.0563498 43.8703148,39.2805293 C43.8703148,42.4187965 43.8171589,45.4947574 43.7146082,48.452151 L34.9337328,48.452151 C34.8893526,47.1717242 34.8547511,45.8679787 34.8291761,44.5475771 L34.374593,44.5475771 C34.4000427,45.8678553 34.4346442,47.1716008 34.4788989,48.452151 L31.3925982,48.452151 L31.6230239,48.8996465 L34.4945699,48.8996465 C34.5610147,50.7186225 34.6467662,52.4887404 34.7500692,54.2012404 L35.2054045,54.2012404 C35.1018508,52.4891105 35.0158486,50.7189926 34.9492783,48.8996465 L43.6989372,48.8996465 C43.6324924,50.7189926 43.5463648,52.4891105 43.4428111,54.2012404 L43.8981464,54.2012404 C44.0014494,52.4887404 44.0874516,50.7186225 44.1537711,48.8996465 L53.137366,48.8996465 C52.7717939,52.2122482 52.2121528,55.3709963 51.4728597,58.2950776 L46.8182097,58.2950776 L47.0487608,58.7425731 L51.3586498,58.7425731 C50.784466,60.9403225 50.1074807,63.0008745 49.3335862,64.8875855 C48.5382538,66.8262391 47.6660711,68.5155438 46.7273182,69.9451358 C46.9415715,69.8949206 47.1550726,69.842978 47.3679468,69.7886913 C48.2201961,68.4280681 49.0201671,66.84672 49.7551976,65.0550108 C50.5494016,63.1188248 51.2423086,61.0017652 51.8276502,58.7425731 L60.6279576,58.7425731 C59.4285653,61.4256953 57.9859598,63.8656376 56.3452734,65.998613 C56.7120991,65.77394 57.0749131,65.5421109 57.4332138,65.3025089 C57.4818565,65.234157 57.5313767,65.1672856 57.5797686,65.0983168 C58.9448969,63.1496695 60.1345105,61.0178045 61.1389561,58.7425731 L64.6506293,58.7425731 C64.7718598,58.5941482 64.8925889,58.4453532 65.010936,58.2950776 L61.3325238,58.2950776 C62.5835676,55.366678 63.5302187,52.2083 64.1494095,48.8996465 L70.1300731,48.8996465 C70.180847,48.7509748 70.2297404,48.6016863 70.2783831,48.452151 L64.2319014,48.452151 C64.7449058,45.562369 65.009933,42.5622863 65.009933,39.5042154 L65.009933,39.5042154 Z" id="Fill-22" fill="#FFFFFF"></path>
                            <path d="M42.4741831,64.718655 C42.1571283,67.1108497 41.8024632,69.1264917 41.4159548,70.7420158 C41.5768015,70.7310351 41.737272,70.7177102 41.8977426,70.7045086 C42.2685801,69.1172383 42.611586,67.1410775 42.9250051,64.7765198 C43.0746941,63.6467386 43.2129746,62.4541576 43.3398467,61.2082769 L42.883007,61.2082769 C42.7577647,62.43343 42.6214901,63.6066405 42.4741831,64.718655" id="Fill-24" fill="#FFFFFF"></path>
                            <path d="M35.7654217,61.2082646 L35.3083313,61.2082646 C35.4353287,62.4541453 35.5737346,63.6468497 35.7234236,64.7765074 C36.0392247,67.1593253 36.3848633,69.1474538 36.7590857,70.7408931 C36.9188041,70.7519972 37.079024,70.7610038 37.2391184,70.7697637 C36.8499773,69.1495513 36.4931809,67.1245324 36.1742456,64.7186427 C36.0268133,63.6066281 35.890664,62.4334176 35.7654217,61.2082646" id="Fill-26" fill="#FFFFFF"></path>
                            <polygon id="Fill-28" fill="#FFFFFF" points="44.7093754 54.2012033 34.3540077 54.2012033 29.3811745 44.5475401 38.5983294 44.5475401 35.0648422 37.6884102 25.8478128 37.6884102 21.5860649 29.4149874 31.3538345 29.4149874 27.7442492 22.4078028 11.5220516 22.4078028 31.5092904 61.2082646 48.3189607 61.2082646"></polygon>
                            <path d="M47.4740831,34.1180329 C45.3800673,33.2806599 43.4723478,32.2684589 41.8039551,31.1096837 L41.2273893,30.709319 L31.516662,61.2082275 L53.9290126,61.1673891 L56.1670758,54.1382431 L42.0938051,54.1640293 L45.1792283,44.4737224 L57.7054622,44.4506506 L59.8961365,37.5700528 L47.3699026,37.5928779 L48.3631904,34.4734877 L47.4740831,34.1180329 Z" id="Fill-30" fill="#FFFFFF"></path>
                            <path d="M47.4740831,34.1179095 L48.3631904,34.4734877 L50.0144077,29.2874999 L63.2892119,29.2631942 L65.5272751,22.2340482 L43.9150209,22.2736528 L43.6532533,23.089928 L41.2273893,30.7091956 L41.8039551,31.1095604 C43.4722224,32.2683355 45.3800673,33.2805365 47.4740831,34.1179095" id="Fill-32" fill="#FFFFFF" opacity="0.8"></path>
                        </g>
                    </g>
                </g>
            </g>
        </g>
    </g>
</svg>