<?xml version="1.0" encoding="UTF-8"?>
<svg width="784px" height="784px" viewBox="0 0 784 784" version="1.1" xmlns="http://www.w3.org/2000/svg" xmlns:xlink="http://www.w3.org/1999/xlink">
    <!-- Generator: Sketch 54.1 (76490) - https://sketchapp.com -->
    <title>eveo@2x</title>
    <desc>Created with Sketch.</desc>
    <defs>
        <linearGradient x1="59.453227%" y1="103.610424%" x2="40.546773%" y2="-3.61181341%" id="linearGradient-1">
            <stop stop-color="#4D4E50" offset="1%"></stop>
            <stop stop-color="#A9AAAB" offset="16%"></stop>
            <stop stop-color="#98999B" offset="29%"></stop>
            <stop stop-color="#E4E5E6" offset="42%"></stop>
            <stop stop-color="#98999B" offset="54%"></stop>
            <stop stop-color="#E4E5E6" offset="64%"></stop>
            <stop stop-color="#B7B8BA" offset="74%"></stop>
            <stop stop-color="#98999B" offset="82%"></stop>
            <stop stop-color="#E4E5E6" offset="90%"></stop>
        </linearGradient>
        <linearGradient x1="0%" y1="50%" x2="99.9971747%" y2="50%" id="linearGradient-2">
            <stop stop-color="#4C4C4E" offset="0%"></stop>
            <stop stop-color="#E4E5E6" offset="10%"></stop>
            <stop stop-color="#808082" offset="21%"></stop>
            <stop stop-color="#E4E5E6" offset="38%"></stop>
            <stop stop-color="#808082" offset="50%"></stop>
            <stop stop-color="#E4E5E6" offset="64%"></stop>
            <stop stop-color="#808082" offset="82%"></stop>
            <stop stop-color="#E4E5E6" offset="90%"></stop>
            <stop stop-color="#4C4C4E" offset="100%"></stop>
        </linearGradient>
        <linearGradient x1="49.990867%" y1="82.9813024%" x2="49.990867%" y2="31.4223082%" id="linearGradient-3">
            <stop stop-color="#00175E" offset="0%"></stop>
            <stop stop-color="#0075BE" offset="50%"></stop>
            <stop stop-color="#1E9CD7" offset="100%"></stop>
        </linearGradient>
        <linearGradient x1="71.0742718%" y1="93.101225%" x2="29.3495732%" y2="7.79110251%" id="linearGradient-4">
            <stop stop-color="#4C4C4E" offset="0%"></stop>
            <stop stop-color="#E4E5E6" offset="10%"></stop>
            <stop stop-color="#808082" offset="21%"></stop>
            <stop stop-color="#E4E5E6" offset="38%"></stop>
            <stop stop-color="#808082" offset="50%"></stop>
            <stop stop-color="#E4E5E6" offset="64%"></stop>
            <stop stop-color="#808082" offset="82%"></stop>
            <stop stop-color="#E4E5E6" offset="90%"></stop>
            <stop stop-color="#4C4C4E" offset="100%"></stop>
        </linearGradient>
    </defs>
    <g id="Symbols" stroke="none" stroke-width="1" fill="none" fill-rule="evenodd">
        <g id="eveo" transform="translate(-9.000000, -8.000000)">
            <g>
                <circle id="Oval" fill="#FFFFFF" fill-rule="nonzero" cx="400.99" cy="399.93" r="359.93"></circle>
                <path d="M61.57,397.65 L754.08,397.65" id="Path" stroke="#B3B3B3" stroke-width="4.56"></path>
                <path d="M63.84,292.86 L756.36,292.86" id="Path" stroke="#B3B3B3" stroke-width="4.56"></path>
                <ellipse id="Oval" stroke="#B3B3B3" stroke-width="4.56" cx="400.99" cy="409.04" rx="148.07" ry="366.76"></ellipse>
                <ellipse id="Oval" stroke="#B3B3B3" stroke-width="4.56" cx="403.27" cy="406.76" rx="47.84" ry="366.76"></ellipse>
                <ellipse id="Oval" stroke="#B3B3B3" stroke-width="4.56" cx="405.55" cy="409.04" rx="252.86" ry="366.76"></ellipse>
                <path d="M63.84,502.44 L756.36,502.44" id="Path" stroke="#B3B3B3" stroke-width="4.56"></path>
                <path d="M100.29,602.67 L708.52,602.67" id="Path" stroke="#B3B3B3" stroke-width="4.56"></path>
                <path d="M100.29,188.07 L708.52,188.07" id="Path" stroke="#B3B3B3" stroke-width="4.56"></path>
                <circle id="Oval" stroke="url(#linearGradient-1)" stroke-width="63.78" stroke-linecap="round" stroke-linejoin="round" cx="400.99" cy="399.93" r="359.93"></circle>
                <polygon id="Path" fill="#000000" fill-rule="nonzero" points="486 625.5 327.75 625.5 132.06 239.5 284.42 239.5 316 301.74 218.08 301.74 265.41 395.11 357.78 395.11 388.58 455.84 296.2 455.84 350.66 563.26 454.44 563.26"></polygon>
                <polygon id="Path" fill="#1B1464" fill-rule="nonzero" points="486 625.5 327.75 625.5 132.06 239.5 284.42 239.5 316 301.74 218.08 301.74 265.41 395.11 357.78 395.11 388.58 455.84 296.2 455.84 350.66 563.26 454.44 563.26"></polygon>
                <polygon id="Path" stroke="url(#linearGradient-2)" stroke-width="9.11" points="486 625.5 327.75 625.5 132.06 239.5 284.42 239.5 316 301.74 218.08 301.74 265.41 395.11 357.78 395.11 388.58 455.84 296.2 455.84 350.66 563.26 454.44 563.26"></polygon>
                <polygon id="Path" fill="#000000" fill-rule="nonzero" points="548.58 625.65 333.52 626.05 454.9 238.69 662 238.3 642.43 300.76 509.43 301.01 480 394.7 605.54 394.47 586.44 455.42 460.91 455.65 427.13 563.45 568.13 563.19"></polygon>
                <polygon id="Path" fill="url(#linearGradient-3)" fill-rule="nonzero" points="548.58 625.65 333.52 626.05 454.9 238.69 662 238.3 642.43 300.76 509.43 301.01 480 394.7 605.54 394.47 586.44 455.42 460.91 455.65 427.13 563.45 568.13 563.19"></polygon>
                <polygon id="Path" stroke="url(#linearGradient-4)" stroke-width="9.11" points="548.58 625.65 333.52 626.05 454.9 238.69 662 238.3 642.43 300.76 509.43 301.01 480 394.7 605.54 394.47 586.44 455.42 460.91 455.65 427.13 563.45 568.13 563.19"></polygon>
                <path d="M458.42,243.32 L435.42,316.1 C452.514095,328.007794 470.913571,337.922172 490.26,345.65 L506,296.65 L638.78,296.27 L655.78,242.85 L458.42,243.32 Z" id="Path" fill="#5AC4FF" fill-rule="nonzero"></path>
                <polygon id="Path" fill="#534C15" fill-rule="nonzero" points="362.87 62.54 339.45 65.65 333.88 23.76 356.42 20.76 357.32 27.51 342.84 29.44 344.18 39.57 357.85 37.75 358.73 44.34 345.06 46.16 346.61 57.81 361.97 55.81"></polygon>
                <path d="M396.86,18.22 L386.18,61.09 L376.91,61.56 L362.51,20 L371.4,19.54 L377.13,38 C378.65,42.93 380.13,47.91 381.31,53 L381.47,53 C382.15,47.9 383.15,42.68 384.21,37.67 L388.14,18.76 L396.86,18.22 Z" id="Path" fill="#534C15" fill-rule="nonzero"></path>
                <polygon id="Path" fill="#534C15" fill-rule="nonzero" points="426.2 61.35 402.6 60.65 403.85 18.42 426.58 19.09 426.38 25.9 411.77 25.47 411.47 35.68 425.25 36.09 425.05 42.74 411.27 42.33 410.92 54.08 426.41 54.54"></polygon>
                <path d="M467.27,44 C465.57,58.63 457.27,65.24 446.86,64 C435.78,62.71 430.59,52.7 432,40.53 C433.46,27.98 441.46,19.53 452.43,20.84 C464.05,22.19 468.57,32.79 467.27,44 Z M440.48,41.38 C439.48,49.62 441.95,56.77 447.9,57.46 C453.85,58.15 457.79,51.81 458.78,43.35 C459.67,35.65 457.61,28.17 451.45,27.45 C445.12,26.68 441.37,33.66 440.48,41.35 L440.48,41.38 Z" id="Shape" fill="#534C15" fill-rule="nonzero"></path>
                <polygon id="Path" fill="#534C15" fill-rule="nonzero" points="221.1 739.5 201.48 728.77 220.67 693.68 239.55 704 236.46 709.66 224.32 703 219.68 711.49 231.13 717.75 228.13 723.27 216.67 717 211.33 726.77 224.19 733.77"></polygon>
                <path d="M270.91,718.25 L243.57,749.86 L235.57,746.29 L241.17,705 L248.87,708.42 L245.87,726.42 C245.04,731.23 244.19,736.09 242.99,740.85 L243.13,740.91 C245.88,736.91 248.96,732.91 252,729.14 L263.4,714.87 L270.91,718.25 Z" id="Path" fill="#534C15" fill-rule="nonzero"></path>
                <polygon id="Path" fill="#534C15" fill-rule="nonzero" points="281.51 764.15 260.41 756.79 273.58 719 293.9 726.09 291.78 732.18 278.72 727.62 275.54 736.76 287.85 741.05 285.78 747 273.46 742.7 269.8 753.21 283.64 758.03"></polygon>
                <path d="M311.78,752.87 C314.22,754.63 315.05,757.64 314.93,761.8 C314.84,766.67 314.64,771.56 315.01,773.22 L307.37,771.22 C307.04578,767.968061 307.04578,764.691939 307.37,761.44 C307.66,756.19 306.51,754.23 302.99,753.31 L300.47,752.65 L296.37,768.35 L289,766.42 L299,728.23 C302.405805,728.545122 305.780291,729.137079 309.09,730 C313.97,731.28 323.67,734.45 320.97,744.82 C319.863059,749.09861 316.215469,752.239923 311.82,752.7 L311.78,752.87 Z M304.96,747.87 C309.19,748.97 312.4,747.17 313.35,743.5 C314.65,738.5 311.18,736.59 308.47,735.88 C307.334276,735.530608 306.157501,735.332237 304.97,735.29 L301.9,747.07 L304.96,747.87 Z" id="Shape" fill="#534C15" fill-rule="nonzero"></path>
                <path d="M355.5,739.78 L339.84,760.88 L337,777.18 L329.42,775.87 L332.18,759.87 L325.04,734.58 L333.49,736.03 L335.72,746.39 C336.36,749.39 336.86,752.02 337.31,754.9 L337.41,754.9 C338.63,752.42 340.05,750.03 341.67,747.35 L347.12,738.35 L355.5,739.78 Z" id="Path" fill="#534C15" fill-rule="nonzero"></path>
                <path d="M399.14,762.15 C398.47,776.07 391.07,782.85 381.14,782.37 C370.6,781.87 365.05,772.76 365.61,761.17 C366.18,749.23 373.19,740.77 383.61,741.26 C394.7,741.79 399.64,751.5 399.14,762.15 Z M373.67,761.4 C373.3,769.25 376.05,775.83 381.67,776.1 C387.29,776.37 390.67,770.1 391.03,762.1 C391.38,754.78 388.96,747.85 383.09,747.57 C377.22,747.29 374,754.08 373.67,761.4 L373.67,761.4 Z" id="Shape" fill="#534C15" fill-rule="nonzero"></path>
                <path d="M424,762.68 C426.85,763.68 428.53,766.27 429.66,770.28 C431.02,774.95 432.28,779.68 433.13,781.16 L425.23,781.52 C423.9536,778.508741 422.972337,775.380757 422.3,772.18 C421.03,767.09 419.3,765.55 415.71,765.72 L413.11,765.84 L413.86,782.05 L406.23,782.4 L404.41,743 C407.781604,742.28479 411.206637,741.849972 414.65,741.7 C419.65,741.46 429.9,741.61 430.39,752.32 C430.594157,756.721982 428.048447,760.78954 424,762.53 L424,762.68 Z M416,759.98 C420.36,759.78 422.9,757.11 422.72,753.32 C422.48,748.17 418.59,747.32 415.79,747.5 C414.600445,747.491037 413.415531,747.64925 412.27,747.97 L412.83,760.12 L416,759.98 Z" id="Shape" fill="#534C15" fill-rule="nonzero"></path>
                <polygon id="Path" fill="#534C15" fill-rule="nonzero" points="435.15 740.55 442.8 739.7 447.21 779.44 439.56 780.29"></polygon>
                <path d="M484.75,771.71 C481.376721,773.628368 477.711271,774.979686 473.9,775.71 C467.9,776.8 463.08,776.09 459.16,773.42 C455.24,770.75 452.26,765.7 451.16,759.42 C448.74,746.12 456.29,737.42 467.6,735.35 C470.73498,734.683631 473.97502,734.683631 477.11,735.35 L476.66,741.88 C474.101451,741.272681 471.439049,741.248757 468.87,741.81 C461.87,743.09 457.33,748.35 459.06,757.87 C460.72,766.97 466.42,770.69 472.91,769.51 C474.241511,769.326863 475.526979,768.896112 476.7,768.24 L474.95,758.62 L469.27,759.62 L468.18,753.62 L481,751.3 L484.75,771.71 Z" id="Path" fill="#534C15" fill-rule="nonzero"></path>
                <polygon id="Path" fill="#534C15" fill-rule="nonzero" points="483.37 732.31 490.82 730.41 500.7 769.16 493.24 771.06"></polygon>
                <path d="M537.5,757.72 L530.19,760.14 L516.85,747.14 C513.325634,743.721709 509.987488,740.116512 506.85,736.34 L506.65,736.4 C508.5,740.99 510.42,746.28 512.65,753.04 L516.5,764.69 L509.89,766.88 L497.32,728.88 L505.21,726.26 L518.31,739.02 C521.762671,742.338971 525.027731,745.847743 528.09,749.53 L528.19,749.53 C526.19,744.84 524.19,739.53 522.12,733.36 L518.34,721.95 L524.95,719.77 L537.5,757.72 Z" id="Path" fill="#534C15" fill-rule="nonzero"></path>
                <path d="M573.53,742.32 L566.16,745.56 L559.29,737.05 L549.49,741.36 L551.21,752.13 L544.08,755.27 L538.36,714.1 L547.21,710.21 L573.53,742.32 Z M556,732.16 L550.15,724.79 C548.57,722.79 546.66,720.07 545.15,718.05 L545.01,718.11 C545.54,720.6 546.23,723.87 546.65,726.25 L548.15,735.59 L556,732.16 Z" id="Shape" fill="#534C15" fill-rule="nonzero"></path>
                <polygon id="Path" fill="#534C15" fill-rule="nonzero" points="599.16 728.49 579.82 739 560.82 703.83 567.58 700.16 583.58 729.62 596.15 722.81"></polygon>
                <polygon id="Path" fill="#FFFFFF" fill-rule="nonzero" points="221.1 739.5 201.48 728.77 220.67 693.68 239.55 704 236.46 709.66 224.32 703 219.68 711.49 231.13 717.75 228.13 723.27 216.67 717 211.33 726.77 224.19 733.77"></polygon>
                <path d="M270.91,718.25 L243.57,749.86 L235.57,746.29 L241.17,705 L248.87,708.42 L245.87,726.42 C245.04,731.23 244.19,736.09 242.99,740.85 L243.13,740.91 C245.88,736.91 248.96,732.91 252,729.14 L263.4,714.87 L270.91,718.25 Z" id="Path" fill="#FFFFFF" fill-rule="nonzero"></path>
                <polygon id="Path" fill="#FFFFFF" fill-rule="nonzero" points="281.51 764.15 260.41 756.79 273.58 719 293.9 726.09 291.78 732.18 278.72 727.62 275.54 736.76 287.85 741.05 285.78 747 273.46 742.7 269.8 753.21 283.64 758.03"></polygon>
                <path d="M311.78,752.87 C314.22,754.63 315.05,757.64 314.93,761.8 C314.84,766.67 314.64,771.56 315.01,773.22 L307.37,771.22 C307.04578,767.968061 307.04578,764.691939 307.37,761.44 C307.66,756.19 306.51,754.23 302.99,753.31 L300.47,752.65 L296.37,768.35 L289,766.42 L299,728.23 C302.405805,728.545122 305.780291,729.137079 309.09,730 C313.97,731.28 323.67,734.45 320.97,744.82 C319.863059,749.09861 316.215469,752.239923 311.82,752.7 L311.78,752.87 Z M304.96,747.87 C309.19,748.97 312.4,747.17 313.35,743.5 C314.65,738.5 311.18,736.59 308.47,735.88 C307.334276,735.530608 306.157501,735.332237 304.97,735.29 L301.9,747.07 L304.96,747.87 Z" id="Shape" fill="#FFFFFF" fill-rule="nonzero"></path>
                <path d="M355.5,739.78 L339.84,760.88 L337,777.18 L329.42,775.87 L332.18,759.87 L325.04,734.58 L333.49,736.03 L335.72,746.39 C336.36,749.39 336.86,752.02 337.31,754.9 L337.41,754.9 C338.63,752.42 340.05,750.03 341.67,747.35 L347.12,738.35 L355.5,739.78 Z" id="Path" fill="#FFFFFF" fill-rule="nonzero"></path>
                <path d="M399.14,762.15 C398.47,776.07 391.07,782.85 381.14,782.37 C370.6,781.87 365.05,772.76 365.61,761.17 C366.18,749.23 373.19,740.77 383.61,741.26 C394.7,741.79 399.64,751.5 399.14,762.15 Z M373.67,761.4 C373.3,769.25 376.05,775.83 381.67,776.1 C387.29,776.37 390.67,770.1 391.03,762.1 C391.38,754.78 388.96,747.85 383.09,747.57 C377.22,747.29 374,754.08 373.67,761.4 L373.67,761.4 Z" id="Shape" fill="#FFFFFF" fill-rule="nonzero"></path>
                <path d="M424,762.68 C426.85,763.68 428.53,766.27 429.66,770.28 C431.02,774.95 432.28,779.68 433.13,781.16 L425.23,781.52 C423.9536,778.508741 422.972337,775.380757 422.3,772.18 C421.03,767.09 419.3,765.55 415.71,765.72 L413.11,765.84 L413.86,782.05 L406.23,782.4 L404.41,743 C407.781604,742.28479 411.206637,741.849972 414.65,741.7 C419.65,741.46 429.9,741.61 430.39,752.32 C430.594157,756.721982 428.048447,760.78954 424,762.53 L424,762.68 Z M416,759.98 C420.36,759.78 422.9,757.11 422.72,753.32 C422.48,748.17 418.59,747.32 415.79,747.5 C414.600445,747.491037 413.415531,747.64925 412.27,747.97 L412.83,760.12 L416,759.98 Z" id="Shape" fill="#FFFFFF" fill-rule="nonzero"></path>
                <polygon id="Path" fill="#FFFFFF" fill-rule="nonzero" points="435.15 740.55 442.8 739.7 447.21 779.44 439.56 780.29"></polygon>
                <path d="M484.75,771.71 C481.376721,773.628368 477.711271,774.979686 473.9,775.71 C467.9,776.8 463.08,776.09 459.16,773.42 C455.24,770.75 452.26,765.7 451.16,759.42 C448.74,746.12 456.29,737.42 467.6,735.35 C470.73498,734.683631 473.97502,734.683631 477.11,735.35 L476.66,741.88 C474.101451,741.272681 471.439049,741.248757 468.87,741.81 C461.87,743.09 457.33,748.35 459.06,757.87 C460.72,766.97 466.42,770.69 472.91,769.51 C474.241511,769.326863 475.526979,768.896112 476.7,768.24 L474.95,758.62 L469.27,759.62 L468.18,753.62 L481,751.3 L484.75,771.71 Z" id="Path" fill="#FFFFFF" fill-rule="nonzero"></path>
                <polygon id="Path" fill="#FFFFFF" fill-rule="nonzero" points="483.37 732.31 490.82 730.41 500.7 769.16 493.24 771.06"></polygon>
                <path d="M537.5,757.72 L530.19,760.14 L516.85,747.14 C513.325634,743.721709 509.987488,740.116512 506.85,736.34 L506.65,736.4 C508.5,740.99 510.42,746.28 512.65,753.04 L516.5,764.69 L509.89,766.88 L497.32,728.88 L505.21,726.26 L518.31,739.02 C521.762671,742.338971 525.027731,745.847743 528.09,749.53 L528.19,749.53 C526.19,744.84 524.19,739.53 522.12,733.36 L518.34,721.95 L524.95,719.77 L537.5,757.72 Z" id="Path" fill="#FFFFFF" fill-rule="nonzero"></path>
                <path d="M573.53,742.32 L566.16,745.56 L559.29,737.05 L549.49,741.36 L551.21,752.13 L544.08,755.27 L538.36,714.1 L547.21,710.21 L573.53,742.32 Z M556,732.16 L550.15,724.79 C548.57,722.79 546.66,720.07 545.15,718.05 L545.01,718.11 C545.54,720.6 546.23,723.87 546.65,726.25 L548.15,735.59 L556,732.16 Z" id="Shape" fill="#FFFFFF" fill-rule="nonzero"></path>
                <polygon id="Path" fill="#FFFFFF" fill-rule="nonzero" points="599.16 728.49 579.82 739 560.82 703.83 567.58 700.16 583.58 729.62 596.15 722.81"></polygon>
                <rect id="Rectangle" x="0" y="0" width="800" height="800"></rect>
            </g>
        </g>
    </g>
</svg>