<?xml version="1.0" encoding="UTF-8"?>
<svg width="500px" height="550px" viewBox="0 0 500 550" version="1.1" xmlns="http://www.w3.org/2000/svg" xmlns:xlink="http://www.w3.org/1999/xlink">
    <!-- Generator: Sketch 54 (76480) - https://sketchapp.com -->
    <title>login</title>
    <desc>Created with Sketch.</desc>
    <defs>
        <linearGradient x1="1.87846438%" y1="49.9995837%" x2="101.883597%" y2="49.9995837%" id="linearGradient-1">
            <stop stop-color="#4A65A3" offset="0%"></stop>
            <stop stop-color="#4F69A6" offset="17%"></stop>
            <stop stop-color="#5D75AD" offset="37%"></stop>
            <stop stop-color="#758AB9" offset="58%"></stop>
            <stop stop-color="#96A6CA" offset="81%"></stop>
            <stop stop-color="#B8C3DB" offset="100%"></stop>
        </linearGradient>
        <linearGradient x1="33.6022969%" y1="50.0044449%" x2="133.589531%" y2="50.0044449%" id="linearGradient-2">
            <stop stop-color="#B8C3DB" offset="0%"></stop>
            <stop stop-color="#BDC7DE" offset="28%"></stop>
            <stop stop-color="#CBD3E5" offset="60%"></stop>
            <stop stop-color="#E3E7F1" offset="95%"></stop>
            <stop stop-color="#E7EAF3" offset="100%"></stop>
        </linearGradient>
        <linearGradient x1="-47.7146786%" y1="50.0077583%" x2="52.2965426%" y2="50.0077583%" id="linearGradient-3">
            <stop stop-color="#B8C3DB" offset="0%"></stop>
            <stop stop-color="#BDC7DE" offset="28%"></stop>
            <stop stop-color="#CBD3E5" offset="60%"></stop>
            <stop stop-color="#E3E7F1" offset="95%"></stop>
            <stop stop-color="#E7EAF3" offset="100%"></stop>
        </linearGradient>
        <linearGradient x1="0.160108102%" y1="50.021575%" x2="100.169005%" y2="50.021575%" id="linearGradient-4">
            <stop stop-color="#4A65A3" offset="0%"></stop>
            <stop stop-color="#4F69A6" offset="17%"></stop>
            <stop stop-color="#5D75AD" offset="37%"></stop>
            <stop stop-color="#758AB9" offset="58%"></stop>
            <stop stop-color="#96A6CA" offset="81%"></stop>
            <stop stop-color="#B8C3DB" offset="100%"></stop>
        </linearGradient>
        <linearGradient x1="0.00513478819%" y1="49.9813889%" x2="100%" y2="49.9813889%" id="linearGradient-5">
            <stop stop-color="#4A65A3" offset="0%"></stop>
            <stop stop-color="#4F69A6" offset="17%"></stop>
            <stop stop-color="#5D75AD" offset="37%"></stop>
            <stop stop-color="#758AB9" offset="58%"></stop>
            <stop stop-color="#96A6CA" offset="81%"></stop>
            <stop stop-color="#B8C3DB" offset="100%"></stop>
        </linearGradient>
        <linearGradient x1="-0.157826982%" y1="49.9850809%" x2="99.8294074%" y2="49.9850809%" id="linearGradient-6">
            <stop stop-color="#FFFFFF" offset="0%"></stop>
            <stop stop-color="#FFFFFF" offset="28%"></stop>
            <stop stop-color="#EAEDF5" offset="60.4254645%"></stop>
            <stop stop-color="#F4F6FA" offset="95%"></stop>
            <stop stop-color="#E7EAF3" offset="100%"></stop>
        </linearGradient>
        <linearGradient x1="87.4596693%" y1="50.0042473%" x2="-12.5366482%" y2="50.0042473%" id="linearGradient-7">
            <stop stop-color="#B8C3DB" offset="0%"></stop>
            <stop stop-color="#B0BCD7" offset="14%"></stop>
            <stop stop-color="#9AA9CC" offset="35%"></stop>
            <stop stop-color="#768AB9" offset="61%"></stop>
            <stop stop-color="#4A65A3" offset="87%"></stop>
        </linearGradient>
        <linearGradient x1="192.837629%" y1="50.0515448%" x2="-53.9115782%" y2="50.0515448%" id="linearGradient-8">
            <stop stop-color="#E7EAF3" offset="0%"></stop>
            <stop stop-color="#E3E7F1" offset="5%"></stop>
            <stop stop-color="#CBD3E5" offset="40%"></stop>
            <stop stop-color="#BDC7DE" offset="72%"></stop>
            <stop stop-color="#B8C3DB" offset="100%"></stop>
        </linearGradient>
        <linearGradient x1="225.072252%" y1="36.5766229%" x2="407.50908%" y2="65.8643465%" id="linearGradient-9">
            <stop stop-color="#B8C3DB" offset="0%"></stop>
            <stop stop-color="#B0BCD7" offset="14%"></stop>
            <stop stop-color="#9AA9CC" offset="35%"></stop>
            <stop stop-color="#768AB9" offset="61%"></stop>
            <stop stop-color="#4A65A3" offset="87%"></stop>
        </linearGradient>
        <linearGradient x1="15.1999386%" y1="50.0028289%" x2="115.197812%" y2="50.0028289%" id="linearGradient-10">
            <stop stop-color="#B8C3DB" offset="0%"></stop>
            <stop stop-color="#B0BCD7" offset="14%"></stop>
            <stop stop-color="#9AA9CC" offset="35%"></stop>
            <stop stop-color="#768AB9" offset="61%"></stop>
            <stop stop-color="#4A65A3" offset="87%"></stop>
        </linearGradient>
        <linearGradient x1="-90.1804018%" y1="50.0398435%" x2="156.568806%" y2="50.0398435%" id="linearGradient-11">
            <stop stop-color="#E7EAF3" offset="0%"></stop>
            <stop stop-color="#E3E7F1" offset="5%"></stop>
            <stop stop-color="#CBD3E5" offset="40%"></stop>
            <stop stop-color="#BDC7DE" offset="72%"></stop>
            <stop stop-color="#B8C3DB" offset="100%"></stop>
        </linearGradient>
        <linearGradient x1="-1.24129633%" y1="36.569869%" x2="126.023692%" y2="65.8504447%" id="linearGradient-12">
            <stop stop-color="#B8C3DB" offset="0%"></stop>
            <stop stop-color="#B0BCD7" offset="14%"></stop>
            <stop stop-color="#9AA9CC" offset="35%"></stop>
            <stop stop-color="#768AB9" offset="61%"></stop>
            <stop stop-color="#4A65A3" offset="87%"></stop>
        </linearGradient>
    </defs>
    <g id="login" stroke="none" stroke-width="1" fill="none" fill-rule="evenodd">
        <g id="Group-67">
            <g id="Asset-1" opacity="0.703706287" transform="translate(0.000000, 6.000000)" fill-rule="nonzero">
                <path d="M221.273015,537.209317 C223.328874,537.235618 225.356923,536.732556 227.162143,535.748506 L496.85225,380.057945 C498.325547,379.398355 499.340977,378.009787 499.522901,376.405916 C499.444561,375.154529 498.692791,374.0444 497.559858,373.507118 L336.727315,280.608631 C333.36883,279.098094 329.494799,279.258801 326.272972,281.042309 L56.5828648,436.710045 C55.1095673,437.369635 54.094137,438.758203 53.9122137,440.362074 C53.9905534,441.613461 54.7423238,442.72359 55.8752564,443.260872 L216.82193,536.250659 C218.205617,536.927321 219.733443,537.256378 221.273015,537.209317 Z M332.070795,280.448855 C333.489461,280.41544 334.89398,280.737133 336.156663,281.384687 L497.103337,374.305999 C497.942736,374.684395 498.510779,375.488362 498.587032,376.405916 C498.390825,377.696568 497.520577,378.784336 496.304424,379.259064 L226.796926,534.972449 C223.865232,536.598487 220.339362,536.750677 217.278451,535.383303 L56.331778,442.46199 C55.4923783,442.083595 54.9243359,441.279628 54.8480829,440.362074 C55.0442895,439.071421 55.9145379,437.983653 57.1306907,437.508926 L326.820798,281.79554 C328.458964,280.902879 330.296515,280.439583 332.1621,280.448855 L332.070795,280.448855 Z" id="Shape" fill="#607BED"></path>
                <path d="M54.8664122,413.27692 L69.7004667,411.134918 L326.922971,262.858244 C329.991757,261.147508 333.690112,260.986952 336.89602,262.425286 L490.097571,350.74869 L499.522901,349.404242 L499.522901,361.891658 L499.522901,361.891658 C499.346545,363.316156 498.425296,364.539746 497.103809,365.104661 L227.466342,520.559321 C224.390905,522.252049 220.697732,522.403942 217.493293,520.969491 L56.5780339,428.202573 C55.5812231,427.746317 54.9276396,426.767418 54.8892338,425.673187 L54.8892338,425.673187 L54.8664122,413.27692 Z" id="Path" fill="url(#linearGradient-1)"></path>
                <path d="M497.030217,352.485247 L227.463824,508.15284 C224.388938,509.847888 220.696426,509.999988 217.49256,508.563573 L56.6061009,415.669587 C54.0505366,414.186386 54.3243471,411.630718 57.3362621,409.919333 L326.902654,254.25174 C329.977541,252.556693 333.670052,252.404592 336.873918,253.841007 L497.806013,346.734993 C500.315942,348.218194 500.087767,350.796681 497.030217,352.485247 Z" id="Path" fill="url(#linearGradient-2)"></path>
                <path d="M473.477468,356.04043 L232.776614,494.92972 C230.033357,496.461675 226.723691,496.596961 223.8643,495.294019 L80.2643589,412.461358 C77.9849947,411.140771 78.2585184,408.841129 80.9025809,407.315623 L321.603435,268.426333 C324.347716,266.898002 327.655634,266.762787 330.515749,268.062034 L474.11569,350.894695 C476.417848,352.101438 476.12153,354.401081 473.477468,356.04043 Z" id="Path" fill="#1517A1" opacity="0.3"></path>
                <path d="M56.542493,414.18588 L217.489873,507.191077 C220.69069,508.651549 224.394915,508.498803 227.464912,506.779752 L497.133377,350.864651 C498.191683,350.32209 499.006759,349.400037 499.415994,348.282443 C499.826866,349.584973 499.050776,351.093165 497.133377,352.212884 L227.464912,508.150836 C224.388861,509.848329 220.694952,510.000649 217.489873,508.562161 L56.542493,415.534112 C55.3032908,415.011489 54.6262793,413.665652 54.9446606,412.357768 C55.2228362,413.150044 55.7950211,413.804692 56.542493,414.18588 L56.542493,414.18588 Z" id="Path" fill="#FFFFFF"></path>
                <path d="M327.765081,205.642348 L293.64428,3.79357408 L296.384907,2.63182174 L292.273967,0.353875976 L292.273967,0.353875976 C291.260914,-0.190109379 290.023959,-0.101350069 289.099408,0.581670553 L16.4299039,157.509354 C14.1118845,158.994092 12.7628282,161.598412 12.889928,164.343192 L47.2619527,367.809308 C47.3451115,368.698103 47.8919688,369.477307 48.7007817,369.859459 L48.7007817,369.859459 L52.7203673,372.137405 L53.4283625,368.378794 L53.1999769,368.378794 L324.156589,212.339509 C326.457674,210.896468 327.828278,208.352702 327.765081,205.642348 Z" id="Path" fill="url(#linearGradient-3)"></path>
                <path d="M18.0933474,163.24761 L13.4973059,161.259542 C12.9869883,162.309838 12.7877288,163.48284 12.9228007,164.641543 L47.5080136,368.749846 C47.5916881,369.641447 48.1419373,370.423109 48.9557667,370.806468 L48.9557667,370.806468 L53.0002833,373.091603 L53.7126697,369.321129 L53.4828676,369.321129 L67.2709924,361.391709 L18.0933474,163.24761 Z" id="Path" fill="url(#linearGradient-4)"></path>
                <path d="M328.030285,215.487127 L55.3789619,372.505028 C53.2774269,373.712507 51.472848,373.006246 51.0845209,370.841895 L16.7061494,167.370209 C16.5837614,164.626081 17.931918,162.023616 20.246779,160.535419 L292.898102,3.44917085 C295.02248,2.24169135 296.804216,2.94795294 297.192543,5.11230299 L331.570915,208.58399 C331.732895,211.355097 330.378101,213.996529 328.030285,215.487127 Z" id="Path" fill="#1F2742"></path>
                <g id="Group" opacity="0.51" transform="translate(19.561069, 6.679389)" fill="#607BED">
                    <polygon id="Path" points="274.181214 0.34697042 0.733189268 158.017653 35.2790329 362.003101 308.544637 204.446326"></polygon>
                </g>
                <path d="M499.522901,312.081173 L484.659159,319.839929 L335.519432,233.786188 C332.395882,232.371996 328.785984,232.524445 325.792928,234.196946 L68.5657135,382.526121 C66.0998393,381.134108 54.8664122,375.680159 54.8664122,375.680159 L60.3004684,384.534269 L60.3004684,384.534269 C60.5890972,385.26365 61.1326262,385.863642 61.8302237,386.22294 L218.938378,477.091674 C222.061928,478.505866 225.671826,478.353418 228.664882,476.680917 L491.896956,324.791842 C492.91069,324.334472 493.722557,323.523043 494.180173,322.509855 L494.180173,322.509855 L499.522901,312.081173 Z" id="Path" fill="url(#linearGradient-5)"></path>
                <path d="M497.030217,314.298234 L227.463824,469.969095 C224.394989,471.685202 220.692166,471.837686 217.49256,470.379716 L56.6061009,377.533818 C54.0505366,376.051021 54.3243471,373.473236 57.3362621,371.785129 L326.902654,216.091456 C329.974546,214.386187 333.672158,214.233918 336.873918,215.680835 L497.806013,308.549545 C500.315942,310.009529 500.087767,312.564502 497.030217,314.298234 Z" id="Path" fill="url(#linearGradient-6)"></path>
                <path d="M497.125248,312.789744 L227.461558,468.753967 C224.392214,470.470563 220.693187,470.631669 217.486695,469.188408 L56.5421649,376.103765 C55.7771828,375.705028 55.1962797,375.024768 54.921535,374.205945 C54.6621336,375.495639 55.3375187,376.791574 56.5421649,377.315626 L217.486695,470.377404 C220.687456,471.838764 224.391615,471.685926 227.461558,469.965828 L497.125248,314.001605 C499.042613,312.904071 499.841515,311.417826 499.407826,310.114504 C499.033677,311.27556 498.211893,312.238713 497.125248,312.789744 L497.125248,312.789744 Z" id="Path" fill="#FFFFFF"></path>
                <g id="Group" opacity="0.15" transform="translate(0.477099, 76.335878)">
                    <g id="Path">
                        <g opacity="0.5" transform="translate(0.408942, 108.113375)" fill="#1517A1">
                            <path d="M183.738754,5.29002258 L192.392312,0.369583916 C193.219973,-0.0376510825 194.190401,-0.0376510825 195.018062,0.369583916 L204.539258,5.97341684 C205.292734,6.4062332 205.3384,7.08962746 204.653421,7.49966401 L195.999864,12.4884421 C195.175652,12.9101754 194.198326,12.9101754 193.374114,12.4884421 L183.761587,6.88460918 C183.099441,6.36067358 183.053776,5.67727932 183.738754,5.29002258 Z"></path>
                            <path d="M170.290349,12.9668181 L178.943907,8.0008198 C179.768119,7.57908647 180.745445,7.57908647 181.569656,8.0008198 L191.182184,13.6046527 C191.93566,14.0374691 191.981325,14.7208633 191.296347,15.1308999 L182.642789,20.0968982 C181.818577,20.5186315 180.841251,20.5186315 180.017039,20.0968982 L170.404512,14.4930653 C169.742366,14.0374691 169.696701,13.3768546 170.290349,12.9668181 Z"></path>
                            <path d="M157.047437,20.6663934 L165.723828,15.6776153 C166.548039,15.255882 167.525366,15.255882 168.349577,15.6776153 L177.962105,21.2814482 C178.715581,21.7142646 178.761246,22.3976589 177.962105,22.7849156 L169.308547,27.7736937 C168.480886,28.1809287 167.510458,28.1809287 166.682797,27.7736937 L157.07027,22.1698608 C156.385292,21.7598242 156.339626,21.07643 157.047437,20.6663934 Z"></path>
                            <path d="M167.207947,30.8945275 L175.861505,25.9285292 C176.677716,25.5070316 177.648211,25.5070316 178.464422,25.9285292 L186.547165,30.6211698 C187.300641,31.0767659 187.346306,31.7601602 186.547165,32.1474169 L177.893607,37.136195 C177.066774,37.5469548 176.09469,37.5469548 175.267857,37.136195 L167.207947,32.4207746 C166.568634,31.9879583 166.500136,31.304564 167.207947,30.8945275 Z"></path>
                            <path d="M153.850872,38.5941028 L162.50443,33.6281045 C163.325792,33.1947557 164.308818,33.1947557 165.13018,33.6281045 L173.19009,38.3207451 C173.943566,38.7535614 173.989231,39.4369557 173.19009,39.8469923 L164.536532,44.8357703 C163.711422,45.2537773 162.735892,45.2537773 161.910782,44.8357703 L153.850872,40.1431298 C153.211559,39.6875336 153.165894,39.0952586 153.850872,38.5941028 Z"></path>
                            <path d="M140.607961,46.2936781 L149.147356,41.3732394 C149.975016,40.9660044 150.945445,40.9660044 151.773105,41.3732394 L159.833015,46.0886598 C160.586491,46.5214762 160.632156,47.2048704 159.833015,47.614907 L151.179457,52.5809053 C150.355246,53.0026386 149.37792,53.0026386 148.553708,52.5809053 L140.607961,47.8199253 C139.854485,47.3643291 139.80882,46.6809348 140.607961,46.2936781 Z"></path>
                            <path d="M127.136723,53.9932534 L135.790281,49.0044753 C136.614493,48.582742 137.591819,48.582742 138.416031,49.0044753 L146.475941,53.6971159 C147.229417,54.1527121 147.275082,54.8361063 146.590104,55.2233631 L137.936546,60.2121412 C137.108885,60.6193762 136.138457,60.6193762 135.310796,60.2121412 L127.250886,55.4967208 C126.49741,55.0411246 126.451745,54.3805102 127.136723,53.9932534 Z"></path>
                            <path d="M113.779648,61.6700489 L122.433206,56.7040506 C123.254568,56.2707018 124.237594,56.2707018 125.058956,56.7040506 L133.118866,61.3966912 C133.872342,61.8295076 133.94084,62.5129018 133.118866,62.9229384 L124.625136,67.9800559 C123.800027,68.3980629 122.824496,68.3980629 121.999387,67.9800559 L113.939477,63.2874153 C113.208833,62.7634797 113.208833,62.0800855 113.779648,61.6700489 Z"></path>
                            <path d="M100.422574,69.3696242 L109.076131,64.3808461 C109.902965,63.9700863 110.875048,63.9700863 111.701881,64.3808461 L119.761791,69.0962665 C120.5381,69.5290829 120.583765,70.2124772 119.761791,70.6225137 L111.131066,75.588512 C110.337492,75.9507023 109.422034,75.9339438 108.642312,75.5429524 L100.536737,70.9869906 C99.7832606,70.4402752 99.7375954,69.756881 100.422574,69.3696242 Z"></path>
                            <path d="M87.0883315,77.0691995 L95.7190567,72.0804215 C96.5432685,71.6586881 97.5205946,71.6586881 98.3448064,72.0804215 L106.359051,76.8414015 C107.112527,77.2969976 107.158192,77.9803919 106.359051,78.3676486 L97.7283261,83.3564267 C96.9014928,83.7671865 95.9294096,83.7671865 95.1025763,83.3564267 L87.0198337,78.6410063 C86.4261859,78.1398506 86.3805207,77.4564563 87.0883315,77.0691995 Z"></path>
                            <path d="M73.7312568,84.6548758 L82.361982,79.6888775 C83.1833437,79.2555287 84.1663701,79.2555287 84.9877317,79.6888775 L93.0704744,84.6548758 C93.8239504,85.0876922 93.8696156,85.7710864 93.0704744,86.181123 L84.4169166,91.1699011 C83.5927048,91.5916344 82.6153786,91.5916344 81.7911668,91.1699011 L73.7312568,86.4772605 C73.0691112,85.8394259 73.023446,85.1560316 73.7312568,84.6548758 Z"></path>
                            <path d="M60.3741821,92.4455704 L69.0277399,87.4567923 C69.8554006,87.0495573 70.825829,87.0495573 71.6534896,87.4567923 L79.7133997,92.1722127 C80.4668757,92.605029 80.5125409,93.2884233 79.7133997,93.6984598 L71.0598419,98.6644581 C70.2356301,99.0861915 69.2583039,99.0861915 68.4340921,98.6644581 L60.3741821,93.9718175 C59.7348691,93.5162214 59.6663713,92.8328271 60.3741821,92.4455704 Z"></path>
                            <path d="M46.9942748,100.145146 L55.6478326,95.1563676 C56.4720444,94.7346343 57.4493705,94.7346343 58.2735823,95.1563676 L66.3334924,99.8490082 C67.0869684,100.304604 67.1326336,100.987999 66.3334924,101.375255 L57.6799346,106.364033 C56.8522739,106.771268 55.8818455,106.771268 55.0541848,106.364033 L46.9942748,101.648613 C46.3777944,101.215797 46.3321292,100.600742 46.9942748,100.145146 Z"></path>
                            <path d="M172.75627,41.897175 L181.409828,36.8172777 C182.23404,36.3955444 183.211366,36.3955444 184.035578,36.8172777 L192.095488,41.5099183 C192.848964,41.9655145 192.917462,42.6489087 192.095488,43.0361655 L183.556093,48.207182 C182.737195,48.6175196 181.772074,48.6175196 180.953176,48.207182 L172.870433,43.4917616 C172.116957,42.967826 172.071292,42.2844318 172.75627,41.897175 Z"></path>
                            <path d="M186.273173,34.0837007 L194.926731,29.0949226 C195.754392,28.6876876 196.72482,28.6876876 197.552481,29.0949226 L205.612391,33.810343 C206.365867,34.2431593 206.411532,34.9265536 205.612391,35.3365902 L196.958833,40.3025884 C196.134621,40.7243218 195.157295,40.7243218 194.333083,40.3025884 L186.273173,35.6099479 C185.679526,35.1543517 185.63386,34.5392968 186.273173,34.0837007 Z"></path>
                            <path d="M199.972737,26.2702263 L218.581311,15.5409365 C219.402673,15.1075877 220.385699,15.1075877 221.207061,15.5409365 L229.289804,20.233577 C230.04328,20.6891732 230.088945,21.3497877 229.289804,21.7598242 L210.68123,32.4891141 C209.854396,32.8998739 208.882313,32.8998739 208.05548,32.4891141 L199.972737,27.7053543 C199.242094,27.3408773 199.196429,26.6574831 199.972737,26.2702263 Z"></path>
                            <path d="M215.635905,31.3729035 L230.751091,22.6710166 C231.575302,22.2492832 232.552628,22.2492832 233.37684,22.6710166 L241.459583,27.3636571 C242.213059,27.8192533 242.258724,28.5026476 241.459583,28.8899043 L226.344397,37.5917912 C225.528187,38.0132888 224.557691,38.0132888 223.74148,37.5917912 L215.658738,32.8991506 C214.996592,32.4435545 214.950927,31.78294 215.635905,31.3729035 Z"></path>
                            <path d="M159.422028,49.5739705 L168.052754,44.6079723 C168.874115,44.1746235 169.857142,44.1746235 170.678503,44.6079723 L178.761246,49.3006128 C179.514722,49.7334292 179.560387,50.4168235 178.761246,50.82686 L170.290349,55.8839775 C169.466137,56.3057109 168.488811,56.3057109 167.664599,55.8839775 L159.581857,51.191337 C158.874046,50.6674014 158.714218,49.9840071 159.422028,49.5739705 Z"></path>
                            <path d="M146.064954,57.3191055 L154.695679,52.3303274 C155.522512,51.9195676 156.494595,51.9195676 157.321429,52.3303274 L165.404171,57.0457478 C166.157647,57.4785641 166.203312,58.1619584 165.404171,58.5719949 L156.773446,63.5379932 C155.949234,63.9597266 154.971908,63.9597266 154.147696,63.5379932 L146.087786,58.8453527 C145.402808,58.3441969 145.357143,57.6608026 146.064954,57.3191055 Z"></path>
                            <path d="M132.707879,64.9731212 L141.361437,59.9843431 C142.177648,59.5628455 143.148143,59.5628455 143.964354,59.9843431 L152.047097,64.6769837 C152.800573,65.1325798 152.846238,65.8159741 152.047097,66.2032308 L143.393539,71.1920089 C142.566705,71.6027687 141.594622,71.6027687 140.767789,71.1920089 L132.822042,66.4310289 C132.068566,66.0437722 132.000068,65.3603779 132.707879,64.9731212 Z"></path>
                            <path d="M119.350804,72.6499167 L128.004362,67.6839184 C128.825724,67.2505696 129.80875,67.2505696 130.630112,67.6839184 L138.690022,72.376559 C139.443498,72.8093753 139.489163,73.4927696 138.690022,73.9028061 L130.036464,78.8915842 C129.211354,79.3095912 128.235824,79.3095912 127.410714,78.8915842 L119.350804,74.1989437 C118.711491,73.7433475 118.665826,73.0599532 119.350804,72.6499167 Z"></path>
                            <path d="M105.99373,80.349492 L114.647287,75.3607139 C115.474948,74.9534789 116.445376,74.9534789 117.273037,75.3607139 L125.332947,80.0761343 C126.086423,80.5089507 126.132088,81.1923449 125.332947,81.6023815 L116.679389,86.5683797 C115.855178,86.9901131 114.877851,86.9901131 114.05364,86.5683797 L105.99373,81.8757392 C105.354417,81.420143 105.308751,80.7367487 105.99373,80.349492 Z"></path>
                            <path d="M92.6594875,88.0490673 L101.313045,83.0602892 C102.137257,82.6385559 103.114583,82.6385559 103.938795,83.0602892 L111.998705,87.7757096 C112.752181,88.208526 112.797846,88.8919202 112.112868,89.279177 L103.45931,94.2679551 C102.63165,94.6751901 101.661221,94.6751901 100.833561,94.2679551 L92.6594875,89.5525347 C91.9973419,89.2108375 91.9516767,88.4363241 92.6594875,88.0490673 Z"></path>
                            <path d="M79.2795802,95.7258628 L87.9331379,90.7598645 C88.7544996,90.3265157 89.737526,90.3265157 90.5588877,90.7598645 L98.6187977,95.4525051 C99.3722737,95.8853215 99.4407715,96.5687157 98.6187977,96.9787523 L89.9652399,101.96753 C89.1490291,102.389028 88.1785336,102.389028 87.3623228,101.96753 L79.2795802,97.2748898 C78.6402672,96.8192936 78.594602,96.0447801 79.2795802,95.7258628 Z"></path>
                            <path d="M65.9453381,103.425438 L74.5760632,98.43666 C75.4028965,98.0259002 76.3749797,98.0259002 77.201813,98.43666 L85.2845556,103.15208 C86.0380316,103.584897 86.0836968,104.268291 85.2845556,104.678328 L76.676663,109.712665 C75.8524512,110.134399 74.8751251,110.134399 74.0509133,109.712665 L65.9681707,105.020025 C65.2603599,104.496089 65.2603599,103.812695 65.9453381,103.425438 Z"></path>
                            <path d="M52.5882634,111.125013 L61.2189885,106.136235 C62.0432003,105.714502 63.0205265,105.714502 63.8447383,106.136235 L71.9274809,110.851656 C72.6809569,111.284472 72.7266221,111.967866 71.9274809,112.355123 L63.2967557,117.343901 C62.4699225,117.754661 61.4978393,117.754661 60.671006,117.343901 L52.5882634,112.628481 C51.9261178,112.195664 51.8804526,111.51227 52.5882634,111.125013 Z"></path>
                            <path d="M28.8423528,124.792899 L47.7020856,113.92693 C48.5262974,113.505197 49.5036235,113.505197 50.3278353,113.92693 L58.410578,118.68791 C59.164054,119.143506 59.2097192,119.8269 58.410578,120.214157 L39.5508451,131.080126 C38.7266334,131.501859 37.7493072,131.501859 36.9250954,131.080126 L28.8651854,126.387485 C28.2030398,125.86355 28.1573746,125.180155 28.8423528,124.792899 Z"></path>
                            <path d="M53.3189068,139.053059 L69.3017312,129.941135 C70.1150157,129.507812 71.0913638,129.507812 71.9046483,129.941135 L79.9417257,134.770455 C80.6952017,135.203271 80.740867,135.886665 79.9417257,136.296702 L63.9589013,145.408625 C63.1337916,145.826632 62.1582613,145.826632 61.3331516,145.408625 L53.2732415,140.715985 C52.6795938,140.14649 52.6339286,139.463095 53.3189068,139.053059 Z"></path>
                            <path d="M161.271469,62.6951403 L169.902195,57.7063622 C170.726406,57.2846289 171.703733,57.2846289 172.527944,57.7063622 L180.610687,62.3990028 C181.364163,62.8318192 181.409828,63.5152134 180.610687,63.92525 L171.957129,68.8912483 C171.135768,69.3245971 170.152741,69.3245971 169.331379,68.8912483 L161.385632,64.1530481 C160.609324,63.7657913 160.563659,63.1051769 161.271469,62.6951403 Z"></path>
                            <path d="M174.85687,54.8133265 L183.510428,49.8245484 C184.338089,49.4173134 185.308517,49.4173134 186.136178,49.8245484 L194.196088,54.5399688 C194.949564,54.9727852 194.995229,55.6561794 194.310251,56.066216 L185.656693,61.0322143 C184.832481,61.4539476 183.855155,61.4539476 183.030943,61.0322143 L174.971033,56.3395737 C174.308888,55.8839775 174.263222,55.2233631 174.85687,54.8133265 Z"></path>
                            <path d="M188.556434,46.9315127 L197.187159,41.9427347 C198.013992,41.5319749 198.986076,41.5319749 199.812909,41.9427347 L207.895652,46.658155 C208.649128,47.0909714 208.694793,47.7743657 207.895652,48.1844022 L199.264926,53.1504005 C198.440715,53.5721338 197.463388,53.5721338 196.639177,53.1504005 L188.556434,48.4577599 C187.985619,48.0021637 187.939954,47.3187695 188.556434,46.9315127 Z"></path>
                            <path d="M202.255998,39.0952586 L210.909556,34.1064805 C211.737216,33.6992455 212.707645,33.6992455 213.535305,34.1064805 L221.595215,38.8219009 C222.348691,39.2547172 222.394357,39.9381115 221.709378,40.348148 L213.055821,45.3141463 C212.231609,45.7358797 211.254283,45.7358797 210.430071,45.3141463 L202.370161,40.6215058 C201.685183,40.12035 201.639517,39.4369557 202.255998,39.0952586 Z"></path>
                            <path d="M147.914395,70.3947156 L156.567953,65.4059375 C157.392164,64.9842042 158.36949,64.9842042 159.193702,65.4059375 L167.253612,70.1213579 C168.007088,70.5541743 168.052754,71.2375685 167.253612,71.6248253 L158.600055,76.6136034 C157.775843,77.0353367 156.798517,77.0353367 155.974305,76.6136034 L147.914395,71.898183 C147.275082,71.4653666 147.206584,70.7819724 147.914395,70.3947156 Z"></path>
                            <path d="M134.55732,78.0715111 L143.210878,73.1055128 C144.03509,72.6837795 145.012416,72.6837795 145.836628,73.1055128 L153.896538,77.7981534 C154.650014,78.2537496 154.695679,78.9371439 154.010701,79.3244006 L145.357143,84.3131787 C144.529482,84.7204137 143.559054,84.7204137 142.731393,84.3131787 L134.671483,79.5977583 C133.918007,79.1649419 133.872342,78.4815477 134.55732,78.0715111 Z"></path>
                            <path d="M121.200245,85.7710864 L129.853803,80.7823084 C130.678913,80.3643014 131.654443,80.3643014 132.479553,80.7823084 L140.607961,85.5660682 C141.361437,85.9988845 141.407102,86.6822788 140.607961,87.0923153 L131.954403,92.0583136 C131.133041,92.4916624 130.150015,92.4916624 129.328653,92.0583136 L121.268743,87.365673 C120.560932,86.9328567 120.515267,86.181123 121.200245,85.7710864 Z"></path>
                            <path d="M107.843171,93.4706618 L116.496728,88.4818837 C117.32094,88.0601503 118.298266,88.0601503 119.122478,88.4818837 L127.182388,93.1973041 C127.935864,93.6301204 127.981529,94.3135147 127.182388,94.7007714 L118.52883,99.6895495 C117.704619,100.111283 116.727292,100.111283 115.903081,99.6895495 L107.843171,94.9741291 C107.203858,94.5413128 107.158192,93.7667993 107.843171,93.4706618 Z"></path>
                            <path d="M94.486096,101.147457 L103.139654,96.181459 C103.963866,95.7597256 104.941192,95.7597256 105.765403,96.181459 L113.825314,100.8741 C114.57879,101.329696 114.647287,102.01309 113.825314,102.400347 L105.285919,107.434684 C104.467021,107.845022 103.5019,107.845022 102.683002,107.434684 L94.600259,102.719264 C93.846783,102.240888 93.8011178,101.557494 94.486096,101.147457 Z"></path>
                            <path d="M81.2431843,108.847033 L89.8739095,103.858254 C90.6981213,103.436521 91.6754474,103.436521 92.4996592,103.858254 L100.582402,108.550895 C101.335878,108.983711 101.381543,109.667106 100.582402,110.077142 L91.9516767,115.043141 C91.130315,115.476489 90.1472886,115.476489 89.3259269,115.043141 L81.2431843,110.37328 C80.4897083,109.917684 80.4440431,109.257069 81.2431843,108.847033 Z"></path>
                            <path d="M67.7947792,116.546608 L76.4255044,111.55783 C77.2497162,111.136096 78.2270423,111.136096 79.0512541,111.55783 L87.1339967,116.27325 C87.8874727,116.706067 87.9331379,117.389461 87.1339967,117.776718 L78.5032715,122.765496 C77.6790597,123.187229 76.7017336,123.187229 75.8775218,122.765496 L67.8176118,118.050075 C67.1326336,117.617259 67.0869684,116.933865 67.7947792,116.546608 Z"></path>
                            <path d="M54.4377045,124.223403 L63.0912623,119.257405 C63.907473,118.835908 64.8779686,118.835908 65.6941794,119.257405 L73.776922,123.950046 C74.530398,124.405642 74.5760632,125.089036 73.776922,125.476293 L65.2603599,130.53341 C64.4326992,130.940645 63.4622708,130.940645 62.6346101,130.53341 L54.5518675,125.658531 C53.8440567,125.316834 53.8440567,124.63344 54.4377045,124.223403 Z"></path>
                            <path d="M41.0806298,131.922979 L49.7341876,126.934201 C50.5592973,126.516194 51.5348276,126.516194 52.3599373,126.934201 L60.4198473,131.626841 C61.1733233,132.059658 61.2189885,132.743052 60.5340104,133.153088 L51.8804526,138.119087 C51.0590909,138.552435 50.0760645,138.552435 49.2547028,138.119087 L41.1947928,133.426446 C40.4413168,132.99363 40.3956516,132.333015 41.0806298,131.922979 Z"></path>
                            <path d="M193.533942,58.2986372 L202.1875,53.3098592 C203.011712,52.8881258 203.989038,52.8881258 204.81325,53.3098592 L212.87316,58.0252795 C213.626636,58.4580959 213.672301,59.1414902 212.87316,59.5287469 L204.219602,64.517525 C203.39539,64.9392583 202.418064,64.9392583 201.593852,64.517525 L193.533942,59.8021046 C192.894629,59.3692882 192.848964,58.685894 193.533942,58.2986372 Z"></path>
                            <path d="M206.822519,50.6446215 L215.476077,45.6558435 C216.303738,45.2486085 217.274166,45.2486085 218.101827,45.6558435 L226.161737,50.3712638 C226.915213,50.8040802 226.960878,51.4874745 226.2759,51.8747312 L217.622342,56.8635093 C216.79813,57.2852426 215.820804,57.2852426 214.996592,56.8635093 L206.936682,52.1480889 C206.183206,51.7152726 206.137541,51.0318783 206.822519,50.6446215 Z"></path>
                            <path d="M220.111096,42.9906058 L228.764654,38.0018278 C229.592314,37.5945928 230.562743,37.5945928 231.390403,38.0018278 L239.450314,42.7172481 C240.20379,43.1500645 240.249455,43.8334588 239.564477,44.2207155 L230.910919,49.2094936 C230.086707,49.6312269 229.109381,49.6312269 228.285169,49.2094936 L220.225259,44.4940732 C219.471783,44.0612569 219.426118,43.3778626 220.111096,42.9906058 Z"></path>
                            <path d="M233.399673,35.3365902 L242.053231,30.3478121 C242.880891,29.9405771 243.85132,29.9405771 244.67898,30.3478121 L252.73889,35.0632324 C253.492366,35.4960488 253.538032,36.1794431 252.73889,36.5666998 L244.085333,41.5554779 C243.261121,41.9772112 242.283795,41.9772112 241.459583,41.5554779 L233.513836,36.8172777 C232.76036,36.4072412 232.714695,35.7238469 233.399673,35.3365902 Z"></path>
                            <path d="M246.25443,42.8311472 L254.907988,37.8423691 C255.734821,37.4316093 256.706904,37.4316093 257.533738,37.8423691 L260.205153,39.4141759 C260.958629,39.8469923 261.004294,40.5303865 260.319316,40.9176433 L251.665758,45.9292012 C250.841546,46.3509345 249.86422,46.3509345 249.040008,45.9292012 L246.368593,44.3801742 C245.63795,43.9017982 245.63795,43.2184039 246.25443,42.8311472 Z"></path>
                            <path d="M228.924482,52.7631437 L237.57804,47.7971455 C238.402252,47.3754121 239.379578,47.3754121 240.20379,47.7971455 L242.852372,49.3461725 C243.62868,49.7789888 243.674346,50.4623831 242.966535,50.8724196 L234.33581,55.8611977 C233.511598,56.2829311 232.534272,56.2829311 231.71006,55.8611977 L229.038645,54.3121707 C228.285169,53.9021342 228.239504,53.2187399 228.924482,52.7631437 Z"></path>
                            <path d="M215.68157,60.4399393 L224.335128,55.4511612 C225.15934,55.0294278 226.136666,55.0294278 226.960878,55.4511612 L229.632293,57.0001882 C230.385769,57.4330045 230.431434,58.1163988 229.632293,58.5264353 L220.978735,63.4924336 C220.154523,63.9141669 219.177197,63.9141669 218.352985,63.4924336 L215.68157,61.9434066 C215.042257,61.5105903 214.996592,60.8499758 215.68157,60.4399393 Z"></path>
                            <path d="M202.461491,68.0711751 L211.115049,63.0823971 C211.939261,62.6606637 212.916587,62.6606637 213.740799,63.0823971 L216.389381,64.631424 C217.142857,65.0870202 217.211355,65.7704145 216.503544,66.1576712 L207.849986,71.1464493 C207.031088,71.5567869 206.065967,71.5567869 205.247069,71.1464493 L202.575654,69.5746425 C201.822178,69.1418261 201.776513,68.4584319 202.461491,68.0711751 Z"></path>
                            <path d="M189.21858,75.6796312 L197.872137,70.7136329 C198.693499,70.2802841 199.676525,70.2802841 200.497887,70.7136329 L203.169302,72.2626599 C203.922778,72.6954763 203.968443,73.3788706 203.169302,73.7889071 L194.515744,78.7549054 C193.691532,79.1766387 192.714206,79.1766387 191.889995,78.7549054 L189.21858,77.2058784 C188.556434,76.773062 188.556434,76.0896678 189.21858,75.6796312 Z"></path>
                            <path d="M115.355098,118.232314 L124.008656,113.243536 C124.833766,112.825529 125.809296,112.825529 126.634406,113.243536 L129.282988,114.792563 C130.059297,115.225379 130.104962,115.908773 129.282988,116.31881 L120.652263,121.284808 C119.828051,121.706541 118.850725,121.706541 118.026513,121.284808 L115.355098,119.735781 C114.715785,119.325745 114.67012,118.64235 115.355098,118.232314 Z"></path>
                            <path d="M102.112186,125.86355 L110.765744,120.874772 C111.592578,120.464012 112.564661,120.464012 113.391494,120.874772 L116.062909,122.423799 C116.816385,122.879395 116.86205,123.562789 116.062909,123.950046 L107.409351,128.938824 C106.58169,129.346059 105.611262,129.346059 104.783601,128.938824 L102.112186,127.367017 C101.472874,126.934201 101.427208,126.250806 102.112186,125.86355 Z"></path>
                            <path d="M88.8921074,133.472006 L97.5456652,128.506007 C98.369877,128.084274 99.3472031,128.084274 100.171415,128.506007 L102.819997,130.055034 C103.573473,130.487851 103.641971,131.171245 102.819997,131.581282 L94.1664395,136.57006 C93.3502287,136.991557 92.3797331,136.991557 91.5635224,136.57006 L88.8921074,135.021033 C88.2527944,134.565437 88.2071292,133.882042 88.8921074,133.472006 Z"></path>
                            <path d="M75.6491957,141.103242 L84.3027535,136.114463 C85.1295868,135.703704 86.10167,135.703704 86.9285033,136.114463 L89.5999182,137.68627 C90.3533942,138.119087 90.3990594,138.802481 89.5999182,139.189738 L80.9463604,144.178516 C80.1221486,144.600249 79.1448225,144.600249 78.3206107,144.178516 L75.6491957,142.629489 C75.0098828,142.173893 74.9642176,141.604397 75.6491957,141.103242 Z"></path>
                            <path d="M180.176868,65.9754327 L188.830425,61.0094345 C189.654637,60.5877011 190.631963,60.5877011 191.456175,61.0094345 L199.516085,65.702075 C200.269561,66.1576712 200.315226,66.8410655 199.516085,67.2283222 L190.862527,72.2171003 C190.034867,72.6243353 189.064438,72.6243353 188.236778,72.2171003 L180.176868,67.5016799 C179.537555,67.0688636 179.423391,66.4310289 180.176868,65.9754327 Z"></path>
                            <path d="M166.819793,73.6750081 L175.473351,68.68623 C176.297562,68.2644966 177.274889,68.2644966 178.0991,68.68623 L186.15901,73.3788706 C186.912486,73.8116869 186.980984,74.4950812 186.273173,74.9051177 L177.619616,79.871116 C176.806331,80.3044392 175.829983,80.3044392 175.016698,79.871116 L166.933956,75.1784754 C166.18048,74.7456591 166.134815,74.0850446 166.819793,73.6750081 Z"></path>
                            <path d="M153.485551,81.3745834 L162.116276,76.3858053 C162.943109,75.9750455 163.915192,75.9750455 164.742026,76.3858053 L172.824768,81.1012257 C173.578244,81.534042 173.623909,82.2174363 172.824768,82.604693 L164.194043,87.5934711 C163.369831,88.0152045 162.392505,88.0152045 161.568293,87.5934711 L153.485551,82.8780507 C152.823405,82.376895 152.77774,81.7618401 153.485551,81.3745834 Z"></path>
                            <path d="M140.128476,89.0513789 L148.759201,84.0853806 C149.583413,83.6636473 150.560739,83.6636473 151.384951,84.0853806 L159.467694,88.7780212 C160.22117,89.2336174 160.266835,89.9170116 159.467694,90.3042684 L150.836968,95.2930464 C150.010135,95.7038062 149.038052,95.7038062 148.211219,95.2930464 L140.128476,90.5776261 C139.46633,90.1448097 139.420665,89.4614154 140.128476,89.0513789 Z"></path>
                            <path d="M126.771401,96.7509542 L135.424959,91.7621761 C136.24117,91.3406785 137.211665,91.3406785 138.027876,91.7621761 L146.110619,96.4548167 C146.864095,96.8876331 146.90976,97.5710273 146.110619,97.9810639 L137.457061,102.947062 C136.635699,103.380411 135.652673,103.380411 134.831311,102.947062 L126.908397,98.322761 C126.132088,97.844385 126.063591,97.1609908 126.771401,96.7509542 Z"></path>
                            <path d="M113.414327,104.45053 L122.067884,99.4617514 C122.895545,99.0545164 123.865973,99.0545164 124.693634,99.4617514 L132.753544,104.177172 C133.50702,104.609988 133.552685,105.293382 132.753544,105.680639 L124.099986,110.669417 C123.275775,111.091151 122.298448,111.091151 121.474237,110.669417 L113.414327,105.953997 C112.775014,105.521181 112.729348,104.837786 113.414327,104.45053 Z"></path>
                            <path d="M100.057252,112.127325 L108.642312,107.161327 C109.466524,106.739593 110.44385,106.739593 111.268062,107.161327 L119.327972,111.853967 C120.081448,112.309563 120.127113,112.992958 119.442135,113.380214 L110.925573,118.437332 C110.097912,118.844567 109.127483,118.844567 108.299823,118.437332 L100.239913,113.721912 C99.5092694,113.220756 99.3722737,112.537362 100.057252,112.127325 Z"></path>
                            <path d="M86.7001772,119.8269 L95.353735,114.838122 C96.1788447,114.420115 97.154375,114.420115 97.9794847,114.838122 L106.039395,119.530763 C106.792871,119.963579 106.838536,120.646973 106.039395,121.05701 L97.385837,126.023008 C96.5644753,126.456357 95.5814489,126.456357 94.7600872,126.023008 L86.7001772,121.330368 C86.0608642,120.920331 86.015199,120.236937 86.7001772,119.8269 Z"></path>
                            <path d="M73.3431025,127.526476 L81.9966603,122.537698 C82.824321,122.130463 83.7947494,122.130463 84.62241,122.537698 L92.6594875,127.321457 C93.4129635,127.754274 93.4814613,128.437668 92.6594875,128.824925 L84.0059297,133.813703 C83.1817179,134.235436 82.2043917,134.235436 81.3801799,133.813703 L73.3202699,129.098282 C72.7037895,128.597127 72.6581243,127.936512 73.3431025,127.526476 Z"></path>
                            <path d="M180.81618,23.1493925 L206.274537,8.47919579 C207.098748,8.05746245 208.076074,8.05746245 208.900286,8.47919579 L216.960196,13.1718364 C217.713672,13.6046527 217.78217,14.288047 217.074359,14.6980835 L191.616003,29.3682803 C190.78917,29.7790401 189.817087,29.7790401 188.990254,29.3682803 L180.930344,24.6528599 C180.176868,24.1517041 180.10837,23.4683099 180.81618,23.1493925 Z"></path>
                            <path d="M16.763904,117.571699 L42.2222601,102.878723 C43.0464719,102.456989 44.023798,102.456989 44.8480098,102.878723 L52.9079198,107.571363 C53.6613959,108.026959 53.7070611,108.710354 52.9079198,109.09761 L27.4495638,123.767807 C26.625352,124.189541 25.6480259,124.189541 24.8238141,123.767807 L16.7410714,119.075167 C16.1017585,118.64235 16.0560932,117.958956 16.763904,117.571699 Z"></path>
                            <path d="M41.5144493,87.2062144 L50.1680071,82.2174363 C50.9948404,81.8066765 51.9669235,81.8066765 52.7937568,82.2174363 L62.4062841,87.8212692 C63.1597601,88.2768654 63.2054253,88.9602596 62.4062841,89.3475164 L53.8440567,94.4046339 C53.0163961,94.8118689 52.0459676,94.8118689 51.218307,94.4046339 L41.6057797,88.800801 C40.8751363,88.2768654 40.8294711,87.6162509 41.5144493,87.2062144 Z"></path>
                            <path d="M138.507361,31.3501236 L152.206925,23.3771906 C153.033758,22.9664308 154.005841,22.9664308 154.832674,23.3771906 L164.445202,28.9810235 C165.198678,29.4366197 165.244343,30.0972342 164.559365,30.5072707 L150.722805,38.4802037 C149.897696,38.8982107 148.922165,38.8982107 148.097056,38.4802037 L138.484528,32.8991506 C137.845215,32.4207746 137.79955,31.7373804 138.507361,31.3501236 Z"></path>
                            <path d="M54.3920393,79.8027766 L68.2285987,71.8298436 C69.0528105,71.4081102 70.0301366,71.4081102 70.8543484,71.8298436 L80.4440431,77.4336765 C81.2203517,77.8664929 81.2660169,78.5498871 80.4440431,78.9599237 L66.7444793,86.9100769 C65.9231176,87.3434257 64.9400912,87.3434257 64.1187296,86.9100769 L54.5062023,81.306244 C53.8440567,80.8734276 53.7070611,80.0989141 54.3920393,79.8027766 Z"></path>
                            <path d="M119.236641,42.4438904 L133.073201,34.5392968 C133.892099,34.1289592 134.85722,34.1289592 135.676118,34.5392968 L145.288645,40.1431298 C146.042121,40.5987259 146.110619,41.2821202 145.288645,41.6693769 L131.452086,49.64231 C130.633188,50.0526476 129.668067,50.0526476 128.849168,49.64231 L119.236641,44.038477 C118.597328,43.5145414 118.52883,42.853927 119.236641,42.4438904 Z"></path>
                            <path d="M145.311478,41.7377164 L85.1932252,76.3630255 C84.3690134,76.7847588 83.3916873,76.7847588 82.5674755,76.3630255 L72.7722874,70.6680733 C72.0644766,70.2580368 72.0873092,69.5746425 72.7722874,69.1418261 L132.959038,34.5392968 L145.311478,41.7377164 Z"></path>
                            <path d="M16.9237323,108.528115 L7.28837241,114.063609 C6.61753803,114.419987 5.81294179,114.419987 5.14210742,114.063609 L1.21489913,111.785628 C0.598418757,111.421151 0.552753544,110.874436 1.21489913,110.532738 L10.850259,104.997245 C11.5210934,104.640867 12.3256896,104.640867 12.996524,104.997245 L16.9237323,107.275226 C17.4488822,107.639703 17.4945474,108.186418 16.9237323,108.528115 Z"></path>
                            <path d="M30.39497,100.760201 L20.7596101,106.318474 C20.0887758,106.674852 19.2841795,106.674852 18.6133451,106.318474 L14.6861369,104.040493 C14.0696565,103.676016 14.0239913,103.106521 14.6861369,102.787603 L24.1616685,97.1609908 C24.8325029,96.8046125 25.6370991,96.8046125 26.3079335,97.1609908 L30.2351418,99.4389716 C31.0114504,99.8945678 31.0114504,100.441283 30.39497,100.760201 Z"></path>
                            <path d="M43.7520447,93.083405 L34.1166848,98.6188985 C33.4458505,98.9752767 32.6412542,98.9752767 31.9704198,98.6188985 L28.0432116,96.3409176 C27.4038986,95.9764407 27.381066,95.4297253 28.0432116,95.0880282 L37.6557388,89.5525347 C38.3382966,89.2111881 39.1422786,89.2111881 39.8248364,89.5525347 L43.7520447,91.8305155 C44.2771947,92.1949925 44.3228599,92.7417079 43.7520447,93.083405 Z"></path>
                            <path d="M37.3360823,104.815006 L27.7007225,110.37328 C27.0298881,110.729658 26.2252918,110.729658 25.5544575,110.37328 L21.6272492,108.095299 C21.0107688,107.753602 20.9651036,107.184107 21.6272492,106.865189 L31.2626091,101.306916 C31.9334434,100.950538 32.7380397,100.950538 33.408874,101.306916 L37.3360823,103.584897 C37.8612323,103.926594 37.8612323,104.496089 37.3360823,104.815006 Z"></path>
                        </g>
                        <path d="M184.033533,45.3601091 L184.033533,129.463163 L184.033533,129.463163 C183.8805,131.580662 182.586147,133.4479 180.654308,134.338042 L110.558206,174.681083 C105.5122,177.596898 96.7216467,177.232421 90.8993321,173.883789 L90.8993321,173.883789 C87.6342694,171.993065 85.9903217,169.578406 86.0816521,167.300425 L86.0816521,167.300425 L86.0816521,83.1518116 L184.033533,45.3601091 Z" fill="url(#linearGradient-7)"></path>
                        <path d="M105.306707,176.366789 C100.361479,177.115103 95.3063614,176.243893 90.8993321,173.883789 C87.6342694,171.993065 85.9903217,169.578406 86.0816521,167.300425 L86.0816521,167.300425 L86.0816521,83.1518116 L104.964218,75.8622729 L105.306707,75.8622729 L105.306707,176.366789 Z" fill="#1517A1" opacity="0.3"></path>
                        <path d="M110.558206,90.5780292 L180.631475,50.2122084 C185.677481,47.3191727 185.038168,42.2392753 179.215853,38.8223041 L179.215853,38.8223041 C173.393539,35.4508924 164.580153,35.0864154 159.534147,38.0022309 L89.4837105,78.4136114 C84.4377045,81.3294269 85.0770174,86.4093243 90.8993321,89.8035158 L90.8993321,89.8035158 C96.7216467,93.106588 105.5122,93.4710649 110.558206,90.5780292 Z" fill="url(#linearGradient-8)"></path>
                        <path d="M110.558206,207.825704 L180.631475,167.459883 C185.677481,164.566848 185.038168,159.48695 179.215853,156.069979 L179.215853,156.069979 C173.393539,152.721347 164.580153,152.35687 159.534147,155.249906 L89.4837105,195.684066 C84.4377045,198.577102 85.0770174,203.656999 90.8993321,207.073971 L90.8993321,207.073971 C96.7216467,210.354263 105.5122,210.71874 110.558206,207.825704 Z" fill="#1517A1" opacity="0.5"></path>
                        <path d="M103.571429,85.1564348 C106.913105,85.1564348 109.622069,82.4537348 109.622069,79.1197855 L109.622069,41.7381196 C109.622069,40.1262235 109.622069,35.708906 109.622069,36.5736011 C109.622069,36.7475175 160.378953,7.30239972 160.378953,7.30239972 L160.378953,42.8543302 C160.575663,46.0506323 163.231266,48.5424065 166.44101,48.5424065 C169.650754,48.5424065 172.306358,46.0506323 172.503067,42.8543302 L172.503067,0.398049861 C172.503067,0.261732873 97.6349509,43.4853246 97.6349509,43.4853246 L97.6349509,79.1197855" fill="url(#linearGradient-9)"></path>
                    </g>
                </g>
                <path d="M373.379226,296.604597 L381.941453,291.641221 C382.626431,291.252385 382.535101,290.543332 381.73596,290.085878 L371.643948,284.25334 C370.797592,283.821516 369.796056,283.821516 368.9497,284.25334 L360.387473,289.193843 C359.702495,289.605551 359.793825,290.291732 360.592966,290.749186 L370.684978,296.604597 C371.533909,297.025537 372.530295,297.025537 373.379226,296.604597 Z" id="Path" fill="#607BED"></path>
                <path d="M360.159147,304.244078 L368.721374,299.280703 C369.406352,298.891867 369.315022,298.205686 368.515881,297.748232 L358.401036,291.892821 C357.578085,291.435914 356.588484,291.393549 355.729621,291.778458 L347.167394,296.741833 C346.482415,297.130669 346.573746,297.81685 347.350055,298.297177 L357.464899,304.129715 C358.295908,304.587107 359.292491,304.629409 360.159147,304.244078 Z" id="Path" fill="#607BED"></path>
                <path d="M346.916235,311.88356 L355.478462,306.943057 C356.163441,306.531348 356.094943,305.845167 355.295802,305.387713 L345.249455,299.532302 C344.411083,299.100761 343.416411,299.100761 342.57804,299.532302 L334.015812,304.472805 C333.330834,304.861641 333.399332,305.570695 334.198473,306.028149 L344.313318,311.88356 C345.133063,312.291974 346.09649,312.291974 346.916235,311.88356 L346.916235,311.88356 Z" id="Path" fill="#607BED"></path>
                <path d="M328.627317,305.570695 L337.189545,300.630192 C337.874523,300.218483 337.806025,299.532302 337.006884,299.074848 L328.513154,294.157218 C327.672146,293.736739 326.682748,293.736739 325.841739,294.157218 L317.279512,299.120594 C316.594534,299.50943 316.663032,300.218483 317.462173,300.675937 L325.955902,305.570695 C326.794274,306.002236 327.788946,306.002236 328.627317,305.570695 Z" id="Path" fill="#607BED"></path>
                <path d="M315.407238,313.233049 L323.969466,308.269673 C324.654444,307.880837 324.563113,307.171784 323.786805,306.71433 L315.293075,301.819572 C314.465108,301.351392 313.463363,301.308871 312.598828,301.705209 L304.150763,306.645712 C303.465785,307.05742 303.557116,307.743601 304.356257,308.201055 L312.827154,313.118685 C313.627346,313.539509 314.57307,313.581429 315.407238,313.233049 Z" id="Path" fill="#607BED"></path>
                <path d="M302.187159,320.87253 L310.749387,315.932027 C311.434365,315.520319 311.343034,314.834138 310.543893,314.376684 L302.072996,309.459054 C301.241987,309.001662 300.245404,308.95936 299.378749,309.34469 L290.816521,314.422429 C290.131543,314.811265 290.222874,315.520319 291.022015,315.977773 L299.492912,320.87253 C300.341842,321.29347 301.338228,321.29347 302.187159,320.87253 L302.187159,320.87253 Z" id="Path" fill="#607BED"></path>
                <path d="M288.96708,328.512012 L297.529308,323.571509 C298.214286,323.182673 298.122955,322.473619 297.323814,322.016165 L288.852917,317.121408 C288.028234,316.641832 287.020894,316.599073 286.15867,317.007044 L277.596442,321.947547 C276.911464,322.359256 277.002794,323.045437 277.779103,323.502891 L286.272833,328.420521 C287.1045,328.881362 288.106169,328.915376 288.96708,328.512012 Z" id="Path" fill="#607BED"></path>
                <path d="M275.724168,336.174366 L284.286396,331.21099 C284.971374,330.822154 284.902876,330.135973 284.103735,329.678519 L275.610005,324.760889 C274.787054,324.303982 273.797454,324.261617 272.938591,324.646526 L264.376363,329.609901 C263.691385,329.998737 263.759883,330.684918 264.559024,331.142372 L273.052754,336.060002 C273.875705,336.51691 274.865305,336.559274 275.724168,336.174366 Z" id="Path" fill="#607BED"></path>
                <path d="M262.504089,343.813847 L271.066317,338.873344 C271.751295,338.461636 271.659965,337.775455 270.883656,337.318001 L262.389926,332.40037 C261.566975,331.943463 260.577375,331.901098 259.718511,332.286007 L251.156284,337.295128 C250.448473,337.683964 250.539804,338.393018 251.338945,338.850471 L259.832674,343.745229 C260.656792,344.210094 261.657273,344.235793 262.504089,343.813847 Z" id="Path" fill="#607BED"></path>
                <path d="M249.352508,351.476201 L257.914736,346.512826 C258.599714,346.12399 258.508383,345.414936 257.732075,344.957482 L249.238345,340.062725 C248.407336,339.605333 247.410753,339.563031 246.544098,339.948361 L237.936205,344.888864 C237.251227,345.300573 237.342557,345.986753 238.141698,346.444207 L246.612595,351.361838 C247.455739,351.834407 248.473044,351.876869 249.352508,351.476201 L249.352508,351.476201 Z" id="Path" fill="#607BED"></path>
                <path d="M236.063931,359.115683 L244.626159,354.17518 C245.311137,353.763471 245.219806,353.07729 244.420665,352.619836 L235.949768,347.702206 C235.118759,347.244814 234.122176,347.202512 233.255521,347.587842 L224.693293,352.551218 C224.008315,352.940054 224.099646,353.649108 224.898787,354.106562 L233.369684,359.001319 C234.197651,359.469499 235.199396,359.51202 236.063931,359.115683 Z" id="Path" fill="#607BED"></path>
                <path d="M222.82102,366.778037 L231.383247,361.814661 C232.091058,361.425825 231.999727,360.716771 231.200586,360.259317 L222.706857,355.36456 C221.887021,354.89669 220.892134,354.854098 220.035442,355.250196 L211.473214,360.167827 C210.788236,360.579535 210.879567,361.265716 211.655875,361.72317 L220.149605,366.6408 C220.968911,367.105094 221.9586,367.155936 222.82102,366.778037 L222.82102,366.778037 Z" id="Path" fill="#607BED"></path>
                <path d="M209.600941,374.417518 L218.163168,369.454142 C218.848146,369.065306 218.779648,368.379126 217.980507,367.921672 L209.486778,363.004041 C208.663826,362.547134 207.674226,362.504769 206.815363,362.889678 L198.253135,367.853053 C197.568157,368.241889 197.636655,368.92807 198.435796,369.408397 L206.929526,374.303154 C207.752477,374.760062 208.742077,374.802427 209.600941,374.417518 Z" id="Path" fill="#607BED"></path>
                <path d="M309.151104,301.956808 L317.713332,296.993433 C318.39831,296.604597 318.306979,295.918416 317.507838,295.460962 L309.036941,290.543332 C308.18801,290.122392 307.191624,290.122392 306.342694,290.543332 L297.780466,295.506707 C297.095488,295.895543 297.186818,296.581724 297.98596,297.039178 L306.434024,301.842445 C307.271114,302.307386 308.278031,302.349767 309.151104,301.956808 L309.151104,301.956808 Z" id="Path" fill="#607BED"></path>
                <path d="M322.576677,294.202964 L331.138904,289.239588 C331.823882,288.850752 331.732552,288.141698 330.933411,287.684244 L322.416848,282.789487 C321.573284,282.346163 320.566165,282.346163 319.722601,282.789487 L311.160374,287.72999 C310.475395,288.141698 310.566726,288.827879 311.365867,289.285333 L319.836764,294.202964 C320.698169,294.639158 321.715272,294.639158 322.576677,294.202964 Z" id="Path" fill="#607BED"></path>
                <path d="M336.116412,286.426246 L354.565158,275.744696 C355.250136,275.35586 355.181638,274.646806 354.382497,274.189352 L345.888768,269.294595 C345.050396,268.863053 344.055724,268.863053 343.217353,269.294595 L324.700109,279.838909 C324.015131,280.250617 324.106461,280.936798 324.88277,281.394252 L333.376499,286.311883 C334.217531,286.79187 335.238436,286.834482 336.116412,286.426246 L336.116412,286.426246 Z" id="Path" fill="#607BED"></path>
                <path d="M326.618048,276.956949 L341.573405,268.311069 C342.281216,267.89936 342.189885,267.213179 341.390744,266.755725 L332.897015,261.815222 C332.074064,261.358315 331.084463,261.31595 330.2256,261.700859 L315.24741,270.369612 C314.562432,270.758447 314.653762,271.467501 315.452903,271.924955 L323.9238,276.819713 C324.751192,277.284494 325.747862,277.335261 326.618048,276.956949 Z" id="Path" fill="#607BED"></path>
                <path d="M295.931025,309.59629 L304.493252,304.655787 C305.178231,304.244078 305.0869,303.557897 304.287759,303.100443 L295.816862,298.182813 C294.970506,297.750989 293.96897,297.750989 293.122615,298.182813 L284.560387,302.98608 C283.875409,303.374916 283.966739,304.083969 284.743048,304.541423 L293.236778,309.436181 C294.05382,309.930502 295.061373,309.990377 295.931025,309.59629 L295.931025,309.59629 Z" id="Path" fill="#607BED"></path>
                <path d="M282.688113,317.258644 L291.250341,312.295268 C291.935319,311.906432 291.866821,311.197379 291.06768,310.739925 L282.57395,305.845167 C281.750999,305.38826 280.761399,305.345895 279.902535,305.730804 L271.340308,310.671307 C270.65533,311.083015 270.723828,311.769196 271.522969,312.22665 L280.016698,317.14428 C280.83965,317.601188 281.82925,317.643553 282.688113,317.258644 L282.688113,317.258644 Z" id="Path" fill="#607BED"></path>
                <path d="M269.468034,324.898125 L278.030262,319.957622 C278.71524,319.545914 278.623909,318.859733 277.847601,318.402279 L269.353871,313.484649 C268.53092,313.027741 267.54132,312.985376 266.682456,313.370285 L258.120229,318.333661 C257.412418,318.722497 257.503749,319.43155 258.30289,319.889004 L266.796619,324.783762 C267.616455,325.251632 268.611342,325.294223 269.468034,324.898125 L269.468034,324.898125 Z" id="Path" fill="#607BED"></path>
                <path d="M256.20229,332.560479 L264.764517,327.597104 C265.449496,327.208268 265.358165,326.499214 264.559024,326.04176 L256.20229,321.147003 C255.374322,320.678823 254.372578,320.636301 253.508043,321.032639 L244.785987,325.973142 C244.101009,326.384851 244.192339,327.071032 244.99148,327.528486 L253.462377,332.446116 C254.305521,332.918685 255.322826,332.961148 256.20229,332.560479 Z" id="Path" fill="#607BED"></path>
                <path d="M243.027876,340.199961 L251.635769,335.236585 C252.320747,334.847749 252.229417,334.161568 251.430275,333.704114 L242.959378,328.786484 C242.128369,328.329092 241.131786,328.28679 240.265131,328.672121 L231.702903,333.635496 C231.017925,334.024332 231.109256,334.710513 231.908397,335.19084 L240.379294,340.085597 C241.198057,340.528128 242.174138,340.570274 243.027876,340.199961 L243.027876,340.199961 Z" id="Path" fill="#607BED"></path>
                <path d="M229.784965,347.839442 L238.347192,342.898939 C239.055003,342.487231 238.963672,341.80105 238.164531,341.343596 L229.670802,336.425965 C228.83243,335.994424 227.837758,335.994424 226.999387,336.425965 L218.437159,341.366468 C217.752181,341.778177 217.843511,342.464358 218.61982,342.921812 L227.11355,347.839442 C227.951921,348.270983 228.946593,348.270983 229.784965,347.839442 Z" id="Path" fill="#607BED"></path>
                <path d="M216.564885,355.593287 L225.127113,350.629911 C225.812091,350.241075 225.743593,349.554894 224.944452,349.074568 L216.450722,344.156938 C215.627771,343.70003 214.638171,343.657665 213.779308,344.042574 L205.21708,349.00595 C204.532102,349.394786 204.6006,350.080967 205.399741,350.538421 L213.893471,355.456051 C214.712776,355.920344 215.702466,355.971187 216.564885,355.593287 Z" id="Path" fill="#607BED"></path>
                <path d="M203.344806,363.141278 L211.907034,358.200775 C212.592012,357.789066 212.500682,357.102885 211.724373,356.645431 L203.230643,351.727801 C202.399634,351.270409 201.403051,351.228107 200.536396,351.613437 L191.974168,356.576813 C191.28919,356.965649 191.380521,357.674703 192.179662,358.132156 L200.650559,363.026914 C201.478527,363.495094 202.480271,363.537615 203.344806,363.141278 Z" id="Path" fill="#607BED"></path>
                <path d="M190.124727,370.803632 L198.686955,365.840256 C199.371933,365.45142 199.280603,364.742366 198.481461,364.284912 L189.987732,359.390155 C189.141376,358.958331 188.13984,358.958331 187.293484,359.390155 L178.731257,364.330658 C178.046279,364.742366 178.137609,365.428547 178.93675,365.886001 L187.407647,370.803632 C188.262829,371.232159 189.269546,371.232159 190.124727,370.803632 Z" id="Path" fill="#607BED"></path>
                <path d="M166.607143,384.390015 L185.284215,373.594101 C185.992026,373.182392 185.900695,372.496211 185.101554,372.038757 L176.607824,367.029636 C175.766816,366.609157 174.777418,366.609157 173.936409,367.029636 L155.236505,377.848423 C154.551527,378.237259 154.642857,378.946312 155.441998,379.403766 L163.935728,384.298524 C164.759293,384.759059 165.754103,384.793129 166.607143,384.390015 Z" id="Path" fill="#607BED"></path>
                <path d="M140.851963,369.499888 L156.629294,360.350808 C157.314272,359.961972 157.222942,359.275791 156.446633,358.795465 L147.952903,353.900707 C147.129952,353.4438 146.140352,353.401435 145.281489,353.786344 L129.504158,362.935423 C128.819179,363.324259 128.887677,364.033313 129.686818,364.490767 L138.180548,369.385524 C139.003499,369.842432 139.9931,369.884797 140.851963,369.499888 Z" id="Path" fill="#607BED"></path>
                <path d="M272.75593,308.109564 L281.318157,303.146189 C282.003135,302.757353 281.934637,302.071172 281.135496,301.613718 L272.641767,296.696088 C271.818815,296.23918 270.829215,296.196816 269.970352,296.581724 L261.408124,301.5451 C260.723146,301.933936 260.791644,302.620117 261.590785,303.077571 L270.084515,307.995201 C270.907466,308.452108 271.897067,308.494473 272.75593,308.109564 Z" id="Path" fill="#607BED"></path>
                <path d="M286.318498,300.264229 L294.880725,295.323726 C295.565703,294.912017 295.474373,294.225836 294.675232,293.768382 L286.204335,288.850752 C285.355404,288.429813 284.359018,288.429813 283.510087,288.850752 L274.94786,293.814128 C274.262882,294.202964 274.354212,294.912017 275.153353,295.369471 L283.62425,300.264229 C284.470606,300.696053 285.472142,300.696053 286.318498,300.264229 L286.318498,300.264229 Z" id="Path" fill="#607BED"></path>
                <path d="M299.858233,292.418893 L308.443293,287.47839 C309.128272,287.066682 309.036941,286.380501 308.2378,285.923047 L299.74407,281.005416 C298.905699,280.573875 297.911027,280.573875 297.072655,281.005416 L288.510428,285.945919 C287.82545,286.357628 287.91678,287.043809 288.693089,287.501263 L297.186818,292.418893 C298.02519,292.850434 299.019862,292.850434 299.858233,292.418893 Z" id="Path" fill="#607BED"></path>
                <path d="M313.420802,284.687921 L321.983029,279.724545 C322.668007,279.335709 322.576677,278.626656 321.800368,278.169202 L313.283806,273.251572 C312.445435,272.82003 311.450762,272.82003 310.612391,273.251572 L302.050164,278.192075 C301.342353,278.603783 301.433683,279.289964 302.232824,279.747418 L310.726554,284.665048 C311.570165,285.100388 312.569946,285.108876 313.420802,284.687921 Z" id="Path" fill="#607BED"></path>
                <path d="M259.535851,315.749046 L268.098078,310.808543 C268.783056,310.396834 268.691726,309.710653 267.915417,309.253199 L259.421688,304.335569 C258.590678,303.878177 257.594095,303.835875 256.72744,304.221206 L248.165213,309.184581 C247.480234,309.573417 247.571565,310.282471 248.370706,310.739925 L256.841603,315.634682 C257.666286,316.114258 258.673626,316.157017 259.535851,315.749046 L259.535851,315.749046 Z" id="Path" fill="#607BED"></path>
                <path d="M246.315772,323.4114 L254.877999,318.448024 C255.562977,318.059188 255.471647,317.350135 254.672505,316.892681 L246.201609,311.997923 C245.370599,311.540532 244.374016,311.498229 243.507361,311.88356 L234.945134,316.824063 C234.260155,317.235771 234.351486,317.921952 235.150627,318.379406 L243.621524,323.297036 C244.452533,323.754428 245.449116,323.79673 246.315772,323.4114 L246.315772,323.4114 Z" id="Path" fill="#607BED"></path>
                <path d="M233.095692,331.050881 L241.65792,326.110378 C242.342898,325.69867 242.251568,325.012489 241.452426,324.555035 L232.981529,319.637405 C232.15052,319.180013 231.153937,319.137711 230.287282,319.523041 L221.725055,324.486417 C221.040076,324.875253 221.131407,325.584306 221.907715,326.04176 L230.401445,330.936518 C231.229413,331.404698 232.231157,331.447219 233.095692,331.050881 L233.095692,331.050881 Z" id="Path" fill="#607BED"></path>
                <path d="M219.852781,338.713235 L228.415008,333.74986 C229.099986,333.361024 229.031489,332.65197 228.232347,332.194516 L219.67012,327.299759 C218.831749,326.868217 217.837076,326.868217 216.998705,327.299759 L208.436478,332.240262 C207.751499,332.65197 207.819997,333.338151 208.619138,333.795605 L217.112868,338.713235 C217.972477,339.156914 218.993172,339.156914 219.852781,338.713235 Z" id="Path" fill="#607BED"></path>
                <path d="M206.632702,346.444207 L215.194929,341.480832 C215.879907,341.091996 215.788577,340.405815 215.012268,339.948361 L206.518539,335.007858 C205.695588,334.550951 204.705987,334.508586 203.847124,334.893495 L195.284896,339.85687 C194.577086,340.245706 194.668416,340.931887 195.467557,341.412214 L203.961287,346.306971 C204.780593,346.771265 205.770282,346.822107 206.632702,346.444207 L206.632702,346.444207 Z" id="Path" fill="#607BED"></path>
                <path d="M193.412623,353.992198 L201.97485,349.051695 C202.659828,348.639987 202.568498,347.953806 201.769357,347.496352 L193.29846,342.578721 C192.452104,342.146897 191.450568,342.146897 190.604212,342.578721 L182.041985,347.519224 C181.357007,347.90806 181.448337,348.617114 182.247478,349.074568 L190.718375,353.992198 C191.564731,354.424022 192.566267,354.424022 193.412623,353.992198 L193.412623,353.992198 Z" id="Path" fill="#607BED"></path>
                <path d="M180.192544,361.654552 L188.754771,356.691176 C189.439749,356.302341 189.348419,355.593287 188.549278,355.135833 L180.078381,350.241075 C179.22945,349.820136 178.233064,349.820136 177.384133,350.241075 L168.821906,355.204451 C168.136927,355.593287 168.228258,356.279468 169.004567,356.736922 L177.498296,361.654552 C178.347227,362.075492 179.343613,362.075492 180.192544,361.654552 Z" id="Path" fill="#607BED"></path>
                <path d="M166.949632,369.316906 L175.511859,364.376403 C176.21967,363.964695 176.12834,363.278514 175.329198,362.82106 L166.835469,357.880557 C166.012518,357.423649 165.022917,357.381285 164.164054,357.766193 L155.601827,362.729569 C154.916848,363.118405 155.008179,363.827458 155.784487,364.284912 L164.278217,369.17967 C165.09431,369.65491 166.089291,369.706024 166.949632,369.316906 Z" id="Path" fill="#607BED"></path>
                <path d="M153.729553,376.956388 L162.29178,371.993012 C162.976758,371.604176 162.908261,370.895122 162.109119,370.437668 L153.61539,365.542911 C152.777019,365.11137 151.782346,365.11137 150.943975,365.542911 L142.381748,370.483414 C141.696769,370.895122 141.765267,371.581303 142.564408,372.038757 L151.058138,376.956388 C151.899146,377.376867 152.888545,377.376867 153.729553,376.956388 Z" id="Path" fill="#607BED"></path>
                <path d="M279.719875,289.262461 L288.282102,284.299085 C288.96708,283.910249 288.898582,283.201196 288.099441,282.743742 L279.605712,277.826111 C278.764703,277.405632 277.775305,277.405632 276.934297,277.826111 L268.372069,282.766614 C267.687091,283.178323 267.755589,283.864504 268.55473,284.321958 L277.04846,289.239588 C277.885876,289.667285 278.875283,289.675756 279.719875,289.262461 L279.719875,289.262461 Z" id="Path" fill="#607BED"></path>
                <path d="M292.894288,281.577234 L301.456516,276.613858 C302.141494,276.225022 302.050164,275.538841 301.251022,275.081388 L292.73446,270.163757 C291.903451,269.706366 290.906868,269.664063 290.040213,270.049394 L281.477985,275.012769 C280.793007,275.401605 280.884338,276.087786 281.660646,276.568113 L290.154376,281.46287 C290.997519,281.93544 292.014824,281.977902 292.894288,281.577234 Z" id="Path" fill="#607BED"></path>
                <path d="M306.04587,273.960625 L314.608097,269.020122 C315.293075,268.608414 315.201745,267.922233 314.425436,267.464779 L305.931707,262.547149 C305.082776,262.126209 304.08639,262.126209 303.237459,262.547149 L294.675232,267.510524 C293.990254,267.89936 294.081584,268.608414 294.880725,269.065868 L303.351622,273.960625 C304.197978,274.392449 305.199514,274.392449 306.04587,273.960625 L306.04587,273.960625 Z" id="Path" fill="#607BED"></path>
                <path d="M319.197451,266.389762 L327.759678,261.449259 C328.444656,261.060423 328.376159,260.35137 327.577017,259.893916 L319.083288,254.953413 C318.24778,254.510172 317.247381,254.510172 316.411873,254.953413 L307.849646,259.893916 C307.164667,260.305624 307.233165,260.991805 308.032306,261.449259 L316.526036,266.366889 C317.360721,266.805626 318.355402,266.814143 319.197451,266.389762 Z" id="Path" fill="#607BED"></path>
                <path d="M305.680548,258.521554 L314.242775,253.581051 C314.927754,253.169342 314.836423,252.483161 314.037282,252.025707 L311.228871,250.378873 C310.40592,249.921966 309.41632,249.879601 308.557456,250.264509 L299.995229,255.227885 C299.310251,255.616721 299.378749,256.302902 300.17789,256.783229 L302.9863,258.384317 C303.80717,258.871249 304.814608,258.922564 305.680548,258.521554 L305.680548,258.521554 Z" id="Path" fill="#607BED"></path>
                <path d="M288.487595,268.471178 L297.072655,263.507802 C297.757634,263.118966 297.666303,262.409912 296.867162,261.952458 L294.058751,260.328497 C293.217743,259.908018 292.228345,259.908018 291.387336,260.328497 L282.825109,265.291872 C282.140131,265.680708 282.208629,266.389762 283.00777,266.847216 L285.81618,268.471178 C286.657189,268.891657 287.646587,268.891657 288.487595,268.471178 L288.487595,268.471178 Z" id="Path" fill="#607BED"></path>
                <path d="M275.381679,276.042041 L283.966739,271.078665 C284.651718,270.689829 284.560387,270.003648 283.761246,269.546194 L280.952835,267.922233 C280.114464,267.490692 279.119792,267.490692 278.28142,267.922233 L269.719193,272.862736 C269.034215,273.274444 269.102713,273.960625 269.901854,274.418079 L272.710264,276.042041 C273.551273,276.46252 274.540671,276.46252 275.381679,276.042041 L275.381679,276.042041 Z" id="Path" fill="#607BED"></path>
                <path d="M262.298596,283.612904 L270.860823,278.672401 C271.545802,278.260693 271.454471,277.574512 270.65533,277.117058 L267.846919,275.538841 C267.005911,275.118362 266.016513,275.118362 265.175504,275.538841 L256.613277,280.502217 C255.928299,280.891053 255.996797,281.577234 256.795938,282.034688 L259.604348,283.65865 C260.457995,284.076173 261.459564,284.059168 262.298596,283.612904 Z" id="Path" fill="#607BED"></path>
                <path d="M249.19268,291.20664 L257.754907,286.243264 C258.439885,285.854429 258.348555,285.145375 257.549414,284.687921 L254.741003,283.063959 C253.918052,282.607052 252.928451,282.564687 252.069588,282.949596 L243.507361,287.912971 C242.822383,288.301807 242.890881,289.010861 243.690022,289.468315 L246.498432,291.092277 C247.329442,291.549668 248.326025,291.591971 249.19268,291.20664 Z" id="Path" fill="#607BED"></path>
                <path d="M176.014177,333.521133 L184.576404,328.557757 C185.284215,328.168921 185.192884,327.459868 184.393743,327.002414 L181.585333,325.378452 C180.744324,324.957973 179.754926,324.957973 178.913918,325.378452 L170.35169,330.341828 C169.643879,330.730663 169.73521,331.439717 170.534351,331.897171 L173.342762,333.521133 C174.18377,333.941612 175.173169,333.941612 176.014177,333.521133 L176.014177,333.521133 Z" id="Path" fill="#607BED"></path>
                <path d="M162.908261,341.091996 L171.493321,336.12862 C172.178299,335.739784 172.086968,335.053604 171.287827,334.59615 L168.479417,332.972188 C167.659581,332.504318 166.664694,332.461726 165.808002,332.857824 L157.245774,337.798327 C156.560796,338.210036 156.629294,338.896217 157.428435,339.353671 L160.236846,340.977632 C161.059797,341.43454 162.049397,341.476905 162.908261,341.091996 Z" id="Path" fill="#607BED"></path>
                <path d="M149.825177,348.731477 L158.387405,343.790974 C159.072383,343.379266 158.981052,342.693085 158.181911,342.235631 L155.373501,340.611669 C154.532492,340.19119 153.543094,340.19119 152.702086,340.611669 L144.139858,345.575045 C143.45488,345.963881 143.523378,346.650062 144.322519,347.130388 L147.13093,348.731477 C147.974494,349.174801 148.981613,349.174801 149.825177,348.731477 Z" id="Path" fill="#607BED"></path>
                <path d="M136.719261,356.256595 L145.281489,351.29322 C145.966467,350.904384 145.875136,350.19533 145.075995,349.737876 L142.267585,348.113914 C141.429213,347.682373 140.434541,347.682373 139.59617,348.113914 L131.033942,353.054417 C130.348964,353.443253 130.417462,354.152307 131.216603,354.609761 L134.025014,356.233722 C134.870379,356.661886 135.866773,356.670345 136.719261,356.256595 Z" id="Path" fill="#607BED"></path>
                <path d="M266.499796,296.833324 L275.062023,291.892821 C275.747001,291.481112 275.655671,290.794932 274.879362,290.337478 L266.385632,285.419847 C265.536702,284.998908 264.540316,284.998908 263.691385,285.419847 L255.129158,290.383223 C254.444179,290.772059 254.53551,291.481112 255.334651,291.938566 L263.805548,296.833324 C264.651904,297.265148 265.65344,297.265148 266.499796,296.833324 Z" id="Path" fill="#607BED"></path>
                <path d="M253.279716,304.495678 L261.841944,299.532302 C262.526922,299.143467 262.435592,298.434413 261.63645,297.976959 L253.165553,293.082201 C252.319197,292.650377 251.317662,292.650377 250.471306,293.082201 L241.909079,298.022704 C241.2241,298.434413 241.315431,299.120594 242.114572,299.578048 L250.585469,304.495678 C251.4344,304.916618 252.430786,304.916618 253.279716,304.495678 Z" id="Path" fill="#607BED"></path>
                <path d="M240.059637,312.135159 L248.621865,307.171784 C249.306843,306.782948 249.215513,306.096767 248.416371,305.639313 L239.945474,300.69881 C239.096544,300.277871 238.100158,300.277871 237.251227,300.69881 L228.803162,305.570695 C228.118184,305.959531 228.209515,306.645712 228.985823,307.126038 L237.479553,312.020796 C238.279746,312.44162 239.225469,312.483539 240.059637,312.135159 Z" id="Path" fill="#607BED"></path>
                <path d="M226.816726,319.774641 L235.378953,314.834138 C236.063931,314.422429 235.995433,313.736248 235.196292,313.278794 L226.702563,308.361164 C225.864191,307.929623 224.869519,307.929623 224.031148,308.361164 L215.46892,313.301667 C214.783942,313.713376 214.85244,314.399557 215.651581,314.857011 L224.236641,319.68315 C225.03588,320.113145 225.989137,320.146948 226.816726,319.774641 L226.816726,319.774641 Z" id="Path" fill="#607BED"></path>
                <path d="M213.596647,327.436995 L222.158874,322.473619 C222.843852,322.084783 222.752522,321.398602 221.976213,320.918276 L213.482484,316.023518 C212.641475,315.603039 211.652077,315.603039 210.811069,316.023518 L202.248841,320.986894 C201.541031,321.37573 201.632361,322.061911 202.431502,322.519365 L210.925232,327.436995 C211.76624,327.857474 212.755639,327.857474 213.596647,327.436995 L213.596647,327.436995 Z" id="Path" fill="#607BED"></path>
                <path d="M200.376568,335.007858 L208.938795,330.067355 C209.623773,329.655647 209.532443,328.969466 208.733302,328.512012 L200.262405,323.571509 C199.413474,323.150569 198.417088,323.150569 197.568157,323.571509 L189.00593,328.534884 C188.320951,328.92372 188.412282,329.632774 189.211423,330.090228 L197.68232,334.984985 C198.525019,335.424012 199.526563,335.432515 200.376568,335.007858 Z" id="Path" fill="#607BED"></path>
                <path d="M187.156489,342.73883 L195.718716,337.775455 C196.403694,337.386619 196.312364,336.677565 195.513222,336.220111 L187.042326,331.325354 C186.19597,330.893529 185.194434,330.893529 184.348078,331.325354 L175.785851,336.265857 C175.100872,336.677565 175.192203,337.363746 175.968511,337.8212 L184.462241,342.73883 C185.311172,343.15977 186.307558,343.15977 187.156489,342.73883 L187.156489,342.73883 Z" id="Path" fill="#607BED"></path>
                <path d="M174.004907,350.378312 L182.567135,345.437809 C183.274945,345.0261 183.183615,344.339919 182.384474,343.882465 L173.890744,338.964835 C173.049736,338.544356 172.060337,338.544356 171.219329,338.964835 L162.588604,343.813847 C161.903626,344.202683 161.972124,344.911737 162.771265,345.369191 L171.264995,350.263948 C172.106026,350.743935 173.126931,350.786548 174.004907,350.378312 L174.004907,350.378312 Z" id="Path" fill="#607BED"></path>
                <path d="M160.693498,358.017793 L169.255725,353.07729 C169.940703,352.688454 169.872206,351.979401 169.073064,351.521947 L160.579335,346.627189 C159.803766,346.164519 158.855423,346.096661 158.022083,346.444207 L149.459856,351.38471 C148.752045,351.796419 148.843375,352.4826 149.642516,352.940054 L158.022083,357.880557 C158.838176,358.355797 159.833156,358.406911 160.693498,358.017793 Z" id="Path" fill="#607BED"></path>
                <path d="M342.098555,297.771105 L367.214422,283.201196 C367.8994,282.789487 367.80807,282.103306 367.031761,281.645852 L358.538032,276.728222 C357.697023,276.307743 356.707625,276.307743 355.866617,276.728222 L330.75075,291.321004 C330.065772,291.732712 330.157102,292.418893 330.933411,292.876347 L339.42714,297.793977 C340.269189,298.218358 341.26387,298.209842 342.098555,297.771105 Z" id="Path" fill="#607BED"></path>
                <path d="M179.644561,391.755024 L204.760428,377.162242 C205.445406,376.773406 205.376908,376.064352 204.577767,375.606898 L196.084038,370.712141 C195.264202,370.24427 194.269315,370.201679 193.412623,370.597777 L168.296756,385.190559 C167.611778,385.579395 167.703108,386.265576 168.479417,386.72303 L176.973146,391.64066 C177.798046,392.090582 178.784351,392.132806 179.644561,391.755024 Z" id="Path" fill="#607BED"></path>
                <path d="M232.524877,378.054277 L241.087105,373.113774 C241.772083,372.702066 241.680752,372.015885 240.904444,371.558431 L230.789599,365.70302 C229.940669,365.28208 228.944282,365.28208 228.095352,365.70302 L219.533124,370.666395 C218.848146,371.055231 218.939477,371.764285 219.738618,372.221739 L229.83063,378.054277 C230.676986,378.486101 231.678521,378.486101 232.524877,378.054277 L232.524877,378.054277 Z" id="Path" fill="#607BED"></path>
                <path d="M328.55882,322.519365 L342.258383,314.582538 C342.943362,314.193702 342.852031,313.507521 342.075722,313.027195 L331.960878,307.194656 C331.137927,306.737749 330.148326,306.695384 329.289463,307.080293 L315.589899,314.994247 C314.904921,315.405955 314.973419,316.092136 315.77256,316.54959 L325.887405,322.405001 C326.710356,322.861908 327.699956,322.904273 328.55882,322.519365 Z" id="Path" fill="#607BED"></path>
                <path d="M245.265472,370.689268 L258.965035,362.775314 C259.650014,362.363606 259.558683,361.677425 258.759542,361.219971 L248.66753,355.36456 C247.836521,354.907168 246.839938,354.864866 245.973282,355.250196 L232.273719,363.187023 C231.58874,363.575859 231.680071,364.26204 232.479212,364.719494 L242.594057,370.574905 C243.417008,371.031812 244.406608,371.074177 245.265472,370.689268 Z" id="Path" fill="#607BED"></path>
                <path d="M309.493593,333.544005 L323.193157,325.630052 C323.900968,325.218343 323.809637,324.532162 323.010496,324.074708 L312.895652,318.219297 C312.054643,317.798818 311.065245,317.798818 310.224237,318.219297 L296.524673,326.156124 C295.839695,326.54496 295.931025,327.254013 296.707334,327.711467 L306.822178,333.544005 C307.664831,333.957437 308.650941,333.957437 309.493593,333.544005 Z" id="Path" fill="#607BED"></path>
                <path d="M310.110074,318.173552 L250.562636,352.619836 C249.80916,353.031545 249.80916,353.717726 250.562636,354.152307 L260.768811,360.167827 C261.611464,360.581258 262.597574,360.581258 263.440226,360.167827 L322.987664,325.721542 L310.110074,318.173552 Z" id="Path" fill="#607BED"></path>
                <path d="M195.558888,391.915132 L186.014858,397.450326 C185.466876,397.770543 185.535374,398.342361 186.174686,398.708324 L190.307388,401.109957 C191.025371,401.472842 191.872666,401.472842 192.590649,401.109957 L202.111846,395.597637 C202.682661,395.254546 202.614163,394.682729 201.97485,394.316766 L197.819316,391.915132 C197.109298,391.552586 196.268905,391.552586 195.558888,391.915132 Z" id="Path" fill="#607BED"></path>
                <path d="M208.89313,384.207033 L199.3491,389.719353 C198.801118,390.062444 198.869616,390.634261 199.508929,391.000225 L203.64163,393.401858 C204.359613,393.764742 205.206908,393.764742 205.924891,393.401858 L215.446088,387.866665 C216.016903,387.546447 215.948405,386.97463 215.309092,386.608666 L211.153558,384.321396 C210.461969,383.922416 209.621327,383.879884 208.89313,384.207033 L208.89313,384.207033 Z" id="Path" fill="#607BED"></path>
                <path d="M222.113209,376.567552 L212.592012,382.079872 C212.021197,382.40009 212.089695,382.971907 212.75184,383.360743 L216.884542,385.648013 C217.596765,386.034381 218.455579,386.034381 219.167803,385.648013 L228.711832,380.135693 C229.259815,379.815475 229.191317,379.243657 228.552004,378.854822 L224.419302,376.567552 C223.697958,376.185302 222.834553,376.185302 222.113209,376.567552 L222.113209,376.567552 Z" id="Path" fill="#607BED"></path>
                <path d="M201.586696,379.998456 L192.065499,385.510777 C191.494684,385.830995 191.563182,386.402812 192.202495,386.768775 L196.358029,389.170409 C197.074215,389.540777 197.925103,389.540777 198.64129,389.170409 L208.185319,383.658088 C208.733302,383.314998 208.664804,382.766053 208.025491,382.377217 L203.892789,380.089947 C203.197187,379.643872 202.315334,379.608886 201.586696,379.998456 Z" id="Path" fill="#607BED"></path>
                <path d="M66.3171582,174.618321 C67.0146846,174.603131 67.6954892,174.404129 68.289358,174.041838 C70.2901938,172.86109 71.3706569,170.60054 71.0235441,168.32136 C70.8499738,167.404726 70.2289466,166.632568 69.3651033,166.259328 C68.3432652,165.86797 67.1939104,165.983328 66.2723355,166.569741 C64.2639589,167.756103 63.1759175,170.022753 63.5157381,172.312391 L63.5157381,172.312391 C63.688337,173.222659 64.2990136,173.992349 65.1517674,174.374424 C65.5200565,174.531323 65.9161964,174.614228 66.3171582,174.618321 Z M68.2221239,166.902327 C68.4939741,166.900306 68.7625542,166.961041 69.0065216,167.079706 C69.6084852,167.339074 70.0380812,167.88076 70.149501,168.520912 C70.4418961,170.411581 69.5582894,172.291079 67.9083649,173.287977 C67.2423856,173.712804 66.4158946,173.810926 65.6672288,173.554046 C65.0678024,173.291441 64.6394504,172.751324 64.5242493,172.11284 L64.5242493,172.11284 C64.2318542,170.22217 65.1154609,168.342673 66.7653854,167.345775 C67.1973676,167.079193 67.6911694,166.926526 68.1997126,166.902327 L68.2221239,166.902327 Z" id="Shape" fill="#607BED"></path>
                <path d="M55.7992214,180.343511 C56.4934637,180.333198 57.1724015,180.141481 57.7663083,179.78805 C59.7896885,178.609131 60.8813547,176.340522 60.5247521,174.055683 C60.3432949,173.14144 59.7306796,172.366259 58.8742079,171.967147 C57.8304329,171.595405 56.6704287,171.718417 55.7313908,172.300424 C53.7106975,173.488063 52.6415265,175.774767 53.0407776,178.055009 L53.0407776,178.055009 C53.2964571,179.379139 54.4963171,180.322397 55.8670519,180.276856 L55.7992214,180.343511 Z M57.6984777,172.633701 C57.977237,172.635792 58.2531992,172.688522 58.5124448,172.78923 C59.1068671,173.071501 59.5273502,173.616923 59.6429545,174.25565 C59.9408573,176.144573 59.0475563,178.023118 57.381935,179.010403 C56.7136948,179.44358 55.8796513,179.550127 55.1209155,179.299243 C54.5215456,179.022943 54.098822,178.474615 53.9904058,177.832824 C53.692503,175.9439 54.585804,174.065356 56.2514253,173.078071 C56.6896479,172.816129 57.1864527,172.663567 57.6984777,172.633701 Z" id="Shape" fill="#607BED"></path>
                <path d="M42.5169452,185.062499 C42.705176,185.89974 43.3191398,186.583945 44.1431797,186.874785 C44.9672197,187.165626 45.8861089,187.022433 46.5770844,186.495503 C48.4053029,185.439658 49.3968503,183.404504 49.0841649,181.349715 C48.8959341,180.512474 48.2819703,179.828269 47.4579304,179.537428 C46.6338904,179.246588 45.7150012,179.389781 45.0240257,179.91671 C43.2004752,180.976732 42.210514,183.00863 42.5169452,185.062499 Z" id="Path" fill="#607BED"></path>
                <polygon id="Path" fill="#607BED" points="250.962873 63.9312977 257.156489 60.7458532 256.670715 58.2061069 250.477099 61.3915514"></polygon>
                <polygon id="Path" fill="#607BED" points="242.350798 69.6564885 248.568702 66.480628 248.082929 63.9312977 241.889313 67.1071583"></polygon>
                <polygon id="Path" fill="#607BED" points="259.525533 60.1145038 272.423664 52.4204691 271.986049 49.6183206 259.064885 57.3123554"></polygon>
                <path d="M133.431916,229.961832 C134.986857,229.933794 136.507552,229.501698 137.843732,228.708241 L219.130866,181.915116 C224.243327,178.648323 226.705765,172.501 225.257118,166.621309 C224.659742,164.053007 222.892119,161.911053 220.479556,160.831999 C218.098464,159.928004 215.429049,160.198393 213.278924,161.561361 L131.99179,208.400071 C126.922375,211.658983 124.466856,217.752491 125.865538,223.602708 C126.456335,226.174239 128.226092,228.318778 130.6431,229.392018 C131.52631,229.762225 132.473856,229.955829 133.431916,229.961832 L133.431916,229.961832 Z M217.69074,161.28785 C218.522229,161.286044 219.345816,161.448732 220.11381,161.766494 C222.260497,162.727047 223.821717,164.647506 224.319893,166.940405 C225.650328,172.39291 223.364403,178.086497 218.627965,181.117377 L137.455126,227.910502 C135.542097,229.115073 133.174579,229.359566 131.054565,228.571486 C128.908175,227.604825 127.342052,225.688748 126.825622,223.397575 C125.499028,217.938867 127.782978,212.241054 132.51755,209.19781 L213.804685,162.404685 C214.980655,161.701936 216.320048,161.317 217.69074,161.28785 L217.69074,161.28785 Z" id="Shape" fill="#607BED"></path>
                <path d="M303.912214,185.114504 L303.912214,269.486381 L303.912214,269.486381 C303.746251,271.606763 302.43916,273.470171 300.498747,274.352671 L230.213404,314.83655 C225.150477,317.738047 216.307536,317.372504 210.465697,314.014078 L210.465697,314.014078 C207.189685,312.140671 205.563134,309.696103 205.631861,307.411459 L205.631861,307.411459 L205.631861,223.108122 L303.912214,185.114504 Z" id="Path" fill="url(#linearGradient-10)"></path>
                <path d="M225.667939,316.541921 C220.755705,317.276804 215.739932,316.394251 211.36217,314.024743 C208.125263,312.148302 206.518127,309.699774 206.586035,307.411431 L206.586035,307.411431 L206.586035,222.971554 L225.305768,215.648855 L225.667939,215.648855 L225.667939,316.541921 Z" id="Path" fill="#1517A1" opacity="0.3"></path>
                <path d="M230.212901,230.855821 L300.496692,190.642718 C305.559507,187.736294 304.918064,182.672758 299.076354,179.289499 L299.076354,179.289499 C293.234644,175.951652 284.391899,175.588349 279.351992,178.472067 L209.045293,218.753289 C203.982478,221.637007 204.62392,226.700543 210.46563,230.106508 L210.46563,230.106508 C216.307341,233.398942 225.150086,233.762245 230.212901,230.855821 Z" id="Path" fill="url(#linearGradient-11)"></path>
                <path d="M230.212901,348.193819 L300.496692,308.010803 C305.559507,305.103269 304.918064,300.060517 299.076354,296.653251 L299.076354,296.653251 C293.234644,293.314131 284.391899,292.95069 279.351992,295.858223 L209.045293,336.086669 C203.982478,338.994203 204.62392,344.036955 210.46563,347.444221 L210.46563,347.444221 C216.307341,350.737911 225.150086,351.169498 230.212901,348.193819 Z" id="Path" fill="#1517A1" opacity="0.5"></path>
                <path d="M223.163023,225.19084 C226.535176,225.19084 229.268847,222.487505 229.268847,219.152772 L229.268847,181.925589 C229.268847,169.213867 238.657125,153.11992 249.789925,146.76406 L265.857884,137.548062 C270.12737,135.096516 273.98368,134.506329 276.439782,135.913698 C278.895884,137.321067 280.296092,140.907588 280.296092,145.787981 L280.296092,183.015165 C280.296092,186.337361 283.019486,189.030533 286.378962,189.030533 C289.738438,189.030533 292.461832,186.337361 292.461832,183.015165 L292.461832,145.787981 C292.461832,136.344988 288.926881,129.149246 282.522652,125.471927 C276.118423,121.794608 268.015581,122.407494 259.775014,127.106291 L243.707055,136.344988 C228.763854,144.857302 217.080153,164.878263 217.080153,181.925589 L217.080153,219.152772 C217.080129,222.47866 219.799837,225.178336 223.163023,225.19084 L223.163023,225.19084 Z" id="Path" fill="url(#linearGradient-12)"></path>
            </g>
            <rect id="Rectangle-Copy-3" x="0" y="0" width="500" height="550"></rect>
        </g>
    </g>
</svg>