<?xml version="1.0" encoding="UTF-8"?>
<svg width="523px" height="563px" viewBox="0 0 523 563" version="1.1" xmlns="http://www.w3.org/2000/svg" xmlns:xlink="http://www.w3.org/1999/xlink">
    <!-- Generator: Sketch 54 (76480) - https://sketchapp.com -->
    <title>Asset 1</title>
    <desc>Created with Sketch.</desc>
    <defs>
        <linearGradient x1="1.87846438%" y1="49.9995837%" x2="101.883597%" y2="49.9995837%" id="linearGradient-1">
            <stop stop-color="#4A65A3" offset="0%"></stop>
            <stop stop-color="#4F69A6" offset="17%"></stop>
            <stop stop-color="#5D75AD" offset="37%"></stop>
            <stop stop-color="#758AB9" offset="58%"></stop>
            <stop stop-color="#96A6CA" offset="81%"></stop>
            <stop stop-color="#B8C3DB" offset="100%"></stop>
        </linearGradient>
        <linearGradient x1="33.6022969%" y1="50.0044449%" x2="133.589531%" y2="50.0044449%" id="linearGradient-2">
            <stop stop-color="#B8C3DB" offset="0%"></stop>
            <stop stop-color="#BDC7DE" offset="28%"></stop>
            <stop stop-color="#CBD3E5" offset="60%"></stop>
            <stop stop-color="#E3E7F1" offset="95%"></stop>
            <stop stop-color="#E7EAF3" offset="100%"></stop>
        </linearGradient>
        <linearGradient x1="-47.7146786%" y1="50.0077583%" x2="52.2965426%" y2="50.0077583%" id="linearGradient-3">
            <stop stop-color="#B8C3DB" offset="0%"></stop>
            <stop stop-color="#BDC7DE" offset="28%"></stop>
            <stop stop-color="#CBD3E5" offset="60%"></stop>
            <stop stop-color="#E3E7F1" offset="95%"></stop>
            <stop stop-color="#E7EAF3" offset="100%"></stop>
        </linearGradient>
        <linearGradient x1="0.160108102%" y1="50.021575%" x2="100.169005%" y2="50.021575%" id="linearGradient-4">
            <stop stop-color="#4A65A3" offset="0%"></stop>
            <stop stop-color="#4F69A6" offset="17%"></stop>
            <stop stop-color="#5D75AD" offset="37%"></stop>
            <stop stop-color="#758AB9" offset="58%"></stop>
            <stop stop-color="#96A6CA" offset="81%"></stop>
            <stop stop-color="#B8C3DB" offset="100%"></stop>
        </linearGradient>
        <linearGradient x1="0.00513478819%" y1="49.9813889%" x2="100%" y2="49.9813889%" id="linearGradient-5">
            <stop stop-color="#4A65A3" offset="0%"></stop>
            <stop stop-color="#4F69A6" offset="17%"></stop>
            <stop stop-color="#5D75AD" offset="37%"></stop>
            <stop stop-color="#758AB9" offset="58%"></stop>
            <stop stop-color="#96A6CA" offset="81%"></stop>
            <stop stop-color="#B8C3DB" offset="100%"></stop>
        </linearGradient>
        <linearGradient x1="-0.157826982%" y1="49.9850809%" x2="99.8294074%" y2="49.9850809%" id="linearGradient-6">
            <stop stop-color="#FFFFFF" offset="0%"></stop>
            <stop stop-color="#FFFFFF" offset="28%"></stop>
            <stop stop-color="#EAEDF5" offset="60.4254645%"></stop>
            <stop stop-color="#F4F6FA" offset="95%"></stop>
            <stop stop-color="#E7EAF3" offset="100%"></stop>
        </linearGradient>
        <linearGradient x1="87.4596693%" y1="50.0042473%" x2="-12.5366482%" y2="50.0042473%" id="linearGradient-7">
            <stop stop-color="#B8C3DB" offset="0%"></stop>
            <stop stop-color="#B0BCD7" offset="14%"></stop>
            <stop stop-color="#9AA9CC" offset="35%"></stop>
            <stop stop-color="#768AB9" offset="61%"></stop>
            <stop stop-color="#4A65A3" offset="87%"></stop>
        </linearGradient>
        <linearGradient x1="192.837629%" y1="50.0515448%" x2="-53.9115782%" y2="50.0515448%" id="linearGradient-8">
            <stop stop-color="#E7EAF3" offset="0%"></stop>
            <stop stop-color="#E3E7F1" offset="5%"></stop>
            <stop stop-color="#CBD3E5" offset="40%"></stop>
            <stop stop-color="#BDC7DE" offset="72%"></stop>
            <stop stop-color="#B8C3DB" offset="100%"></stop>
        </linearGradient>
        <linearGradient x1="225.072252%" y1="36.5766229%" x2="407.50908%" y2="65.8643465%" id="linearGradient-9">
            <stop stop-color="#B8C3DB" offset="0%"></stop>
            <stop stop-color="#B0BCD7" offset="14%"></stop>
            <stop stop-color="#9AA9CC" offset="35%"></stop>
            <stop stop-color="#768AB9" offset="61%"></stop>
            <stop stop-color="#4A65A3" offset="87%"></stop>
        </linearGradient>
        <linearGradient x1="15.1999386%" y1="50.0028289%" x2="115.197812%" y2="50.0028289%" id="linearGradient-10">
            <stop stop-color="#B8C3DB" offset="0%"></stop>
            <stop stop-color="#B0BCD7" offset="14%"></stop>
            <stop stop-color="#9AA9CC" offset="35%"></stop>
            <stop stop-color="#768AB9" offset="61%"></stop>
            <stop stop-color="#4A65A3" offset="87%"></stop>
        </linearGradient>
        <linearGradient x1="-90.1804018%" y1="50.0398435%" x2="156.568806%" y2="50.0398435%" id="linearGradient-11">
            <stop stop-color="#E7EAF3" offset="0%"></stop>
            <stop stop-color="#E3E7F1" offset="5%"></stop>
            <stop stop-color="#CBD3E5" offset="40%"></stop>
            <stop stop-color="#BDC7DE" offset="72%"></stop>
            <stop stop-color="#B8C3DB" offset="100%"></stop>
        </linearGradient>
        <linearGradient x1="-1.24129633%" y1="36.569869%" x2="126.023692%" y2="65.8504447%" id="linearGradient-12">
            <stop stop-color="#B8C3DB" offset="0%"></stop>
            <stop stop-color="#B0BCD7" offset="14%"></stop>
            <stop stop-color="#9AA9CC" offset="35%"></stop>
            <stop stop-color="#768AB9" offset="61%"></stop>
            <stop stop-color="#4A65A3" offset="87%"></stop>
        </linearGradient>
    </defs>
    <g id="web" stroke="none" stroke-width="1" fill="none" fill-rule="evenodd" opacity="0.703706287">
        <g id="create_step-1" transform="translate(-69.000000, -389.000000)" fill-rule="nonzero">
            <g id="Asset-1" transform="translate(68.000000, 389.000000)">
                <path d="M231.894119,562.995364 C234.04866,563.022928 236.174056,562.495718 238.065926,561.464434 L520.701158,398.300726 C522.245174,397.609476 523.309344,396.154256 523.5,394.4734 C523.4179,393.161946 522.630045,391.998531 521.442731,391.43546 L352.890226,294.077845 C349.370534,292.494803 345.31055,292.663223 341.934074,294.53234 L59.2988423,457.672127 C57.7548265,458.363377 56.6906556,459.818597 56.5,461.499453 C56.5820999,462.810907 57.3699553,463.974322 58.5572687,464.537393 L227.229382,561.990691 C228.679486,562.699832 230.280648,563.044685 231.894119,562.995364 Z M348.010194,293.9104 C349.496955,293.875381 350.968891,294.212515 352.292183,294.891152 L520.964297,392.272687 C521.843988,392.669246 522.439296,393.511803 522.519209,394.4734 C522.313585,395.826004 521.401564,396.965984 520.127036,397.463499 L237.683178,560.651127 C234.610763,562.355215 230.915651,562.51471 227.707817,561.081701 L59.0357033,463.700166 C58.1560124,463.303607 57.560704,462.46105 57.4807909,461.499453 C57.6864154,460.146849 58.5984357,459.006869 59.8729638,458.509354 L342.508196,295.321726 C344.224994,294.386217 346.150747,293.900683 348.105881,293.9104 L348.010194,293.9104 Z" id="Shape" fill="#607BED"></path>
                <path d="M57.5,433.114212 L73.0460891,430.869394 L342.615274,275.47544 C345.831362,273.682588 349.707237,273.514325 353.067029,275.0217 L513.622254,367.584627 L523.5,366.175646 L523.5,379.262458 L523.5,379.262458 C523.315179,380.755332 522.34971,382.037653 520.964792,382.629685 L238.384726,545.546168 C235.161668,547.320148 231.291223,547.479331 227.932971,545.976027 L59.2937795,448.756296 C58.2491218,448.27814 57.5641663,447.252254 57.5239171,446.1055 L57.5239171,446.1055 L57.5,433.114212 Z" id="Path" fill="url(#linearGradient-1)"></path>
                <path d="M520.887667,369.404539 L238.382088,532.544177 C235.159607,534.320586 231.289855,534.479988 227.932203,532.974624 L59.3231937,435.621727 C56.6449624,434.067333 56.9319157,431.388992 60.0884026,429.595461 L342.593982,266.455823 C345.816463,264.679414 349.686215,264.520012 353.043866,266.025376 L521.700702,363.378273 C524.331107,364.932667 524.09198,367.634921 520.887667,369.404539 Z" id="Path" fill="url(#linearGradient-2)"></path>
                <path d="M496.204387,373.13037 L243.949892,518.686346 C241.074958,520.291835 237.606428,520.433615 234.609787,519.068132 L84.1170481,432.259503 C81.7282745,430.875528 82.0149273,428.465503 84.7859047,426.866773 L337.0404,281.310797 C339.916406,279.709106 343.383105,279.567401 346.380505,280.929011 L496.873243,367.737641 C499.285905,369.002307 498.975364,371.412333 496.204387,373.13037 Z" id="Path" fill="#1517A1" opacity="0.3"></path>
                <path d="M59.2565327,434.066802 L227.929386,531.536248 C231.283843,533.066823 235.165871,532.906746 238.383228,531.10518 L520.995779,367.706154 C522.104884,367.137551 522.959083,366.171239 523.387962,365 C523.818555,366.365051 523.005213,367.945637 520.995779,369.119102 L238.383228,532.542076 C235.159527,534.321049 231.288309,534.48068 227.929386,532.973144 L59.2565327,435.47975 C57.9578487,434.932041 57.2483407,433.521604 57.5820043,432.150941 C57.8735324,432.981246 58.4731821,433.667317 59.2565327,434.066802 L59.2565327,434.066802 Z" id="Path" fill="#FFFFFF"></path>
                <path d="M343.497805,215.513181 L307.739206,3.97566564 L310.611382,2.75814919 L306.303117,0.370862023 L306.303117,0.370862023 C305.241438,-0.199234629 303.945109,-0.106214873 302.97618,0.60959074 L17.2185393,165.069803 C14.789255,166.625808 13.375444,169.355136 13.5086445,172.231665 L49.5305264,385.464154 C49.6176768,386.395612 50.1907833,387.212217 51.0384192,387.612713 L51.0384192,387.612713 L55.2509449,390 L55.9929239,386.060976 L55.7535758,386.060976 L339.716106,222.531805 C342.127643,221.019498 343.564036,218.353632 343.497805,215.513181 Z" id="Path" fill="url(#linearGradient-3)"></path>
                <path d="M18.9618281,171.083495 L14.1451765,169 C13.6103637,170.10071 13.4015398,171.330016 13.5430951,172.544337 L49.7883982,386.449838 C49.8760892,387.384236 50.4527503,388.203418 51.3056435,388.605178 L51.3056435,388.605178 L55.5442969,391 L56.2908778,387.048544 L56.0500453,387.048544 L70.5,378.738511 L18.9618281,171.083495 Z" id="Path" fill="url(#linearGradient-4)"></path>
                <path d="M343.775739,225.83051 L58.0371521,390.385269 C55.8347434,391.650707 53.9435447,390.910545 53.5365779,388.642306 L17.5080446,175.403979 C17.3797819,172.528133 18.79265,169.800749 21.2186244,168.241119 L306.957211,3.61473105 C309.183559,2.34929254 311.050819,3.08945469 311.457786,5.35769353 L347.486319,218.596021 C347.656074,221.500142 346.23625,224.268362 343.775739,225.83051 Z" id="Path" fill="#1F2742"></path>
                <g id="Group" opacity="0.51" transform="translate(20.500000, 7.000000)" fill="#607BED">
                    <polygon id="Path" points="287.341912 0.363625 0.768382353 165.6025 36.9724265 379.37925 323.354779 214.25975"></polygon>
                </g>
                <path d="M523.5,327.061069 L507.922798,335.192246 L351.624365,245.007925 C348.350884,243.525852 344.567711,243.685618 341.430988,245.438399 L71.8568678,400.887374 C69.2726316,399.428546 57.5,393.712806 57.5,393.712806 L63.1948909,402.991914 L63.1948909,402.991914 C63.4973739,403.756305 64.0669923,404.385097 64.7980745,404.761641 L229.44742,499.992075 C232.7209,501.474148 236.504073,501.314382 239.640796,499.561601 L515.50801,340.38185 C516.570403,339.902527 517.42124,339.052149 517.900822,337.990328 L517.900822,337.990328 L523.5,327.061069 Z" id="Path" fill="url(#linearGradient-5)"></path>
                <path d="M520.887667,329.384549 L238.382088,492.527611 C235.165948,494.326092 231.28539,494.485895 227.932203,492.957942 L59.3231937,395.655441 C56.6449624,394.10147 56.9319157,391.399951 60.0884026,389.630815 L342.593982,226.463845 C345.813325,224.676724 349.688422,224.517146 353.043866,226.033515 L521.700702,323.359923 C524.331107,324.889987 524.09198,327.567598 520.887667,329.384549 Z" id="Path" fill="url(#linearGradient-6)"></path>
                <path d="M520.98726,327.803652 L238.379713,491.254158 C235.16304,493.05315 231.28646,493.221989 227.926056,491.709452 L59.2561889,394.156745 C58.4544875,393.738869 57.8457011,393.025956 57.5577687,392.16783 C57.285916,393.519429 57.9937196,394.87757 59.2561889,395.426776 L227.926056,492.955519 C231.280454,494.487025 235.162412,494.32685 238.379713,492.524188 L520.98726,329.073682 C522.996659,327.923466 523.833908,326.365882 523.379401,325 C522.987294,326.216787 522.126064,327.226171 520.98726,327.803652 L520.98726,327.803652 Z" id="Path" fill="#FFFFFF"></path>
                <g id="Group" opacity="0.15" transform="translate(0.500000, 80.000000)">
                    <g id="Path">
                        <g opacity="0.5" transform="translate(0.428571, 113.302817)" fill="#1517A1">
                            <path d="M192.558214,5.54394366 L201.627143,0.387323944 C202.494531,-0.0394583345 203.51154,-0.0394583345 204.378929,0.387323944 L214.357143,6.26014085 C215.146786,6.71373239 215.194643,7.42992958 214.476786,7.85964789 L205.407857,13.0878873 C204.544083,13.5298639 203.519845,13.5298639 202.656071,13.0878873 L192.582143,7.21507042 C191.888214,6.66598592 191.840357,5.94978873 192.558214,5.54394366 Z"></path>
                            <path d="M178.464286,13.5892254 L187.533214,8.38485915 C188.396988,7.94288262 189.421226,7.94288262 190.285,8.38485915 L200.358929,14.2576761 C201.148571,14.7112676 201.196429,15.4274648 200.478571,15.8571831 L191.409643,21.0615493 C190.545869,21.5035258 189.521631,21.5035258 188.657857,21.0615493 L178.583929,15.1887324 C177.89,14.7112676 177.842143,14.0189437 178.464286,13.5892254 Z"></path>
                            <path d="M164.585714,21.6583803 L173.678571,16.4301408 C174.542345,15.9881643 175.566583,15.9881643 176.430357,16.4301408 L186.504286,22.3029577 C187.293929,22.7565493 187.341786,23.4727465 186.504286,23.8785915 L177.435357,29.106831 C176.567969,29.5336133 175.55096,29.5336133 174.683571,29.106831 L164.609643,23.2340141 C163.891786,22.8042958 163.843929,22.0880986 164.585714,21.6583803 Z"></path>
                            <path d="M175.233929,32.3774648 L184.302857,27.1730986 C185.158246,26.7313691 186.175325,26.7313691 187.030714,27.1730986 L195.501429,32.0909859 C196.291071,32.5684507 196.338929,33.2846479 195.501429,33.690493 L186.4325,38.9187324 C185.565979,39.3492087 184.547236,39.3492087 183.680714,38.9187324 L175.233929,33.9769718 C174.563929,33.5233803 174.492143,32.8071831 175.233929,32.3774648 Z"></path>
                            <path d="M161.235714,40.4466197 L170.304643,35.2422535 C171.16543,34.788104 172.195642,34.788104 173.056429,35.2422535 L181.503214,40.1601408 C182.292857,40.6137324 182.340714,41.3299296 181.503214,41.7596479 L172.434286,46.9878873 C171.569571,47.4259587 170.547215,47.4259587 169.6825,46.9878873 L161.235714,42.07 C160.565714,41.5925352 160.517857,40.971831 161.235714,40.4466197 Z"></path>
                            <path d="M147.357143,48.5157746 L156.306429,43.3591549 C157.173817,42.9323727 158.190826,42.9323727 159.058214,43.3591549 L167.505,48.3009155 C168.294643,48.754507 168.3425,49.4707042 167.505,49.9004225 L158.436071,55.1047887 C157.572297,55.5467653 156.54806,55.5467653 155.684286,55.1047887 L147.357143,50.1152817 C146.5675,49.6378169 146.519643,48.9216197 147.357143,48.5157746 Z"></path>
                            <path d="M133.239286,56.5849296 L142.308214,51.3566901 C143.171988,50.9147136 144.196226,50.9147136 145.06,51.3566901 L153.506786,56.2745775 C154.296429,56.7520423 154.344286,57.4682394 153.626429,57.8740845 L144.5575,63.1023239 C143.690112,63.5291062 142.673103,63.5291062 141.805714,63.1023239 L133.358929,58.1605634 C132.569286,57.6830986 132.521429,56.9907746 133.239286,56.5849296 Z"></path>
                            <path d="M119.241071,64.6302113 L128.31,59.4258451 C129.170787,58.9716955 130.200999,58.9716955 131.061786,59.4258451 L139.508571,64.3437324 C140.298214,64.7973239 140.37,65.5135211 139.508571,65.9432394 L130.607143,71.2430986 C129.742428,71.6811699 128.720072,71.6811699 127.855357,71.2430986 L119.408571,66.3252113 C118.642857,65.7761268 118.642857,65.0599296 119.241071,64.6302113 Z"></path>
                            <path d="M105.242857,72.6993662 L114.311786,67.4711268 C115.178307,67.0406505 116.19705,67.0406505 117.063571,67.4711268 L125.510357,72.4128873 C126.323929,72.8664789 126.371786,73.5826761 125.510357,74.0123944 L116.465357,79.2167606 C115.633692,79.596336 114.674291,79.5787731 113.857143,79.1690141 L105.3625,74.3943662 C104.572857,73.8214085 104.525,73.1052113 105.242857,72.6993662 Z"></path>
                            <path d="M91.2685714,80.7685211 L100.313571,75.5402817 C101.177345,75.0983052 102.201583,75.0983052 103.065357,75.5402817 L111.464286,80.5297887 C112.253929,81.0072535 112.301786,81.7234507 111.464286,82.1292958 L102.419286,87.3575352 C101.552764,87.7880115 100.534021,87.7880115 99.6675,87.3575352 L91.1967857,82.4157746 C90.5746429,81.8905634 90.5267857,81.1743662 91.2685714,80.7685211 Z"></path>
                            <path d="M77.2703571,88.7183099 L86.3153571,83.5139437 C87.1761442,83.0597941 88.2063558,83.0597941 89.0671429,83.5139437 L97.5378571,88.7183099 C98.3275,89.1719014 98.3753571,89.8880986 97.5378571,90.3178169 L88.4689286,95.5460563 C87.6051546,95.9880329 86.5809168,95.9880329 85.7171429,95.5460563 L77.2703571,90.628169 C76.5764286,89.9597183 76.5285714,89.2435211 77.2703571,88.7183099 Z"></path>
                            <path d="M63.2721429,96.8829577 L72.3410714,91.6547183 C73.2084598,91.227936 74.2254688,91.227936 75.0928571,91.6547183 L83.5396429,96.5964789 C84.3292857,97.0500704 84.3771429,97.7662676 83.5396429,98.1959859 L74.4707143,103.400352 C73.6069403,103.842329 72.5827025,103.842329 71.7189286,103.400352 L63.2721429,98.4824648 C62.6021429,98.005 62.5303571,97.2888028 63.2721429,96.8829577 Z"></path>
                            <path d="M49.25,104.952113 L58.3189286,99.7238732 C59.1827025,99.2818967 60.2069403,99.2818967 61.0707143,99.7238732 L69.5175,104.641761 C70.3071429,105.119225 70.355,105.835423 69.5175,106.241268 L60.4485714,111.469507 C59.5811831,111.896289 58.5641741,111.896289 57.6967857,111.469507 L49.25,106.527746 C48.6039286,106.074155 48.5560714,105.429577 49.25,104.952113 Z"></path>
                            <path d="M181.048571,43.9082394 L190.1175,38.584507 C190.981274,38.1425305 192.005512,38.1425305 192.869286,38.584507 L201.316071,43.5023944 C202.105714,43.9798592 202.1775,44.6960563 201.316071,45.1019014 L192.366786,50.5211268 C191.508581,50.9511606 190.497134,50.9511606 189.638929,50.5211268 L181.168214,45.5793662 C180.378571,45.0302817 180.330714,44.3140845 181.048571,43.9082394 Z"></path>
                            <path d="M195.214286,35.7197183 L204.283214,30.4914789 C205.150603,30.0646966 206.167612,30.0646966 207.035,30.4914789 L215.481786,35.4332394 C216.271429,35.886831 216.319286,36.6030282 215.481786,37.0327465 L206.412857,42.2371127 C205.549083,42.6790892 204.524845,42.6790892 203.661071,42.2371127 L195.214286,37.3192254 C194.592143,36.8417606 194.544286,36.1971831 195.214286,35.7197183 Z"></path>
                            <path d="M209.571429,27.5311972 L229.073214,16.2869014 C229.934001,15.8327519 230.964213,15.8327519 231.825,16.2869014 L240.295714,21.2047887 C241.085357,21.6822535 241.133214,22.3745775 240.295714,22.8042958 L220.793929,34.0485915 C219.927407,34.4790678 218.908664,34.4790678 218.042143,34.0485915 L209.571429,29.0352113 C208.805714,28.6532394 208.757857,27.9370423 209.571429,27.5311972 Z"></path>
                            <path d="M225.986429,32.8788028 L241.827143,23.7592254 C242.690917,23.3172488 243.715155,23.3172488 244.578929,23.7592254 L253.049643,28.6771127 C253.839286,29.1545775 253.887143,29.8707746 253.049643,30.2766197 L237.208929,39.3961972 C236.35354,39.8379266 235.33646,39.8379266 234.481071,39.3961972 L226.010357,34.4783099 C225.316429,34.0008451 225.268571,33.3085211 225.986429,32.8788028 Z"></path>
                            <path d="M167.074286,51.9535211 L176.119286,46.7491549 C176.980073,46.2950054 178.010284,46.2950054 178.871071,46.7491549 L187.341786,51.6670423 C188.131429,52.1206338 188.179286,52.836831 187.341786,53.2665493 L178.464286,58.5664085 C177.600512,59.008385 176.576274,59.008385 175.7125,58.5664085 L167.241786,53.6485211 C166.5,53.0994366 166.3325,52.3832394 167.074286,51.9535211 Z"></path>
                            <path d="M153.076071,60.0704225 L162.121071,54.8421831 C162.987593,54.4117068 164.006336,54.4117068 164.872857,54.8421831 L173.343571,59.7839437 C174.133214,60.2375352 174.181071,60.9537324 173.343571,61.3834507 L164.298571,66.5878169 C163.434797,67.0297934 162.41056,67.0297934 161.546786,66.5878169 L153.1,61.6699296 C152.382143,61.1447183 152.334286,60.4285211 153.076071,60.0704225 Z"></path>
                            <path d="M139.077857,68.091831 L148.146786,62.8635915 C149.002175,62.4218621 150.019254,62.4218621 150.874643,62.8635915 L159.345357,67.7814789 C160.135,68.2589437 160.182857,68.9751408 159.345357,69.3809859 L150.276429,74.6092254 C149.409907,75.0397016 148.391164,75.0397016 147.524643,74.6092254 L139.1975,69.6197183 C138.407857,69.2138732 138.336071,68.4976761 139.077857,68.091831 Z"></path>
                            <path d="M125.079643,76.1371127 L134.148571,70.9327465 C135.009358,70.4785969 136.03957,70.4785969 136.900357,70.9327465 L145.347143,75.8506338 C146.136786,76.3042254 146.184643,77.0204225 145.347143,77.4501408 L136.278214,82.6783803 C135.413499,83.1164516 134.391144,83.1164516 133.526429,82.6783803 L125.079643,77.760493 C124.409643,77.2830282 124.361786,76.566831 125.079643,76.1371127 Z"></path>
                            <path d="M111.081429,84.2062676 L120.150357,78.9780282 C121.017746,78.5512459 122.034754,78.5512459 122.902143,78.9780282 L131.348929,83.9197887 C132.138571,84.3733803 132.186429,85.0895775 131.348929,85.5192958 L122.28,90.723662 C121.416226,91.1656385 120.391988,91.1656385 119.528214,90.723662 L111.081429,85.8057746 C110.411429,85.3283099 110.363571,84.6121127 111.081429,84.2062676 Z"></path>
                            <path d="M97.1071429,92.2754225 L106.176071,87.0471831 C107.039845,86.6052066 108.064083,86.6052066 108.927857,87.0471831 L117.374643,91.9889437 C118.164286,92.4425352 118.212143,93.1587324 117.494286,93.5645775 L108.425357,98.7928169 C107.557969,99.2195992 106.54096,99.2195992 105.673571,98.7928169 L97.1071429,93.8510563 C96.4132143,93.4929577 96.3653571,92.6812676 97.1071429,92.2754225 Z"></path>
                            <path d="M83.085,100.320704 L92.1539286,95.116338 C93.0147156,94.6621885 94.0449273,94.6621885 94.9057143,95.116338 L103.3525,100.034225 C104.142143,100.487817 104.213929,101.204014 103.3525,101.633732 L94.2835714,106.861972 C93.4281825,107.303701 92.4111032,107.303701 91.5557143,106.861972 L83.085,101.944085 C82.415,101.46662 82.3671429,100.65493 83.085,100.320704 Z"></path>
                            <path d="M69.1107143,108.389859 L78.1557143,103.16162 C79.0222356,102.731143 80.0409787,102.731143 80.9075,103.16162 L89.3782143,108.10338 C90.1678571,108.556972 90.2157143,109.273169 89.3782143,109.702887 L80.3571429,114.978873 C79.4933689,115.42085 78.4691311,115.42085 77.6053571,114.978873 L69.1346429,110.060986 C68.3928571,109.511901 68.3928571,108.795704 69.1107143,108.389859 Z"></path>
                            <path d="M55.1125,116.459014 L64.1575,111.230775 C65.021274,110.788798 66.0455118,110.788798 66.9092857,111.230775 L75.38,116.172535 C76.1696429,116.626127 76.2175,117.342324 75.38,117.748169 L66.335,122.976408 C65.4684787,123.406885 64.4497356,123.406885 63.5832143,122.976408 L55.1125,118.034648 C54.4185714,117.581056 54.3707143,116.864859 55.1125,116.459014 Z"></path>
                            <path d="M30.2267857,130.782958 L49.9917857,119.395423 C50.8555597,118.953446 51.8797975,118.953446 52.7435714,119.395423 L61.2142857,124.38493 C62.0039286,124.862394 62.0517857,125.578592 61.2142857,125.984437 L41.4492857,137.371972 C40.5855118,137.813948 39.561274,137.813948 38.6975,137.371972 L30.2507143,132.454085 C29.5567857,131.905 29.5089286,131.188803 30.2267857,130.782958 Z"></path>
                            <path d="M55.8782143,145.727606 L72.6282143,136.17831 C73.4805365,135.724187 74.5037493,135.724187 75.3560714,136.17831 L83.7789286,141.239437 C84.5685714,141.693028 84.6164286,142.409225 83.7789286,142.838944 L67.0289286,152.388239 C66.1642136,152.826311 65.1418579,152.826311 64.2771429,152.388239 L55.8303571,147.470352 C55.2082143,146.873521 55.1603571,146.157324 55.8782143,145.727606 Z"></path>
                            <path d="M169.0125,65.704507 L178.0575,60.4762676 C178.921274,60.0342911 179.945512,60.0342911 180.809286,60.4762676 L189.28,65.3941549 C190.069643,65.8477465 190.1175,66.5639437 189.28,66.993662 L180.211071,72.1980282 C179.350284,72.6521777 178.320073,72.6521777 177.459286,72.1980282 L169.132143,67.2323944 C168.318571,66.8265493 168.270714,66.1342254 169.0125,65.704507 Z"></path>
                            <path d="M183.25,57.4443662 L192.318929,52.2161268 C193.186317,51.7893445 194.203326,51.7893445 195.070714,52.2161268 L203.5175,57.1578873 C204.307143,57.6114789 204.355,58.3276761 203.637143,58.7573944 L194.568214,63.9617606 C193.70444,64.4037371 192.680203,64.4037371 191.816429,63.9617606 L183.369643,59.0438732 C182.675714,58.5664085 182.627857,57.8740845 183.25,57.4443662 Z"></path>
                            <path d="M197.607143,49.1842254 L206.652143,43.9559859 C207.518664,43.5255096 208.537407,43.5255096 209.403929,43.9559859 L217.874643,48.8977465 C218.664286,49.351338 218.712143,50.0675352 217.874643,50.4972535 L208.829643,55.7016197 C207.965869,56.1435963 206.941631,56.1435963 206.077857,55.7016197 L197.607143,50.7837324 C197.008929,50.3062676 196.961071,49.5900704 197.607143,49.1842254 Z"></path>
                            <path d="M211.964286,40.971831 L221.033214,35.7435915 C221.900603,35.3168093 222.917612,35.3168093 223.785,35.7435915 L232.231786,40.6853521 C233.021429,41.1389437 233.069286,41.8551408 232.351429,42.2848592 L223.2825,47.4892254 C222.418726,47.9312019 221.394488,47.9312019 220.530714,47.4892254 L212.083929,42.571338 C211.366071,42.0461268 211.318214,41.3299296 211.964286,40.971831 Z"></path>
                            <path d="M155.014286,73.773662 L164.083214,68.5454225 C164.946988,68.103446 165.971226,68.103446 166.835,68.5454225 L175.281786,73.4871831 C176.071429,73.9407746 176.119286,74.6569718 175.281786,75.0628169 L166.212857,80.2910563 C165.349083,80.7330329 164.324845,80.7330329 163.461071,80.2910563 L155.014286,75.3492958 C154.344286,74.8957042 154.2725,74.179507 155.014286,73.773662 Z"></path>
                            <path d="M141.016071,81.8189437 L150.085,76.6145775 C150.948774,76.1726009 151.973012,76.1726009 152.836786,76.6145775 L161.283571,81.5324648 C162.073214,82.0099296 162.121071,82.7261268 161.403214,83.1319718 L152.334286,88.3602113 C151.466897,88.7869935 150.449888,88.7869935 149.5825,88.3602113 L141.135714,83.4184507 C140.346071,82.9648592 140.298214,82.248662 141.016071,81.8189437 Z"></path>
                            <path d="M127.017857,89.8880986 L136.086786,84.6598592 C136.951501,84.2217878 137.973856,84.2217878 138.838571,84.6598592 L147.357143,89.6732394 C148.146786,90.126831 148.194643,90.8430282 147.357143,91.2727465 L138.288214,96.4771127 C137.427427,96.9312622 136.397216,96.9312622 135.536429,96.4771127 L127.089643,91.5592254 C126.347857,91.1056338 126.3,90.3178169 127.017857,89.8880986 Z"></path>
                            <path d="M113.019643,97.9572535 L122.088571,92.7290141 C122.952345,92.2870375 123.976583,92.2870375 124.840357,92.7290141 L133.287143,97.6707746 C134.076786,98.1243662 134.124643,98.8405634 133.287143,99.2464085 L124.218214,104.474648 C123.35444,104.916624 122.330203,104.916624 121.466429,104.474648 L113.019643,99.5328873 C112.349643,99.0792958 112.301786,98.2676056 113.019643,97.9572535 Z"></path>
                            <path d="M99.0214286,106.002535 L108.090357,100.798169 C108.954131,100.356192 109.978369,100.356192 110.842143,100.798169 L119.288929,105.716056 C120.078571,106.193521 120.150357,106.909718 119.288929,107.315563 L110.339643,112.591549 C109.481438,113.021583 108.469991,113.021583 107.611786,112.591549 L99.1410714,107.649789 C98.3514286,107.148451 98.3035714,106.432254 99.0214286,106.002535 Z"></path>
                            <path d="M85.1428571,114.07169 L94.1878571,108.843451 C95.0516311,108.401474 96.0758689,108.401474 96.9396429,108.843451 L105.410357,113.761338 C106.2,114.21493 106.247857,114.931127 105.410357,115.360845 L96.3653571,120.565211 C95.5045701,121.019361 94.4743585,121.019361 93.6135714,120.565211 L85.1428571,115.671197 C84.3532143,115.193732 84.3053571,114.501408 85.1428571,114.07169 Z"></path>
                            <path d="M71.0489286,122.140845 L80.0939286,116.912606 C80.9577025,116.470629 81.9819403,116.470629 82.8457143,116.912606 L91.3164286,121.854366 C92.1060714,122.307958 92.1539286,123.024155 91.3164286,123.43 L82.2714286,128.658239 C81.4076546,129.100216 80.3834168,129.100216 79.5196429,128.658239 L71.0728571,123.716479 C70.355,123.262887 70.3071429,122.54669 71.0489286,122.140845 Z"></path>
                            <path d="M57.0507143,130.186127 L66.1196429,124.981761 C66.9750317,124.540031 67.9921111,124.540031 68.8475,124.981761 L77.3182143,129.899648 C78.1078571,130.377113 78.1557143,131.09331 77.3182143,131.499155 L68.3928571,136.799014 C67.5254688,137.225796 66.5084598,137.225796 65.6410714,136.799014 L57.1703571,131.690141 C56.4285714,131.332042 56.4285714,130.615845 57.0507143,130.186127 Z"></path>
                            <path d="M43.0525,138.255282 L52.1214286,133.027042 C52.9861436,132.588971 54.0084993,132.588971 54.8732143,133.027042 L63.32,137.94493 C64.1096429,138.398521 64.1575,139.114718 63.4396429,139.544437 L54.3707143,144.748803 C53.5099273,145.202952 52.4797156,145.202952 51.6189286,144.748803 L43.1721429,139.830915 C42.3825,139.377324 42.3346429,138.685 43.0525,138.255282 Z"></path>
                            <path d="M202.823571,61.0969718 L211.8925,55.8687324 C212.756274,55.4267559 213.780512,55.4267559 214.644286,55.8687324 L223.091071,60.810493 C223.880714,61.2640845 223.928571,61.9802817 223.091071,62.3861268 L214.022143,67.6143662 C213.158369,68.0563427 212.134131,68.0563427 211.270357,67.6143662 L202.823571,62.6726056 C202.153571,62.2190141 202.105714,61.5028169 202.823571,61.0969718 Z"></path>
                            <path d="M216.75,53.0755634 L225.818929,47.8473239 C226.686317,47.4205417 227.703326,47.4205417 228.570714,47.8473239 L237.0175,52.7890845 C237.807143,53.2426761 237.855,53.9588732 237.137143,54.3647183 L228.068214,59.5929577 C227.20444,60.0349343 226.180203,60.0349343 225.316429,59.5929577 L216.869643,54.6511972 C216.08,54.1976056 216.032143,53.4814085 216.75,53.0755634 Z"></path>
                            <path d="M230.676429,45.0541549 L239.745357,39.8259155 C240.612746,39.3991332 241.629754,39.3991332 242.497143,39.8259155 L250.943929,44.7676761 C251.733571,45.2212676 251.781429,45.9374648 251.063571,46.3433099 L241.994643,51.5715493 C241.130869,52.0135258 240.106631,52.0135258 239.242857,51.5715493 L230.796071,46.6297887 C230.006429,46.1761972 229.958571,45.46 230.676429,45.0541549 Z"></path>
                            <path d="M244.602857,37.0327465 L253.671786,31.804507 C254.539174,31.3777248 255.556183,31.3777248 256.423571,31.804507 L264.870357,36.7462676 C265.66,37.1998592 265.707857,37.9160563 264.870357,38.3219014 L255.801429,43.5501408 C254.937655,43.9921174 253.913417,43.9921174 253.049643,43.5501408 L244.7225,38.584507 C243.932857,38.1547887 243.885,37.4385915 244.602857,37.0327465 Z"></path>
                            <path d="M258.074643,44.8870423 L267.143571,39.6588028 C268.010093,39.2283265 269.028836,39.2283265 269.895357,39.6588028 L272.695,41.3060563 C273.484643,41.7596479 273.5325,42.4758451 272.814643,42.8816901 L263.745714,48.1338028 C262.88194,48.5757794 261.857703,48.5757794 260.993929,48.1338028 L258.194286,46.5104225 C257.428571,46.0090845 257.428571,45.2928873 258.074643,44.8870423 Z"></path>
                            <path d="M239.912857,55.2957746 L248.981786,50.0914085 C249.84556,49.6494319 250.869797,49.6494319 251.733571,50.0914085 L254.509286,51.7147887 C255.322857,52.1683803 255.370714,52.8845775 254.628929,53.3142958 L245.583929,58.5425352 C244.720155,58.9845117 243.695917,58.9845117 242.832143,58.5425352 L240.0325,56.9191549 C239.242857,56.4894366 239.195,55.7732394 239.912857,55.2957746 Z"></path>
                            <path d="M226.034286,63.3410563 L235.103214,58.1128169 C235.966988,57.6708404 236.991226,57.6708404 237.855,58.1128169 L240.654643,59.7361972 C241.444286,60.1897887 241.492143,60.9059859 240.654643,61.3357042 L231.585714,66.5400704 C230.72194,66.982047 229.697703,66.982047 228.833929,66.5400704 L226.034286,64.9166901 C225.364286,64.4630986 225.316429,63.7707746 226.034286,63.3410563 Z"></path>
                            <path d="M212.179643,71.3385915 L221.248571,66.1103521 C222.112345,65.6683756 223.136583,65.6683756 224.000357,66.1103521 L226.776071,67.7337324 C227.565714,68.2111972 227.6375,68.9273944 226.895714,69.3332394 L217.826786,74.5614789 C216.968581,74.9915127 215.957134,74.9915127 215.098929,74.5614789 L212.299286,72.9142254 C211.509643,72.4606338 211.461786,71.7444366 212.179643,71.3385915 Z"></path>
                            <path d="M198.301071,79.3122535 L207.37,74.1078873 C208.230787,73.6537378 209.260999,73.6537378 210.121786,74.1078873 L212.921429,75.7312676 C213.711071,76.1848592 213.758929,76.9010563 212.921429,77.3307746 L203.8525,82.5351408 C202.988726,82.9771174 201.964488,82.9771174 201.100714,82.5351408 L198.301071,80.9117606 C197.607143,80.458169 197.607143,79.7419718 198.301071,79.3122535 Z"></path>
                            <path d="M120.892143,123.907465 L129.961071,118.679225 C130.825786,118.241154 131.848142,118.241154 132.712857,118.679225 L135.488571,120.302606 C136.302143,120.756197 136.35,121.472394 135.488571,121.902113 L126.443571,127.106479 C125.579797,127.548455 124.55556,127.548455 123.691786,127.106479 L120.892143,125.483099 C120.222143,125.05338 120.174286,124.337183 120.892143,123.907465 Z"></path>
                            <path d="M107.013571,131.905 L116.0825,126.676761 C116.949021,126.246284 117.967764,126.246284 118.834286,126.676761 L121.633929,128.300141 C122.423571,128.777606 122.471429,129.493803 121.633929,129.899648 L112.565,135.127887 C111.697612,135.55467 110.680603,135.55467 109.813214,135.127887 L107.013571,133.480634 C106.343571,133.027042 106.295714,132.310845 107.013571,131.905 Z"></path>
                            <path d="M93.1589286,139.878662 L102.227857,134.674296 C103.091631,134.232319 104.115869,134.232319 104.979643,134.674296 L107.755357,136.297676 C108.545,136.751268 108.616786,137.467465 107.755357,137.897183 L98.6864286,143.125423 C97.8310397,143.567152 96.8139603,143.567152 95.9585714,143.125423 L93.1589286,141.502042 C92.4889286,141.024577 92.4410714,140.30838 93.1589286,139.878662 Z"></path>
                            <path d="M79.2803571,147.876197 L88.3492857,142.647958 C89.215807,142.217481 90.2345502,142.217481 91.1010714,142.647958 L93.9007143,144.295211 C94.6903571,144.748803 94.7382143,145.465 93.9007143,145.870845 L84.8317857,151.099085 C83.9680118,151.541061 82.943774,151.541061 82.08,151.099085 L79.2803571,149.475704 C78.6103571,148.998239 78.5625,148.401408 79.2803571,147.876197 Z"></path>
                            <path d="M188.825357,69.1422535 L197.894286,63.9378873 C198.75806,63.4959108 199.782297,63.4959108 200.646071,63.9378873 L209.092857,68.8557746 C209.8825,69.3332394 209.930357,70.0494366 209.092857,70.4552817 L200.023929,75.6835211 C199.15654,76.1103034 198.139531,76.1103034 197.272143,75.6835211 L188.825357,70.7417606 C188.155357,70.288169 188.035714,69.6197183 188.825357,69.1422535 Z"></path>
                            <path d="M174.827143,77.2114085 L183.896071,71.983169 C184.759845,71.5411925 185.784083,71.5411925 186.647857,71.983169 L195.094643,76.9010563 C195.884286,77.3546479 195.956071,78.0708451 195.214286,78.5005634 L186.145357,83.7049296 C185.293035,84.1590523 184.269822,84.1590523 183.4175,83.7049296 L174.946786,78.7870423 C174.157143,78.3334507 174.109286,77.6411268 174.827143,77.2114085 Z"></path>
                            <path d="M160.852857,85.2805634 L169.897857,80.0523239 C170.764378,79.6218477 171.783122,79.6218477 172.649643,80.0523239 L181.120357,84.9940845 C181.91,85.4476761 181.957857,86.1638732 181.120357,86.5697183 L172.075357,91.7979577 C171.211583,92.2399343 170.187345,92.2399343 169.323571,91.7979577 L160.852857,86.8561972 C160.158929,86.3309859 160.111071,85.6864085 160.852857,85.2805634 Z"></path>
                            <path d="M146.854643,93.3258451 L155.899643,88.1214789 C156.763417,87.6795023 157.787655,87.6795023 158.651429,88.1214789 L167.122143,93.0393662 C167.911786,93.516831 167.959643,94.2330282 167.122143,94.6388732 L158.077143,99.8671127 C157.210622,100.297589 156.191878,100.297589 155.325357,99.8671127 L146.854643,94.9253521 C146.160714,94.4717606 146.112857,93.7555634 146.854643,93.3258451 Z"></path>
                            <path d="M132.856429,101.395 L141.925357,96.1667606 C142.780746,95.7250311 143.797825,95.7250311 144.653214,96.1667606 L153.123929,101.084648 C153.913571,101.538239 153.961429,102.254437 153.123929,102.684155 L144.055,107.888521 C143.194213,108.342671 142.164001,108.342671 141.303214,107.888521 L133,103.042254 C132.186429,102.540915 132.114643,101.824718 132.856429,101.395 Z"></path>
                            <path d="M118.858214,109.464155 L127.927143,104.235915 C128.794531,103.809133 129.81154,103.809133 130.678929,104.235915 L139.125714,109.177676 C139.915357,109.631268 139.963214,110.347465 139.125714,110.75331 L130.056786,115.981549 C129.193012,116.423526 128.168774,116.423526 127.305,115.981549 L118.858214,111.039789 C118.188214,110.586197 118.140357,109.87 118.858214,109.464155 Z"></path>
                            <path d="M104.86,117.509437 L113.857143,112.30507 C114.720917,111.863094 115.745155,111.863094 116.608929,112.30507 L125.055714,117.222958 C125.845357,117.700423 125.893214,118.41662 125.175357,118.822465 L116.25,124.122324 C115.382612,124.549106 114.365603,124.549106 113.498214,124.122324 L105.051429,119.180563 C104.285714,118.655352 104.142143,117.939155 104.86,117.509437 Z"></path>
                            <path d="M90.8617857,125.578592 L99.9307143,120.350352 C100.795429,119.912281 101.817785,119.912281 102.6825,120.350352 L111.129286,125.268239 C111.918929,125.721831 111.966786,126.438028 111.129286,126.867746 L102.060357,132.072113 C101.19957,132.526262 100.169358,132.526262 99.3085714,132.072113 L90.8617857,127.154225 C90.1917857,126.724507 90.1439286,126.00831 90.8617857,125.578592 Z"></path>
                            <path d="M76.8635714,133.647746 L85.9325,128.419507 C86.7998884,127.992725 87.8168974,127.992725 88.6842857,128.419507 L97.1071429,133.432887 C97.8967857,133.886479 97.9685714,134.602676 97.1071429,135.008521 L88.0382143,140.236761 C87.1744403,140.678737 86.1502025,140.678737 85.2864286,140.236761 L76.8396429,135.295 C76.1935714,134.769789 76.1457143,134.077465 76.8635714,133.647746 Z"></path>
                            <path d="M189.495357,24.2605634 L216.175714,8.88619718 C217.039488,8.44422065 218.063726,8.44422065 218.9275,8.88619718 L227.374286,13.8040845 C228.163929,14.2576761 228.235714,14.9738732 227.493929,15.4035915 L200.813571,30.7779577 C199.94705,31.208434 198.928307,31.208434 198.061786,30.7779577 L189.615,25.8361972 C188.825357,25.3109859 188.753571,24.5947887 189.495357,24.2605634 Z"></path>
                            <path d="M17.5685714,123.215141 L44.2489286,107.816901 C45.1127025,107.374925 46.1369403,107.374925 47.0007143,107.816901 L55.4475,112.734789 C56.2371429,113.212254 56.285,113.928451 55.4475,114.334296 L28.7671429,129.708662 C27.9033689,130.150639 26.8791311,130.150639 26.0153571,129.708662 L17.5446429,124.790775 C16.8746429,124.337183 16.8267857,123.620986 17.5685714,123.215141 Z"></path>
                            <path d="M43.5071429,91.3921127 L52.5760714,86.1638732 C53.4425927,85.733397 54.4613359,85.733397 55.3278571,86.1638732 L65.4017857,92.0366901 C66.1914286,92.5141549 66.2392857,93.2303521 65.4017857,93.6361972 L56.4285714,98.9360563 C55.5611831,99.3628386 54.5441741,99.3628386 53.6767857,98.9360563 L43.6028571,93.0632394 C42.8371429,92.5141549 42.7892857,91.821831 43.5071429,91.3921127 Z"></path>
                            <path d="M145.155714,32.8549296 L159.512857,24.4992958 C160.379378,24.0688195 161.398122,24.0688195 162.264643,24.4992958 L172.338571,30.3721127 C173.128214,30.8495775 173.176071,31.5419014 172.458214,31.9716197 L157.9575,40.3272535 C157.092785,40.7653249 156.070429,40.7653249 155.205714,40.3272535 L145.131786,34.4783099 C144.461786,33.9769718 144.413929,33.2607746 145.155714,32.8549296 Z"></path>
                            <path d="M57.0028571,83.6333099 L71.5035714,75.2776761 C72.3673454,74.8356995 73.3915832,74.8356995 74.2553571,75.2776761 L84.3053571,81.150493 C85.1189286,81.6040845 85.1667857,82.3202817 84.3053571,82.75 L69.9482143,91.0817606 C69.0874273,91.5359101 68.0572156,91.5359101 67.1964286,91.0817606 L57.1225,85.2089437 C56.4285714,84.7553521 56.285,83.943662 57.0028571,83.6333099 Z"></path>
                            <path d="M124.96,44.4811972 L139.460714,36.1971831 C140.318919,35.7671493 141.330366,35.7671493 142.188571,36.1971831 L152.2625,42.07 C153.052143,42.5474648 153.123929,43.263662 152.2625,43.669507 L137.761786,52.0251408 C136.903581,52.4551747 135.892134,52.4551747 135.033929,52.0251408 L124.96,46.1523239 C124.29,45.6032394 124.218214,44.9109155 124.96,44.4811972 Z"></path>
                            <path d="M152.286429,43.7411268 L89.2825,80.0284507 C88.418726,80.4704272 87.3944882,80.4704272 86.5307143,80.0284507 L76.2653571,74.0601408 C75.5235714,73.6304225 75.5475,72.9142254 76.2653571,72.4606338 L139.341071,36.1971831 L152.286429,43.7411268 Z"></path>
                            <path d="M17.7360714,113.737465 L7.63821429,119.538662 C6.93517986,119.912146 6.091963,119.912146 5.38892857,119.538662 L1.27321429,117.151338 C0.627142857,116.769366 0.579285714,116.196408 1.27321429,115.83831 L11.3710714,110.037113 C12.0741059,109.663628 12.9173227,109.663628 13.6203571,110.037113 L17.7360714,112.424437 C18.2864286,112.806408 18.3342857,113.379366 17.7360714,113.737465 Z"></path>
                            <path d="M31.8539286,105.59669 L21.7560714,111.421761 C21.053037,111.795245 20.2098201,111.795245 19.5067857,111.421761 L15.3910714,109.034437 C14.745,108.652465 14.6971429,108.055634 15.3910714,107.721408 L25.3214286,101.824718 C26.024463,101.451234 26.8676799,101.451234 27.5707143,101.824718 L31.6864286,104.212042 C32.5,104.689507 32.5,105.262465 31.8539286,105.59669 Z"></path>
                            <path d="M45.8521429,97.5514085 L35.7542857,103.352606 C35.0512513,103.72609 34.2080344,103.72609 33.505,103.352606 L29.3892857,100.965282 C28.7192857,100.58331 28.6953571,100.010352 29.3892857,99.6522535 L39.4632143,93.8510563 C40.1785349,93.4933252 41.021108,93.4933252 41.7364286,93.8510563 L45.8521429,96.2383803 C46.4025,96.6203521 46.4503571,97.1933099 45.8521429,97.5514085 Z"></path>
                            <path d="M39.1282143,109.846127 L29.0303571,115.671197 C28.3273227,116.044682 27.4841059,116.044682 26.7810714,115.671197 L22.6653571,113.283873 C22.0192857,112.925775 21.9714286,112.328944 22.6653571,111.994718 L32.7632143,106.169648 C33.4662487,105.796164 34.3094656,105.796164 35.0125,106.169648 L39.1282143,108.556972 C39.6785714,108.91507 39.6785714,109.511901 39.1282143,109.846127 Z"></path>
                        </g>
                        <path d="M192.867143,47.5373944 L192.867143,135.677394 L192.867143,135.677394 C192.706764,137.896534 191.350282,139.853399 189.325714,140.786268 L115.865,183.065775 C110.576786,186.121549 101.364286,185.739577 95.2625,182.230211 L95.2625,182.230211 C91.8407143,180.248732 90.1178571,177.718169 90.2135714,175.330845 L90.2135714,175.330845 L90.2135714,87.1430986 L192.867143,47.5373944 Z" fill="url(#linearGradient-7)"></path>
                        <path d="M110.361429,184.832394 C105.17883,185.616628 99.8810667,184.7036 95.2625,182.230211 C91.8407143,180.248732 90.1178571,177.718169 90.2135714,175.330845 L90.2135714,175.330845 L90.2135714,87.1430986 L110.0025,79.503662 L110.361429,79.503662 L110.361429,184.832394 Z" fill="#1517A1" opacity="0.3"></path>
                        <path d="M115.865,94.9257746 L189.301786,52.6223944 C194.59,49.590493 193.92,44.2667606 187.818214,40.6857746 L187.818214,40.6857746 C181.716429,37.1525352 172.48,36.7705634 167.191786,39.826338 L93.7789286,82.1774648 C88.4907143,85.2332394 89.1607143,90.5569718 95.2625,94.1140845 L95.2625,94.1140845 C101.364286,97.5757042 110.576786,97.9576761 115.865,94.9257746 Z" fill="url(#linearGradient-8)"></path>
                        <path d="M115.865,217.801338 L189.301786,175.497958 C194.59,172.466056 193.92,167.142324 187.818214,163.561338 L187.818214,163.561338 C181.716429,160.051972 172.48,159.67 167.191786,162.701901 L93.7789286,205.076901 C88.4907143,208.108803 89.1607143,213.432535 95.2625,217.013521 L95.2625,217.013521 C101.364286,220.451268 110.576786,220.833239 115.865,217.801338 Z" fill="#1517A1" opacity="0.5"></path>
                        <path d="M108.542857,89.2439437 C112.044934,89.2439437 114.883929,86.4115141 114.883929,82.9175352 L114.883929,43.7415493 C114.883929,42.0522822 114.883929,37.4229335 114.883929,38.3291339 C114.883929,38.5113984 168.077143,7.65291491 168.077143,7.65291491 L168.077143,44.911338 C168.283294,48.2610626 171.066367,50.872442 174.430179,50.872442 C177.79399,50.872442 180.577063,48.2610626 180.783214,44.911338 L180.783214,0.417156254 C180.783214,0.274296051 102.321429,45.5726201 102.321429,45.5726201 L102.321429,82.9175352" fill="url(#linearGradient-9)"></path>
                    </g>
                </g>
                <path d="M391.301429,310.841618 L400.274643,305.64 C400.9925,305.2325 400.896786,304.489412 400.059286,304.01 L389.482857,297.8975 C388.595876,297.444948 387.546267,297.444948 386.659286,297.8975 L377.686071,303.075147 C376.968214,303.506618 377.063929,304.225735 377.901429,304.705147 L388.477857,310.841618 C389.367537,311.282762 390.411749,311.282762 391.301429,310.841618 Z" id="Path" fill="#607BED"></path>
                <path d="M377.446786,318.847794 L386.42,313.646176 C387.137857,313.238676 387.042143,312.519559 386.204643,312.040147 L375.604286,305.903676 C374.741833,305.424838 373.704731,305.380439 372.804643,305.783824 L363.831429,310.985441 C363.113571,311.392941 363.209286,312.112059 364.022857,312.615441 L374.623214,318.727941 C375.494112,319.207288 376.538531,319.25162 377.446786,318.847794 Z" id="Path" fill="#607BED"></path>
                <path d="M363.568214,326.853971 L372.541429,321.676324 C373.259286,321.244853 373.1875,320.525735 372.35,320.046324 L361.821429,313.909853 C360.942815,313.457598 359.900399,313.457598 359.021786,313.909853 L350.048571,319.0875 C349.330714,319.495 349.4025,320.238088 350.24,320.7175 L360.840357,326.853971 C361.69945,327.281989 362.709121,327.281989 363.568214,326.853971 L363.568214,326.853971 Z" id="Path" fill="#607BED"></path>
                <path d="M344.401429,320.238088 L353.374643,315.060441 C354.0925,314.628971 354.020714,313.909853 353.183214,313.430441 L344.281786,308.276765 C343.400409,307.836103 342.363519,307.836103 341.482143,308.276765 L332.508929,313.478382 C331.791071,313.885882 331.862857,314.628971 332.700357,315.108382 L341.601786,320.238088 C342.480399,320.690344 343.522815,320.690344 344.401429,320.238088 Z" id="Path" fill="#607BED"></path>
                <path d="M330.546786,328.268235 L339.52,323.066618 C340.237857,322.659118 340.142143,321.916029 339.328571,321.436618 L330.427143,316.306912 C329.559433,315.816259 328.509605,315.771697 327.603571,316.187059 L318.75,321.364706 C318.032143,321.796176 318.127857,322.515294 318.965357,322.994706 L327.842857,328.148382 C328.681459,328.589406 329.672577,328.633338 330.546786,328.268235 Z" id="Path" fill="#607BED"></path>
                <path d="M316.692143,336.274412 L325.665357,331.096765 C326.383214,330.665294 326.2875,329.946176 325.45,329.466765 L316.5725,324.313088 C315.701602,323.833742 314.657183,323.789409 313.748929,324.193235 L304.775714,329.514706 C304.057857,329.922206 304.153571,330.665294 304.991071,331.144706 L313.868571,336.274412 C314.758251,336.715556 315.802463,336.715556 316.692143,336.274412 L316.692143,336.274412 Z" id="Path" fill="#607BED"></path>
                <path d="M302.8375,344.280588 L311.810714,339.102941 C312.528571,338.695441 312.432857,337.952353 311.595357,337.472941 L302.717857,332.343235 C301.85359,331.84064 300.797897,331.795829 299.894286,332.223382 L290.921071,337.401029 C290.203214,337.8325 290.298929,338.551618 291.1125,339.031029 L300.013929,344.184706 C300.885516,344.667667 301.935265,344.703314 302.8375,344.280588 Z" id="Path" fill="#607BED"></path>
                <path d="M288.958929,352.310735 L297.932143,347.109118 C298.65,346.701618 298.578214,345.9825 297.740714,345.503088 L288.839286,340.349412 C287.976833,339.870573 286.939731,339.826174 286.039643,340.229559 L277.066429,345.431176 C276.348571,345.838676 276.420357,346.557794 277.257857,347.037206 L286.159286,352.190882 C287.021739,352.669721 288.05884,352.71412 288.958929,352.310735 Z" id="Path" fill="#607BED"></path>
                <path d="M275.104286,360.316912 L284.0775,355.139265 C284.795357,354.707794 284.699643,353.988676 283.886071,353.509265 L274.984643,348.355588 C274.12219,347.876749 273.085089,347.832351 272.185,348.235735 L263.211786,353.485294 C262.47,353.892794 262.565714,354.635882 263.403214,355.115294 L272.304643,360.245 C273.168318,360.732179 274.216822,360.759111 275.104286,360.316912 Z" id="Path" fill="#607BED"></path>
                <path d="M261.321429,368.347059 L270.294643,363.145441 C271.0125,362.737941 270.916786,361.994853 270.103214,361.515441 L261.201786,356.385735 C260.330888,355.906389 259.286469,355.862056 258.378214,356.265882 L249.357143,361.443529 C248.639286,361.875 248.735,362.594118 249.5725,363.073529 L258.45,368.227206 C259.333614,368.722459 260.39975,368.766959 261.321429,368.347059 L261.321429,368.347059 Z" id="Path" fill="#607BED"></path>
                <path d="M247.395,376.353235 L256.368214,371.175588 C257.086071,370.744118 256.990357,370.025 256.152857,369.545588 L247.275357,364.391912 C246.404459,363.912565 245.36004,363.868233 244.451786,364.272059 L235.478571,369.473676 C234.760714,369.881176 234.856429,370.624265 235.693929,371.103676 L244.571429,376.233382 C245.439139,376.724035 246.488967,376.768597 247.395,376.353235 Z" id="Path" fill="#607BED"></path>
                <path d="M233.516429,384.383382 L242.489643,379.181765 C243.231429,378.774265 243.135714,378.031176 242.298214,377.551765 L233.396786,372.422059 C232.537598,371.931731 231.494957,371.887095 230.597143,372.302206 L221.623929,377.455882 C220.906071,377.887353 221.001786,378.606471 221.815357,379.085882 L230.716786,384.239559 C231.575418,384.726139 232.612613,384.779421 233.516429,384.383382 L233.516429,384.383382 Z" id="Path" fill="#607BED"></path>
                <path d="M219.661786,392.389559 L228.635,387.187941 C229.352857,386.780441 229.281071,386.061324 228.443571,385.581912 L219.542143,380.428235 C218.67969,379.949396 217.642589,379.904998 216.7425,380.308382 L207.769286,385.51 C207.051429,385.9175 207.123214,386.636618 207.960714,387.14 L216.862143,392.269706 C217.724596,392.748545 218.761697,392.792943 219.661786,392.389559 Z" id="Path" fill="#607BED"></path>
                <path d="M323.990357,316.450735 L332.963571,311.249118 C333.681429,310.841618 333.585714,310.1225 332.748214,309.643088 L323.870714,304.489412 C322.981035,304.048267 321.936822,304.048267 321.047143,304.489412 L312.073929,309.691029 C311.356071,310.098529 311.451786,310.817647 312.289286,311.297059 L321.142857,316.330882 C322.020128,316.81814 323.075376,316.862556 323.990357,316.450735 L323.990357,316.450735 Z" id="Path" fill="#607BED"></path>
                <path d="M338.060357,308.324706 L347.033571,303.123088 C347.751429,302.715588 347.655714,301.9725 346.818214,301.493088 L337.892857,296.363382 C337.008802,295.898779 335.953341,295.898779 335.069286,296.363382 L326.096071,301.541029 C325.378214,301.9725 325.473929,302.691618 326.311429,303.171029 L335.188929,308.324706 C336.091681,308.781838 337.157605,308.781838 338.060357,308.324706 Z" id="Path" fill="#607BED"></path>
                <path d="M352.25,300.174706 L371.584286,288.980441 C372.302143,288.572941 372.230357,287.829853 371.392857,287.350441 L362.491429,282.220735 C361.612815,281.76848 360.570399,281.76848 359.691786,282.220735 L340.285714,293.271176 C339.567857,293.702647 339.663571,294.421765 340.477143,294.901176 L349.378571,300.054853 C350.259973,300.557879 351.329881,300.602537 352.25,300.174706 L352.25,300.174706 Z" id="Path" fill="#607BED"></path>
                <path d="M342.295714,290.250882 L357.968929,281.19 C358.710714,280.758529 358.615,280.039412 357.7775,279.56 L348.876071,274.382353 C348.013619,273.903514 346.976517,273.859116 346.076429,274.2625 L330.379286,283.347353 C329.661429,283.754853 329.757143,284.497941 330.594643,284.977353 L339.472143,290.107059 C340.33925,290.594149 341.383759,290.647353 342.295714,290.250882 Z" id="Path" fill="#607BED"></path>
                <path d="M310.135714,324.456912 L319.108929,319.279265 C319.826786,318.847794 319.731071,318.128676 318.893571,317.649265 L310.016071,312.495588 C309.12909,312.043037 308.079481,312.043037 307.1925,312.495588 L298.219286,317.529412 C297.501429,317.936912 297.597143,318.68 298.410714,319.159412 L307.312143,324.289118 C308.168403,324.807166 309.224319,324.869915 310.135714,324.456912 L310.135714,324.456912 Z" id="Path" fill="#607BED"></path>
                <path d="M296.257143,332.487059 L305.230357,327.285441 C305.948214,326.877941 305.876429,326.134853 305.038929,325.655441 L296.1375,320.525735 C295.275047,320.046896 294.237946,320.002498 293.337857,320.405882 L284.364643,325.583529 C283.646786,326.015 283.718571,326.734118 284.556071,327.213529 L293.4575,332.367206 C294.319953,332.846045 295.357054,332.890443 296.257143,332.487059 L296.257143,332.487059 Z" id="Path" fill="#607BED"></path>
                <path d="M282.4025,340.493235 L291.375714,335.315588 C292.093571,334.884118 291.997857,334.165 291.184286,333.685588 L282.282857,328.531912 C281.420404,328.053073 280.383303,328.008674 279.483214,328.412059 L270.51,333.613676 C269.768214,334.021176 269.863929,334.764265 270.701429,335.243676 L279.602857,340.373382 C280.462045,340.86371 281.504686,340.908346 282.4025,340.493235 L282.4025,340.493235 Z" id="Path" fill="#607BED"></path>
                <path d="M268.5,348.523382 L277.473214,343.321765 C278.191071,342.914265 278.095357,342.171176 277.257857,341.691765 L268.5,336.562059 C267.63229,336.071406 266.582462,336.026844 265.676429,336.442206 L256.535714,341.619853 C255.817857,342.051324 255.913571,342.770441 256.751071,343.249853 L265.628571,348.403529 C266.512186,348.898782 267.578321,348.943283 268.5,348.523382 Z" id="Path" fill="#607BED"></path>
                <path d="M254.693214,356.529559 L263.714286,351.327941 C264.432143,350.920441 264.336429,350.201324 263.498929,349.721912 L254.621429,344.568235 C253.750531,344.088889 252.706112,344.044556 251.797857,344.448382 L242.824643,349.65 C242.106786,350.0575 242.2025,350.776618 243.04,351.28 L251.9175,356.409706 C252.775564,356.873478 253.798496,356.917647 254.693214,356.529559 L254.693214,356.529559 Z" id="Path" fill="#607BED"></path>
                <path d="M240.814643,364.535735 L249.787857,359.358088 C250.529643,358.926618 250.433929,358.2075 249.596429,357.728088 L240.695,352.574412 C239.816387,352.122156 238.77397,352.122156 237.895357,352.574412 L228.922143,357.752059 C228.204286,358.183529 228.3,358.902647 229.113571,359.382059 L238.015,364.535735 C238.893613,364.987991 239.93603,364.987991 240.814643,364.535735 Z" id="Path" fill="#607BED"></path>
                <path d="M226.96,372.661765 L235.933214,367.460147 C236.651071,367.052647 236.579286,366.333529 235.741786,365.830147 L226.840357,360.676471 C225.977904,360.197632 224.940803,360.153233 224.040714,360.556618 L215.0675,365.758235 C214.349643,366.165735 214.421429,366.884853 215.258929,367.364265 L224.160357,372.517941 C225.01899,373.004521 226.056184,373.057804 226.96,372.661765 Z" id="Path" fill="#607BED"></path>
                <path d="M213.105357,380.572059 L222.078571,375.394412 C222.796429,374.962941 222.700714,374.243824 221.887143,373.764412 L212.985714,368.610735 C212.114817,368.131389 211.070398,368.087056 210.162143,368.490882 L201.188929,373.6925 C200.471071,374.1 200.566786,374.843088 201.404286,375.3225 L210.281786,380.452206 C211.149496,380.942859 212.199324,380.987421 213.105357,380.572059 Z" id="Path" fill="#607BED"></path>
                <path d="M199.250714,388.602206 L208.223929,383.400588 C208.941786,382.993088 208.846071,382.25 208.008571,381.770588 L199.107143,376.640882 C198.220162,376.188331 197.170552,376.188331 196.283571,376.640882 L187.310357,381.818529 C186.5925,382.25 186.688214,382.969118 187.525714,383.448529 L196.403214,388.602206 C197.299445,389.051302 198.354484,389.051302 199.250714,388.602206 Z" id="Path" fill="#607BED"></path>
                <path d="M174.604286,402.840735 L194.177857,391.526618 C194.919643,391.095147 194.823929,390.376029 193.986429,389.896618 L185.085,384.647059 C184.203623,384.206397 183.166734,384.206397 182.285357,384.647059 L162.687857,395.985147 C161.97,396.392647 162.065714,397.135735 162.903214,397.615147 L171.804643,402.744853 C172.667739,403.227494 173.7103,403.263199 174.604286,402.840735 Z" id="Path" fill="#607BED"></path>
                <path d="M147.612857,387.235882 L164.1475,377.647647 C164.865357,377.240147 164.769643,376.521029 163.956071,376.017647 L155.054643,370.887941 C154.19219,370.409102 153.155089,370.364704 152.255,370.768088 L135.720357,380.356324 C135.0025,380.763824 135.074286,381.506912 135.911786,381.986324 L144.813214,387.116029 C145.675667,387.594868 146.712769,387.639267 147.612857,387.235882 Z" id="Path" fill="#607BED"></path>
                <path d="M285.848214,322.898824 L294.821429,317.697206 C295.539286,317.289706 295.4675,316.570588 294.63,316.091176 L285.728571,310.9375 C284.866119,310.458661 283.829017,310.414263 282.928929,310.817647 L273.955714,316.019265 C273.237857,316.426765 273.309643,317.145882 274.147143,317.625294 L283.048571,322.778971 C283.911024,323.25781 284.948126,323.302208 285.848214,322.898824 Z" id="Path" fill="#607BED"></path>
                <path d="M300.061786,314.676912 L309.035,309.499265 C309.752857,309.067794 309.657143,308.348676 308.819643,307.869265 L299.942143,302.715588 C299.052463,302.274444 298.008251,302.274444 297.118571,302.715588 L288.145357,307.917206 C287.4275,308.324706 287.523214,309.067794 288.360714,309.547206 L297.238214,314.676912 C298.125195,315.129463 299.174805,315.129463 300.061786,314.676912 L300.061786,314.676912 Z" id="Path" fill="#607BED"></path>
                <path d="M314.251429,306.455 L323.248571,301.277353 C323.966429,300.845882 323.870714,300.126765 323.033214,299.647353 L314.131786,294.493676 C313.253173,294.041421 312.210756,294.041421 311.332143,294.493676 L302.358929,299.671324 C301.641071,300.102794 301.736786,300.821912 302.550357,301.301324 L311.451786,306.455 C312.330399,306.907255 313.372815,306.907255 314.251429,306.455 Z" id="Path" fill="#607BED"></path>
                <path d="M328.465,298.352941 L337.438214,293.151324 C338.156071,292.743824 338.060357,292.000735 337.246786,291.521324 L328.321429,286.367647 C327.442815,285.915392 326.400399,285.915392 325.521786,286.367647 L316.548571,291.545294 C315.806786,291.976765 315.9025,292.695882 316.74,293.175294 L325.641429,298.328971 C326.525533,298.785207 327.573304,298.794102 328.465,298.352941 Z" id="Path" fill="#607BED"></path>
                <path d="M271.993571,330.905 L280.966786,325.727353 C281.684643,325.295882 281.588929,324.576765 280.775357,324.097353 L271.873929,318.943676 C271.003031,318.46433 269.958612,318.419997 269.050357,318.823824 L260.077143,324.025441 C259.359286,324.432941 259.455,325.176029 260.2925,325.655441 L269.17,330.785147 C270.034267,331.287742 271.08996,331.332554 271.993571,330.905 L271.993571,330.905 Z" id="Path" fill="#607BED"></path>
                <path d="M258.138929,338.935147 L267.112143,333.733529 C267.83,333.326029 267.734286,332.582941 266.896786,332.103529 L258.019286,326.973824 C257.148388,326.494477 256.103969,326.450144 255.195714,326.853971 L246.2225,332.031618 C245.504643,332.463088 245.600357,333.182206 246.437857,333.661618 L255.315357,338.815294 C256.186255,339.294641 257.230674,339.338973 258.138929,338.935147 L258.138929,338.935147 Z" id="Path" fill="#607BED"></path>
                <path d="M244.284286,346.941324 L253.2575,341.763676 C253.975357,341.332206 253.879643,340.613088 253.042143,340.133676 L244.164643,334.98 C243.293745,334.500654 242.249326,334.456321 241.341071,334.860147 L232.367857,340.061765 C231.65,340.469265 231.745714,341.212353 232.559286,341.691765 L241.460714,346.821471 C242.328424,347.312123 243.378252,347.356686 244.284286,346.941324 L244.284286,346.941324 Z" id="Path" fill="#607BED"></path>
                <path d="M230.405714,354.971471 L239.378929,349.769853 C240.096786,349.362353 240.025,348.619265 239.1875,348.139853 L230.214286,343.010147 C229.335673,342.557892 228.293256,342.557892 227.414643,343.010147 L218.441429,348.187794 C217.723571,348.619265 217.795357,349.338382 218.632857,349.817794 L227.534286,354.971471 C228.435156,355.436445 229.504844,355.436445 230.405714,354.971471 Z" id="Path" fill="#607BED"></path>
                <path d="M216.551071,363.073529 L225.524286,357.871912 C226.242143,357.464412 226.146429,356.745294 225.332857,356.265882 L216.431429,351.088235 C215.568976,350.609396 214.531874,350.564998 213.631786,350.968382 L204.658571,356.17 C203.916786,356.5775 204.0125,357.296618 204.85,357.8 L213.751429,362.929706 C214.610061,363.416286 215.647256,363.469568 216.551071,363.073529 L216.551071,363.073529 Z" id="Path" fill="#607BED"></path>
                <path d="M202.696429,370.983824 L211.669643,365.806176 C212.3875,365.374706 212.291786,364.655588 211.454286,364.176176 L202.576786,359.0225 C201.689805,358.569948 200.640195,358.569948 199.753214,359.0225 L190.78,364.200147 C190.062143,364.607647 190.157857,365.350735 190.995357,365.830147 L199.872857,370.983824 C200.759838,371.436375 201.809448,371.436375 202.696429,370.983824 L202.696429,370.983824 Z" id="Path" fill="#607BED"></path>
                <path d="M188.841786,379.013971 L197.815,373.812353 C198.532857,373.404853 198.437143,372.661765 197.599643,372.182353 L188.722143,367.052647 C187.832463,366.611502 186.788251,366.611502 185.898571,367.052647 L176.925357,372.254265 C176.2075,372.661765 176.303214,373.380882 177.116786,373.860294 L186.018214,379.013971 C186.907894,379.455115 187.952106,379.455115 188.841786,379.013971 Z" id="Path" fill="#607BED"></path>
                <path d="M174.963214,387.044118 L183.936429,381.866471 C184.678214,381.435 184.5825,380.715882 183.745,380.236471 L174.843571,375.058824 C173.981119,374.579985 172.944017,374.535586 172.043929,374.938971 L163.070714,380.140588 C162.352857,380.548088 162.448571,381.291176 163.262143,381.770588 L172.163571,386.900294 C173.018837,387.398346 174.061577,387.451913 174.963214,387.044118 Z" id="Path" fill="#607BED"></path>
                <path d="M161.108571,395.050294 L170.081786,389.848676 C170.799643,389.441176 170.727857,388.698088 169.890357,388.218676 L160.988929,383.088971 C160.110315,382.636715 159.067899,382.636715 158.189286,383.088971 L149.216071,388.266618 C148.498214,388.698088 148.57,389.417206 149.4075,389.896618 L158.308929,395.050294 C159.190305,395.490956 160.227195,395.490956 161.108571,395.050294 Z" id="Path" fill="#607BED"></path>
                <path d="M293.146429,303.147059 L302.119643,297.945441 C302.8375,297.537941 302.765714,296.794853 301.928214,296.315441 L293.026786,291.161765 C292.145409,290.721103 291.108519,290.721103 290.227143,291.161765 L281.253929,296.339412 C280.536071,296.770882 280.607857,297.49 281.445357,297.969412 L290.346786,303.123088 C291.224398,303.571315 292.261296,303.580193 293.146429,303.147059 L293.146429,303.147059 Z" id="Path" fill="#607BED"></path>
                <path d="M306.953214,295.092941 L315.926429,289.891324 C316.644286,289.483824 316.548571,288.764706 315.711071,288.285294 L306.785714,283.131618 C305.914817,282.652271 304.870398,282.607938 303.962143,283.011765 L294.988929,288.213382 C294.271071,288.620882 294.366786,289.34 295.180357,289.843382 L304.081786,294.973088 C304.9654,295.468341 306.031535,295.512841 306.953214,295.092941 Z" id="Path" fill="#607BED"></path>
                <path d="M320.736071,287.110735 L329.709286,281.933088 C330.427143,281.501618 330.331429,280.7825 329.517857,280.303088 L320.616429,275.149412 C319.726749,274.708267 318.682537,274.708267 317.792857,275.149412 L308.819643,280.351029 C308.101786,280.758529 308.1975,281.501618 309.035,281.981029 L317.9125,287.110735 C318.799481,287.563287 319.84909,287.563287 320.736071,287.110735 L320.736071,287.110735 Z" id="Path" fill="#607BED"></path>
                <path d="M334.518929,279.176471 L343.492143,273.998824 C344.21,273.591324 344.138214,272.848235 343.300714,272.368824 L334.399286,267.191176 C333.523673,266.72666 332.475255,266.72666 331.599643,267.191176 L322.626429,272.368824 C321.908571,272.800294 321.980357,273.519412 322.817857,273.998824 L331.719286,279.1525 C332.594036,279.612297 333.636461,279.621222 334.518929,279.176471 Z" id="Path" fill="#607BED"></path>
                <path d="M320.353214,270.930588 L329.326429,265.752941 C330.044286,265.321471 329.948571,264.602353 329.111071,264.122941 L326.167857,262.397059 C325.305404,261.91822 324.268303,261.873822 323.368214,262.277206 L314.395,267.478824 C313.677143,267.886324 313.748929,268.605441 314.586429,269.108824 L317.529643,270.786765 C318.389914,271.297069 319.445709,271.350847 320.353214,270.930588 L320.353214,270.930588 Z" id="Path" fill="#607BED"></path>
                <path d="M302.335,281.357794 L311.332143,276.156176 C312.05,275.748676 311.954286,275.005588 311.116786,274.526176 L308.173571,272.824265 C307.292195,272.383603 306.255305,272.383603 305.373929,272.824265 L296.400714,278.025882 C295.682857,278.433382 295.754643,279.176471 296.592143,279.655882 L299.535357,281.357794 C300.416734,281.798456 301.453623,281.798456 302.335,281.357794 L302.335,281.357794 Z" id="Path" fill="#607BED"></path>
                <path d="M288.6,289.292059 L297.597143,284.090441 C298.315,283.682941 298.219286,282.963824 297.381786,282.484412 L294.438571,280.7825 C293.559958,280.330245 292.517542,280.330245 291.638929,280.7825 L282.665714,285.960147 C281.947857,286.391618 282.019643,287.110735 282.857143,287.590147 L285.800357,289.292059 C286.681734,289.732721 287.718623,289.732721 288.6,289.292059 L288.6,289.292059 Z" id="Path" fill="#607BED"></path>
                <path d="M274.888929,297.226324 L283.862143,292.048676 C284.58,291.617206 284.484286,290.898088 283.646786,290.418676 L280.703571,288.764706 C279.822195,288.324044 278.785305,288.324044 277.903929,288.764706 L268.930714,293.966324 C268.212857,294.373824 268.284643,295.092941 269.122143,295.572353 L272.065357,297.274265 C272.959979,297.71183 274.009623,297.694008 274.888929,297.226324 Z" id="Path" fill="#607BED"></path>
                <path d="M261.153929,305.184559 L270.127143,299.982941 C270.845,299.575441 270.749286,298.832353 269.911786,298.352941 L266.968571,296.651029 C266.106119,296.17219 265.069017,296.127792 264.168929,296.531176 L255.195714,301.732794 C254.477857,302.140294 254.549643,302.883382 255.387143,303.362794 L258.330357,305.064706 C259.201255,305.544052 260.245674,305.588385 261.153929,305.184559 Z" id="Path" fill="#607BED"></path>
                <path d="M184.462857,349.530147 L193.436071,344.328529 C194.177857,343.921029 194.082143,343.177941 193.244643,342.698529 L190.301429,340.996618 C189.420052,340.555956 188.383162,340.555956 187.501786,340.996618 L178.528571,346.198235 C177.786786,346.605735 177.8825,347.348824 178.72,347.828235 L181.663214,349.530147 C182.544591,349.970809 183.581481,349.970809 184.462857,349.530147 L184.462857,349.530147 Z" id="Path" fill="#607BED"></path>
                <path d="M170.727857,357.464412 L179.725,352.262794 C180.442857,351.855294 180.347143,351.136176 179.509643,350.656765 L176.566429,348.954853 C175.707241,348.464525 174.6646,348.419889 173.766786,348.835 L164.793571,354.012647 C164.075714,354.444118 164.1475,355.163235 164.985,355.642647 L167.928214,357.344559 C168.790667,357.823398 169.827769,357.867796 170.727857,357.464412 Z" id="Path" fill="#607BED"></path>
                <path d="M157.016786,365.470588 L165.99,360.292941 C166.707857,359.861471 166.612143,359.142353 165.774643,358.662941 L162.831429,356.961029 C161.950052,356.520367 160.913162,356.520367 160.031786,356.961029 L151.058571,362.162647 C150.340714,362.570147 150.4125,363.289265 151.25,363.792647 L154.193214,365.470588 C155.07727,365.935192 156.13273,365.935192 157.016786,365.470588 Z" id="Path" fill="#607BED"></path>
                <path d="M143.281786,373.356912 L152.255,368.155294 C152.972857,367.747794 152.877143,367.004706 152.039643,366.525294 L149.096429,364.823382 C148.217815,364.371127 147.175399,364.371127 146.296786,364.823382 L137.323571,370.001029 C136.605714,370.408529 136.6775,371.151618 137.515,371.631029 L140.458214,373.332941 C141.344157,373.781656 142.388378,373.790521 143.281786,373.356912 Z" id="Path" fill="#607BED"></path>
                <path d="M279.291786,311.081324 L288.265,305.903676 C288.982857,305.472206 288.887143,304.753088 288.073571,304.273676 L279.172143,299.12 C278.282463,298.678855 277.238251,298.678855 276.348571,299.12 L267.375357,304.321618 C266.6575,304.729118 266.753214,305.472206 267.590714,305.951618 L276.468214,311.081324 C277.355195,311.533875 278.404805,311.533875 279.291786,311.081324 Z" id="Path" fill="#607BED"></path>
                <path d="M265.437143,319.111471 L274.410357,313.909853 C275.128214,313.502353 275.0325,312.759265 274.195,312.279853 L265.3175,307.150147 C264.430519,306.697595 263.38091,306.697595 262.493929,307.150147 L253.520714,312.327794 C252.802857,312.759265 252.898571,313.478382 253.736071,313.957794 L262.613571,319.111471 C263.503251,319.552615 264.547463,319.552615 265.437143,319.111471 Z" id="Path" fill="#607BED"></path>
                <path d="M251.5825,327.117647 L260.555714,321.916029 C261.273571,321.508529 261.177857,320.789412 260.340357,320.31 L251.462857,315.132353 C250.573178,314.691208 249.528965,314.691208 248.639286,315.132353 L239.785714,320.238088 C239.067857,320.645588 239.163571,321.364706 239.977143,321.868088 L248.878571,326.997794 C249.717173,327.438818 250.708291,327.482749 251.5825,327.117647 Z" id="Path" fill="#607BED"></path>
                <path d="M237.703929,335.123824 L246.677143,329.946176 C247.395,329.514706 247.323214,328.795588 246.485714,328.316176 L237.584286,323.1625 C236.705673,322.710245 235.663256,322.710245 234.784643,323.1625 L225.811429,328.340147 C225.093571,328.771618 225.165357,329.490735 226.002857,329.970147 L235,335.027941 C235.837602,335.478576 236.836615,335.514002 237.703929,335.123824 L237.703929,335.123824 Z" id="Path" fill="#607BED"></path>
                <path d="M223.849286,343.153971 L232.8225,337.952353 C233.540357,337.544853 233.444643,336.825735 232.631071,336.322353 L223.729643,331.192647 C222.848266,330.751985 221.811377,330.751985 220.93,331.192647 L211.956786,336.394265 C211.215,336.801765 211.310714,337.520882 212.148214,338.000294 L221.049643,343.153971 C221.931019,343.594633 222.967909,343.594633 223.849286,343.153971 L223.849286,343.153971 Z" id="Path" fill="#607BED"></path>
                <path d="M209.994643,351.088235 L218.967857,345.910588 C219.685714,345.479118 219.59,344.76 218.7525,344.280588 L209.875,339.102941 C208.985321,338.661797 207.941108,338.661797 207.051429,339.102941 L198.078214,344.304559 C197.360357,344.712059 197.456071,345.455147 198.293571,345.934559 L207.171071,351.064265 C208.054219,351.524365 209.103838,351.533275 209.994643,351.088235 Z" id="Path" fill="#607BED"></path>
                <path d="M196.14,359.190294 L205.113214,353.988676 C205.831071,353.581176 205.735357,352.838088 204.897857,352.358676 L196.020357,347.228971 C195.133376,346.776419 194.083767,346.776419 193.196786,347.228971 L184.223571,352.406618 C183.505714,352.838088 183.601429,353.557206 184.415,354.036618 L193.316429,359.190294 C194.206108,359.631439 195.250321,359.631439 196.14,359.190294 L196.14,359.190294 Z" id="Path" fill="#607BED"></path>
                <path d="M182.357143,367.196471 L191.330357,362.018824 C192.072143,361.587353 191.976429,360.868235 191.138929,360.388824 L182.2375,355.235147 C181.356123,354.794485 180.319234,354.794485 179.437857,355.235147 L170.392857,360.316912 C169.675,360.724412 169.746786,361.4675 170.584286,361.946912 L179.485714,367.076618 C180.367116,367.579644 181.437024,367.624302 182.357143,367.196471 L182.357143,367.196471 Z" id="Path" fill="#607BED"></path>
                <path d="M168.406786,375.202647 L177.38,370.025 C178.097857,369.6175 178.026071,368.874412 177.188571,368.395 L168.287143,363.265294 C167.474347,362.780416 166.480483,362.709301 165.607143,363.073529 L156.633929,368.251176 C155.892143,368.682647 155.987857,369.401765 156.825357,369.881176 L165.607143,375.058824 C166.462408,375.556875 167.505148,375.610443 168.406786,375.202647 Z" id="Path" fill="#607BED"></path>
                <path d="M358.519286,312.064118 L384.840714,296.794853 C385.558571,296.363382 385.462857,295.644265 384.649286,295.164853 L375.747857,290.011176 C374.866481,289.570514 373.829591,289.570514 372.948214,290.011176 L346.626786,305.304412 C345.908929,305.735882 346.004643,306.455 346.818214,306.934412 L355.719643,312.088088 C356.60211,312.532839 357.644536,312.523914 358.519286,312.064118 Z" id="Path" fill="#607BED"></path>
                <path d="M188.2675,410.559265 L214.588929,395.266029 C215.306786,394.858529 215.235,394.115441 214.3975,393.636029 L205.496071,388.506324 C204.636884,388.015995 203.594243,387.97136 202.696429,388.386471 L176.375,403.679706 C175.657143,404.087206 175.752857,404.806324 176.566429,405.285735 L185.467857,410.439412 C186.332352,410.91093 187.366,410.95518 188.2675,410.559265 Z" id="Path" fill="#607BED"></path>
                <path d="M243.686071,396.200882 L252.659286,391.023235 C253.377143,390.591765 253.281429,389.872647 252.467857,389.393235 L241.8675,383.256765 C240.977821,382.81562 239.933608,382.81562 239.043929,383.256765 L230.070714,388.458382 C229.352857,388.865882 229.448571,389.608971 230.286071,390.088382 L240.8625,396.200882 C241.749481,396.653434 242.79909,396.653434 243.686071,396.200882 L243.686071,396.200882 Z" id="Path" fill="#607BED"></path>
                <path d="M344.329643,338.000294 L358.686786,329.6825 C359.404643,329.275 359.308929,328.555882 358.495357,328.0525 L347.895,321.94 C347.032547,321.461161 345.995446,321.416763 345.095357,321.820147 L330.738214,330.113971 C330.020357,330.545441 330.092143,331.264559 330.929643,331.743971 L341.53,337.880441 C342.392453,338.35928 343.429554,338.403678 344.329643,338.000294 Z" id="Path" fill="#607BED"></path>
                <path d="M257.038214,388.482353 L271.395357,380.188529 C272.113214,379.757059 272.0175,379.037941 271.18,378.558529 L260.603571,372.422059 C259.732674,371.942712 258.688255,371.89838 257.78,372.302206 L243.422857,380.62 C242.705,381.0275 242.800714,381.746618 243.638214,382.226029 L254.238571,388.3625 C255.101024,388.841339 256.138126,388.885737 257.038214,388.482353 Z" id="Path" fill="#607BED"></path>
                <path d="M324.349286,349.554118 L338.706429,341.260294 C339.448214,340.828824 339.3525,340.109706 338.515,339.630294 L327.914643,333.493824 C327.033266,333.053161 325.996377,333.053161 325.115,333.493824 L310.757857,341.811618 C310.04,342.219118 310.135714,342.962206 310.949286,343.441618 L321.549643,349.554118 C322.432742,349.987394 323.466186,349.987394 324.349286,349.554118 Z" id="Path" fill="#607BED"></path>
                <path d="M324.995357,333.445882 L262.589643,369.545588 C261.8,369.977059 261.8,370.696176 262.589643,371.151618 L273.285714,377.455882 C274.168814,377.889159 275.202258,377.889159 276.085357,377.455882 L338.491071,341.356176 L324.995357,333.445882 Z" id="Path" fill="#607BED"></path>
                <path d="M204.945714,410.727059 L194.943571,416.527941 C194.369286,416.863529 194.441071,417.462794 195.111071,417.846324 L199.442143,420.363235 C200.194589,420.743538 201.082554,420.743538 201.835,420.363235 L211.813214,414.586324 C212.411429,414.226765 212.339643,413.6275 211.669643,413.243971 L207.314643,410.727059 C206.570544,410.347111 205.689813,410.347111 204.945714,410.727059 Z" id="Path" fill="#607BED"></path>
                <path d="M218.92,402.648971 L208.917857,408.425882 C208.343571,408.785441 208.415357,409.384706 209.085357,409.768235 L213.416429,412.285147 C214.168875,412.66545 215.05684,412.66545 215.809286,412.285147 L225.7875,406.484265 C226.385714,406.148676 226.313929,405.549412 225.643929,405.165882 L221.288929,402.768824 C220.564144,402.350691 219.683151,402.306119 218.92,402.648971 L218.92,402.648971 Z" id="Path" fill="#607BED"></path>
                <path d="M232.774643,394.642794 L222.796429,400.419706 C222.198214,400.755294 222.27,401.354559 222.963929,401.762059 L227.295,404.159118 C228.04141,404.564031 228.941447,404.564031 229.687857,404.159118 L239.69,398.382206 C240.264286,398.046618 240.1925,397.447353 239.5225,397.039853 L235.191429,394.642794 C234.43546,394.242196 233.530611,394.242196 232.774643,394.642794 L232.774643,394.642794 Z" id="Path" fill="#607BED"></path>
                <path d="M211.262857,398.238382 L201.284643,404.015294 C200.686429,404.350882 200.758214,404.950147 201.428214,405.333676 L205.783214,407.850588 C206.533778,408.238734 207.425508,408.238734 208.176071,407.850588 L218.178214,402.073676 C218.7525,401.714118 218.680714,401.138824 218.010714,400.731324 L213.679643,398.334265 C212.950652,397.866778 212.02647,397.830112 211.262857,398.238382 Z" id="Path" fill="#607BED"></path>
                <path d="M69.5003818,183 C70.2313895,182.984081 70.9448727,182.775527 71.5672472,182.395847 C73.6641231,181.158423 74.7964484,178.789366 74.4326742,176.400786 C74.2507725,175.440153 73.5999361,174.630932 72.6946283,174.239775 C71.6237419,173.829632 70.4192181,173.950527 69.4534076,174.565089 C67.3486289,175.808396 66.2083615,178.183845 66.5644935,180.583386 L66.5644935,180.583386 C66.7453772,181.537347 67.3853662,182.343982 68.2790523,182.744397 C68.6650193,182.908826 69.0801739,182.995711 69.5003818,183 Z M71.4967859,174.913639 C71.7816849,174.91152 72.0631568,174.975171 72.3188346,175.099532 C72.9496925,175.371349 73.3999091,175.939036 73.516677,176.609916 C73.8231071,178.591337 72.8970873,180.561051 71.1679664,181.6058 C70.4700201,182.051019 69.6038575,182.15385 68.8192557,181.88464 C68.1910569,181.609431 67.742144,181.043387 67.6214133,180.374256 L67.6214133,180.374256 C67.3149832,178.392835 68.241003,176.423121 69.9701239,175.378372 C70.4228412,175.098995 70.9403455,174.938999 71.4732988,174.913639 L71.4967859,174.913639 Z" id="Shape" fill="#607BED"></path>
                <path d="M58.477584,189 C59.20515,188.989192 59.9166767,188.788272 60.5390911,188.417876 C62.6595936,187.182369 63.8036597,184.804867 63.4299402,182.410356 C63.2397731,181.452229 62.5977523,180.63984 61.7001699,180.22157 C60.6062936,179.831985 59.3906092,179.960901 58.4064975,180.570844 C56.288811,181.81549 55.1683198,184.211955 55.5867349,186.601649 L55.5867349,186.601649 C55.854687,187.989338 57.1121403,188.977872 58.5486704,188.930145 L58.477584,189 Z M60.4680047,180.920119 C60.7601443,180.92231 61.0493528,180.977571 61.3210421,181.083114 C61.9439967,181.378933 62.384663,181.950535 62.5058163,182.619921 C62.8180184,184.599513 61.881839,186.568227 60.1362679,187.602902 C59.4359522,188.056871 58.5618746,188.168533 57.7667195,187.905607 C57.1385798,187.616044 56.6955654,187.041397 56.5819452,186.368799 C56.2697432,184.389208 57.2059226,182.420493 58.9514937,181.385818 C59.410751,181.111303 59.9314025,180.951418 60.4680047,180.920119 Z" id="Shape" fill="#607BED"></path>
                <path d="M44.5577586,193.945499 C44.7550244,194.822927 45.3984585,195.539974 46.2620524,195.844775 C47.1256462,196.149576 48.0886421,195.99951 48.8127845,195.447288 C50.7287575,194.340761 51.7678991,192.207921 51.4402048,190.054501 C51.2429389,189.177073 50.5995049,188.460026 49.735911,188.155225 C48.8723171,187.850424 47.9093213,188.00049 47.1851789,188.552712 C45.274098,189.663615 44.2366187,191.793044 44.5577586,193.945499 Z" id="Path" fill="#607BED"></path>
                <polygon id="Path" fill="#607BED" points="263.009091 67 269.5 63.6616541 268.990909 61 262.5 64.3383459"></polygon>
                <polygon id="Path" fill="#607BED" points="253.983636 73 260.5 69.6716981 259.990909 67 253.5 70.3283019"></polygon>
                <polygon id="Path" fill="#607BED" points="271.982759 63 285.5 54.9366516 285.041379 52 271.5 60.0633484"></polygon>
                <path d="M139.836648,241 C141.466227,240.970616 143.059915,240.517779 144.460231,239.686237 L229.649148,190.647042 C235.007007,187.223443 237.587642,180.781048 236.06946,174.619132 C235.44341,171.927552 233.59094,169.682784 231.062575,168.551935 C228.567191,167.604548 225.769643,167.887916 223.516312,169.316306 L138.327396,218.403274 C133.014649,221.818614 130.441265,228.204611 131.907083,234.335638 C132.52624,237.030603 134.380944,239.27808 136.913969,240.402835 C137.839573,240.790812 138.832601,240.993708 139.836648,241 L139.836648,241 Z M228.139895,169.029667 C229.011296,169.027774 229.874415,169.198271 230.679273,169.531285 C232.929001,170.537945 234.565159,172.550587 235.087248,174.953544 C236.481544,180.66777 234.085895,186.634649 229.122107,189.811011 L144.052972,238.850206 C142.048117,240.112597 139.566959,240.368825 137.345184,239.542917 C135.095767,238.529856 133.454471,236.521808 132.913252,234.120658 C131.522982,228.399933 133.916561,222.428625 138.878393,219.239305 L224.067309,170.20011 C225.299726,169.463629 226.70341,169.060216 228.139895,169.029667 L228.139895,169.029667 Z" id="Shape" fill="#607BED"></path>
                <path d="M318.5,194 L318.5,282.421727 L318.5,282.421727 C318.326071,284.643887 316.95624,286.59674 314.922687,287.521599 L241.263647,329.948704 C235.957699,332.989473 226.690297,332.606384 220.56805,329.086754 L220.56805,329.086754 C217.13479,327.123423 215.430164,324.561516 215.50219,322.167209 L215.50219,322.167209 L215.50219,233.817312 L318.5,194 Z" id="Path" fill="url(#linearGradient-10)"></path>
                <path d="M236.5,331.735933 C231.351979,332.50609 226.095449,331.581175 221.507554,329.097931 C218.115276,327.13142 216.430998,324.565363 216.502164,322.167179 L216.502164,322.167179 L216.502164,233.674189 L236.120444,226 L236.5,226 L236.5,331.735933 Z" id="Path" fill="#1517A1" opacity="0.3"></path>
                <path d="M241.263121,241.9369 L314.920533,199.793568 C320.226363,196.747636 319.554131,191.44105 313.432019,187.895395 L313.432019,187.895395 C307.309907,184.397331 298.04271,184.01659 292.760888,187.038726 L219.079467,229.253447 C213.773637,232.275583 214.445869,237.582169 220.567981,241.151621 L220.567981,241.151621 C226.690093,244.602091 235.95729,244.982833 241.263121,241.9369 Z" id="Path" fill="url(#linearGradient-11)"></path>
                <path d="M241.263121,364.907122 L314.920533,322.795321 C320.226363,319.748226 319.554131,314.463421 313.432019,310.892607 L313.432019,310.892607 C307.309907,307.393209 298.04271,307.012323 292.760888,310.059417 L219.079467,352.21883 C213.773637,355.265924 214.445869,360.550729 220.567981,364.121543 L220.567981,364.121543 C226.690093,367.57333 235.95729,368.025633 241.263121,364.907122 Z" id="Path" fill="#1517A1" opacity="0.5"></path>
                <path d="M233.874848,236 C237.408865,236 240.273752,233.166905 240.273752,229.672105 L240.273752,190.658017 C240.273752,177.336133 250.112667,160.469677 261.779842,153.808735 L278.619062,144.150369 C283.093484,141.581149 287.134896,140.962633 289.708892,142.437555 C292.282887,143.912478 293.750305,147.671153 293.750305,152.785804 L293.750305,191.799893 C293.750305,195.281554 296.604421,198.103998 300.125152,198.103998 C303.645883,198.103998 306.5,195.281554 306.5,191.799893 L306.5,152.785804 C306.5,142.889548 302.795371,135.34841 296.083739,131.494579 C289.372107,127.640749 280.880329,128.283054 272.244214,133.207393 L255.404994,142.889548 C239.744519,151.810452 227.5,172.792419 227.5,190.658017 L227.5,229.672105 C227.499975,233.157636 230.350229,235.986897 233.874848,236 L233.874848,236 Z" id="Path" fill="url(#linearGradient-12)"></path>
            </g>
        </g>
    </g>
</svg>