<?xml version="1.0" encoding="UTF-8"?>
<svg width="500px" height="552px" viewBox="0 0 500 552" version="1.1" xmlns="http://www.w3.org/2000/svg" xmlns:xlink="http://www.w3.org/1999/xlink">
    <!-- Generator: Sketch 54 (76480) - https://sketchapp.com -->
    <title>recovery</title>
    <desc>Created with Sketch.</desc>
    <defs>
        <linearGradient x1="1.49356223%" y1="49.9781413%" x2="101.493562%" y2="49.9781413%" id="linearGradient-1">
            <stop stop-color="#4A65A3" offset="0%"></stop>
            <stop stop-color="#4F69A6" offset="17%"></stop>
            <stop stop-color="#5D75AD" offset="37%"></stop>
            <stop stop-color="#758AB9" offset="58%"></stop>
            <stop stop-color="#96A6CA" offset="81%"></stop>
            <stop stop-color="#B8C3DB" offset="100%"></stop>
        </linearGradient>
        <linearGradient x1="33.4940672%" y1="50.2342204%" x2="133.493635%" y2="50.2342204%" id="linearGradient-2">
            <stop stop-color="#B8C3DB" offset="0%"></stop>
            <stop stop-color="#BDC7DE" offset="28%"></stop>
            <stop stop-color="#CBD3E5" offset="60%"></stop>
            <stop stop-color="#E3E7F1" offset="95%"></stop>
            <stop stop-color="#E7EAF3" offset="100%"></stop>
        </linearGradient>
        <linearGradient x1="-47.7507441%" y1="50.4873674%" x2="52.2461906%" y2="50.4873674%" id="linearGradient-3">
            <stop stop-color="#B8C3DB" offset="0%"></stop>
            <stop stop-color="#BDC7DE" offset="28%"></stop>
            <stop stop-color="#CBD3E5" offset="60%"></stop>
            <stop stop-color="#E3E7F1" offset="95%"></stop>
            <stop stop-color="#E7EAF3" offset="100%"></stop>
        </linearGradient>
        <linearGradient x1="-0.00882936932%" y1="49.5045045%" x2="99.9298676%" y2="49.5045045%" id="linearGradient-4">
            <stop stop-color="#4A65A3" offset="0%"></stop>
            <stop stop-color="#4F69A6" offset="17%"></stop>
            <stop stop-color="#5D75AD" offset="37%"></stop>
            <stop stop-color="#758AB9" offset="58%"></stop>
            <stop stop-color="#96A6CA" offset="81%"></stop>
            <stop stop-color="#B8C3DB" offset="100%"></stop>
        </linearGradient>
        <linearGradient x1="0.493562232%" y1="50.2723597%" x2="100.493562%" y2="50.2723597%" id="linearGradient-5">
            <stop stop-color="#4A65A3" offset="0%"></stop>
            <stop stop-color="#4F69A6" offset="17%"></stop>
            <stop stop-color="#5D75AD" offset="37%"></stop>
            <stop stop-color="#758AB9" offset="58%"></stop>
            <stop stop-color="#96A6CA" offset="81%"></stop>
            <stop stop-color="#B8C3DB" offset="100%"></stop>
        </linearGradient>
        <linearGradient x1="-0.505785815%" y1="50.2350725%" x2="99.4937818%" y2="50.2350725%" id="linearGradient-6">
            <stop stop-color="#FFFFFF" offset="0%"></stop>
            <stop stop-color="#FFFFFF" offset="28%"></stop>
            <stop stop-color="#EAEDF5" offset="60%"></stop>
            <stop stop-color="#F4F6FA" offset="95%"></stop>
            <stop stop-color="#E7EAF3" offset="100%"></stop>
        </linearGradient>
        <linearGradient x1="1.52493344e-14%" y1="50.0031612%" x2="100%" y2="50.0031612%" id="linearGradient-7">
            <stop stop-color="#E7EAF3" offset="0%"></stop>
            <stop stop-color="#E3E7F1" offset="5%"></stop>
            <stop stop-color="#CBD3E5" offset="40%"></stop>
            <stop stop-color="#BDC7DE" offset="72%"></stop>
            <stop stop-color="#B8C3DB" offset="100%"></stop>
        </linearGradient>
        <linearGradient x1="56.7353221%" y1="74.0956803%" x2="46.8419643%" y2="23.9986085%" id="linearGradient-8">
            <stop stop-color="#C0BFF6" offset="0%"></stop>
            <stop stop-color="#C5C4F7" offset="29%"></stop>
            <stop stop-color="#D3D2F9" offset="64%"></stop>
            <stop stop-color="#E9E9FD" offset="100%"></stop>
        </linearGradient>
        <linearGradient x1="16.36336%" y1="75.6582989%" x2="95.4100607%" y2="10.8594643%" id="linearGradient-9">
            <stop stop-color="#B8C3DB" offset="0%"></stop>
            <stop stop-color="#B0BCD7" offset="14%"></stop>
            <stop stop-color="#9AA9CC" offset="35%"></stop>
            <stop stop-color="#768AB9" offset="61%"></stop>
            <stop stop-color="#4A65A3" offset="87%"></stop>
        </linearGradient>
        <linearGradient x1="396.883954%" y1="52.9573004%" x2="424.874642%" y2="42.1728196%" id="linearGradient-10">
            <stop stop-color="#B8C3DB" offset="0%"></stop>
            <stop stop-color="#B0BCD7" offset="14%"></stop>
            <stop stop-color="#9AA9CC" offset="35%"></stop>
            <stop stop-color="#768AB9" offset="61%"></stop>
            <stop stop-color="#4A65A3" offset="87%"></stop>
        </linearGradient>
        <linearGradient x1="-0.536112858%" y1="51.6321792%" x2="100.08441%" y2="47.1756682%" id="linearGradient-11">
            <stop stop-color="#B8C3DB" offset="0%"></stop>
            <stop stop-color="#B0BCD7" offset="14%"></stop>
            <stop stop-color="#9AA9CC" offset="35%"></stop>
            <stop stop-color="#768AB9" offset="61%"></stop>
            <stop stop-color="#4A65A3" offset="87%"></stop>
        </linearGradient>
        <linearGradient x1="7.36087899%" y1="51.6566689%" x2="100.105592%" y2="47.1052696%" id="linearGradient-12">
            <stop stop-color="#B8C3DB" offset="0%"></stop>
            <stop stop-color="#B0BCD7" offset="14%"></stop>
            <stop stop-color="#9AA9CC" offset="35%"></stop>
            <stop stop-color="#768AB9" offset="61%"></stop>
            <stop stop-color="#4A65A3" offset="87%"></stop>
        </linearGradient>
        <linearGradient x1="-3.76390594%" y1="51.0856293%" x2="103.030834%" y2="47.7903923%" id="linearGradient-13">
            <stop stop-color="#E7EAF3" offset="0%"></stop>
            <stop stop-color="#E3E7F1" offset="5%"></stop>
            <stop stop-color="#CBD3E5" offset="40%"></stop>
            <stop stop-color="#BDC7DE" offset="72%"></stop>
            <stop stop-color="#B8C3DB" offset="100%"></stop>
        </linearGradient>
        <linearGradient x1="-3.72948878%" y1="51.0525805%" x2="103.085389%" y2="47.7501056%" id="linearGradient-14">
            <stop stop-color="#E7EAF3" offset="0%"></stop>
            <stop stop-color="#E3E7F1" offset="5%"></stop>
            <stop stop-color="#CBD3E5" offset="40%"></stop>
            <stop stop-color="#BDC7DE" offset="72%"></stop>
            <stop stop-color="#B8C3DB" offset="100%"></stop>
        </linearGradient>
        <linearGradient x1="-6.30677936%" y1="51.1555679%" x2="103.119425%" y2="47.678136%" id="linearGradient-15">
            <stop stop-color="#B8C3DB" offset="0%"></stop>
            <stop stop-color="#B0BCD7" offset="14%"></stop>
            <stop stop-color="#9AA9CC" offset="35%"></stop>
            <stop stop-color="#768AB9" offset="61%"></stop>
            <stop stop-color="#4A65A3" offset="87%"></stop>
        </linearGradient>
        <linearGradient x1="-6.3147665%" y1="51.1088789%" x2="103.15501%" y2="47.6291502%" id="linearGradient-16">
            <stop stop-color="#B8C3DB" offset="0%"></stop>
            <stop stop-color="#B0BCD7" offset="14%"></stop>
            <stop stop-color="#9AA9CC" offset="35%"></stop>
            <stop stop-color="#768AB9" offset="61%"></stop>
            <stop stop-color="#4A65A3" offset="87%"></stop>
        </linearGradient>
        <linearGradient x1="8.94473399%" y1="44.0779634%" x2="87.4255526%" y2="39.9132856%" id="linearGradient-17">
            <stop stop-color="#B8C3DB" offset="0%"></stop>
            <stop stop-color="#B0BCD7" offset="14%"></stop>
            <stop stop-color="#9AA9CC" offset="35%"></stop>
            <stop stop-color="#768AB9" offset="61%"></stop>
            <stop stop-color="#4A65A3" offset="87%"></stop>
        </linearGradient>
        <linearGradient x1="8.41038364%" y1="44.048722%" x2="87.7417219%" y2="39.8674121%" id="linearGradient-18">
            <stop stop-color="#B8C3DB" offset="0%"></stop>
            <stop stop-color="#B0BCD7" offset="14%"></stop>
            <stop stop-color="#9AA9CC" offset="35%"></stop>
            <stop stop-color="#768AB9" offset="61%"></stop>
            <stop stop-color="#4A65A3" offset="87%"></stop>
        </linearGradient>
        <linearGradient x1="7.96327296%" y1="43.9136%" x2="87.3255379%" y2="39.7256%" id="linearGradient-19">
            <stop stop-color="#B8C3DB" offset="0%"></stop>
            <stop stop-color="#B0BCD7" offset="14%"></stop>
            <stop stop-color="#9AA9CC" offset="35%"></stop>
            <stop stop-color="#768AB9" offset="61%"></stop>
            <stop stop-color="#4A65A3" offset="87%"></stop>
        </linearGradient>
        <linearGradient x1="8.17618328%" y1="43.8817891%" x2="87.2864427%" y2="39.6964856%" id="linearGradient-20">
            <stop stop-color="#B8C3DB" offset="0%"></stop>
            <stop stop-color="#B0BCD7" offset="14%"></stop>
            <stop stop-color="#9AA9CC" offset="35%"></stop>
            <stop stop-color="#768AB9" offset="61%"></stop>
            <stop stop-color="#4A65A3" offset="87%"></stop>
        </linearGradient>
        <linearGradient x1="8.25120234%" y1="43.2641209%" x2="86.7333557%" y2="39.0954654%" id="linearGradient-21">
            <stop stop-color="#B8C3DB" offset="0%"></stop>
            <stop stop-color="#B0BCD7" offset="14%"></stop>
            <stop stop-color="#9AA9CC" offset="35%"></stop>
            <stop stop-color="#768AB9" offset="61%"></stop>
            <stop stop-color="#4A65A3" offset="87%"></stop>
        </linearGradient>
        <linearGradient x1="8.97106735%" y1="43.5560859%" x2="87.3783332%" y2="39.3914081%" id="linearGradient-22">
            <stop stop-color="#B8C3DB" offset="0%"></stop>
            <stop stop-color="#B0BCD7" offset="14%"></stop>
            <stop stop-color="#9AA9CC" offset="35%"></stop>
            <stop stop-color="#768AB9" offset="61%"></stop>
            <stop stop-color="#4A65A3" offset="87%"></stop>
        </linearGradient>
        <linearGradient x1="8.66718809%" y1="43.2763578%" x2="87.7019606%" y2="39.0950479%" id="linearGradient-23">
            <stop stop-color="#B8C3DB" offset="0%"></stop>
            <stop stop-color="#B0BCD7" offset="14%"></stop>
            <stop stop-color="#9AA9CC" offset="35%"></stop>
            <stop stop-color="#768AB9" offset="61%"></stop>
            <stop stop-color="#4A65A3" offset="87%"></stop>
        </linearGradient>
        <linearGradient x1="9.14067678%" y1="43.1041335%" x2="87.4233383%" y2="38.9427663%" id="linearGradient-24">
            <stop stop-color="#B8C3DB" offset="0%"></stop>
            <stop stop-color="#B0BCD7" offset="14%"></stop>
            <stop stop-color="#9AA9CC" offset="35%"></stop>
            <stop stop-color="#768AB9" offset="61%"></stop>
            <stop stop-color="#4A65A3" offset="87%"></stop>
        </linearGradient>
        <linearGradient x1="8.4798775%" y1="43.1548284%" x2="87.4639139%" y2="38.9728651%" id="linearGradient-25">
            <stop stop-color="#B8C3DB" offset="0%"></stop>
            <stop stop-color="#B0BCD7" offset="14%"></stop>
            <stop stop-color="#9AA9CC" offset="35%"></stop>
            <stop stop-color="#768AB9" offset="61%"></stop>
            <stop stop-color="#4A65A3" offset="87%"></stop>
        </linearGradient>
        <linearGradient x1="8.48148127%" y1="42.494829%" x2="87.0372577%" y2="38.3261734%" id="linearGradient-26">
            <stop stop-color="#B8C3DB" offset="0%"></stop>
            <stop stop-color="#B0BCD7" offset="14%"></stop>
            <stop stop-color="#9AA9CC" offset="35%"></stop>
            <stop stop-color="#768AB9" offset="61%"></stop>
            <stop stop-color="#4A65A3" offset="87%"></stop>
        </linearGradient>
    </defs>
    <g id="recovery" stroke="none" stroke-width="1" fill="none" fill-rule="evenodd">
        <g id="Group-68">
            <g id="recovery" fill-rule="nonzero">
                <g id="web" opacity="0.7">
                    <g id="create_step-1">
                        <g id="Asset-1">
                            <path d="M214.248047,550.78125 C216.355411,550.805484 218.433627,550.287611 220.283203,549.277344 L496.289062,389.941406 C497.798587,389.266892 498.838685,387.844187 499.023438,386.201172 C498.934194,384.931904 498.16425,383.810628 497.011719,383.271484 L332.412109,288.164062 C328.964153,286.599503 324.978562,286.76255 321.669922,288.603516 L45.703125,447.919922 C44.1936005,448.594436 43.1535029,450.017141 42.96875,451.660156 C43.0640429,452.927303 43.8320889,454.045817 44.9804688,454.589844 L209.697266,549.804688 C211.113316,550.492224 212.674583,550.82726 214.248047,550.78125 Z M327.646484,287.998047 C329.099272,287.970675 330.535918,288.30634 331.826172,288.974609 L496.542969,384.072266 C497.401732,384.460469 497.984178,385.281866 498.066406,386.220703 C497.870613,387.545385 496.979844,388.663506 495.732422,389.150391 L219.902344,548.486328 C216.896382,550.161611 213.275393,550.317313 210.136719,548.90625 L45.4492188,453.808594 C44.5980435,453.414999 44.0237916,452.594639 43.9453125,451.660156 C44.1468439,450.337974 45.0355941,449.222388 46.2792969,448.730469 L322.265625,289.375 C323.94394,288.463935 325.824736,287.990378 327.734375,287.998047 L327.646484,287.998047 Z" id="Shape" fill="#607BED"></path>
                            <path d="M43.9453125,423.935547 L59.1308594,421.748047 L322.382812,270 C325.521427,268.242638 329.307,268.076 332.587891,269.550781 L489.375,359.941406 L499.023438,358.574219 L499.023438,371.347656 L499.023438,371.347656 C498.847755,372.810564 497.900894,374.066832 496.542969,374.638672 L220.585938,533.740234 C217.437509,535.469902 213.66075,535.62531 210.380859,534.160156 L45.6933594,439.21875 C44.6611537,438.764466 43.981338,437.758035 43.9453125,436.630859 L43.9453125,436.630859 L43.9453125,423.935547 Z" id="Path" fill="url(#linearGradient-1)"></path>
                            <path d="M496.474609,361.71875 L220.585938,521.035156 C217.440044,522.7739 213.658969,522.929484 210.380859,521.455078 L45.7226562,426.386719 C43.1054688,424.873047 43.3886719,422.255859 46.4746094,420.527344 L322.353516,261.210938 C325.499409,259.472194 329.280484,259.316609 332.558594,260.791016 L497.265625,355.839844 C499.833984,357.353516 499.599609,359.990234 496.474609,361.71875 Z" id="Path" fill="url(#linearGradient-2)"></path>
                            <path d="M472.363281,365.361328 L226.025391,507.509766 C223.215483,509.071389 219.831777,509.209056 216.904297,507.880859 L69.9414062,423.105469 C67.6074219,421.757813 67.8808594,419.404297 70.5957031,417.841797 L316.933594,275.693359 C319.743501,274.131736 323.127207,273.994069 326.054688,275.322266 L473.017578,360.097656 C475.380859,361.328125 475.078125,363.681641 472.363281,365.361328 Z" id="Path" fill="#1517A1" opacity="0.3"></path>
                            <path d="M45.6640625,424.873047 L210.380859,520.058594 C213.654991,521.553441 217.445687,521.39746 220.585938,519.638672 L496.582031,360.068359 C497.662724,359.507985 498.495121,358.564138 498.916016,357.421875 C499.335938,358.759766 498.544922,360.302734 496.582031,361.445312 L220.585937,521.035156 C217.440044,522.7739 213.658969,522.929484 210.380859,521.455078 L45.6640625,426.25 C44.3943347,425.71435 43.6997496,424.337583 44.0234375,422.998047 C44.3071039,423.811785 44.89518,424.483872 45.6640625,424.873047 Z" id="Path" fill="#FFFFFF"></path>
                            <path d="M323.242187,211.435547 L288.320312,4.8828125 L291.123047,3.69140625 L286.914062,1.33789062 L286.914062,1.33789062 C285.879478,0.779964553 284.615458,0.871339549 283.671875,1.57226563 L4.609375,162.177734 C2.23808,163.693772 0.853820402,166.3581 0.9765625,169.169922 L36.1328125,377.402344 C36.2164745,378.314472 36.7778101,379.113725 37.6074219,379.501953 L37.6074219,379.501953 L41.7480469,381.835938 L42.4707031,377.988281 L42.2363281,377.988281 L319.580078,218.291016 C321.919619,216.807199 323.30961,214.205135 323.242187,211.435547 Z" id="Path" fill="url(#linearGradient-3)"></path>
                            <path d="M6.30859375,168.046875 L1.61132812,166.015625 C1.07182129,167.082991 0.851434328,168.283253 0.9765625,169.472656 L36.4160156,378.369141 C36.5059279,379.284193 37.0694217,380.084947 37.9003906,380.478516 L37.9003906,380.478516 L41.9921875,382.8125 L42.7246094,378.955078 L42.4902344,378.955078 L56.640625,370.839844 L6.30859375,168.046875 Z" id="Path" fill="url(#linearGradient-4)"></path>
                            <path d="M323.515625,221.513672 L44.4726563,382.216797 C42.3144531,383.447266 40.46875,382.724609 40.078125,380.507812 L4.8828125,172.265625 C4.75798338,169.45575 6.1382942,166.791862 8.50585938,165.273438 L287.558594,4.50195312 C289.726563,3.27148437 291.552734,3.99414062 291.953125,6.2109375 L327.148438,214.453125 C327.312939,217.292443 325.92146,219.996851 323.515625,221.513672 Z" id="Path" fill="#1F2742"></path>
                            <g id="Group" opacity="0.51" transform="translate(7.812500, 7.812500)" fill="#607BED">
                                <polygon id="Path" points="280.605469 0.3515625 0.751953125 161.71875 36.1035156 370.488281 315.78125 209.238281"></polygon>
                            </g>
                            <path d="M499.023438,320.371094 L483.808594,328.310547 L331.171875,240.234375 C327.975781,238.789053 324.283672,238.944854 321.220703,240.654297 L57.96875,392.470703 C55.4394531,391.044922 43.9453125,385.458984 43.9453125,385.458984 L49.5019531,394.53125 L49.5019531,394.53125 C49.7992978,395.278891 50.3580089,395.893126 51.0742188,396.259766 L211.914062,489.257812 C215.110157,490.703134 218.802266,490.547334 221.865234,488.837891 L491.210938,333.378906 C492.248143,332.913954 493.081072,332.087966 493.554688,331.054688 L493.554688,331.054688 L499.023438,320.371094 Z" id="Path" fill="url(#linearGradient-5)"></path>
                            <path d="M496.474609,322.636719 L220.585938,481.962891 C217.445687,483.721679 213.654991,483.87766 210.380859,482.382813 L45.7226562,387.363281 C43.1054688,385.839844 43.3886719,383.203125 46.4746094,381.503906 L322.353516,222.158203 C325.499409,220.41946 329.280484,220.263875 332.558594,221.738281 L497.265625,316.757813 C499.833984,318.251953 499.599609,320.869141 496.474609,322.636719 Z" id="Path" fill="url(#linearGradient-6)"></path>
                            <path d="M496.572266,321.09375 L220.585937,480.712891 C217.447323,482.470253 213.66175,482.636891 210.380859,481.162109 L45.6640625,385.898438 C44.8769466,385.489059 44.281131,384.788099 44.0039062,383.945312 C43.7358815,385.265426 44.4281919,386.593033 45.6640625,387.128906 L210.380859,482.421875 C213.65591,483.916921 217.448154,483.757248 220.585937,481.992187 L496.572266,322.333984 C498.525391,321.210938 499.345703,319.697266 498.90625,318.359375 C498.528427,319.548062 497.686883,320.53397 496.572266,321.09375 L496.572266,321.09375 Z" id="Path" fill="#FFFFFF"></path>
                            <g id="Group" opacity="0.15" transform="translate(29.296875, 189.453125)" fill="#1517A1">
                                <g opacity="0.5" id="Path">
                                    <path d="M147.460937,5.71289062 L156.318359,0.673828125 C157.164209,0.253534249 158.158057,0.253534249 159.003906,0.673828125 L168.769531,6.40625 C169.541016,6.85546875 169.580078,7.54882813 168.886719,7.96875 L160.029297,13.0761719 C159.182252,13.5059312 158.181029,13.5059312 157.333984,13.0761719 L147.460937,7.34375 C146.796875,6.8359375 146.748047,6.10351562 147.460937,5.71289062 Z"></path>
                                    <path d="M133.681641,13.5644531 L142.539062,8.48632812 C143.381533,8.05187647 144.382139,8.05187647 145.224609,8.48632812 L155.068359,14.21875 C155.839844,14.6582031 155.878906,15.3613281 155.185547,15.78125 L146.328125,20.859375 C145.485655,21.2938267 144.485048,21.2938267 143.642578,20.859375 L133.789062,15.1269531 C133.125,14.6484375 133.076172,13.984375 133.681641,13.5644531 Z"></path>
                                    <path d="M120.117188,21.484375 L129.003906,16.3769531 C129.846376,15.9425015 130.846983,15.9425015 131.689453,16.3769531 L141.523438,22.1191406 C142.294922,22.5585937 142.34375,23.2617187 141.523438,23.6523437 L132.666016,28.7597656 C131.820166,29.1800595 130.826318,29.1800595 129.980469,28.7597656 L120.117188,22.9882812 C119.453125,22.5683594 119.404297,21.8652344 120.117188,21.484375 Z"></path>
                                    <path d="M130.527344,31.9140625 L139.384766,26.8359375 C140.219148,26.3966398 141.216399,26.3966398 142.050781,26.8359375 L150.322266,31.6308594 C151.09375,32.0996094 151.142578,32.8027344 150.322266,33.1933594 L141.464844,38.3007812 C140.618994,38.7210751 139.625146,38.7210751 138.779297,38.3007812 L130.527344,33.4765625 C129.882812,33.0371094 129.804687,32.3339844 130.527344,31.9140625 Z"></path>
                                    <path d="M116.855469,39.7949219 L125.712891,34.7167969 C126.551605,34.2671339 127.559723,34.2671339 128.398438,34.7167969 L136.650391,39.5117188 C137.421875,39.9609375 137.470703,40.6542969 136.650391,41.0742188 L127.792969,46.1816406 C126.950499,46.6160923 125.949892,46.6160923 125.107422,46.1816406 L116.855469,41.3769531 C116.545453,41.2358072 116.346467,40.9265722 116.346467,40.5859375 C116.346467,40.2453028 116.545453,39.9360678 116.855469,39.7949219 L116.855469,39.7949219 Z"></path>
                                    <path d="M103.310547,47.6757812 L112.041016,42.6367188 C112.89263,42.2265114 113.884714,42.2265114 114.736328,42.6367188 L122.978516,47.4609375 C123.75,47.9101563 123.798828,48.6035156 122.978516,49.0234375 L114.121094,54.1113281 C113.278624,54.5457798 112.278017,54.5457798 111.435547,54.1113281 L103.310547,49.2285156 C102.539063,48.7695312 102.539063,48.0664062 103.310547,47.6757812 Z"></path>
                                    <path d="M89.5214844,55.5566406 L98.3789062,50.4492188 C99.2213763,50.0147671 100.221983,50.0147671 101.064453,50.4492187 L109.316406,55.2539062 C110.087891,55.7128906 110.126953,56.4160156 109.433594,56.8164062 L100.585938,61.9238281 C99.734323,62.3340355 98.7422395,62.3340355 97.890625,61.9238281 L89.6484375,57.0410156 C88.8671875,56.640625 88.8671875,55.9472656 89.5214844,55.5566406 Z"></path>
                                    <path d="M75.8496094,63.4082031 L84.7070312,58.3300781 C85.5457455,57.8804152 86.5538639,57.8804152 87.3925781,58.3300781 L95.6445313,63.1347656 C96.4160156,63.5742188 96.484375,64.2773438 95.6445313,64.6972656 L86.953125,69.8730469 C86.1038886,70.2935425 85.1070489,70.2935425 84.2578125,69.8730469 L76.015625,65.0683594 C75.2636719,64.53125 75.2636719,63.828125 75.8496094,63.4082031 Z"></path>
                                    <path d="M62.1777344,71.2890625 L71.0351563,66.1816406 C71.8810059,65.7613467 72.8748535,65.7613467 73.7207031,66.1816406 L81.9726563,71.0644531 C82.7636719,71.5039062 82.8125,72.2070312 81.9726563,72.6269531 L73.1835938,77.7050781 C72.3812064,78.0908839 71.4469186,78.0908839 70.6445312,77.7050781 L62.34375,73.046875 C61.5234375,72.3828125 61.5234375,71.6894531 62.1777344,71.2890625 Z"></path>
                                    <path d="M48.5351563,79.1699219 L57.3242188,74.0625 C58.1666888,73.6280483 59.1672956,73.6280483 60.0097656,74.0625 L68.2128906,78.9453125 C68.984375,79.4140625 69.0332031,80.1171875 68.2128906,80.5078125 L59.4238281,85.6152344 C58.5779785,86.0355283 57.5841309,86.0355283 56.7382813,85.6152344 L48.4667969,80.7910156 C47.8515625,80.2636719 47.8515625,79.5703125 48.5351563,79.1699219 Z"></path>
                                    <path d="M34.8632812,86.9140625 L43.6523438,81.8359375 C44.4945202,81.3862843 45.5054798,81.3862843 46.3476563,81.8359375 L54.6875,86.9140625 C55.4589844,87.3535156 55.4980469,88.0566406 54.6875,88.4765625 L45.8300781,93.5839844 C44.9876081,94.018436 43.9870013,94.018436 43.1445312,93.5839844 L34.8925781,88.7792969 C34.1796875,88.1445312 34.1796875,87.4511719 34.8632812,86.9140625 Z"></path>
                                    <path d="M21.1914062,94.9121094 L30.0488281,89.84375 C30.8946777,89.4234561 31.8885254,89.4234561 32.734375,89.84375 L41.015625,94.6289062 C41.7871094,95.0683594 41.8359375,95.7714844 41.015625,96.1914062 L32.1582031,101.269531 C31.3157331,101.703983 30.3151263,101.703983 29.4726562,101.269531 L21.2207031,96.4746094 C20.5078125,96.0058594 20.5078125,95.3027344 21.1914062,94.9121094 Z"></path>
                                    <path d="M7.5,102.783203 L16.3574219,97.65625 C17.1998919,97.2217983 18.2004987,97.2217983 19.0429688,97.65625 L27.34375,102.480469 C28.1152344,102.949219 28.1542969,103.652344 27.34375,104.042969 L18.4863281,109.150391 C17.6404785,109.570685 16.6466309,109.570685 15.8007812,109.150391 L7.54882813,104.326172 C7.24316343,104.197126 7.04058442,103.901953 7.03009003,103.570331 C7.01959565,103.238708 7.20310617,102.931317 7.5,102.783203 L7.5,102.783203 Z"></path>
                                    <path d="M136.210937,43.1738281 L145.068359,37.9785156 C145.910829,37.544064 146.911436,37.544064 147.753906,37.9785156 L155.996094,42.7832031 C156.767578,43.2421875 156.845703,43.9453125 155.996094,44.3359375 L147.265625,49.6289062 C146.42843,50.0566741 145.436804,50.0566741 144.599609,49.6289062 L136.328125,44.8046875 C135.556641,44.2675781 135.507812,43.5742188 136.210937,43.1738281 Z"></path>
                                    <path d="M150.039062,35.15625 L158.896484,30.0488281 C159.744735,29.6388893 160.733781,29.6388893 161.582031,30.0488281 L169.833984,34.9316406 C170.605469,35.3710938 170.654297,36.0742187 169.833984,36.4941406 L160.976562,41.5722656 C160.134092,42.0067173 159.133486,42.0067173 158.291016,41.5722656 L150.039062,36.7675781 C149.718602,36.6278622 149.511413,36.3115076 149.511413,35.9619141 C149.511413,35.6123205 149.718602,35.295966 150.039062,35.15625 L150.039062,35.15625 Z"></path>
                                    <path d="M164.0625,27.1777344 L183.105469,16.2011719 C183.947939,15.7667202 184.948546,15.7667202 185.791016,16.2011719 L194.0625,21.0058594 C194.833984,21.4746094 194.882812,22.1484375 194.0625,22.5683594 L175.019531,33.5449219 C174.173682,33.9652158 173.179834,33.9652158 172.333984,33.5449219 L164.0625,28.6621094 C163.310547,28.3203125 163.271484,27.578125 164.0625,27.1777344 Z"></path>
                                    <path d="M180.097656,32.4023438 L195.566406,23.4960938 C196.408876,23.0616421 197.409483,23.0616421 198.251953,23.4960937 L206.523437,28.3007812 C207.294922,28.7695312 207.34375,29.4628906 206.523437,29.8632812 L191.054687,38.7695312 C190.217493,39.1972991 189.225867,39.1972991 188.388672,38.7695312 L180.117187,33.9648437 C179.433594,33.4960938 179.394531,32.8222656 180.097656,32.4023438 Z"></path>
                                    <path d="M122.558594,51.0351562 L131.396484,45.9472656 C132.238954,45.512814 133.239561,45.512814 134.082031,45.9472656 L142.353516,50.7519531 C143.125,51.1914062 143.173828,51.8945312 142.353516,52.3144531 L133.681641,57.4902344 C132.839171,57.924686 131.838564,57.924686 130.996094,57.4902344 L122.724609,52.734375 C122.001953,52.1484375 121.835937,51.4550781 122.558594,51.0351562 Z"></path>
                                    <path d="M108.886719,58.9550781 L117.724609,53.8574219 C118.567079,53.4229702 119.567686,53.4229702 120.410156,53.8574219 L128.681641,58.6816406 C129.453125,59.1210937 129.501953,59.8242187 128.681641,60.2441406 L119.892578,65.3222656 C119.050108,65.7567173 118.049501,65.7567173 117.207031,65.3222656 L108.916016,60.546875 C108.212891,60.0097656 108.164062,59.3066406 108.886719,58.9550781 Z"></path>
                                    <path d="M95.2246094,66.7871094 L104.082031,61.6894531 C104.912967,61.2501882 105.907346,61.2501882 106.738281,61.6894531 L115.009766,66.484375 C115.78125,66.953125 115.830078,67.65625 115.009766,68.046875 L106.152344,73.1542969 C105.306494,73.5745908 104.312646,73.5745908 103.466797,73.1542969 L95.3417969,68.2714844 C94.5703125,67.890625 94.4921875,67.1875 95.2246094,66.7871094 Z"></path>
                                    <path d="M81.5527344,74.6484375 L90.4101562,69.5703125 C91.2488705,69.1206495 92.2569889,69.1206495 93.0957031,69.5703125 L101.347656,74.3652344 C102.119141,74.8144531 102.158203,75.5078125 101.347656,75.9277344 L92.4902344,81.0546875 C91.6431897,81.4844468 90.6419665,81.4844468 89.7949219,81.0546875 L81.5527344,76.25 C80.8984375,75.7714844 80.8496094,75.0683594 81.5527344,74.6484375 Z"></path>
                                    <path d="M67.8808594,82.5292969 L76.7382813,77.421875 C77.5841309,77.0015811 78.5779785,77.0015811 79.4238281,77.421875 L87.6757813,82.2460938 C88.4472656,82.6953125 88.4960938,83.3886719 87.6757813,83.8085938 L78.8183594,88.8671875 C77.9758893,89.3016392 76.9752826,89.3016392 76.1328125,88.8671875 L67.8808594,84.0625 C67.2265625,83.6230469 67.1777344,82.9199219 67.8808594,82.5292969 Z"></path>
                                    <path d="M54.2382813,90.4101562 L63.0859375,85.3027344 C63.9329821,84.8729751 64.9342054,84.8729751 65.78125,85.3027344 L74.0234375,90.1269531 C74.7949219,90.5761719 74.84375,91.2695312 74.140625,91.6699219 L65.2832031,96.7773437 C64.4349526,97.1872826 63.4459068,97.1872826 62.5976563,96.7773437 L54.2382813,91.8945312 C53.9508218,91.7592094 53.7673544,91.4700621 53.7673544,91.1523437 C53.7673544,90.8346254 53.9508218,90.5454781 54.2382812,90.4101562 L54.2382813,90.4101562 Z"></path>
                                    <path d="M40.5371094,98.2617188 L49.3945313,93.1835938 C50.2370013,92.7491421 51.2376081,92.7491421 52.0800781,93.1835938 L60.3320313,97.9882813 C61.1035156,98.4277344 61.171875,99.1308594 60.3320313,99.5507813 L51.4746094,104.648438 C50.6402271,105.087735 49.642976,105.087735 48.8085938,104.648438 L40.5371094,99.8535156 C39.8828125,99.3847656 39.84375,98.6328125 40.5371094,98.2617188 Z"></path>
                                    <path d="M26.8945312,106.142578 L35.6835937,101.035156 C36.5328301,100.614661 37.5296699,100.614661 38.3789062,101.035156 L46.6503906,105.917969 C47.421875,106.357422 47.4609375,107.060547 46.6503906,107.480469 L37.8613281,112.626953 C37.0142835,113.056712 36.0130603,113.056712 35.1660156,112.626953 L26.8945312,107.822266 C26.1914062,107.236328 26.1914062,106.542969 26.8945312,106.142578 Z"></path>
                                    <path d="M13.2226562,114.023437 L22.0605469,108.916016 C22.9030169,108.481564 23.9036237,108.481564 24.7460938,108.916016 L33.0175781,113.798828 C33.7890625,114.238281 33.8378906,114.941406 33.0175781,115.332031 L24.1796875,120.439453 C23.3338379,120.859747 22.3399902,120.859747 21.4941406,120.439453 L13.2226563,115.615234 C12.5488281,115.117188 12.5,114.423828 13.2226562,114.023437 Z"></path>
                                    <path d="M13.9746094,142.578125 L30.3320313,133.251953 C31.1629669,132.812688 32.1573456,132.812688 32.9882813,133.251953 L41.2207031,138.193359 C41.9921875,138.642578 42.0410156,139.335938 41.2207031,139.755859 L24.8632813,149.082031 C24.0208112,149.516483 23.0202044,149.516483 22.1777344,149.082031 L13.9257812,144.277344 C13.3203125,143.730469 13.2714844,143.027344 13.9746094,142.578125 Z"></path>
                                    <path d="M124.453125,64.453125 L133.291016,59.3457031 C134.133486,58.9112515 135.134092,58.9112515 135.976562,59.3457031 L144.248047,64.1503906 C145.019531,64.5898437 145.068359,65.2929688 144.248047,65.7128906 L135.390625,70.7910156 C134.548155,71.2254673 133.547548,71.2254673 132.705078,70.7910156 L124.570312,65.9082031 C123.779297,65.5566406 123.730469,64.8828125 124.453125,64.453125 Z"></path>
                                    <path d="M138.359375,56.3964844 L147.216797,51.2890625 C148.062646,50.8687686 149.056494,50.8687686 149.902344,51.2890625 L158.154297,56.1132812 C158.925781,56.5527344 158.964844,57.2558594 158.271484,57.6757812 L149.414063,62.7539062 C148.568963,63.191723 147.563849,63.191723 146.71875,62.7539062 L138.476563,57.9589844 C137.792969,57.4902344 137.753906,56.8164062 138.359375,56.3964844 Z"></path>
                                    <path d="M152.34375,48.3300781 L161.132813,43.2226563 C161.978662,42.8023624 162.97251,42.8023624 163.818359,43.2226563 L172.089844,48.046875 C172.861328,48.4863281 172.910156,49.1894531 172.089844,49.609375 L163.300781,54.6875 C162.458311,55.1219517 161.457704,55.1219517 160.615234,54.6875 L152.34375,49.8925781 C152.062647,49.7329423 151.888977,49.4345966 151.888977,49.1113281 C151.888977,48.7880597 152.062647,48.4897139 152.34375,48.3300781 L152.34375,48.3300781 Z"></path>
                                    <path d="M166.396484,40.3027344 L175.253906,35.2050781 C176.099756,34.7847842 177.093604,34.7847842 177.939453,35.2050781 L186.191406,40.0292969 C186.962891,40.46875 187.011719,41.171875 186.308594,41.5917969 L177.451172,46.6699219 C176.608702,47.1043735 175.608095,47.1043735 174.765625,46.6699219 L166.513672,41.8652344 C165.810547,41.3574219 165.771484,40.6542969 166.396484,40.3027344 Z"></path>
                                    <path d="M110.78125,72.34375 L119.638672,67.2363281 C120.481142,66.8018765 121.481749,66.8018765 122.324219,67.2363281 L130.576172,72.0605469 C131.347656,72.5 131.396484,73.203125 130.576172,73.6035156 L121.71875,78.7011719 C120.87628,79.1356235 119.875673,79.1356235 119.033203,78.7011719 L110.78125,73.8769531 C110.126953,73.4375 110.058594,72.734375 110.78125,72.34375 Z"></path>
                                    <path d="M97.109375,80.1953125 L105.966797,75.1171875 C106.813842,74.6874282 107.815065,74.6874282 108.662109,75.1171875 L116.904297,79.921875 C117.675781,80.3808594 117.724609,81.0839844 117.021484,81.4746094 L108.164062,86.5820313 C107.318213,87.0023251 106.324365,87.0023251 105.478516,86.5820313 L97.2265625,81.7578125 C96.4550781,81.3183594 96.4160156,80.6152344 97.109375,80.1953125 Z"></path>
                                    <path d="M83.4472656,88.0761719 L92.3046875,82.96875 C93.1471576,82.5342983 94.1477643,82.5342983 94.9902344,82.96875 L103.310547,87.8515625 C104.082031,88.2910156 104.121094,88.9941406 103.310547,89.4140625 L94.453125,94.4921875 C93.6080255,94.9300042 92.602912,94.9300042 91.7578125,94.4921875 L83.515625,89.6875 C83.1955905,89.5554539 82.9813741,89.249568 82.9666998,88.9036736 C82.9520255,88.5577792 83.1395648,88.2348492 83.4472656,88.0761719 L83.4472656,88.0761719 Z"></path>
                                    <path d="M69.7753906,95.9570312 L78.6328125,90.8496094 C79.4752826,90.4151577 80.4758893,90.4151577 81.3183594,90.8496094 L89.5703125,95.6738281 C90.3417969,96.1230469 90.3808594,96.8164062 89.5703125,97.2167969 L80.7128906,102.324219 C79.8704206,102.75867 78.8698138,102.75867 78.0273437,102.324219 L69.7753906,97.5 C69.1210938,97.0507812 69.0722656,96.2597656 69.7753906,95.9570312 Z"></path>
                                    <path d="M56.1035156,103.818359 L64.9609375,98.7304688 C65.8034076,98.2960171 66.8040143,98.2960171 67.6464844,98.7304688 L75.8984375,103.535156 C76.6699219,104.003906 76.7382813,104.697266 75.8984375,105.097656 L67.109375,110.244141 C66.2721803,110.671908 65.2805541,110.671908 64.4433594,110.244141 L56.2207031,105.46875 C55.4492187,104.931641 55.4003906,104.238281 56.1035156,103.818359 Z"></path>
                                    <path d="M42.5488281,111.689453 L51.3867187,106.591797 C52.2291888,106.157345 53.2297956,106.157345 54.0722656,106.591797 L62.34375,111.386719 C63.1152344,111.835937 63.1640625,112.529297 62.34375,112.949219 L53.5546875,118.037109 C52.7122174,118.471561 51.7116107,118.471561 50.8691406,118.037109 L42.5488281,113.28125 C41.7773438,112.792969 41.7285156,112.109375 42.5488281,111.689453 Z"></path>
                                    <path d="M28.7890625,119.570312 L37.578125,114.472656 C38.4205951,114.038205 39.4212018,114.038205 40.2636719,114.472656 L48.5449219,119.296875 C49.3066406,119.736328 49.3554688,120.439453 48.5449219,120.830078 L39.7558594,125.9375 C38.930191,126.370976 37.9474772,126.385481 37.109375,125.976562 L28.8085937,121.09375 C28.1054687,120.673828 28.0664062,119.970703 28.7890625,119.570312 Z"></path>
                                    <path d="M15.1171875,127.431641 L23.9746094,122.34375 C24.8118041,121.915982 25.8034303,121.915982 26.640625,122.34375 L34.9121094,127.148438 C35.6835937,127.617188 35.7226562,128.320313 34.9121094,128.710938 L26.1914062,133.886719 C25.3455566,134.307013 24.351709,134.307013 23.5058594,133.886719 L15.234375,128.90625 C14.9187894,128.814432 14.6928615,128.537031 14.666824,128.209392 C14.6407865,127.881754 14.820065,127.57215 15.1171875,127.431641 L15.1171875,127.431641 Z"></path>
                                    <path d="M1.4453125,135.3125 L10.3027344,130.205078 C11.1452044,129.770626 12.1458112,129.770626 12.9882813,130.205078 L21.2402344,135.009766 C22.0117187,135.449219 22.0605469,136.152344 21.3574219,136.572266 L12.5,141.650391 C11.6612858,142.100054 10.6531674,142.100054 9.81445312,141.650391 L1.5625,136.845703 C0.791015625,136.40625 0.7421875,135.742188 1.4453125,135.3125 Z"></path>
                                    <path d="M157.470703,59.9609375 L166.328125,54.8535156 C167.170595,54.419064 168.171202,54.419064 169.013672,54.8535156 L177.265625,59.6777344 C178.037109,60.1269531 178.085937,60.8203125 177.265625,61.2207031 L168.408203,66.328125 C167.565733,66.7625767 166.565126,66.7625767 165.722656,66.328125 L157.470703,61.5234375 C156.816406,61.0546875 156.767578,60.3613281 157.470703,59.9609375 Z"></path>
                                    <path d="M171.074219,52.1289062 L179.931641,47.0214844 C180.77749,46.6011905 181.771338,46.6011905 182.617187,47.0214844 L190.869141,51.8457031 C191.640625,52.2949219 191.679687,52.9882813 190.986328,53.3886719 L182.128906,58.4960938 C181.281862,58.9258531 180.280638,58.9258531 179.433594,58.4960938 L171.191406,53.6132813 C170.419922,53.2226563 170.371094,52.5195313 171.074219,52.1289062 Z"></path>
                                    <path d="M184.667969,44.296875 L193.525391,39.1894531 C194.374627,38.7689575 195.371467,38.7689575 196.220703,39.1894531 L204.462891,44.0136719 C205.234375,44.453125 205.283203,45.15625 204.580078,45.5566406 L195.722656,50.6542969 C194.880186,51.0887485 193.879579,51.0887485 193.037109,50.6542969 L184.785156,45.8300781 C184.013672,45.390625 183.974609,44.6875 184.667969,44.296875 Z"></path>
                                    <path d="M198.242187,36.4648438 L207.099609,31.3574219 C207.945459,30.937128 208.939307,30.937128 209.785156,31.3574219 L218.037109,36.1816406 C218.808594,36.6210938 218.857422,37.3242188 218.037109,37.7148438 L209.179687,42.8222656 C208.337217,43.2567173 207.336611,43.2567173 206.494141,42.8222656 L198.359375,37.9394531 C197.617187,37.5585938 197.568359,36.8554688 198.242187,36.4648438 Z"></path>
                                    <path d="M211.425781,44.1308594 L220.283203,39.0234375 C221.129053,38.6031436 222.1229,38.6031436 222.96875,39.0234375 L225.703125,40.6347656 C226.474609,41.0742188 226.523438,41.7773438 225.820313,42.1679688 L216.962891,47.3046875 C216.120421,47.7391392 215.119814,47.7391392 214.277344,47.3046875 L211.542969,45.7128906 C210.800781,45.2246094 210.800781,44.53125 211.425781,44.1308594 Z"></path>
                                    <path d="M193.691406,54.296875 L202.548828,49.2089844 C203.391298,48.7745327 204.391905,48.7745327 205.234375,49.2089844 L207.949219,50.8007812 C208.740234,51.2402344 208.789062,51.9433594 208.066406,52.3632812 L199.21875,57.4707031 C198.37628,57.9051548 197.375673,57.9051548 196.533203,57.4707031 L193.798828,55.8789062 C193.037109,55.4589844 192.988281,54.765625 193.691406,54.296875 Z"></path>
                                    <path d="M180.136719,62.1484375 L188.994141,57.0507812 C189.836611,56.6163296 190.837217,56.6163296 191.679687,57.0507812 L194.414062,58.6328125 C195.185547,59.0722656 195.234375,59.7753906 194.414062,60.1953125 L185.556641,65.2734375 C184.714171,65.7078892 183.713564,65.7078892 182.871094,65.2734375 L180.136719,63.6914062 C179.828487,63.558807 179.628763,63.2554651 179.628763,62.9199219 C179.628763,62.5843787 179.828487,62.2810367 180.136719,62.1484375 L180.136719,62.1484375 Z"></path>
                                    <path d="M166.611328,69.9609375 L175.46875,64.8535156 C176.31122,64.419064 177.311827,64.419064 178.154297,64.8535156 L180.859375,66.40625 C181.630859,66.8652344 181.708984,67.5683594 180.976562,67.96875 L172.128906,73.0664063 C171.291712,73.4941741 170.300085,73.4941741 169.462891,73.0664063 L166.728516,71.4648438 C165.957031,71.0546875 165.908203,70.3613281 166.611328,69.9609375 Z"></path>
                                    <path d="M153.056641,77.7539062 L161.914062,72.6660156 C162.756533,72.231564 163.757139,72.231564 164.599609,72.6660156 L167.333984,74.2480469 C168.105469,74.6972656 168.154297,75.390625 167.333984,75.8105469 L158.476562,80.8984375 C157.634092,81.3328892 156.633486,81.3328892 155.791016,80.8984375 L153.056641,79.3066406 C152.749842,79.1702689 152.552126,78.8660155 152.552126,78.5302734 C152.552126,78.1945314 152.749842,77.8902779 153.056641,77.7539062 L153.056641,77.7539062 Z"></path>
                                    <path d="M77.4609375,121.298828 L86.3183594,116.191406 C87.1608294,115.756955 88.1614362,115.756955 89.0039062,116.191406 L91.71875,117.783203 C92.5097656,118.222656 92.5585937,118.925781 91.71875,119.335937 L82.9296875,124.423828 C82.0872174,124.85828 81.0866107,124.85828 80.2441406,124.423828 L77.5097656,122.841797 C77.1970203,122.719248 76.9873752,122.422138 76.9767508,122.086407 C76.9661265,121.750677 77.1565665,121.440906 77.4609375,121.298828 L77.4609375,121.298828 Z"></path>
                                    <path d="M63.90625,129.111328 L72.7636719,124.003906 C73.6095215,123.583612 74.6033691,123.583612 75.4492188,124.003906 L78.1835938,125.585937 C78.9550781,126.054687 79.0039062,126.757812 78.1835938,127.148437 L69.3359375,132.255859 C68.4900879,132.676153 67.4962402,132.676153 66.6503906,132.255859 L63.9160156,130.644531 C63.2519531,130.205078 63.203125,129.501953 63.90625,129.111328 Z"></path>
                                    <path d="M50.3808594,136.894531 L59.2382812,131.816406 C60.0807513,131.381955 61.0813581,131.381955 61.9238281,131.816406 L64.6289062,133.398438 C65.4003906,133.837891 65.4785156,134.541016 64.6289062,134.960938 L55.78125,140.068359 C54.9440553,140.496127 53.9524291,140.496127 53.1152344,140.068359 L50.3808594,138.476563 C49.7265625,138.017578 49.6777344,137.314453 50.3808594,136.894531 Z"></path>
                                    <path d="M36.8261719,144.707031 L45.6835938,139.648438 C46.5294434,139.228144 47.523291,139.228144 48.3691406,139.648438 L51.1035156,141.259766 C51.875,141.699219 51.9238281,142.402344 51.1035156,142.792969 L42.2460938,147.900391 C41.4036237,148.334842 40.4030169,148.334842 39.5605469,147.900391 L36.8261719,146.318359 C36.4797709,146.202397 36.2462688,145.877991 36.2462688,145.512695 C36.2462688,145.1474 36.4797709,144.822993 36.8261719,144.707031 Z"></path>
                                    <path d="M143.798828,67.8222656 L152.65625,62.734375 C153.49872,62.2999233 154.499327,62.2999233 155.341797,62.734375 L163.59375,67.5390625 C164.365234,68.0078125 164.414062,68.7011719 163.59375,69.1015625 L154.736328,74.21875 C153.888078,74.6286889 152.899032,74.6286889 152.050781,74.21875 L143.798828,69.3359375 C143.144531,68.9355469 143.027344,68.28125 143.798828,67.8222656 Z"></path>
                                    <path d="M130.136719,75.6933594 L138.984375,70.5957031 C139.829474,70.1578864 140.834588,70.1578864 141.679687,70.5957031 L149.921875,75.390625 C150.693359,75.8398437 150.761719,76.5332031 150.039062,76.953125 L141.181641,82.03125 C140.350705,82.4705149 139.356326,82.4705149 138.525391,82.03125 L130.253906,77.2265625 C129.482422,76.796875 129.433594,76.1132812 130.136719,75.6933594 Z"></path>
                                    <path d="M116.484375,83.5742187 L125.322266,78.4765625 C126.164736,78.0421108 127.165342,78.0421108 128.007812,78.4765625 L136.279297,83.3007812 C137.050781,83.7402344 137.099609,84.4433594 136.279297,84.8339844 L127.441406,89.9414062 C126.598936,90.3758579 125.598329,90.3758579 124.755859,89.9414062 L116.484375,85.1171875 C115.810547,84.5996094 115.761719,83.984375 116.484375,83.5742187 Z"></path>
                                    <path d="M102.8125,91.4355469 L111.650391,86.3476563 C112.492861,85.9132046 113.493467,85.9132046 114.335938,86.3476563 L122.607422,91.1523438 C123.378906,91.6210938 123.427734,92.3242188 122.607422,92.7148438 L113.818359,97.8222656 C112.969123,98.2427612 111.972283,98.2427612 111.123047,97.8222656 L102.851563,92.9980469 C102.138672,92.5488281 102.089844,91.8554688 102.8125,91.4355469 Z"></path>
                                    <path d="M89.1503906,99.3164062 L97.9980469,94.2089844 C98.8352416,93.7812166 99.8268678,93.7812166 100.664062,94.2089844 L108.935547,99.0136719 C109.707031,99.453125 109.755859,100.15625 108.935547,100.576172 L100.078125,105.654297 C99.2394108,106.10396 98.2312924,106.10396 97.3925781,105.654297 L89.2871094,100.927734 C88.4960938,100.429687 88.4179688,99.7363281 89.1503906,99.3164062 Z"></path>
                                    <path d="M75.4785156,107.197266 L84.3359375,102.089844 C85.1817871,101.66955 86.1756348,101.66955 87.0214844,102.089844 L95.2636719,106.914062 C96.0351563,107.353516 96.0839844,108.056641 95.2636719,108.457031 L86.4160156,113.554688 C85.5709161,113.992504 84.5658026,113.992504 83.7207031,113.554688 L75.4785156,108.730469 C74.8242188,108.291016 74.7753906,107.587891 75.4785156,107.197266 Z"></path>
                                    <path d="M61.8066406,115.048828 L70.5957031,109.970703 C71.4381732,109.536251 72.4387799,109.536251 73.28125,109.970703 L81.5234375,114.775391 C82.2949219,115.234375 82.34375,115.9375 81.640625,116.337891 L72.9296875,121.513672 C72.081437,121.923611 71.0923912,121.923611 70.2441406,121.513672 L61.9921875,116.679688 C61.2402344,116.210937 61.1035156,115.46875 61.8066406,115.048828 Z"></path>
                                    <path d="M48.1347656,122.929687 L56.9921875,117.822266 C57.8380371,117.401972 58.8318848,117.401972 59.6777344,117.822266 L67.9296875,122.626953 C68.7011719,123.066406 68.75,123.769531 67.9296875,124.189453 L59.0722656,129.267578 C58.2335514,129.717241 57.225433,129.717241 56.3867188,129.267578 L48.1347656,124.472656 C47.8265341,124.340057 47.6268095,124.036715 47.6268095,123.701172 C47.6268095,123.365629 47.8265341,123.062287 48.1347656,122.929687 L48.1347656,122.929687 Z"></path>
                                    <path d="M34.4628906,130.859375 L43.3203125,125.751953 C44.168563,125.342014 45.1576088,125.342014 46.0058594,125.751953 L54.2382812,130.634766 C55.0097656,131.074219 55.078125,131.777344 54.2382812,132.167969 L45.3808594,137.275391 C44.5383893,137.709842 43.5377826,137.709842 42.6953125,137.275391 L34.4433594,132.451172 C33.8085938,131.904297 33.7597656,131.230469 34.4628906,130.859375 Z"></path>
                                    <path d="M144.453125,23.984375 L170.507812,8.97460937 C171.354857,8.54485007 172.35608,8.54485007 173.203125,8.97460937 L181.445312,13.7792969 C182.216797,14.21875 182.285156,14.921875 181.5625,15.3417969 L155.507812,30.3515625 C154.661963,30.7718564 153.668115,30.7718564 152.822266,30.3515625 L144.53125,25.5273437 C143.798828,25.0097656 143.730469,24.3164062 144.453125,23.984375 Z"></path>
                                    <path d="M1.89453125,89.5410156 L10.7421875,84.4433594 C11.5914239,84.0228638 12.5882636,84.0228638 13.4375,84.4433594 L23.2714844,90.1757813 C24.0429687,90.6445313 24.0917969,91.3378906 23.2714844,91.7382813 L14.4824219,96.9140625 C13.6365723,97.3343564 12.6427246,97.3343564 11.796875,96.9140625 L1.953125,91.1816406 C1.24023437,90.6445312 1.19140625,89.9609375 1.89453125,89.5410156 Z"></path>
                                    <path d="M101.152344,32.3828125 L115.175781,24.21875 C116.021631,23.7984561 117.015479,23.7984561 117.861328,24.21875 L127.705078,29.9511719 C128.476562,30.4199219 128.515625,31.09375 127.822266,31.5136719 L113.662109,39.6777344 C112.815065,40.1074937 111.813842,40.1074937 110.966797,39.6777344 L101.132813,33.9648438 C100.478516,33.4765625 100.429687,32.7734375 101.152344,32.3828125 Z"></path>
                                    <path d="M15.0683594,81.9726562 L29.2285156,73.8085937 C30.0709857,73.3741421 31.0715924,73.3741421 31.9140625,73.8085937 L41.7285156,79.5410156 C42.5292969,79.9902344 42.578125,80.6835938 41.7285156,81.1035156 L27.7148438,89.2382812 C26.8726673,89.6879345 25.8617077,89.6879345 25.0195313,89.2382812 L15.1855469,83.5058594 C14.5117187,83.0664062 14.3652344,82.2753906 15.0683594,81.9726562 Z"></path>
                                    <path d="M81.4355469,43.7304688 L95.5957031,35.6445312 C96.4328978,35.2167634 97.4245241,35.2167634 98.2617188,35.6445312 L108.095703,41.3769531 C108.867187,41.8457031 108.935547,42.5488281 108.095703,42.9394531 L93.9355469,51.1035156 C93.0983522,51.5312834 92.1067259,51.5312834 91.2695312,51.1035156 L81.4355469,45.3710937 C80.78125,44.8339844 80.7128906,44.1503906 81.4355469,43.7304688 Z"></path>
                                    <path d="M108.115234,42.96875 L46.5917969,78.4082031 C45.7493268,78.8426548 44.7487201,78.8426548 43.90625,78.4082031 L33.8769531,72.5488281 C33.1542969,72.1289062 33.1835938,71.4355469 33.8769531,70.9863281 L95.4785156,35.5761719 L108.115234,42.96875 Z"></path>
                                </g>
                                <path d="M72.1289062,102.34375 L143.847656,61.0351562 C149.013672,58.1054687 148.359375,52.8710937 142.402344,49.375 L142.402344,49.375 C136.445313,45.9472656 127.421875,45.5761719 122.255859,48.5351562 L50.5664063,89.921875 C45.4003906,92.8515625 46.0546875,98.0761719 52.0117188,101.572266 L52.0117188,101.572266 C57.96875,104.931641 66.9726562,105.302734 72.1289062,102.34375 Z" id="Path" opacity="0.5"></path>
                            </g>
                            <path d="M369.921875,304.53125 L378.710938,299.453125 C379.414063,299.052734 379.326172,298.330078 378.505859,297.861328 L368.164062,291.894531 C367.301206,291.444681 366.273013,291.444681 365.410156,291.894531 L356.621094,296.953125 C355.917969,297.373047 356.005859,298.076172 356.826172,298.544922 L367.1875,304.53125 C368.049912,304.954114 369.059463,304.954114 369.921875,304.53125 L369.921875,304.53125 Z" id="Path" fill="#607BED"></path>
                            <path d="M356.445312,312.353516 L365.234375,307.275391 C365.9375,306.875 365.839844,306.171875 365.019531,305.703125 L354.667969,299.707031 C353.825464,299.240819 352.812897,299.197423 351.933594,299.589844 L343.144531,304.677734 C342.441406,305.068359 342.539062,305.771484 343.330078,306.269531 L353.681641,312.236328 C354.534476,312.703183 355.556018,312.746499 356.445312,312.353516 Z" id="Path" fill="#607BED"></path>
                            <path d="M342.841797,320.166016 L351.630859,315.117187 C352.333984,314.6875 352.265625,313.994141 351.445313,313.525391 L341.162109,307.529297 C340.303716,307.089449 339.286128,307.089449 338.427734,307.529297 L329.638672,312.587891 C328.935547,312.978516 329.003906,313.710937 329.824219,314.179688 L340.175781,320.166016 C341.012976,320.593783 342.004602,320.593783 342.841797,320.166016 L342.841797,320.166016 Z" id="Path" fill="#607BED"></path>
                            <path d="M324.121094,313.710938 L332.910156,308.652344 C333.613281,308.232422 333.544922,307.529297 332.724609,307.060547 L324.033203,302.03125 C323.172557,301.600842 322.159475,301.600842 321.298828,302.03125 L312.509766,307.109375 C311.806641,307.509766 311.875,308.232422 312.695312,308.701172 L321.386719,313.710937 C322.245112,314.150785 323.2627,314.150785 324.121094,313.710938 L324.121094,313.710938 Z" id="Path" fill="#607BED"></path>
                            <path d="M310.595703,321.552734 L319.384766,316.474609 C320.087891,316.074219 319.990234,315.351563 319.199219,314.882813 L310.507813,309.873047 C309.658876,309.392385 308.630719,309.348788 307.744141,309.755859 L299.101562,314.804688 C298.398438,315.234375 298.496094,315.9375 299.316406,316.396484 L307.978516,321.435547 C308.791985,321.854755 309.748023,321.897563 310.595703,321.552734 L310.595703,321.552734 Z" id="Path" fill="#607BED"></path>
                            <path d="M297.060547,329.365234 L305.849609,324.316406 C306.542969,323.896484 306.455078,323.193359 305.634766,322.724609 L296.962891,317.685547 C296.113495,317.218914 295.094951,317.175572 294.208984,317.568359 L285.419922,322.763672 C284.716797,323.164062 284.804688,323.896484 285.625,324.355469 L294.296875,329.365234 C295.162095,329.805335 296.185562,329.805335 297.050781,329.365234 L297.060547,329.365234 Z" id="Path" fill="#607BED"></path>
                            <path d="M283.535156,337.1875 L292.324219,332.128906 C293.027344,331.738281 292.929687,331.005859 292.119141,330.537109 L283.447266,325.527344 C282.599714,325.041866 281.5692,324.998169 280.683594,325.410156 L271.894531,330.46875 C271.191406,330.888672 271.289062,331.591797 272.080078,332.060547 L280.771484,337.089844 C281.623595,337.564238 282.651686,337.600566 283.535156,337.1875 Z" id="Path" fill="#607BED"></path>
                            <path d="M269.980469,345.029297 L278.769531,339.951172 C279.472656,339.550781 279.404297,338.847656 278.583984,338.378906 L269.892578,333.349609 C269.050073,332.883397 268.037506,332.840001 267.158203,333.232422 L258.369141,338.310547 C257.666016,338.710937 257.734375,339.414062 258.554687,339.882812 L267.246094,344.912109 C268.088598,345.378322 269.101165,345.421718 269.980469,345.029297 Z" id="Path" fill="#607BED"></path>
                            <path d="M256.445313,352.851562 L265.234375,347.792969 C265.9375,347.373047 265.839844,346.669922 265.048828,346.201172 L256.347656,341.171875 C255.506889,340.699521 254.491379,340.655999 253.613281,341.054688 L244.824219,346.181641 C244.101563,346.572266 244.199219,347.304687 245.009766,347.773437 L253.701172,352.773437 C254.546326,353.252952 255.574246,353.282216 256.445313,352.851562 L256.445313,352.851562 Z" id="Path" fill="#607BED"></path>
                            <path d="M242.988281,360.693359 L251.777344,355.615234 C252.480469,355.214844 252.392578,354.482422 251.591797,354.023438 L242.900391,349.013672 C242.052266,348.542511 241.031569,348.499077 240.146484,348.896484 L231.357422,353.945312 C230.654297,354.365234 230.751953,355.068359 231.5625,355.537109 L240.234375,360.576172 C241.097183,361.057452 242.137137,361.100935 243.037109,360.693359 L242.988281,360.693359 Z" id="Path" fill="#607BED"></path>
                            <path d="M229.394531,368.505859 L238.183594,363.457031 C238.886719,363.027344 238.789062,362.324219 237.96875,361.865234 L229.306641,356.826172 C228.453805,356.359317 227.432264,356.316001 226.542969,356.708984 L217.753906,361.787109 C217.050781,362.1875 217.148437,362.910156 217.958984,363.378906 L226.630859,368.388672 C227.479796,368.869334 228.507952,368.912931 229.394531,368.505859 L229.394531,368.505859 Z" id="Path" fill="#607BED"></path>
                            <path d="M215.820312,376.347656 L224.609375,371.269531 C225.332031,370.869141 225.244141,370.146484 224.423828,369.677734 L215.732422,364.667969 C214.892552,364.192473 213.875519,364.148886 212.998047,364.550781 L204.208984,369.589844 C203.515625,370.009766 203.603516,370.712891 204.404297,371.181641 L213.095703,376.210938 C213.933765,376.688039 214.948604,376.738781 215.830078,376.347656 L215.820312,376.347656 Z" id="Path" fill="#607BED"></path>
                            <path d="M202.304688,384.169922 L211.09375,379.091797 C211.796875,378.691406 211.728516,377.988281 210.908203,377.519531 L202.216797,372.490234 C201.375589,372.019433 200.360826,371.975943 199.482422,372.373047 L190.693359,377.451172 C189.990234,377.851562 190.058594,378.554688 190.878906,379.042969 L199.570312,384.052734 C200.412817,384.518947 201.425384,384.562343 202.304688,384.169922 L202.304688,384.169922 Z" id="Path" fill="#607BED"></path>
                            <path d="M304.189453,310.009766 L312.978516,304.931641 C313.681641,304.53125 313.59375,303.828125 312.773438,303.359375 L304.101563,298.330078 C303.23378,297.900802 302.215439,297.900802 301.347656,298.330078 L292.558594,303.408203 C291.865234,303.808594 291.953125,304.511719 292.773438,304.980469 L301.416016,309.863281 C302.273211,310.33959 303.305019,310.383035 304.199219,309.980469 L304.189453,310.009766 Z" id="Path" fill="#607BED"></path>
                            <path d="M317.929688,302.070312 L326.71875,296.992187 C327.421875,296.601562 327.333984,295.869141 326.513672,295.400391 L317.792969,290.390625 C316.930112,289.940774 315.901919,289.940774 315.039063,290.390625 L306.25,295.449219 C305.546875,295.869141 305.634766,296.572266 306.455078,297.041016 L315.126953,302.070312 C316.007317,302.519034 317.049323,302.519034 317.929688,302.070312 Z" id="Path" fill="#607BED"></path>
                            <path d="M331.787109,294.111328 L350.664062,283.203125 C351.367188,282.802734 351.298828,282.080078 350.478516,281.611328 L341.787109,276.601562 C340.928716,276.161715 339.911128,276.161715 339.052734,276.601562 L320.107422,287.34375 C319.404297,287.763672 319.492188,288.466797 320.292969,288.935547 L328.984375,293.964844 C329.843063,294.460508 330.890042,294.504284 331.787109,294.082031 L331.787109,294.111328 Z" id="Path" fill="#607BED"></path>
                            <path d="M322.070312,284.423828 L337.373047,275.576172 C338.095703,275.15625 337.998047,274.453125 337.1875,273.984375 L328.496094,268.925781 C327.653589,268.459569 326.641022,268.416173 325.761719,268.808594 L310.429688,277.685547 C309.726562,278.076172 309.824219,278.808594 310.634766,279.277344 L319.306641,284.287109 C320.156394,284.760274 321.178008,284.810813 322.070312,284.423828 L322.070312,284.423828 Z" id="Path" fill="#607BED"></path>
                            <path d="M290.664062,317.832031 L299.453125,312.773438 C300.15625,312.353516 300.058594,311.650391 299.238281,311.181641 L290.576172,306.152344 C289.709883,305.70242 288.678789,305.70242 287.8125,306.152344 L279.023438,311.035156 C278.320312,311.435547 278.417969,312.158203 279.208984,312.626953 L287.900391,317.636719 C288.735704,318.15132 289.773154,318.21364 290.664062,317.802734 L290.664062,317.832031 Z" id="Path" fill="#607BED"></path>
                            <path d="M277.109375,325.673828 L285.898438,320.595703 C286.601563,320.195312 286.533203,319.462891 285.712891,319.003906 L277.021484,313.994141 C276.180276,313.523339 275.165514,313.479849 274.287109,313.876953 L265.498047,318.925781 C264.804688,319.355469 264.873047,320.048828 265.693359,320.517578 L274.384766,325.556641 C275.22727,326.022853 276.239837,326.066249 277.119141,325.673828 L277.109375,325.673828 Z" id="Path" fill="#607BED"></path>
                            <path d="M263.574219,333.486328 L272.363281,328.4375 C273.056641,328.007812 272.96875,327.314453 272.167969,326.845703 L263.476562,321.806641 C262.634058,321.340428 261.621491,321.297032 260.742188,321.689453 L251.953125,326.767578 C251.230469,327.167969 251.318359,327.890625 252.138672,328.359375 L260.830078,333.369141 C261.666156,333.857704 262.689641,333.901567 263.564453,333.486328 L263.574219,333.486328 Z" id="Path" fill="#607BED"></path>
                            <path d="M250,341.328125 L258.789062,336.25 C259.492188,335.849609 259.404297,335.126953 258.583984,334.658203 L250,329.648438 C249.153188,329.172644 248.130265,329.129116 247.246094,329.53125 L238.28125,334.589844 C237.578125,335.009766 237.666016,335.712891 238.486328,336.181641 L247.158203,341.210938 C248.029927,341.710226 249.090127,341.753945 250,341.328125 L250,341.328125 Z" id="Path" fill="#607BED"></path>
                            <path d="M236.513672,349.150391 L245.302734,344.072266 C246.005859,343.671875 245.917969,342.96875 245.097656,342.5 L236.425781,337.470703 C235.577657,336.999542 234.55696,336.956108 233.671875,337.353516 L224.882813,342.431641 C224.189453,342.832031 224.277344,343.535156 225.097656,344.023437 L233.769531,349.033203 C234.605432,349.485427 235.602732,349.528631 236.474609,349.150391 L236.513672,349.150391 Z" id="Path" fill="#607BED"></path>
                            <path d="M222.958984,356.972656 L231.748047,351.914062 C232.470703,351.494141 232.373047,350.791016 231.5625,350.322266 L222.871094,345.283203 C222.0127,344.843355 220.995112,344.843355 220.136719,345.283203 L211.347656,350.341797 C210.644531,350.761719 210.742187,351.464844 211.533203,351.933594 L220.224609,356.972656 C221.083003,357.412504 222.100591,357.412504 222.958984,356.972656 L222.958984,356.972656 Z" id="Path" fill="#607BED"></path>
                            <path d="M209.433594,364.902344 L218.222656,359.824219 C218.925781,359.423828 218.857422,358.720703 218.037109,358.232422 L209.345703,353.203125 C208.504495,352.732324 207.489732,352.688834 206.611328,353.085938 L197.822266,358.164062 C197.119141,358.564453 197.1875,359.257812 198.007812,359.726562 L206.699219,364.765625 C207.538612,365.238144 208.551253,365.288776 209.433594,364.902344 L209.433594,364.902344 Z" id="Path" fill="#607BED"></path>
                            <path d="M195.908203,372.626953 L204.697266,367.568359 C205.400391,367.148437 205.302734,366.445312 204.511719,365.976562 L195.820312,360.947266 C194.967477,360.480411 193.945935,360.437094 193.056641,360.830078 L184.267578,365.908203 C183.564453,366.308594 183.662109,367.03125 184.472656,367.5 L193.144531,372.509766 C193.993468,372.990428 195.021624,373.034025 195.908203,372.626953 Z" id="Path" fill="#607BED"></path>
                            <path d="M182.373047,380.46875 L191.162109,375.390625 C191.865234,374.990234 191.777344,374.267578 190.957031,373.798828 L182.265625,368.789063 C181.396623,368.350392 180.370955,368.350392 179.501953,368.789063 L170.712891,373.847656 C170.009766,374.267578 170.107422,374.970703 170.927734,375.439453 L179.589844,380.46875 C180.465644,380.907752 181.497246,380.907752 182.373047,380.46875 Z" id="Path" fill="#607BED"></path>
                            <path d="M158.300781,394.375 L177.421875,383.330078 C178.144531,382.910156 178.046875,382.207031 177.236328,381.738281 L168.544922,376.611328 C167.684275,376.18092 166.671193,376.18092 165.810547,376.611328 L146.669922,387.695312 C145.966797,388.085938 146.064453,388.818359 146.875,389.287109 L155.566406,394.287109 C156.407383,394.766304 157.430766,394.799198 158.300781,394.375 L158.300781,394.375 Z" id="Path" fill="#607BED"></path>
                            <path d="M131.943359,379.140625 L148.095703,369.775391 C148.798828,369.375 148.701172,368.671875 147.910156,368.183594 L139.208984,363.173828 C138.371686,362.70163 137.359125,362.658079 136.484375,363.056641 L120.332031,372.421875 C119.628906,372.8125 119.697266,373.544922 120.517578,374.013672 L129.208984,379.023437 C130.052745,379.485163 131.063189,379.528468 131.943359,379.140625 L131.943359,379.140625 Z" id="Path" fill="#607BED"></path>
                            <path d="M266.943359,316.308594 L275.732422,311.230469 C276.435547,310.830078 276.367188,310.126953 275.546875,309.658203 L266.855469,304.628906 C266.01426,304.158105 264.999498,304.114615 264.121094,304.511719 L255.332031,309.589844 C254.628906,309.990234 254.697266,310.693359 255.517578,311.162109 L264.208984,316.191406 C265.051489,316.657619 266.064056,316.701014 266.943359,316.308594 L266.943359,316.308594 Z" id="Path" fill="#607BED"></path>
                            <path d="M280.820312,308.28125 L289.609375,303.222656 C290.302734,302.802734 290.214844,302.099609 289.394531,301.630859 L280.722656,296.601562 C279.857437,296.161462 278.83397,296.161462 277.96875,296.601562 L269.179688,301.679688 C268.476562,302.070312 268.564453,302.802734 269.384766,303.271484 L278.056641,308.28125 C278.92186,308.72135 279.945327,308.72135 280.810547,308.28125 L280.820312,308.28125 Z" id="Path" fill="#607BED"></path>
                            <path d="M294.677734,300.244141 L303.466797,295.195312 C304.169922,294.775391 304.072266,294.072266 303.251953,293.603516 L294.560547,288.564453 C293.702154,288.124605 292.684565,288.124605 291.826172,288.564453 L283.037109,293.623047 C282.333984,294.042969 282.431641,294.746094 283.222656,295.214844 L291.914062,300.244141 C292.77741,300.705949 293.814387,300.705949 294.677734,300.244141 Z" id="Path" fill="#607BED"></path>
                            <path d="M308.59375,292.333984 L317.382812,287.255859 C318.085938,286.855469 317.988281,286.132812 317.197266,285.664062 L308.476562,280.634766 C307.618169,280.194918 306.600581,280.194918 305.742187,280.634766 L296.953125,285.693359 C296.230469,286.113281 296.318359,286.816406 297.138672,287.285156 L305.830078,292.314453 C306.694807,292.764018 307.722754,292.771283 308.59375,292.333984 Z" id="Path" fill="#607BED"></path>
                            <path d="M253.408203,324.121094 L262.197266,319.072266 C262.890625,318.652344 262.802734,317.949219 262.011719,317.480469 L253.310547,312.441406 C252.461151,311.974774 251.442607,311.931432 250.556641,312.324219 L241.767578,317.412109 C241.064453,317.802734 241.152344,318.535156 241.972656,319.003906 L250.644531,324.013672 C251.487297,324.505973 252.519884,324.546251 253.398438,324.121094 L253.408203,324.121094 Z" id="Path" fill="#607BED"></path>
                            <path d="M239.882812,331.972656 L248.671875,326.884766 C249.375,326.494141 249.277344,325.761719 248.466797,325.292969 L239.765625,320.3125 C238.91623,319.845868 237.897685,319.802525 237.011719,320.195312 L228.222656,325.253906 C227.519531,325.673828 227.617188,326.376953 228.4375,326.845703 L237.109375,331.884766 C237.960003,332.346968 238.976463,332.390222 239.863281,332.001953 L239.882812,331.972656 Z" id="Path" fill="#607BED"></path>
                            <path d="M226.347656,339.785156 L235.136719,334.726562 C235.839844,334.306641 235.742187,333.603516 234.921875,333.134766 L226.230469,328.125 C225.381073,327.658368 224.362529,327.615025 223.476562,328.007812 L214.6875,333.085937 C213.984375,333.486328 214.082031,334.208984 214.873047,334.677734 L223.564453,339.6875 C224.409911,340.168032 225.435136,340.211658 226.318359,339.804687 L226.347656,339.785156 Z" id="Path" fill="#607BED"></path>
                            <path d="M212.802734,347.65625 L221.591797,342.578125 C222.294922,342.177734 222.216797,341.455078 221.40625,340.986328 L212.617188,335.976562 C211.758794,335.536715 210.741206,335.536715 209.882812,335.976562 L201.09375,341.035156 C200.390625,341.455078 200.46875,342.158203 201.279297,342.626953 L209.960938,347.65625 C210.8502,348.125053 211.913472,348.125053 212.802734,347.65625 L212.802734,347.65625 Z" id="Path" fill="#607BED"></path>
                            <path d="M199.267578,355.537109 L208.056641,350.458984 C208.759766,350.058594 208.671875,349.365234 207.871094,348.896484 L199.179688,343.837891 C198.337183,343.371678 197.324616,343.328282 196.445312,343.720703 L187.65625,348.798828 C186.933594,349.199219 187.021484,349.902344 187.841797,350.390625 L196.533203,355.400391 C197.371265,355.877492 198.386104,355.928234 199.267578,355.537109 L199.267578,355.537109 Z" id="Path" fill="#607BED"></path>
                            <path d="M185.742188,363.28125 L194.53125,358.232422 C195.234375,357.802734 195.136719,357.109375 194.316406,356.640625 L185.625,351.5625 C184.755998,351.123829 183.73033,351.123829 182.861328,351.5625 L174.072266,356.621094 C173.369141,357.021484 173.466797,357.744141 174.287109,358.212891 L182.949219,363.242188 C183.815507,363.692111 184.846602,363.692111 185.712891,363.242188 L185.742188,363.28125 Z" id="Path" fill="#607BED"></path>
                            <path d="M172.207031,371.09375 L180.996094,366.015625 C181.689453,365.615234 181.601563,364.892578 180.78125,364.423828 L172.109375,359.414062 C171.241593,358.984786 170.223251,358.984786 169.355469,359.414062 L160.566406,364.492188 C159.863281,364.892578 159.951172,365.595703 160.751953,366.064453 L169.443359,371.09375 C170.311225,371.537169 171.339166,371.537169 172.207031,371.09375 Z" id="Path" fill="#607BED"></path>
                            <path d="M158.652344,378.90625 L167.441406,373.857422 C168.164062,373.427734 168.066406,372.734375 167.246094,372.265625 L158.554687,367.207031 C157.712183,366.740819 156.699616,366.697423 155.820312,367.089844 L147.03125,372.167969 C146.328125,372.568359 146.425781,373.291016 147.216797,373.759766 L155.908203,378.769531 C156.743512,379.267793 157.771645,379.319017 158.652344,378.90625 Z" id="Path" fill="#607BED"></path>
                            <path d="M145.126953,386.767578 L153.916016,381.689453 C154.619141,381.289062 154.550781,380.566406 153.730469,380.097656 L145.039062,375.087891 C144.180669,374.648043 143.163081,374.648043 142.304688,375.087891 L133.515625,380.146484 C132.8125,380.566406 132.880859,381.269531 133.701172,381.738281 L142.392578,386.767578 C143.253225,387.197986 144.266307,387.197986 145.126953,386.767578 Z" id="Path" fill="#607BED"></path>
                            <path d="M274.072266,297.021484 L282.861328,291.943359 C283.564453,291.542969 283.496094,290.810547 282.675781,290.351562 L273.984375,285.3125 C273.123728,284.882092 272.110647,284.882092 271.25,285.3125 L262.460938,290.371094 C261.767578,290.791016 261.835938,291.494141 262.65625,291.962891 L271.347656,296.992187 C272.208303,297.422596 273.221385,297.422596 274.082031,296.992187 L274.072266,297.021484 Z" id="Path" fill="#607BED"></path>
                            <path d="M287.548828,289.150391 L296.337891,284.072266 C297.03125,283.671875 296.943359,282.96875 296.123047,282.509766 L287.412109,277.470703 C286.559274,277.003848 285.537732,276.960532 284.648437,277.353516 L275.859375,282.431641 C275.15625,282.832031 275.253906,283.535156 276.044922,284.023438 L284.736328,289.033203 C285.600376,289.522479 286.647073,289.566091 287.548828,289.150391 Z" id="Path" fill="#607BED"></path>
                            <path d="M301.015625,281.357422 L309.804687,276.298828 C310.507812,275.878906 310.410156,275.175781 309.619141,274.707031 L300.927734,269.677734 C300.056569,269.248245 299.035228,269.248245 298.164063,269.677734 L289.375,274.755859 C288.671875,275.15625 288.769531,275.878906 289.589844,276.347656 L298.251953,281.357422 C299.120955,281.796092 300.146623,281.796092 301.015625,281.357422 L301.015625,281.357422 Z" id="Path" fill="#607BED"></path>
                            <path d="M314.453125,273.613281 L323.242188,268.554688 C323.945313,268.154297 323.876953,267.431641 323.056641,266.962891 L314.365234,261.904297 C313.509673,261.452864 312.486421,261.452864 311.630859,261.904297 L302.841797,266.962891 C302.138672,267.382812 302.207031,268.085937 303.027344,268.554688 L311.71875,273.583984 C312.572424,274.033058 313.590026,274.04396 314.453125,273.613281 L314.453125,273.613281 Z" id="Path" fill="#607BED"></path>
                            <path d="M300.634766,265.556641 L309.423828,260.498047 C310.117188,260.078125 310.029297,259.375 309.208984,258.90625 L306.337891,257.226562 C305.496682,256.755761 304.48192,256.712271 303.603516,257.109375 L294.814453,262.1875 C294.121094,262.587891 294.189453,263.291016 295.009766,263.779297 L297.880859,265.419922 C298.718672,265.921621 299.751381,265.97289 300.634766,265.556641 L300.634766,265.556641 Z" id="Path" fill="#607BED"></path>
                            <path d="M283.037109,275.742188 L291.826172,270.664063 C292.529297,270.263672 292.431641,269.541016 291.621094,269.072266 L288.740234,267.402344 C287.879588,266.971935 286.866506,266.971935 286.005859,267.402344 L277.216797,272.490234 C276.513672,272.880859 276.582031,273.613281 277.402344,274.082031 L280.332031,275.742187 C281.189282,276.17242 282.19939,276.17242 283.056641,275.742187 L283.037109,275.742188 Z" id="Path" fill="#607BED"></path>
                            <path d="M269.628906,283.486328 L278.417969,278.408203 C279.121094,278.007812 279.023438,277.304688 278.203125,276.835937 L275.332031,275.175781 C274.473638,274.735933 273.45605,274.735933 272.597656,275.175781 L263.808594,280.234375 C263.105469,280.654297 263.173828,281.357422 263.994141,281.826172 L266.865234,283.486328 C267.725881,283.916736 268.738963,283.916736 269.599609,283.486328 L269.628906,283.486328 Z" id="Path" fill="#607BED"></path>
                            <path d="M256.240234,291.240234 L265.029297,286.181641 C265.732422,285.761719 265.634766,285.058594 264.824219,284.589844 L261.943359,282.96875 C261.082713,282.538342 260.069631,282.538342 259.208984,282.96875 L250.419922,288.056641 C249.716797,288.447266 249.785156,289.150391 250.605469,289.619141 L253.486328,291.279297 C254.357779,291.707175 255.38127,291.692657 256.240234,291.240234 Z" id="Path" fill="#607BED"></path>
                            <path d="M242.822266,299.003906 L251.611328,293.925781 C252.314453,293.535156 252.216797,292.802734 251.396484,292.333984 L248.525391,290.673828 C247.682886,290.207616 246.670319,290.16422 245.791016,290.556641 L237.001953,295.634766 C236.298828,296.035156 236.367188,296.757812 237.1875,297.226562 L240.058594,298.886719 C240.909309,299.361129 241.934444,299.404598 242.822266,299.003906 L242.822266,299.003906 Z" id="Path" fill="#607BED"></path>
                            <path d="M167.96875,342.314453 L176.757813,337.236328 C177.480469,336.835938 177.382813,336.113281 176.5625,335.644531 L173.632813,333.984375 C172.772166,333.553967 171.759084,333.553967 170.898438,333.984375 L162.109375,339.0625 C161.386719,339.462891 161.474609,340.185547 162.294922,340.654297 L165.166016,342.314453 C166.026662,342.744861 167.039744,342.744861 167.900391,342.314453 L167.96875,342.314453 Z" id="Path" fill="#607BED"></path>
                            <path d="M154.521484,350.058594 L163.310547,344.980469 C164.003906,344.589844 163.916016,343.886719 163.095703,343.417969 L160.224609,341.796875 C159.38474,341.321379 158.367707,341.277792 157.490234,341.679688 L148.701172,346.738281 C148.007813,347.158203 148.076172,347.861328 148.896484,348.330078 L151.767578,349.990234 C152.621833,350.451963 153.645373,350.47737 154.521484,350.058594 L154.521484,350.058594 Z" id="Path" fill="#607BED"></path>
                            <path d="M141.132813,357.880859 L149.921875,352.822266 C150.625,352.402344 150.527344,351.699219 149.707031,351.230469 L146.835938,349.570312 C145.975291,349.139904 144.962209,349.139904 144.101562,349.570312 L135.3125,354.648438 C134.609375,355.048828 134.677734,355.751953 135.498047,356.240234 L138.369141,357.880859 C139.232488,358.342668 140.269465,358.342668 141.132813,357.880859 Z" id="Path" fill="#607BED"></path>
                            <path d="M127.714844,365.585937 L136.503906,360.507812 C137.197266,360.107422 137.109375,359.375 136.289062,358.916016 L133.417969,357.246094 C132.559575,356.806246 131.541987,356.806246 130.683594,357.246094 L121.894531,362.304688 C121.201172,362.705078 121.269531,363.427734 122.080078,363.896484 L124.960937,365.556641 C125.824146,365.995176 126.842501,366.006009 127.714844,365.585937 Z" id="Path" fill="#607BED"></path>
                            <path d="M260.537109,304.765625 L269.326172,299.707031 C270.019531,299.287109 269.931641,298.583984 269.130859,298.115234 L260.439453,293.085938 C259.571671,292.656661 258.553329,292.656661 257.685547,293.085938 L248.896484,298.164062 C248.193359,298.564453 248.28125,299.287109 249.101563,299.755859 L257.773438,304.765625 C258.641303,305.209044 259.669244,305.209044 260.537109,304.765625 Z" id="Path" fill="#607BED"></path>
                            <path d="M247.011719,312.607422 L255.800781,307.529297 C256.503906,307.128906 256.40625,306.40625 255.595703,305.9375 L246.923828,300.927734 C246.054826,300.489064 245.029158,300.489064 244.160156,300.927734 L235.371094,305.986328 C234.667969,306.40625 234.765625,307.109375 235.585938,307.578125 L244.248047,312.607422 C245.119212,313.036911 246.140553,313.036911 247.011719,312.607422 L247.011719,312.607422 Z" id="Path" fill="#607BED"></path>
                            <path d="M233.476563,320.429688 L242.265625,315.351563 C242.958984,314.951172 242.871094,314.248047 242.050781,313.779297 L233.398438,308.720703 C232.530655,308.291427 231.512314,308.291427 230.644531,308.720703 L222.001953,313.710938 C221.298828,314.111328 221.386719,314.804688 222.1875,315.302734 L230.878906,320.3125 C231.686312,320.728351 232.634992,320.771149 233.476563,320.429688 L233.476563,320.429688 Z" id="Path" fill="#607BED"></path>
                            <path d="M219.921875,328.242188 L228.710938,323.193359 C229.414062,322.763672 229.335938,322.070313 228.525391,321.601562 L219.824219,316.5625 C218.965825,316.122652 217.948237,316.122652 217.089844,316.5625 L208.300781,321.621094 C207.597656,322.041016 207.675781,322.744141 208.486328,323.212891 L217.275391,328.154297 C218.092691,328.59246 219.067444,328.624952 219.912109,328.242187 L219.921875,328.242188 Z" id="Path" fill="#607BED"></path>
                            <path d="M206.396484,336.083984 L215.185547,331.005859 C215.888672,330.605469 215.791016,329.912109 215,329.414062 L206.308594,324.404297 C205.447947,323.973889 204.434865,323.973889 203.574219,324.404297 L194.785156,329.482422 C194.052734,329.882812 194.150391,330.585937 194.970703,331.054687 L203.662109,336.083984 C204.522756,336.514393 205.535838,336.514393 206.396484,336.083984 L206.396484,336.083984 Z" id="Path" fill="#607BED"></path>
                            <path d="M192.861328,343.837891 L201.650391,338.779297 C202.353516,338.359375 202.255859,337.65625 201.435547,337.1875 L192.773438,332.128906 C191.902272,331.699417 190.880931,331.699417 190.009766,332.128906 L181.220703,337.207031 C180.517578,337.607422 180.615234,338.339844 181.425781,338.798828 L190.097656,343.808594 C190.960814,344.261241 191.988769,344.272138 192.861328,343.837891 Z" id="Path" fill="#607BED"></path>
                            <path d="M179.335938,351.748047 L188.125,346.669922 C188.828125,346.269531 188.740234,345.546875 187.919922,345.078125 L179.248047,340.068359 C178.382827,339.628259 177.35936,339.628259 176.494141,340.068359 L167.705078,345.126953 C167.011719,345.546875 167.099609,346.25 167.890625,346.71875 L176.591797,351.748047 C177.459579,352.177323 178.477921,352.177323 179.345703,351.748047 L179.335938,351.748047 Z" id="Path" fill="#607BED"></path>
                            <path d="M165.878906,359.570312 L174.667969,354.511719 C175.390625,354.091797 175.302734,353.388672 174.482422,352.919922 L165.791016,347.890625 C164.932622,347.450777 163.915034,347.450777 163.056641,347.890625 L154.21875,352.851562 C153.525391,353.242187 153.59375,353.974609 154.404297,354.443359 L163.105469,359.453125 C163.966947,359.939092 165.009164,359.982669 165.908203,359.570312 L165.878906,359.570312 Z" id="Path" fill="#607BED"></path>
                            <path d="M152.255859,367.382813 L161.044922,362.324219 C161.748047,361.933594 161.679688,361.201172 160.859375,360.732422 L152.167969,355.732422 C151.37515,355.258353 150.405182,355.185967 149.550781,355.537109 L140.761719,360.595703 C140.039062,361.015625 140.136719,361.71875 140.957031,362.1875 L149.53125,367.246094 C150.361535,367.737528 151.38055,367.788662 152.255859,367.382813 Z" id="Path" fill="#607BED"></path>
                            <path d="M337.890625,305.722656 L363.59375,290.810547 C364.296875,290.390625 364.199219,289.6875 363.408203,289.21875 L354.716797,284.189453 C353.85615,283.759045 352.843068,283.759045 351.982422,284.189453 L326.298828,299.121094 C325.595703,299.550781 325.683594,300.244141 326.484375,300.712891 L335.175781,305.751953 C336.033553,306.175981 337.042204,306.165096 337.890625,305.722656 L337.890625,305.722656 Z" id="Path" fill="#607BED"></path>
                            <path d="M171.650391,401.914063 L197.353516,386.982422 C198.056641,386.582031 197.988281,385.859375 197.167969,385.390625 L188.476563,380.380859 C187.640485,379.892296 186.617,379.848433 185.742188,380.263672 L160.039063,395.195312 C159.335938,395.595703 159.423828,396.298828 160.224609,396.767578 L168.916016,401.796875 C169.759776,402.258601 170.77022,402.301905 171.650391,401.914062 L171.650391,401.914063 Z" id="Path" fill="#607BED"></path>
                            <path d="M225.771484,387.890625 L234.560547,382.832031 C235.263672,382.412109 235.166016,381.708984 234.375,381.240234 L224.023438,375.253906 C223.152272,374.824417 222.130931,374.824417 221.259766,375.253906 L212.470703,380.332031 C211.767578,380.732422 211.865234,381.455078 212.685547,381.923828 L223.007813,387.890625 C223.876815,388.329296 224.902482,388.329296 225.771484,387.890625 L225.771484,387.890625 Z" id="Path" fill="#607BED"></path>
                            <path d="M324.052734,331.054688 L338.076172,322.929688 C338.769531,322.529297 338.681641,321.835938 337.890625,321.337891 L327.529297,315.371094 C326.690243,314.905078 325.680656,314.861655 324.804687,315.253906 L310.78125,323.349609 C310.078125,323.779297 310.146484,324.472656 310.966797,324.941406 L321.318359,330.9375 C322.160864,331.403712 323.173431,331.447108 324.052734,331.054688 Z" id="Path" fill="#607BED"></path>
                            <path d="M238.808594,380.351563 L252.832031,372.255859 C253.525391,371.835938 253.4375,371.132812 252.617187,370.664062 L242.285156,364.667969 C241.435761,364.201336 240.417216,364.157994 239.53125,364.550781 L225.507812,372.675781 C224.814453,373.076172 224.902344,373.779297 225.722656,374.248047 L236.074219,380.234375 C236.915427,380.705176 237.93019,380.748666 238.808594,380.351563 Z" id="Path" fill="#607BED"></path>
                            <path d="M304.541016,342.333984 L318.564453,334.238281 C319.287109,333.818359 319.189453,333.115234 318.378906,332.646484 L308.017578,326.650391 C307.156932,326.219982 306.14385,326.219982 305.283203,326.650391 L291.269531,334.775391 C290.566406,335.175781 290.664062,335.898437 291.455078,336.367187 L301.806641,342.333984 C302.667287,342.764393 303.680369,342.764393 304.541016,342.333984 L304.541016,342.333984 Z" id="Path" fill="#607BED"></path>
                            <path d="M305.175781,326.611328 L244.228516,361.865234 C243.457031,362.285156 243.457031,362.988281 244.228516,363.427734 L254.677734,369.589844 C255.540826,370.009767 256.549017,370.009767 257.412109,369.589844 L318.349609,334.335938 L305.175781,326.611328 Z" id="Path" fill="#607BED"></path>
                            <path d="M187.939453,402.080078 L178.173828,407.744141 C177.617188,408.066406 177.685547,408.652344 178.339844,409.033203 L182.568359,411.484375 C183.305586,411.855284 184.174883,411.855284 184.912109,411.484375 L194.677734,405.849609 C195.263672,405.498047 195.195312,404.873047 194.541016,404.53125 L190.283203,402.080078 C189.549092,401.696268 188.673564,401.696268 187.939453,402.080078 Z" id="Path" fill="#607BED"></path>
                            <path d="M201.582031,394.189453 L191.816406,399.833984 C191.25,400.185547 191.328125,400.761719 191.982422,401.142578 L196.210938,403.603516 C196.944763,403.974265 197.811097,403.974265 198.544922,403.603516 L208.310547,397.929687 C208.896484,397.607422 208.818359,397.021484 208.164062,396.650391 L203.916016,394.306641 C203.207918,393.89884 202.34723,393.855261 201.601562,394.189453 L201.582031,394.189453 Z" id="Path" fill="#607BED"></path>
                            <path d="M215.107422,386.367188 L205.341797,392.011719 C204.755859,392.34375 204.824219,392.919922 205.498047,393.320312 L209.726562,395.664062 C210.458984,396.054687 211.337891,396.054687 212.070313,395.664062 L221.835938,390.019531 C222.392578,389.697266 222.324219,389.111328 221.669922,388.710937 L217.441406,386.367188 C216.702077,385.976534 215.817454,385.976534 215.078125,386.367188 L215.107422,386.367188 Z" id="Path" fill="#607BED"></path>
                            <path d="M194.101562,389.882812 L184.335937,395.527344 C183.759766,395.849609 183.828125,396.435547 184.482422,396.806641 L188.730469,399.267578 C189.46539,399.648074 190.339297,399.648074 191.074219,399.267578 L200.839844,393.623047 C201.396484,393.271484 201.328125,392.714844 200.673828,392.314453 L196.445312,389.970703 C195.735346,389.526489 194.842805,389.493018 194.101562,389.882812 L194.101562,389.882812 Z" id="Path" fill="#607BED"></path>
                            <path d="M55.6640625,179.6875 C56.3773163,179.670892 57.073972,179.468963 57.6855469,179.101562 C59.7265137,177.902772 60.8324803,175.582562 60.4785156,173.242187 C60.3002154,172.299277 59.6626247,171.507785 58.7792969,171.132812 C57.7333191,170.731361 56.5587959,170.850988 55.6152344,171.455078 C53.5773954,172.65892 52.4639485,174.970574 52.7929687,177.314453 L52.7929687,177.314453 C52.9767922,178.248767 53.6032302,179.035457 54.4726562,179.423828 C54.8468834,179.594366 55.2528226,179.684205 55.6640625,179.6875 L55.6640625,179.6875 Z M57.6171875,171.787109 C57.8942546,171.791452 58.1672262,171.854702 58.4179687,171.972656 C59.0354597,172.230924 59.477694,172.787402 59.5898437,173.447266 C59.8751677,175.388095 58.9712881,177.311243 57.2949219,178.330078 C56.6092384,178.760652 55.7654679,178.857596 55,178.59375 C54.3825091,178.335482 53.9402748,177.779004 53.828125,177.119141 L53.828125,177.119141 C53.5264058,175.175923 54.4343792,173.244064 56.1230469,172.236328 C56.5653991,171.963542 57.0689682,171.805757 57.5878906,171.777344 L57.6171875,171.787109 Z" id="Shape" fill="#607BED"></path>
                            <path d="M44.921875,185.546875 C45.6305666,185.53811 46.3244354,185.342749 46.9335937,184.980469 C48.9879016,183.791826 50.10703,181.468376 49.7558594,179.121094 C49.5665354,178.179322 48.9387635,177.384628 48.0664062,176.982422 C46.9991005,176.602595 45.8170237,176.728348 44.8535156,177.324219 C42.8062984,178.514537 41.7096612,180.847808 42.0996094,183.183594 L42.0996094,183.183594 C42.3705866,184.567456 43.6214222,185.538938 45.0292969,185.458984 L44.921875,185.546875 Z M46.875,177.65625 C47.1587492,177.658901 47.4397849,177.711802 47.7050781,177.8125 C48.2931265,178.111647 48.7082969,178.667614 48.828125,179.316406 C49.1345093,181.265144 48.2161228,183.202669 46.5136719,184.199219 C45.8281589,184.646278 44.9766542,184.757656 44.1992188,184.501953 C43.5889147,184.221241 43.1547847,183.659426 43.0371094,182.998047 C42.7307251,181.049309 43.6491116,179.111785 45.3515625,178.115234 C45.8123423,177.835764 46.3365249,177.677838 46.875,177.65625 L46.875,177.65625 Z" id="Shape" fill="#607BED"></path>
                            <path d="M31.3085937,190.429687 C31.5081574,191.289269 32.1350351,191.98621 32.96875,192.275391 C33.8098947,192.57699 34.7464362,192.433755 35.4589844,191.894531 C37.322542,190.836314 38.3431607,188.740747 38.0273437,186.621094 C37.8277801,185.761512 37.2009024,185.064572 36.3671875,184.775391 C35.5260428,184.473791 34.5895013,184.617027 33.8769531,185.15625 C32.0176014,186.21841 30.9984743,188.310915 31.3085937,190.429687 Z" id="Path" fill="#607BED"></path>
                            <polygon id="Path" fill="#607BED" points="244.638672 66.40625 250.976562 63.1445312 250.478516 60.546875 244.140625 63.8085938"></polygon>
                            <polygon id="Path" fill="#607BED" points="235.820312 72.265625 242.1875 69.0136719 241.689453 66.40625 235.351562 69.6582031"></polygon>
                            <polygon id="Path" fill="#607BED" points="253.398438 62.5 266.601562 54.6289062 266.152344 51.7578125 252.929688 59.6289062"></polygon>
                        </g>
                    </g>
                </g>
                <path d="M315.429688,403.398438 L365.683594,372.226562 C367.636719,371.005859 367.587891,369.130859 365.546875,368.037109 L329.902344,348.935547 C327.587251,347.856388 324.896766,347.943411 322.65625,349.169922 L272.460938,380.351562 C270.507813,381.572266 270.556641,383.4375 272.597656,384.53125 L308.242188,403.632812 C310.540031,404.696914 313.20605,404.609979 315.429688,403.398438 L315.429688,403.398438 Z" id="Path" fill="#1517A1" opacity="0.3"></path>
                <path d="M272.304687,380.576172 L323.525391,351.005859 C325.803357,349.8537 328.493518,349.8537 330.771484,351.005859 L365.791016,371.230469 C366.323241,371.511715 366.761253,371.942937 367.050781,372.470703 C367.578125,371.494141 367.177734,370.322266 365.791016,369.541016 L330.771484,349.316406 C328.493518,348.164247 325.803357,348.164247 323.525391,349.316406 L272.304687,378.90625 C270.917969,379.707031 270.517578,380.859375 271.044922,381.835938 C271.339803,381.307248 271.775998,380.871053 272.304687,380.576172 L272.304687,380.576172 Z" id="Path" fill="#9198DB"></path>
                <path d="M299.892578,76.3085938 L140.908203,160.097656 C137.050781,162.324219 133.925781,168.291016 133.925781,173.427734 L147.646484,252.587891 C147.646484,257.724609 150.761719,260.087891 154.619141,257.861328 L315.9375,168.232422 L299.892578,76.3085938 Z" id="Path" fill="url(#linearGradient-7)" opacity="0.3"></path>
                <path d="M317.958984,173.623047 L174.902344,252.841797 C170.996094,255.009766 167.089844,253.046875 166.25,248.466797 L152.890625,177.988281 C152.021484,173.408203 154.492187,167.939453 158.398437,165.771484 L301.455078,86.5429688 C305.361328,84.3847656 309.267578,86.3378906 310.107422,90.9179688 L323.466797,161.40625 C324.335938,166.015625 321.865234,171.455078 317.958984,173.623047 Z" id="Path" fill="url(#linearGradient-8)"></path>
                <path d="M306.71875,86.1132813 L301.757812,83.7304688 L301.757812,83.7304688 C299.990507,82.902991 297.924191,83.0279994 296.269531,84.0625 L153.212891,163.291016 C149.306641,165.449219 146.835937,170.917969 147.705078,175.507813 L161.064453,245.986328 C161.335723,248.055516 162.611218,249.85729 164.472656,250.800781 L164.472656,250.800781 L169.638672,253.28125 L169.375,250.537109 L169.726562,250.361328 L312.783203,171.132812 C316.689453,168.974609 319.150391,163.505859 318.291016,158.916016 L304.912109,88.4375 C304.795306,87.801252 304.601839,87.181501 304.335938,86.5917969 L306.71875,86.1132813 Z" id="Path" fill="url(#linearGradient-9)"></path>
                <path d="M147.578125,172.666016 L192.597656,190.087891 L202.109375,184.814453 L150.976563,165.039062 C149.024517,167.130998 147.828246,169.815732 147.578125,172.666016 L147.578125,172.666016 Z" id="Path" fill="url(#linearGradient-10)"></path>
                <path d="M317.958984,173.623047 L174.902344,252.841797 C170.996094,255.009766 167.089844,253.046875 166.25,248.466797 L152.890625,177.988281 C152.021484,173.408203 154.492187,167.939453 158.398437,165.771484 L301.455078,86.5429688 C305.361328,84.3847656 309.267578,86.3378906 310.107422,90.9179688 L323.466797,161.40625 C324.335938,166.015625 321.865234,171.455078 317.958984,173.623047 Z" id="Path" fill="url(#linearGradient-11)"></path>
                <path d="M167.167969,248.789062 L153.808594,178.310547 C152.939453,173.730469 155.410156,168.261719 159.316406,166.09375 L302.373047,86.9140625 C303.695041,86.1099502 305.277712,85.8508404 306.787109,86.1914062 C305.054147,85.434082 303.059167,85.5802343 301.455078,86.5820312 L158.398437,165.771484 C154.492187,167.939453 152.021484,173.408203 152.890625,177.988281 L166.25,248.466797 C166.777344,251.25 168.417969,253.046875 170.488281,253.564453 C168.6711,252.606972 167.432745,250.825926 167.167969,248.789062 Z" id="Path" fill="url(#linearGradient-12)"></path>
                <path d="M295.039062,129.882813 L178.271484,194.453125 C177.373047,194.951172 176.572266,195.234375 175.859375,194.550781 C175.751953,194.443359 175.771484,194.277344 175.742188,194.121094 L172.8125,178.554688 C172.60767,177.288255 173.175854,176.021358 174.257813,175.332031 L291.923828,110.175781 C292.011719,110.117188 292.089844,110.039063 292.197266,110.048828 C293.173828,110.126953 293.359375,110.849609 293.574219,111.943359 L296.708984,126.865234 C296.838618,128.121432 296.172297,129.325484 295.039063,129.882813 L295.039062,129.882813 Z" id="Path" fill="url(#linearGradient-13)"></path>
                <path d="M301.757812,163.691406 L184.746094,228.349609 C183.847656,228.857422 182.666016,229.384766 182.294922,228.486328 C182.244335,228.349829 182.205138,228.209375 182.177734,228.066406 L179.248047,212.5 C179.050468,211.232196 179.621472,209.967556 180.703125,209.277344 L298.339844,144.111328 L298.613281,143.984375 C299.589844,143.642578 300,144.658203 300.205078,145.751953 L303.066406,160.498047 C303.319021,161.729459 302.801909,162.991368 301.757812,163.691406 L301.757812,163.691406 Z" id="Path" fill="url(#linearGradient-14)"></path>
                <path d="M292.177734,110.048828 C292.236395,110.186713 292.278993,110.330891 292.304688,110.478516 L295.234375,126.044922 C295.437235,127.313437 294.864975,128.580858 293.779297,129.267578 L176.142578,194.423828 C176.053765,194.475222 175.958536,194.514628 175.859375,194.541016 C176.002975,194.966237 176.33597,195.300618 176.760591,195.445984 C177.185213,195.59135 177.653271,195.531203 178.027344,195.283203 L295.683594,130.117188 C296.769272,129.430467 297.341532,128.163046 297.138672,126.894531 L294.208984,111.328125 C294.185845,110.85055 293.931085,110.414324 293.526503,110.159515 C293.121922,109.904707 292.618445,109.863389 292.177734,110.048828 Z" id="Path" fill="url(#linearGradient-15)"></path>
                <path d="M298.613281,143.994141 C298.672968,144.128264 298.715618,144.269336 298.740234,144.414062 L301.669922,159.980469 C301.872782,161.248984 301.300522,162.516404 300.214844,163.203125 L182.617188,228.369141 L182.333984,228.486328 C182.47728,228.909393 182.809341,229.241649 183.232321,229.385194 C183.655301,229.52874 184.120997,229.467215 184.492188,229.21875 L302.119141,164.0625 C303.200687,163.368175 303.768142,162.09907 303.564453,160.830078 L300.634766,145.263672 C300.607446,144.790449 300.352829,144.359696 299.951414,144.1076 C299.549999,143.855503 299.051411,143.813228 298.613281,143.994141 L298.613281,143.994141 Z" id="Path" fill="url(#linearGradient-16)"></path>
                <polygon id="Path" fill="url(#linearGradient-17)" points="208.291016 169.804688 210.322266 172.128906 212.744141 168.984375 210.117188 167.197266 213.046875 164.267578 211.494141 162.011719 208.984375 165.15625 208.720703 161.533203 205.273438 163.486328 206.25 166.689453 203.134766 166.689453 202.626953 170.068359 205.927734 169.570313 204.423828 173.681641 207.421875 173.808594"></polygon>
                <polygon id="Path" fill="url(#linearGradient-18)" points="221.816406 162.314453 223.847656 164.638672 226.269531 161.494141 223.632812 159.707031 226.5625 156.777344 225.009766 154.511719 222.5 157.675781 222.236328 154.042969 218.75 155.947266 219.726562 159.150391 216.621094 159.150391 216.113281 162.529297 219.404297 162.03125 217.910156 166.142578 220.908203 166.269531"></polygon>
                <polygon id="Path" fill="url(#linearGradient-19)" points="235.351562 154.824219 237.382812 157.148438 239.804688 154.003906 237.167969 152.216797 240.097656 149.287109 238.535156 147.021484 236.035156 150.185547 235.761719 146.552734 232.324219 148.505859 233.300781 151.708984 230.195312 151.708984 229.677734 155.087891 232.978516 154.589844 231.445312 158.632812 234.443359 158.759766"></polygon>
                <polygon id="Path" fill="url(#linearGradient-20)" points="248.857422 147.333984 250.888672 149.658203 253.320312 146.484375 250.683594 144.697266 253.564453 141.767578 252.011719 139.501953 249.511719 142.666016 249.238281 139.033203 245.800781 140.9375 246.777344 144.140625 243.671875 144.140625 243.154297 147.519531 246.455078 147.021484 244.960938 151.132813 247.958984 151.259766"></polygon>
                <polygon id="Path" fill="url(#linearGradient-21)" points="262.382813 139.84375 264.414063 142.167969 266.845703 139.023437 264.208984 137.236328 267.089844 134.306641 265.537109 132.041016 263.037109 135.205078 262.763672 131.572266 259.326172 133.525391 260.302734 136.728516 257.1875 136.728516 256.679688 140.107422 259.980469 139.609375 258.476563 143.720703 261.474609 143.847656"></polygon>
                <polygon id="Path" fill="url(#linearGradient-22)" points="214.726563 203.740234 216.796875 206.054688 219.21875 202.910156 216.582031 201.123047 219.511719 198.193359 217.958984 195.927734 215.449219 199.091797 215.185547 195.458984 211.738281 197.412109 212.714844 200.625 209.609375 200.625 209.101562 203.994141 212.392578 203.505859 210.898438 207.607422 213.896484 207.734375"></polygon>
                <polygon id="Path" fill="url(#linearGradient-23)" points="228.251953 196.289062 230.283203 198.613281 232.705078 195.46875 230.068359 193.681641 232.998047 190.751953 231.445313 188.476562 228.945313 191.640625 228.671875 188.007812 225.234375 189.912109 226.210938 193.125 223.105469 193.125 222.587891 196.494141 225.888672 196.005859 224.394531 200.107422 227.392578 200.234375"></polygon>
                <polygon id="Path" fill="url(#linearGradient-24)" points="241.777344 188.759766 243.798828 191.09375 246.230469 187.939453 243.59375 186.152344 246.474609 183.222656 244.921875 180.966797 242.421875 184.121094 242.148438 180.488281 238.710938 182.441406 239.6875 185.654297 236.582031 185.654297 236.064453 189.023437 239.365234 188.535156 237.871094 192.636719 240.869141 192.773437"></polygon>
                <polygon id="Path" fill="url(#linearGradient-25)" points="255.292969 181.269531 257.324219 183.59375 259.755859 180.439453 257.119141 178.652344 260 175.722656 258.447266 173.466797 255.947266 176.621094 255.673828 172.988281 252.236328 174.892578 253.212891 178.105469 250.097656 178.105469 249.589844 181.474609 252.890625 180.986328 251.386719 185.087891 254.384766 185.224609"></polygon>
                <polygon id="Path" fill="url(#linearGradient-26)" points="268.818359 173.828125 270.849609 176.162109 273.28125 173.007812 270.644531 171.220703 273.525391 168.291016 271.972656 166.015625 269.472656 169.169922 269.199219 165.537109 265.751953 167.490234 266.728516 170.693359 263.613281 170.693359 263.105469 174.0625 266.40625 173.574219 264.902344 177.675781 267.900391 177.8125"></polygon>
            </g>
            <rect id="Rectangle" x="0" y="1" width="500" height="550"></rect>
        </g>
    </g>
</svg>