<?xml version="1.0" encoding="UTF-8"?>
<svg width="22px" height="18px" viewBox="0 0 22 18" version="1.1" xmlns="http://www.w3.org/2000/svg" xmlns:xlink="http://www.w3.org/1999/xlink">
    <!-- Generator: Sketch 54.1 (76490) - https://sketchapp.com -->
    <title>Group 27</title>
    <desc>Created with Sketch.</desc>
    <g id="web_app" stroke="none" stroke-width="1" fill="none" fill-rule="evenodd">
        <g id="main_ver-2" transform="translate(-284.000000, -26.000000)">
            <g id="Group-27" transform="translate(283.000000, 23.000000)">
                <path d="M21.5,8.68421053 L21.5,4.42105263 C21.5,3.63622693 20.8284271,3 20,3 L2.5,3 C1.67157288,3 1,3.63622693 1,4.42105263 L1,19.5789474 C1,20.3637731 1.67157288,21 2.5,21 L20,21 C20.8284271,21 21.5,20.3637731 21.5,19.5789474 L21.5,15.3157895 C22.3284271,15.3157895 23,14.6795625 23,13.8947368 L23,10.1052632 C23,9.32043746 22.3284271,8.68421053 21.5,8.68421053 Z M20,19.5789474 L2.5,19.5789474 L2.5,4.42105263 L20,4.42105263 L20,8.68421053 L17.5,8.68421053 C16.6715729,8.68421053 16,9.32043746 16,10.1052632 L16,13.8947368 C16,14.6795625 16.6715729,15.3157895 17.5,15.3157895 L20,15.3157895 L20,19.5789474 Z M21.5,13.8947368 L17.5,13.8947368 L17.5,10.1052632 L21.5,10.1052632 L21.5,13.8947368 Z" id="Shape" fill="#FFFFFF"></path>
                <rect id="Rectangle" opacity="0.496954055" x="0" y="0" width="24" height="24"></rect>
            </g>
        </g>
    </g>
</svg>